<svg width="100" height="65" viewBox="0 0 100 65" fill="none" xmlns="http://www.w3.org/2000/svg">
<path d="M50.1899 37.4717C50.4326 37.4717 50.6099 37.5277 50.7219 37.6397C50.8059 37.7237 50.8386 37.8217 50.8199 37.9337C50.8106 38.027 50.7873 38.1017 50.7499 38.1577C50.7219 38.2043 50.6893 38.2417 50.6519 38.2697C50.6053 38.2977 50.5493 38.3303 50.4839 38.3677C50.4279 38.3957 50.3626 38.4143 50.2879 38.4237C50.0453 38.4423 49.8493 38.461 49.6999 38.4797C49.5506 38.489 49.4246 38.4983 49.3219 38.5077C49.2193 38.5077 49.1213 38.5123 49.0279 38.5217C48.9439 38.5217 48.8459 38.5263 48.7339 38.5357C48.6219 38.5357 48.4866 38.545 48.3279 38.5637C48.1693 38.573 47.9639 38.587 47.7119 38.6057C47.6653 38.9043 47.6046 39.2963 47.5299 39.7817C47.4646 40.267 47.3899 40.869 47.3059 41.5877C47.0446 43.6503 46.8766 45.377 46.8019 46.7677C46.7926 46.9543 46.7973 47.1783 46.8159 47.4397C46.8346 47.6917 46.8673 47.981 46.9139 48.3077C46.9233 48.373 46.9046 48.429 46.8579 48.4757C46.8206 48.513 46.7739 48.5317 46.7179 48.5317H46.6899C46.5313 48.5037 46.3679 48.443 46.1999 48.3497C46.1813 48.3403 46.1673 48.331 46.1579 48.3217C46.1579 48.3217 46.1486 48.317 46.1299 48.3077C45.8873 48.0277 45.7659 47.561 45.7659 46.9077C45.7659 45.8997 45.8499 44.4717 46.0179 42.6237C46.1859 40.8037 46.2699 39.6463 46.2699 39.1517C46.2699 39.077 46.2653 39.007 46.2559 38.9417C46.2559 38.867 46.2559 38.797 46.2559 38.7317C46.0133 38.7317 45.7613 38.741 45.4999 38.7597C45.2386 38.769 44.9773 38.7923 44.7159 38.8297C44.4546 38.867 44.2073 38.923 43.9739 38.9977C43.7406 39.063 43.5399 39.1517 43.3719 39.2637C43.2786 39.329 43.2319 39.3803 43.2319 39.4177C43.2319 39.4363 43.2413 39.4643 43.2599 39.5017C43.2786 39.539 43.3486 39.581 43.4699 39.6277C43.5726 39.6743 43.7079 39.7117 43.8759 39.7397C44.0533 39.7677 44.2586 39.7723 44.4919 39.7537C44.6039 39.7443 44.7486 39.7257 44.9259 39.6977C45.1033 39.6697 45.2713 39.6463 45.4299 39.6277C45.5886 39.609 45.7239 39.6043 45.8359 39.6137C45.9573 39.623 46.0179 39.6603 46.0179 39.7257C46.0179 39.763 46.0086 39.8003 45.9899 39.8377C45.8779 40.0243 45.7519 40.169 45.6119 40.2717C45.4813 40.3743 45.3366 40.4537 45.1779 40.5097C45.0753 40.547 44.9679 40.5797 44.8559 40.6077C44.7439 40.6357 44.5526 40.6543 44.2819 40.6637C43.9459 40.673 43.6566 40.6497 43.4139 40.5937C43.1806 40.5283 42.9846 40.4397 42.8259 40.3277C42.6673 40.197 42.5413 40.0383 42.4479 39.8517C42.3546 39.665 42.3173 39.4363 42.3359 39.1657C42.3359 39.1003 42.3499 39.0163 42.3779 38.9137C42.4059 38.8017 42.4526 38.6897 42.5179 38.5777C42.5926 38.4657 42.6953 38.363 42.8259 38.2697C42.9566 38.167 43.1246 38.0877 43.3299 38.0317C43.5446 37.9757 43.8526 37.9197 44.2539 37.8637C44.6553 37.8077 45.1219 37.7563 45.6539 37.7097C45.8313 37.7003 45.9619 37.691 46.0459 37.6817C46.1393 37.6723 46.2186 37.6677 46.2839 37.6677C46.3493 37.6583 46.4146 37.6537 46.4799 37.6537C46.5453 37.6537 46.6386 37.6537 46.7599 37.6537C46.8906 37.6443 47.0679 37.635 47.2919 37.6257C47.5159 37.6163 47.8146 37.6023 48.1879 37.5837C48.6453 37.565 48.9719 37.551 49.1679 37.5417C49.3733 37.523 49.5226 37.509 49.6159 37.4997C49.7093 37.4903 49.7839 37.4857 49.8399 37.4857C49.8959 37.4763 50.0126 37.4717 50.1899 37.4717ZM55.0513 43.1277C55.2007 43.1277 55.2753 43.263 55.2753 43.5337C55.2753 43.5523 55.2707 43.5803 55.2613 43.6177C55.2613 43.655 55.2427 43.7437 55.2053 43.8837C55.1773 44.0237 55.126 44.229 55.0513 44.4997C54.986 44.761 54.888 45.125 54.7573 45.5917C54.5333 46.4037 54.3887 46.889 54.3233 47.0477C54.118 47.561 53.838 47.8177 53.4833 47.8177C52.8113 47.8177 52.4193 47.197 52.3073 45.9557V45.9417L52.2933 45.7317V44.7377C52.2093 45.0643 52.1067 45.4797 51.9853 45.9837C51.864 46.4877 51.7147 47.127 51.5373 47.9017L51.5233 47.9857L51.4533 48.0277C51.3507 48.093 51.2433 48.1257 51.1313 48.1257C50.8607 48.1257 50.66 47.9157 50.5293 47.4957C50.3987 47.0663 50.3333 46.3943 50.3333 45.4797C50.3333 45.237 50.3613 44.8217 50.4173 44.2337C50.4733 43.6363 50.562 42.8477 50.6833 41.8677C50.7953 40.9063 50.8793 40.1177 50.9353 39.5017C51.0007 38.8763 51.0333 38.4283 51.0333 38.1577V37.6957L51.0473 37.6537C51.0847 37.579 51.15 37.5043 51.2433 37.4297C51.3367 37.355 51.4767 37.3177 51.6633 37.3177H51.7053C52.032 37.3363 52.1953 37.4903 52.1953 37.7797C52.1953 37.957 52.1627 38.1483 52.0973 38.3537C52.0133 38.5963 51.9573 38.8203 51.9293 39.0257C51.696 40.4723 51.5187 41.7323 51.3973 42.8057C51.2853 43.879 51.2293 44.775 51.2293 45.4937C51.2387 45.5123 51.2433 45.5357 51.2433 45.5637C51.2433 45.5917 51.2433 45.629 51.2433 45.6757C51.2527 45.713 51.262 45.7597 51.2713 45.8157V45.8437C51.318 45.657 51.3693 45.4517 51.4253 45.2277C51.4907 45.0037 51.5607 44.7563 51.6353 44.4857C51.794 43.851 51.92 43.3517 52.0133 42.9877C52.1067 42.6143 52.1627 42.3717 52.1813 42.2597C52.228 42.0263 52.298 41.877 52.3913 41.8117C52.494 41.737 52.592 41.6997 52.6853 41.6997C52.7507 41.6997 52.8347 41.723 52.9373 41.7697C53.0493 41.8163 53.222 41.9423 53.4553 42.1477L53.5393 42.2177L53.5253 42.3297C53.2547 43.767 53.1193 44.943 53.1193 45.8577C53.1193 46.1657 53.1427 46.413 53.1893 46.5997C53.2453 46.777 53.3153 46.8657 53.3993 46.8657C53.4087 46.8657 53.4413 46.8423 53.4973 46.7957C53.5533 46.7397 53.628 46.6137 53.7213 46.4177C53.796 46.259 53.8847 46.063 53.9873 45.8297C54.09 45.587 54.1833 45.307 54.2673 44.9897C54.314 44.8217 54.3747 44.6257 54.4493 44.4017C54.524 44.1683 54.5987 43.907 54.6733 43.6177C54.692 43.543 54.7247 43.445 54.7713 43.3237C54.8273 43.193 54.9207 43.1277 55.0513 43.1277ZM58.7459 43.0017C58.9699 43.0017 59.0819 43.1137 59.0819 43.3377C59.0819 43.5803 59.0492 43.8417 58.9839 44.1217C58.9186 44.3923 58.8159 44.6817 58.6759 44.9897C58.4052 45.5963 58.0412 45.8997 57.5839 45.8997C57.5559 45.8997 57.5186 45.895 57.4719 45.8857C57.4252 45.867 57.3366 45.8343 57.2059 45.7877C57.1872 45.881 57.1639 45.979 57.1359 46.0817C57.1172 46.175 57.0939 46.2777 57.0659 46.3897V46.4177C56.9819 46.6603 56.9072 46.861 56.8419 47.0197C56.7766 47.1783 56.7159 47.3043 56.6599 47.3977C56.4172 47.7897 56.1139 47.9857 55.7499 47.9857C55.3019 47.9857 54.9706 47.7617 54.7559 47.3137C54.5599 46.9123 54.4619 46.3197 54.4619 45.5357C54.4619 44.6023 54.5366 43.9537 54.6859 43.5897V43.5057C54.6766 43.4497 54.6719 43.403 54.6719 43.3657C54.6719 43.319 54.6719 43.277 54.6719 43.2397V43.2257C54.6906 43.0857 54.7279 42.9877 54.7839 42.9317C54.7932 42.8943 54.8072 42.8337 54.8259 42.7497C54.8446 42.6657 54.8772 42.5303 54.9239 42.3437C54.9519 42.2037 54.9939 42.0917 55.0499 42.0077C55.1152 41.9237 55.1806 41.8583 55.2459 41.8117C55.3112 41.765 55.3766 41.737 55.4419 41.7277C55.5072 41.709 55.5679 41.6997 55.6239 41.6997C55.9132 41.6997 56.2212 41.821 56.5479 42.0637C56.8746 42.297 57.0892 42.5583 57.1919 42.8477C57.2012 42.885 57.2106 42.941 57.2199 43.0157C57.2386 43.0903 57.2526 43.207 57.2619 43.3657C57.2712 43.515 57.2806 43.7203 57.2899 43.9817C57.2992 44.243 57.3039 44.5743 57.3039 44.9757C57.3506 45.013 57.4066 45.0317 57.4719 45.0317C57.5559 45.0317 57.6492 45.0083 57.7519 44.9617C57.8639 44.915 57.9712 44.7843 58.0739 44.5697C58.0926 44.5137 58.1252 44.4063 58.1719 44.2477C58.2279 44.0797 58.2979 43.8043 58.3819 43.4217C58.4379 43.1417 58.5592 43.0017 58.7459 43.0017ZM56.0859 46.6417C56.2259 46.3337 56.3146 46.0957 56.3519 45.9277C56.3986 45.7503 56.4219 45.6243 56.4219 45.5497C56.4219 45.419 56.4126 45.265 56.3939 45.0877C56.3752 44.9103 56.3472 44.7143 56.3099 44.4997C56.2539 44.201 56.2166 43.9957 56.1979 43.8837C56.1886 43.7717 56.1839 43.6923 56.1839 43.6457C56.1839 43.599 56.1839 43.5477 56.1839 43.4917C56.1839 43.4357 56.1932 43.3703 56.2119 43.2957C56.2212 43.221 56.2259 43.1603 56.2259 43.1137C56.2259 43.0577 56.2259 43.0157 56.2259 42.9877C56.2259 42.857 56.2026 42.773 56.1559 42.7357C56.1092 42.689 56.0486 42.6657 55.9739 42.6657C55.9646 42.675 55.9459 42.6983 55.9179 42.7357C55.8992 42.773 55.8712 42.8383 55.8339 42.9317C55.8059 43.0157 55.7686 43.137 55.7219 43.2957C55.6846 43.4543 55.6426 43.6597 55.5959 43.9117C55.5212 44.3037 55.4652 44.649 55.4279 44.9477C55.3906 45.237 55.3719 45.489 55.3719 45.7037C55.3719 45.8343 55.3766 45.979 55.3859 46.1377C55.3952 46.2963 55.4139 46.4503 55.4419 46.5997C55.4792 46.7397 55.5259 46.861 55.5819 46.9637C55.6379 47.057 55.7126 47.1083 55.8059 47.1177C55.8246 47.099 55.8526 47.0617 55.8899 47.0057C55.9366 46.9403 56.0019 46.819 56.0859 46.6417ZM64.8456 42.9037C64.9203 42.9037 64.9903 42.9317 65.0556 42.9877C65.121 43.0437 65.1536 43.1417 65.1536 43.2817C65.1536 43.3097 65.149 43.3517 65.1396 43.4077C65.1396 43.4637 65.1303 43.543 65.1116 43.6457C65.093 43.7483 65.065 43.879 65.0276 44.0377C64.9903 44.1963 64.939 44.3923 64.8736 44.6257C64.771 44.971 64.6683 45.3023 64.5656 45.6197C64.463 45.937 64.3556 46.2403 64.2436 46.5297C63.9263 47.3883 63.5436 47.8177 63.0956 47.8177C62.573 47.8177 62.2556 47.3323 62.1436 46.3617C62.1343 46.3617 62.1296 46.357 62.1296 46.3477V46.0117C62.0643 46.217 62.0083 46.3897 61.9616 46.5297C61.9243 46.6603 61.8916 46.7583 61.8636 46.8237C61.6116 47.4863 61.313 47.8177 60.9676 47.8177C60.8836 47.8177 60.7996 47.8037 60.7156 47.7757C60.6316 47.7477 60.5523 47.6917 60.4776 47.6077C60.4123 47.5237 60.3563 47.4117 60.3096 47.2717C60.263 47.1223 60.2396 46.9357 60.2396 46.7117C60.2396 46.5903 60.2676 46.1937 60.3236 45.5217C60.3423 45.335 60.3516 45.1577 60.3516 44.9897C60.361 44.8217 60.3703 44.663 60.3796 44.5137C60.3516 44.5977 60.3236 44.719 60.2956 44.8777C60.0903 45.9043 59.9456 46.5577 59.8616 46.8377C59.6096 47.631 59.2876 48.0277 58.8956 48.0277C58.7463 48.0277 58.6296 47.9763 58.5456 47.8737C58.4616 47.7617 58.3963 47.6263 58.3496 47.4677C58.303 47.2997 58.2703 47.1177 58.2516 46.9217C58.2423 46.7257 58.2376 46.5343 58.2376 46.3477C58.2376 46.245 58.2376 46.1143 58.2376 45.9557C58.247 45.7877 58.2563 45.587 58.2656 45.3537C58.275 45.1577 58.2796 44.9943 58.2796 44.8637C58.2796 44.7237 58.2796 44.607 58.2796 44.5137L58.1676 44.2057C58.1583 44.1963 58.1536 44.1777 58.1536 44.1497C58.1163 43.599 58.1816 43.2303 58.3496 43.0437C58.443 42.9503 58.555 42.9037 58.6856 42.9037C58.7416 42.9037 58.8023 42.913 58.8676 42.9317C58.9423 42.9503 59.0076 42.9877 59.0636 43.0437C59.1196 43.0997 59.1663 43.179 59.2036 43.2817C59.2503 43.3843 59.2736 43.5197 59.2736 43.6877C59.2736 44.0797 59.2363 44.4483 59.1616 44.7937C59.0963 45.083 59.0636 45.4423 59.0636 45.8717C59.0636 45.9743 59.0636 46.077 59.0636 46.1797C59.0636 46.273 59.0683 46.3663 59.0776 46.4597C59.0963 46.3943 59.115 46.3337 59.1336 46.2777C59.1523 46.2123 59.171 46.147 59.1896 46.0817C59.3016 45.4657 59.4043 44.957 59.4976 44.5557C59.591 44.145 59.6843 43.823 59.7776 43.5897C59.7963 43.543 59.8243 43.4777 59.8616 43.3937C59.899 43.3003 59.9456 43.2117 60.0016 43.1277C60.067 43.0343 60.1416 42.955 60.2256 42.8897C60.319 42.8243 60.4263 42.7917 60.5476 42.7917C60.6223 42.7917 60.7063 42.815 60.7996 42.8617C60.9023 42.9083 60.991 43.011 61.0656 43.1697C61.159 43.3563 61.2056 43.6363 61.2056 44.0097V44.0237C61.159 44.453 61.1216 44.8403 61.0936 45.1857C61.0656 45.5217 61.0516 45.8157 61.0516 46.0677C61.0516 46.1703 61.0516 46.2543 61.0516 46.3197C61.061 46.3757 61.0656 46.427 61.0656 46.4737C61.1216 46.399 61.1916 46.245 61.2756 46.0117C61.369 45.7783 61.481 45.4143 61.6116 44.9197C61.7143 44.537 61.7936 44.229 61.8496 43.9957C61.9056 43.753 61.9476 43.5617 61.9756 43.4217C62.0036 43.2817 62.0176 43.1883 62.0176 43.1417C62.0176 43.0857 62.0176 43.0483 62.0176 43.0297V42.9597C62.0363 42.8943 62.0783 42.8243 62.1436 42.7497C62.209 42.6657 62.3396 42.6237 62.5356 42.6237C62.7036 42.6237 62.9323 42.717 63.2216 42.9037C63.3056 42.9597 63.3336 43.0297 63.3056 43.1137C63.063 44.2803 62.9416 45.2417 62.9416 45.9977C62.9416 46.2123 62.9463 46.385 62.9556 46.5157C62.9743 46.637 62.993 46.7303 63.0116 46.7957C63.0396 46.8703 63.0676 46.9217 63.0956 46.9497C63.105 46.9497 63.1236 46.9403 63.1516 46.9217C63.189 46.903 63.2356 46.8563 63.2916 46.7817C63.357 46.6977 63.4316 46.5717 63.5156 46.4037C63.5996 46.2263 63.693 45.9837 63.7956 45.6757V45.6617C63.805 45.6523 63.819 45.6197 63.8376 45.5637C63.8563 45.4983 63.8843 45.391 63.9216 45.2417C63.9683 45.0923 64.0243 44.887 64.0896 44.6257C64.1643 44.3643 64.2576 44.0283 64.3696 43.6177C64.3883 43.571 64.4023 43.5197 64.4116 43.4637C64.4303 43.4077 64.449 43.3517 64.4676 43.2957L64.4956 43.1697V43.1557C64.561 42.9877 64.6776 42.9037 64.8456 42.9037ZM65.5256 42.9597C65.5256 43.1463 65.5536 43.3797 65.6096 43.6597C65.675 43.9397 65.7683 44.2757 65.8896 44.6677C66.0203 45.0783 66.1136 45.4283 66.1696 45.7177C66.2256 45.9977 66.2536 46.2263 66.2536 46.4037C66.2536 46.889 66.151 47.281 65.9456 47.5797C65.7123 47.925 65.4276 48.0977 65.0916 48.0977C64.737 48.0977 64.4196 47.9437 64.1396 47.6357C63.9436 47.4303 63.8456 47.225 63.8456 47.0197C63.8456 46.7303 63.939 46.5623 64.1256 46.5157C64.135 46.5157 64.1443 46.5157 64.1536 46.5157C64.1536 46.5063 64.1583 46.5017 64.1676 46.5017C64.2143 46.5017 64.275 46.525 64.3496 46.5717C64.4243 46.609 64.4663 46.721 64.4756 46.9077C64.6063 47.1783 64.7276 47.3137 64.8396 47.3137C64.8863 47.3137 64.9376 47.3043 64.9936 47.2857C65.059 47.2577 65.1196 47.1923 65.1756 47.0897C65.2783 46.903 65.3296 46.6557 65.3296 46.3477C65.3296 45.9837 65.2363 45.4797 65.0496 44.8357V44.8217C65.031 44.775 65.0123 44.7237 64.9936 44.6677C64.9843 44.6023 64.9703 44.5417 64.9516 44.4857C64.9143 44.5977 64.8816 44.7143 64.8536 44.8357C64.8256 44.9477 64.793 45.0597 64.7556 45.1717V45.1857C64.737 45.223 64.7136 45.279 64.6856 45.3537C64.6576 45.4283 64.6203 45.503 64.5736 45.5777C64.527 45.643 64.471 45.7037 64.4056 45.7597C64.3403 45.8063 64.261 45.8297 64.1676 45.8297C64.093 45.8297 64.023 45.811 63.9576 45.7737C63.855 45.727 63.8223 45.6523 63.8596 45.5497C63.925 45.2883 63.9903 45.027 64.0556 44.7657C64.121 44.5043 64.1863 44.2477 64.2516 43.9957C64.3263 43.7437 64.3776 43.4777 64.4056 43.1977C64.4336 42.9083 64.4476 42.605 64.4476 42.2877C64.4476 42.101 64.499 41.9563 64.6016 41.8537C64.7043 41.7417 64.849 41.6857 65.0356 41.6857C65.1756 41.6857 65.2876 41.7043 65.3716 41.7417C65.465 41.779 65.5303 41.8257 65.5676 41.8817C65.6143 41.9283 65.6423 41.9797 65.6516 42.0357C65.6703 42.0823 65.6796 42.1243 65.6796 42.1617C65.6796 42.1803 65.675 42.213 65.6656 42.2597C65.6563 42.3063 65.633 42.3997 65.5956 42.5397C65.549 42.7263 65.5256 42.8663 65.5256 42.9597ZM71.1736 43.0017C71.3976 43.0017 71.5096 43.1137 71.5096 43.3377C71.5096 43.5803 71.477 43.8417 71.4116 44.1217C71.3463 44.3923 71.2436 44.6817 71.1036 44.9897C70.833 45.5963 70.469 45.8997 70.0116 45.8997C69.9836 45.8997 69.9463 45.895 69.8996 45.8857C69.853 45.867 69.7643 45.8343 69.6336 45.7877C69.615 45.881 69.5916 45.979 69.5636 46.0817C69.545 46.175 69.5216 46.2777 69.4936 46.3897V46.4177C69.4096 46.6603 69.335 46.861 69.2696 47.0197C69.2043 47.1783 69.1436 47.3043 69.0876 47.3977C68.845 47.7897 68.5416 47.9857 68.1776 47.9857C67.7296 47.9857 67.3983 47.7617 67.1836 47.3137C66.9876 46.9123 66.8896 46.3197 66.8896 45.5357C66.8896 44.6023 66.9643 43.9537 67.1136 43.5897V43.5057C67.1043 43.4497 67.0996 43.403 67.0996 43.3657C67.0996 43.319 67.0996 43.277 67.0996 43.2397V43.2257C67.1183 43.0857 67.1556 42.9877 67.2116 42.9317C67.221 42.8943 67.235 42.8337 67.2536 42.7497C67.2723 42.6657 67.305 42.5303 67.3516 42.3437C67.3796 42.2037 67.4216 42.0917 67.4776 42.0077C67.543 41.9237 67.6083 41.8583 67.6736 41.8117C67.739 41.765 67.8043 41.737 67.8696 41.7277C67.935 41.709 67.9956 41.6997 68.0516 41.6997C68.341 41.6997 68.649 41.821 68.9756 42.0637C69.3023 42.297 69.517 42.5583 69.6196 42.8477C69.629 42.885 69.6383 42.941 69.6476 43.0157C69.6663 43.0903 69.6803 43.207 69.6896 43.3657C69.699 43.515 69.7083 43.7203 69.7176 43.9817C69.727 44.243 69.7316 44.5743 69.7316 44.9757C69.7783 45.013 69.8343 45.0317 69.8996 45.0317C69.9836 45.0317 70.077 45.0083 70.1796 44.9617C70.2916 44.915 70.399 44.7843 70.5016 44.5697C70.5203 44.5137 70.553 44.4063 70.5996 44.2477C70.6556 44.0797 70.7256 43.8043 70.8096 43.4217C70.8656 43.1417 70.987 43.0017 71.1736 43.0017ZM68.5136 46.6417C68.6536 46.3337 68.7423 46.0957 68.7796 45.9277C68.8263 45.7503 68.8496 45.6243 68.8496 45.5497C68.8496 45.419 68.8403 45.265 68.8216 45.0877C68.803 44.9103 68.775 44.7143 68.7376 44.4997C68.6816 44.201 68.6443 43.9957 68.6256 43.8837C68.6163 43.7717 68.6116 43.6923 68.6116 43.6457C68.6116 43.599 68.6116 43.5477 68.6116 43.4917C68.6116 43.4357 68.621 43.3703 68.6396 43.2957C68.649 43.221 68.6536 43.1603 68.6536 43.1137C68.6536 43.0577 68.6536 43.0157 68.6536 42.9877C68.6536 42.857 68.6303 42.773 68.5836 42.7357C68.537 42.689 68.4763 42.6657 68.4016 42.6657C68.3923 42.675 68.3736 42.6983 68.3456 42.7357C68.327 42.773 68.299 42.8383 68.2616 42.9317C68.2336 43.0157 68.1963 43.137 68.1496 43.2957C68.1123 43.4543 68.0703 43.6597 68.0236 43.9117C67.949 44.3037 67.893 44.649 67.8556 44.9477C67.8183 45.237 67.7996 45.489 67.7996 45.7037C67.7996 45.8343 67.8043 45.979 67.8136 46.1377C67.823 46.2963 67.8416 46.4503 67.8696 46.5997C67.907 46.7397 67.9536 46.861 68.0096 46.9637C68.0656 47.057 68.1403 47.1083 68.2336 47.1177C68.2523 47.099 68.2803 47.0617 68.3176 47.0057C68.3643 46.9403 68.4296 46.819 68.5136 46.6417ZM72.6033 38.1297C72.5193 38.4563 72.412 38.811 72.2813 39.1937C72.1506 39.5763 72.006 39.959 71.8473 40.3417C71.698 40.715 71.5486 41.0697 71.3993 41.4057H70.4893C70.5546 41.1443 70.62 40.8643 70.6853 40.5657C70.76 40.267 70.8253 39.9683 70.8813 39.6697C70.9466 39.3617 71.0026 39.063 71.0493 38.7737C71.1053 38.4843 71.152 38.2183 71.1893 37.9757H72.5053L72.6033 38.1297ZM80.3846 47.3137C80.4686 47.3323 80.5666 47.365 80.6786 47.4117C80.7906 47.449 80.8466 47.533 80.8466 47.6637C80.8466 47.841 80.8046 47.995 80.7206 48.1257C80.6832 48.1723 80.6272 48.2143 80.5526 48.2517C80.4872 48.289 80.4032 48.3077 80.3006 48.3077C80.2726 48.2983 80.2399 48.289 80.2026 48.2797C80.1652 48.2797 80.0952 48.275 79.9926 48.2657C79.8619 48.247 79.6519 48.233 79.3626 48.2237C79.0826 48.2143 78.7186 48.2097 78.2706 48.2097C77.5799 48.2097 76.8986 48.2937 76.2266 48.4617C75.5452 48.639 75.0832 48.7277 74.8406 48.7277C74.5046 48.7277 74.2572 48.653 74.0986 48.5037C73.9119 48.3357 73.8186 48.107 73.8186 47.8177C73.8186 47.715 73.8606 47.617 73.9446 47.5237C74.0286 47.421 74.1779 47.3043 74.3926 47.1737C74.6072 47.0523 74.7659 46.9543 74.8686 46.8797C74.9712 46.805 75.0412 46.7443 75.0786 46.6977C75.5639 46.119 76.0259 45.5217 76.4646 44.9057C76.9032 44.2897 77.2719 43.6317 77.5706 42.9317C77.8692 42.2317 78.0979 41.5877 78.2566 40.9997C78.4246 40.4023 78.5086 39.8377 78.5086 39.3057C78.5086 39.1283 78.4619 38.951 78.3686 38.7737C78.2846 38.587 78.1679 38.4283 78.0186 38.2977C77.8692 38.1577 77.7012 38.0503 77.5146 37.9757C77.3372 37.901 77.1506 37.8777 76.9546 37.9057C76.6839 37.9337 76.4412 38.0177 76.2266 38.1577C76.0212 38.2883 75.8439 38.4423 75.6946 38.6197C75.5546 38.797 75.4379 38.9837 75.3446 39.1797C75.2606 39.3663 75.2139 39.5297 75.2046 39.6697C75.1859 39.8657 75.1766 40.043 75.1766 40.2017C75.1766 40.351 75.1859 40.4957 75.2046 40.6357C75.2232 40.7663 75.2466 40.9017 75.2746 41.0417C75.3026 41.1817 75.3399 41.3357 75.3866 41.5037C75.4146 41.6437 75.4426 41.7883 75.4706 41.9377C75.4986 42.087 75.5126 42.2223 75.5126 42.3437C75.5126 42.4557 75.4892 42.549 75.4426 42.6237C75.3959 42.6983 75.3119 42.7357 75.1906 42.7357C75.0039 42.7357 74.8219 42.6237 74.6446 42.3997C74.4766 42.1757 74.3366 41.877 74.2246 41.5037C74.1219 41.121 74.0612 40.6823 74.0426 40.1877C74.0332 39.6837 74.1032 39.1517 74.2526 38.5917C74.2992 38.4423 74.3786 38.2743 74.4906 38.0877C74.6119 37.8917 74.7706 37.7097 74.9666 37.5417C75.1626 37.3643 75.4006 37.215 75.6806 37.0937C75.9606 36.963 76.2826 36.8883 76.6466 36.8697C77.0292 36.851 77.4119 36.9023 77.7946 37.0237C78.1866 37.1357 78.5366 37.313 78.8446 37.5557C79.1526 37.789 79.4046 38.083 79.6006 38.4377C79.7966 38.7923 79.8946 39.203 79.8946 39.6697C79.8946 39.9123 79.8666 40.1737 79.8106 40.4537C79.7639 40.7337 79.6892 41.023 79.5866 41.3217C79.3906 41.947 79.0966 42.6283 78.7046 43.3657C78.3592 44.019 77.9719 44.6583 77.5426 45.2837C77.1226 45.909 76.6606 46.5157 76.1566 47.1037C76.4926 47.085 76.8239 47.0757 77.1506 47.0757C77.4772 47.0757 77.7946 47.0757 78.1026 47.0757C78.2706 47.0757 78.4712 47.085 78.7046 47.1037C78.9472 47.1223 79.2319 47.1503 79.5586 47.1877C79.7452 47.2157 79.9039 47.239 80.0346 47.2577C80.1652 47.2763 80.2819 47.295 80.3846 47.3137ZM86.8664 44.4297C86.8664 44.5043 86.8478 44.593 86.8104 44.6957C86.7731 44.789 86.6751 44.873 86.5164 44.9477C86.4324 44.9943 86.3298 45.013 86.2084 45.0037C86.0871 44.9943 85.9471 44.9897 85.7884 44.9897H85.6204H85.4944H85.3404C85.3218 45.1483 85.3031 45.3303 85.2844 45.5357C85.2751 45.7317 85.2658 45.9277 85.2564 46.1237C85.2471 46.3197 85.2378 46.525 85.2284 46.7397C85.2191 46.9543 85.2144 47.099 85.2144 47.1737C85.2144 47.2763 85.2238 47.3883 85.2424 47.5097C85.2704 47.631 85.3171 47.771 85.3824 47.9297C85.4571 48.107 85.5038 48.219 85.5224 48.2657C85.5504 48.3217 85.5644 48.3543 85.5644 48.3637C85.5644 48.373 85.5691 48.387 85.5784 48.4057C85.5878 48.4243 85.5924 48.4383 85.5924 48.4477C85.5924 48.457 85.5971 48.471 85.6064 48.4897C85.6064 48.5363 85.5878 48.5923 85.5504 48.6577C85.5224 48.723 85.4431 48.779 85.3124 48.8257C85.2658 48.835 85.2098 48.8397 85.1444 48.8397C85.0791 48.849 85.0044 48.8537 84.9204 48.8537C84.8084 48.8537 84.6871 48.8257 84.5564 48.7697C84.4351 48.7137 84.3278 48.5877 84.2344 48.3917C84.1131 48.149 84.0524 47.785 84.0524 47.2997C84.0524 47.2343 84.0571 47.0897 84.0664 46.8657C84.0758 46.6417 84.0898 46.3337 84.1084 45.9417C84.1364 45.5403 84.1364 45.2277 84.1084 45.0037H84.0524C83.6511 45.0037 83.1798 45.0597 82.6384 45.1717C82.1718 45.2837 81.7798 45.3723 81.4624 45.4377C81.1544 45.503 80.9304 45.5077 80.7904 45.4517L80.7204 45.4237C80.5618 45.321 80.4311 45.2043 80.3284 45.0737C80.2351 44.943 80.1464 44.8123 80.0624 44.6817C79.9411 44.4857 79.8804 44.313 79.8804 44.1637C79.8804 44.1263 79.8851 44.0843 79.8944 44.0377C79.9131 43.9817 79.9458 43.907 79.9924 43.8137C80.0391 43.7203 80.1044 43.599 80.1884 43.4497C80.2724 43.3003 80.3891 43.1137 80.5384 42.8897C80.8091 42.4697 81.0471 42.0917 81.2524 41.7557C81.4578 41.4197 81.6304 41.1117 81.7704 40.8317C81.9758 40.4397 82.2138 40.0197 82.4844 39.5717C82.7551 39.1143 83.0631 38.6337 83.4084 38.1297C83.5111 37.971 83.6138 37.8123 83.7164 37.6537C83.8191 37.495 83.9218 37.3363 84.0244 37.1777H84.0384C84.2718 36.8323 84.5144 36.6503 84.7664 36.6317H84.7804H84.8084C85.0698 36.6597 85.3731 36.809 85.7184 37.0797C86.0638 37.369 86.2364 37.6257 86.2364 37.8497C86.2364 37.8963 86.2271 37.971 86.2084 38.0737C86.1898 38.167 86.1478 38.321 86.0824 38.5357C86.0358 38.7037 85.9984 38.8483 85.9704 38.9697C85.9518 39.091 85.9331 39.1937 85.9144 39.2777C85.7558 40.5003 85.6298 41.4943 85.5364 42.2597C85.4524 43.025 85.4011 43.5617 85.3824 43.8697C85.5131 43.8883 85.5924 43.9023 85.6204 43.9117C85.6484 43.9117 85.7278 43.9117 85.8584 43.9117C85.9424 43.9117 85.9984 43.9117 86.0264 43.9117C86.0638 43.9117 86.0918 43.9117 86.1104 43.9117C86.1384 43.9117 86.1664 43.9163 86.1944 43.9257C86.2318 43.9257 86.2924 43.9257 86.3764 43.9257H86.3904C86.5491 43.9443 86.6658 44.0003 86.7404 44.0937C86.8244 44.187 86.8664 44.299 86.8664 44.4297ZM84.4304 41.0277C84.4491 40.785 84.4771 40.5377 84.5144 40.2857C84.5611 40.0243 84.6031 39.777 84.6404 39.5437C84.6778 39.301 84.7058 39.077 84.7244 38.8717C84.7524 38.657 84.7664 38.4797 84.7664 38.3397C84.7384 38.377 84.6871 38.4377 84.6124 38.5217C84.5471 38.5963 84.4724 38.685 84.3884 38.7877C84.3138 38.881 84.2344 38.9837 84.1504 39.0957C84.0664 39.1983 83.9964 39.2963 83.9404 39.3897V39.4037C83.6324 39.8797 83.3898 40.2437 83.2124 40.4957C83.0444 40.7477 82.9371 40.9017 82.8904 40.9577C82.7224 41.191 82.5498 41.4663 82.3724 41.7837C82.1951 42.101 82.0178 42.4557 81.8404 42.8477C81.6538 43.2583 81.5138 43.5663 81.4204 43.7717C81.3364 43.9677 81.2898 44.0937 81.2804 44.1497C81.2991 44.159 81.3224 44.1683 81.3504 44.1777C81.3878 44.1777 81.4391 44.1777 81.5044 44.1777C81.6351 44.1777 81.8638 44.1637 82.1904 44.1357C82.3584 44.1077 82.5124 44.0797 82.6524 44.0517C82.8018 44.0143 82.9091 43.9957 82.9744 43.9957C83.2824 43.9957 83.5764 43.9817 83.8564 43.9537C83.9311 43.9443 83.9918 43.9397 84.0384 43.9397C84.0851 43.9303 84.1318 43.9257 84.1784 43.9257C84.1971 43.6083 84.2298 43.2163 84.2764 42.7497C84.3324 42.283 84.3838 41.709 84.4304 41.0277Z" fill="white"/>
<path fill-rule="evenodd" clip-rule="evenodd" d="M29.4321 15.4766C28.946 15.1334 28.3896 14.9404 27.823 14.7948C25.7219 14.2527 23.584 13.8829 21.4611 13.438C20.7106 13.2808 20.7198 13.297 20.737 12.5273C20.7531 11.8408 20.7956 11.1428 20.5738 10.4794C19.8681 8.36109 18.9623 6.33287 17.829 4.40867C17.4394 3.74762 16.8969 3.30846 16.1371 3.17556C15.8624 3.12818 15.582 3.12009 15.305 3.09351C14.4487 3.01376 13.5763 3.07386 12.7453 2.78956C11.9798 2.41166 11.1948 2.0846 10.3638 1.88351C10.2695 1.83613 10.1741 1.78759 10.0799 1.74021C9.67987 1.54374 9.29022 1.33225 9.00747 0.97168H8.73622C8.43048 1.21206 8.12474 1.45129 7.81901 1.69167C7.41442 1.84768 7.11903 2.09269 7.09489 2.56883C7.09144 2.62892 7.06386 2.69133 7.03512 2.74796C6.66387 3.46679 6.40066 4.24687 5.83286 4.85476C5.7616 4.93219 5.70987 5.03505 5.67539 5.13559C5.62827 5.26965 5.62827 5.42104 5.7639 5.50078C6.00642 5.64409 6.05124 5.88447 6.08687 6.1237C6.1386 6.47387 6.19032 6.7963 6.5018 7.04593C6.72594 7.2239 6.67191 7.4481 6.43399 7.63186C6.29951 7.73702 6.15699 7.83294 6.02596 7.94389C5.65011 8.26286 5.21104 8.50093 4.86507 8.85803C4.79496 8.84994 4.74668 8.88924 4.69726 8.92968C4.02372 9.4925 3.4019 10.1108 2.89731 10.8296C2.3663 11.5843 1.74792 12.2407 0.96404 12.7296C0.754851 12.8601 0.5675 13.0508 0.293945 13.052V13.2161C0.406586 13.178 0.519226 13.1479 0.638762 13.1606C0.730714 13.1699 0.859445 13.1109 0.898525 13.2392C0.937604 13.371 0.788183 13.3733 0.724967 13.4368C0.644509 13.5166 0.423826 13.4992 0.490491 13.668C0.556006 13.8355 0.745656 13.7419 0.881284 13.7454C0.929558 13.7466 0.98243 13.7096 1.02726 13.6807C1.27552 13.5166 1.5169 13.3455 1.74218 13.1491C2.1709 12.7758 2.60192 12.3979 3.17317 12.2557C3.51224 12.1702 3.63752 12.2846 3.56626 12.6232C3.51109 12.8925 3.5812 13.126 3.72143 13.3444C3.78464 13.4426 3.8674 13.5697 3.98464 13.5524C4.09728 13.5362 4.09613 13.3802 4.11797 13.282C4.27084 12.6047 4.42945 11.9264 4.55129 11.2422C4.61221 10.9024 4.75013 10.6505 5.05242 10.491C5.59723 10.2414 6.15009 10.0091 6.68456 9.73866C7.11673 9.52139 7.55809 9.31452 7.93165 8.99556C8.29945 8.791 8.30979 8.79216 8.62818 9.09263C8.77875 9.23478 8.93162 9.37578 9.08104 9.52024C9.16609 9.60344 9.24195 9.66123 9.27528 9.48441C9.31551 9.25905 9.41206 9.3492 9.50171 9.44512C9.70516 9.66585 9.70975 9.91894 9.50286 10.2425C9.06035 10.9313 8.6799 11.6582 8.51324 12.4591C8.39255 13.0404 7.9236 13.5674 8.23623 14.2366C8.31899 14.4111 8.42014 14.4712 8.56036 14.5035C8.73967 14.5451 8.72128 14.3683 8.75116 14.2724C8.79599 14.136 8.81553 13.9916 8.84311 13.8494C8.89254 13.6021 8.92817 13.349 9.0569 13.1248C9.30172 12.6949 9.46148 12.688 9.70515 13.0982C9.71435 13.1132 9.7201 13.1317 9.73044 13.1456C9.78446 13.2103 9.79366 13.3478 9.9063 13.3166C10.0097 13.2877 9.98561 13.1676 9.98446 13.0797C9.97986 12.6359 9.94883 12.1945 9.88101 11.7553C9.82699 11.4051 9.84423 11.0827 10.2017 10.8828C10.2787 10.8389 10.3385 10.7661 10.3626 10.6724C10.5431 10.6066 10.8132 10.7869 10.8752 10.528C11.1465 10.7753 11.4304 11.0365 11.7189 11.2954C11.7614 11.3335 11.8315 11.4329 11.8545 11.3901C12.043 11.0584 12.1028 11.4456 12.243 11.4444C12.2947 11.0873 12.512 11.3589 12.6717 11.3543C12.7269 11.0423 12.5959 10.7383 12.6522 10.3858C12.897 10.7811 13.1177 11.1347 13.3395 11.4953C13.4039 11.4364 13.4039 11.3994 13.3867 11.367C12.9648 10.5742 12.7315 9.70514 12.3936 8.87883C12.2522 8.53444 12.2476 8.23165 12.5108 7.94967C12.6085 7.8445 12.7051 7.73587 12.8016 7.62955C12.9384 7.58216 13.0464 7.65959 13.1545 7.72084C13.9085 8.1496 14.6418 8.61072 15.3314 9.13539C16.0682 9.69821 16.3279 10.4621 16.1096 11.352C15.8521 12.406 15.5211 13.4403 15.4739 14.5359C15.4337 15.4708 15.5785 16.3526 16.1912 17.0853C16.5659 17.5349 16.6912 18.0191 16.6521 18.5923C16.6084 19.2349 16.4578 19.8612 16.4153 20.5027C16.3486 21.4954 16.3429 22.4927 16.2061 23.4808C16.0544 24.588 15.7383 25.6316 15.0866 26.5596C14.6694 27.1536 14.351 27.8031 14.0901 28.4815C13.5648 29.8532 13.2614 31.2898 12.8464 32.6939C12.7258 33.0995 12.6522 33.5237 12.4062 33.8808C12.197 34.0749 11.9534 34.1974 11.6764 34.2749C11.3258 34.3731 11.1844 34.5522 11.1741 34.8943C11.1534 35.642 11.0074 36.3667 10.8074 37.0832C10.6971 37.4773 10.6074 37.8725 10.6821 38.2862C10.7833 38.8352 10.9281 39.3633 11.3488 39.7678C11.5051 39.9181 11.6522 39.9365 11.7683 39.7355C12.0649 39.22 12.3901 38.7161 12.5694 38.1406C12.8522 37.4946 13.074 36.8231 13.4016 36.1968C15.2498 32.6731 17.0957 29.1483 18.9371 25.6212C19.1003 25.3057 19.3233 25.0664 19.6095 24.8607C21.937 23.1931 24.3955 21.7265 26.7931 20.1663C27.7977 19.5122 28.854 18.9332 29.7448 18.1116C29.9839 17.8908 30.1792 17.6481 30.2229 17.3164C30.3241 16.5456 30.0655 15.925 29.4321 15.4766ZM24.176 18.8812C23.2967 19.5874 22.4174 20.2946 21.5105 20.9638C21.106 21.2619 20.6347 21.3787 20.1658 21.5C19.9761 21.5497 19.9117 21.4203 19.9497 21.2619C20.1646 20.3836 20.3715 19.5041 20.6163 18.6339C20.7451 18.1786 21.1301 17.9786 21.5726 17.9659C22.7163 17.9359 23.8599 17.9625 25.0012 18.0272C25.0242 18.0295 25.0472 18.0491 25.107 18.078C24.7875 18.3554 24.4898 18.6281 24.176 18.8812Z" fill="white"/>
<path fill-rule="evenodd" clip-rule="evenodd" d="M34.7235 50.3819C34.6465 50.6928 34.5074 50.9759 34.3798 51.266C34.3568 51.3192 34.3453 51.4012 34.2603 51.3908C34.158 51.3793 34.1718 51.2914 34.1637 51.2232C34.1131 50.7286 34.0672 50.2328 34.012 49.7382C33.9557 49.2343 33.8292 48.7547 33.4419 48.3941C32.9902 47.9758 32.4431 47.9677 31.8879 48.081C30.8983 48.2832 30.1351 48.8737 29.4822 49.6076C27.8145 51.4821 26.8812 53.7218 26.4053 56.158C26.2122 57.1461 26.4341 58.1411 26.6283 59.1188C27.0271 61.1413 27.9145 62.9326 29.1708 64.5505C29.2662 64.673 29.3765 64.7955 29.4167 64.9619C29.311 64.9989 29.2696 64.9226 29.2259 64.8787C27.7478 63.4249 26.3524 61.8959 25.1766 60.1797C24.2261 58.7918 23.7318 57.2374 23.5629 55.5663C23.5008 54.9538 23.3916 54.3482 23.302 53.7392C23.2905 53.6629 23.2997 53.5473 23.1859 53.5658C23.0974 53.5808 23.1456 53.6883 23.1376 53.753C23.0502 54.4291 23.0307 55.1167 23.0939 55.7882C23.2043 56.9843 23.3066 58.1827 23.4882 59.3719C23.5962 60.0873 23.6583 60.8107 23.8571 61.5099C24.0973 62.3617 24.5295 63.129 24.8962 63.9253C24.9686 64.0802 25.0283 64.2419 25.0824 64.4037C25.0996 64.4557 25.1467 64.532 25.0697 64.5748C24.9985 64.6152 24.9571 64.5447 24.9111 64.5066C24.3985 64.079 24.0008 63.552 23.6422 62.9961C23.2594 62.4033 22.9238 61.7827 22.6985 61.1089C22.5135 60.7264 22.3779 60.323 22.2618 59.9139C22.0146 59.2945 21.8261 58.6566 21.6733 58.0059C21.4193 57.242 21.2802 56.4515 21.1319 55.6634C21.1032 55.5143 21.0825 55.364 21.0457 55.1294C20.863 55.5489 20.8296 55.9222 20.8089 56.2897C20.7503 57.3322 20.9296 58.3538 21.0963 59.3765C21.248 60.3161 21.4181 61.2476 21.7848 62.1294C21.8813 62.3628 22.0009 62.587 22.1077 62.817C22.133 62.8702 22.1974 62.9326 22.1388 62.9869C22.0675 63.0528 22.0032 62.9788 21.9526 62.936C21.5779 62.6171 21.2825 62.2299 21.0377 61.8046C20.625 61.0893 20.3181 60.3277 20.1009 59.5314C19.8193 58.8623 19.6825 58.1527 19.509 57.4535C19.2469 56.3995 19.1228 55.3236 18.9699 54.2511C18.9021 53.768 18.809 53.2896 18.7193 52.8111C18.6458 52.4147 18.7814 52.2264 19.1745 52.2472C19.5239 52.2668 19.871 52.3246 20.2181 52.3662C20.7377 52.4344 21.2606 52.4043 21.7825 52.4032C21.9572 52.357 22.133 52.3119 22.3077 52.2657C22.4376 52.2009 22.5664 52.1374 22.6951 52.0715C23.2951 51.6324 23.6514 51.0337 23.8617 50.3253C24.1054 49.5036 24.6364 48.9697 25.4617 48.6992C26.8237 48.2543 28.2179 47.9053 29.5627 47.4257C31.9718 46.5647 33.5752 44.8682 34.2499 42.35C34.3085 42.1327 34.3143 41.9027 34.3499 41.6797C34.3637 41.5895 34.3246 41.4786 34.4442 41.4058C34.6373 41.6542 34.6085 41.9547 34.6419 42.2321C34.82 43.6778 35.0349 45.1213 35.0832 46.5809C35.1211 47.8614 35.0292 49.1315 34.7235 50.3819Z" fill="white"/>
<path fill-rule="evenodd" clip-rule="evenodd" d="M99.6351 63.1108C99.6251 63.1882 99.6401 63.2749 99.572 63.3627C99.3868 62.8635 99.3096 62.3411 99.1744 61.8419C98.7538 60.2933 98.5886 58.7007 98.4944 57.0851C98.4063 55.5677 98.186 54.0665 97.9516 52.5687C97.3848 48.9607 96.5345 45.4451 95.3477 42.0405C93.7864 37.5634 91.7113 33.4318 89.0693 29.6863C85.6482 24.8347 81.4048 21.3191 76.3062 19.1742C73.518 18.0023 70.6597 17.1564 67.7283 16.6363C67.2506 16.5508 66.7719 16.463 66.2932 16.3751C65.5551 16.2827 64.816 16.1914 64.0769 16.1001C63.492 16.062 62.9061 16.0204 62.3212 15.9868C61.6022 15.9464 60.8841 15.9117 60.164 15.8747C59.2727 15.8794 58.3803 15.8782 57.489 15.8909C56.9342 15.899 56.3803 15.9267 55.8255 15.9452C55.5621 16.055 55.2827 16.01 55.0143 16.0284C54.169 16.0874 53.3268 16.1706 52.4875 16.2758C51.5551 16.3925 50.6287 16.5681 49.7003 16.7207C49.4319 16.7646 49.1645 16.8212 48.8711 16.8166C49.1485 16.5601 49.4259 16.3046 49.7023 16.0469C50.142 15.6378 50.5907 15.2437 51.0153 14.8161C51.6553 14.1701 52.125 13.3646 52.5376 12.5186C52.7739 12.0356 53.0814 11.8287 53.5671 11.8541C54.3193 11.8946 55.0744 11.8715 55.8285 11.8761C56.6808 11.8564 57.5331 11.8391 58.3863 11.9004C58.8621 11.935 59.3388 11.9489 59.8165 11.9697C59.9347 11.9743 60.0518 11.9801 60.164 12.024C60.836 12.0321 61.503 12.1407 62.172 12.2043C62.7319 12.2575 63.2907 12.336 63.8495 12.4054C63.9266 12.4158 64.0018 12.4401 64.0779 12.4586C64.838 12.5383 65.5921 12.6689 66.3413 12.8434C67.5671 13.0572 68.7759 13.375 69.9767 13.7229C72.9221 14.5758 75.7804 15.7153 78.5035 17.28C81.525 19.0182 84.2801 21.192 86.6998 23.924C88.0408 25.4391 89.1815 27.1438 90.3342 28.8426C92.1008 31.451 93.6361 34.2235 94.903 37.1947C96.6847 41.3759 97.9796 45.7479 98.7929 50.3117C99.1925 52.5502 99.4779 54.8061 99.6181 57.0828C99.6932 58.3124 99.6802 59.5467 99.6922 60.7786C99.7002 61.5576 99.7383 62.3365 99.6351 63.1108Z" fill="white"/>
<path fill-rule="evenodd" clip-rule="evenodd" d="M37.1275 40.2291C37.055 41.8586 36.8734 43.4766 36.4459 45.0564C36.3562 45.388 36.2459 45.7139 36.0976 46.026C36.0505 46.1254 36.0286 46.2525 35.885 46.3045C35.8229 46.1912 35.8528 46.0734 35.8516 45.9636C35.8298 44.4947 35.7608 43.0328 35.3654 41.6055C35.1781 40.9306 34.8884 40.2996 34.5942 39.6674C34.5057 39.5519 34.4275 39.4294 34.385 39.2884C34.277 39.1543 34.1816 39.011 34.116 38.8504C33.9724 38.7117 33.8862 38.5326 33.7919 38.3604C33.3931 37.9559 33.2276 37.5017 33.3483 36.9146C33.5011 36.1657 33.5804 35.403 33.6942 34.6472C33.7046 34.5767 33.731 34.5073 33.7494 34.438C33.8574 33.7492 33.9655 33.0604 34.0735 32.3716C34.1643 31.7915 34.2551 31.2113 34.3459 30.6312C34.4275 30.0915 34.4758 29.5472 34.6149 29.0098C34.7275 29.0502 34.7517 29.1253 34.7735 29.2039C35.8401 30.8045 36.3907 32.6039 36.7608 34.468C37.139 36.3703 37.2125 38.2968 37.1275 40.2291Z" fill="white"/>
<path fill-rule="evenodd" clip-rule="evenodd" d="M54.7762 7.41514C54.6877 8.91174 54.1199 10.25 53.3969 11.534C53.0486 12.2262 52.613 12.8607 52.105 13.4432C51.3257 14.4266 50.3993 15.2414 49.3372 15.9036C48.9579 16.1197 48.6039 16.3774 48.2143 16.5785C47.512 16.9391 46.7741 17.1379 45.9833 17.1356C45.8224 17.1344 45.6603 17.1356 45.4523 17.0466C46.7212 16.0088 47.9752 15.0033 49.2752 14.0534C49.9786 13.4963 50.6131 12.8746 51.1062 12.1141C51.4464 11.586 51.69 11.0162 51.9073 10.4315C52.105 9.73921 52.1785 9.02153 52.3349 8.32119C52.3578 8.21603 52.413 8.08659 52.3349 8.01147C52.2452 7.92364 52.1406 8.04152 52.0418 8.06694C51.9487 8.09006 51.8705 8.16518 51.7659 8.15015C51.2176 8.45756 50.6257 8.66443 50.0533 8.91637C49.6717 9.0851 49.2832 9.2388 48.897 9.39829C48.3511 9.68721 47.7511 9.76695 47.1523 9.83744C46.1879 9.9507 45.2696 10.2385 44.3523 10.5355C44.1822 10.5898 44.065 10.7123 43.9535 10.8475C42.7064 12.3522 41.526 13.9089 40.2996 15.4298C38.8778 17.1957 37.2951 18.8044 35.5204 20.2178C35.4296 20.2894 35.3446 20.3715 35.2078 20.3946C35.1837 20.2709 35.2584 20.1877 35.3135 20.1022C37.1928 17.1483 39.0709 14.1955 40.9536 11.2439C41.1042 11.0081 41.2858 10.792 41.4432 10.5609C41.5651 10.3806 41.6697 10.1922 41.7099 9.97266C41.7926 9.5231 42.0662 9.26307 42.4995 9.14404C43.7581 8.79618 45.0293 8.50032 46.2741 8.10161C47.1155 7.8335 47.9384 7.51337 48.7694 7.21752C49.7246 6.78298 50.6797 6.34845 51.6349 5.91391C52.1647 5.62268 52.7142 5.37537 53.2808 5.16503C53.4854 5.07489 53.6854 4.97319 53.8957 4.8946C54.2072 4.77904 54.3003 4.82758 54.421 5.15694C54.6854 5.88502 54.821 6.63852 54.7762 7.41514Z" fill="white"/>
<path fill-rule="evenodd" clip-rule="evenodd" d="M13.5239 27.2338C13.4285 28.067 13.1067 28.839 12.878 29.6353C12.7711 30.0062 12.6423 30.3726 12.5239 30.7412C12.3745 31.3422 12.2458 31.9489 12.0389 32.5337C11.9584 32.7625 11.8539 32.9821 11.6619 33.1439C11.5401 33.3323 11.3573 33.4513 11.1711 33.5611C10.4378 33.9922 10.2183 34.4799 10.3907 35.3328C10.4941 35.8482 10.447 36.3405 10.1907 36.8063C10.1091 36.9542 10.0137 37.0975 9.82862 37.0929C9.62978 37.0882 9.57576 36.9126 9.51829 36.76C9.36772 36.3613 9.17577 35.9383 9.20336 35.535C9.23324 35.1074 9.3045 34.6636 9.40335 34.2326C9.65277 33.1474 10.1413 32.1558 10.547 31.1319C10.7194 30.695 10.9343 30.2744 11.0332 29.8098C11.0654 29.6607 11.1228 29.4931 10.9918 29.3729C10.8619 29.2539 10.7022 29.3221 10.5573 29.3706C9.84012 29.611 9.24014 30.071 8.58843 30.4373C8.37694 30.5563 8.1712 30.6881 7.96661 30.8198C7.55858 31.0822 7.47237 31.3029 7.56777 31.786C7.67466 32.3361 7.77006 32.8885 7.8827 33.4386C7.93328 33.6871 7.95627 34.0465 7.8011 34.1181C7.62179 34.2013 7.39651 33.9321 7.2379 33.7472C6.62527 33.0283 6.16666 32.2275 5.95862 31.2948C5.86322 30.8695 5.97586 30.487 6.21839 30.1391C6.39999 29.8768 6.62642 29.6538 6.88848 29.4735C8.33442 28.4842 9.82747 27.5758 11.4481 26.894C11.4975 26.8732 11.5493 26.857 11.5998 26.8397C11.863 26.7206 12.124 26.597 12.4125 26.5484C12.501 26.471 12.617 26.486 12.7216 26.4687C13.2871 26.3693 13.5906 26.6652 13.5239 27.2338Z" fill="white"/>
<path fill-rule="evenodd" clip-rule="evenodd" d="M99.7055 44.6727V45.1616C99.5623 45.1662 99.5671 45.0136 99.5321 44.9189C98.8598 43.0652 98.1963 41.2068 97.5221 39.3543C96.4241 36.3391 95.0894 33.4765 93.5422 30.7549C93.5003 30.6798 93.4643 30.6 93.4263 30.5226C92.8729 29.6258 92.339 28.7128 91.7544 27.8437C91.0656 26.8198 90.3651 25.8074 89.5954 24.8655C89.5584 24.8216 89.536 24.7615 89.5067 24.7095C88.9709 24.0762 88.4448 23.4313 87.8963 22.8142C85.8581 20.5236 83.6289 18.5324 81.2147 16.8347C81.163 16.7977 81.1163 16.7515 81.0666 16.7111C80.2716 16.2141 79.496 15.6744 78.6874 15.2064C75.6126 13.4255 72.3916 12.1692 69.042 11.3626C66.8382 10.8321 64.613 10.5051 62.3712 10.3479C61.1056 10.2601 59.8371 10.2115 58.5695 10.2404C57.3877 10.2658 56.204 10.3132 55.0241 10.423C54.7358 10.4508 54.7289 10.4392 54.8108 10.1237C54.9179 9.7088 55.0397 9.29854 55.1333 8.87903C55.1976 8.5878 55.3447 8.48147 55.5814 8.49303C56.467 8.53579 57.3527 8.56468 58.2363 8.619C58.9982 8.66638 59.7591 8.73919 60.521 8.80622C61.7018 8.90907 62.8749 9.09167 64.0498 9.26156C65.4733 9.46958 66.8947 9.69609 68.3065 10.007C71.2566 10.6565 74.1268 11.6295 76.9093 12.9586C78.0073 13.4833 79.0937 14.0495 80.1254 14.7406C80.4781 14.9775 80.86 15.1521 81.1893 15.4375C81.8041 15.8039 82.3799 16.2488 82.9557 16.6926C85.368 18.5544 87.5484 20.7467 89.5253 23.2279C89.5613 23.273 89.5886 23.3285 89.6198 23.3793C90.2511 24.1132 90.8113 24.9245 91.3715 25.7346C92.1422 26.8533 92.8738 28.0101 93.5636 29.2016C93.5851 29.2386 93.6007 29.2791 93.6201 29.3184C94.2076 30.2695 94.7328 31.2691 95.2404 32.2804C96.7846 35.3591 98.0901 38.573 99.0751 41.9638C99.305 42.752 99.4463 43.569 99.6149 44.378C99.6363 44.4774 99.6314 44.593 99.7055 44.6727Z" fill="white"/>
<path fill-rule="evenodd" clip-rule="evenodd" d="M32.8249 42.7617C32.6777 43.0079 32.549 43.2691 32.3479 43.4805C32.0329 43.9763 31.6433 44.4051 31.1973 44.783C30.718 45.2406 30.1813 45.6093 29.5744 45.8716C28.9951 46.1964 28.356 46.3513 27.7227 46.5234C26.4722 46.8621 25.2814 47.3428 24.1573 47.9888C23.5941 48.3124 23.232 48.7828 23.0746 49.415C23.0137 49.6611 22.9286 49.8992 22.8171 50.128C22.5171 50.744 22.0263 51.0884 21.3562 51.2097C20.3126 51.3981 19.3092 51.1716 18.3023 50.9509C17.7943 50.8388 17.369 50.6076 16.9863 50.2494C16.4323 49.7305 16.3139 49.1191 16.4943 48.4164C16.6518 47.8005 17.023 47.3336 17.5334 46.973C17.7288 46.8355 17.9023 46.8898 18.0724 47.0343C18.5356 47.4272 19.0724 47.6468 19.6793 47.656C20.4988 47.6687 21.1884 47.3544 21.7516 46.7627C22.0643 46.4345 22.3574 46.0901 22.6217 45.7237C23.0481 45.132 23.6309 44.7529 24.2803 44.4548C25.0504 44.1023 25.8113 43.7279 26.5814 43.3765C27.7043 42.8623 28.6951 42.1769 29.4617 41.19C29.4928 41.1357 29.5204 41.0779 29.556 41.0282C29.8077 40.6746 29.7985 40.3267 29.5399 39.9811C29.4916 39.9164 29.4491 39.8471 29.4043 39.7801C28.8733 39.1756 28.3066 38.6105 27.6618 38.1251C26.2159 37.0376 24.6159 36.2367 22.939 35.5826C22.5608 35.4359 22.1907 35.2729 21.87 35.0152C21.3091 34.5633 21.1183 33.9057 21.3988 33.2401C21.5746 32.8252 21.7907 32.4265 22.0022 32.0278C22.1332 31.7805 22.3286 31.6603 22.639 31.6684C23.8044 31.6972 24.8676 32.0717 25.8756 32.6125C26.8917 33.158 27.8687 33.7671 28.7445 34.531C29.0215 34.7713 29.3204 34.9875 29.5767 35.2521C30.1836 35.7907 30.7307 36.3812 31.2031 37.0423C31.6237 37.5473 31.9858 38.0916 32.2858 38.6775C32.6996 39.3571 33.0835 40.0563 33.2317 40.8456C33.3605 41.5274 33.1789 42.1688 32.8249 42.7617Z" fill="white"/>
<path fill-rule="evenodd" clip-rule="evenodd" d="M45.0016 2.03555C44.4683 2.19965 43.9223 2.31638 43.4051 2.53364C42.5902 2.76478 41.8029 3.06872 41.0397 3.43392C40.2443 3.81529 40.0351 4.86234 40.6075 5.5257C40.8535 5.81115 40.8558 5.87124 40.6339 6.17981C40.0546 6.98532 39.4742 7.79083 38.8949 8.59518C38.4053 9.26663 37.9133 9.93577 37.426 10.6084C35.7938 12.8585 34.1617 15.1086 32.5319 17.3598C32.3939 17.5505 32.2353 17.7089 31.9917 17.7239C31.8193 17.7343 31.6836 17.8082 31.5468 17.8984C27.67 20.4444 23.7942 22.9892 19.9162 25.5328C19.692 25.6796 19.5185 25.868 19.3943 26.1072C17.9231 28.9178 16.4496 31.7272 14.9795 34.539C14.9416 34.6118 14.8634 34.6858 14.9255 34.7933C14.9577 34.7748 14.991 34.7609 15.0175 34.7401C16.0875 33.8491 17.1944 33.0077 18.2898 32.1514C19.0587 31.5504 19.8897 31.0789 20.8276 30.7981C22.0149 30.4421 23.2126 30.4941 24.4137 30.701C25.3689 30.8651 26.3068 31.0928 27.1355 31.6209C27.8504 32.0763 28.5642 32.5385 29.2389 33.0505C30.4687 33.9843 31.4181 35.1793 32.2261 36.4909C32.2836 36.5834 32.3158 36.7013 32.433 36.766C32.4549 36.6897 32.4802 36.6308 32.4893 36.5684C32.7284 34.9574 32.9663 33.344 33.2031 31.733C33.3307 30.8709 33.4698 30.0099 33.5767 29.1443C33.6272 28.7306 33.7169 28.3226 33.7571 27.91C33.81 27.3738 33.9249 26.848 33.9801 26.3117C34.033 25.7871 34.1767 25.2716 34.2399 24.7469C34.3042 24.2026 34.395 23.6618 34.4663 23.1197C34.5594 22.4171 34.4881 21.7688 34.1088 21.1782C33.9295 20.8985 33.9261 20.6501 34.0859 20.3831C34.2904 20.0399 34.5077 19.7059 34.71 19.3626C35.4536 18.1018 36.195 16.8386 36.9352 15.5743C37.6593 14.3377 38.3788 13.0977 39.1006 11.86C39.1478 11.7953 39.1983 11.7328 39.2409 11.6635C40.1064 10.2027 40.965 8.73617 41.8373 7.27886C42.3603 6.40401 42.8603 5.51183 43.5476 4.74792C43.7626 4.56995 43.9591 4.36193 44.1959 4.21978C44.5384 4.01291 44.7166 3.70781 44.851 3.35418C44.997 2.97049 45.0694 2.57063 45.1361 2.16845C45.1545 2.04248 45.1395 1.99279 45.0016 2.03555ZM31.2515 26.5879C31.2308 26.6538 31.217 26.7289 31.1055 26.7601C31.1193 26.618 31.1319 26.4897 31.1423 26.3591C31.225 25.2543 31.1239 24.1518 31.0951 23.0481C31.0894 22.8482 30.9768 22.773 30.7905 22.8054C30.5687 22.8447 30.3572 22.9117 30.1561 23.0238C27.778 24.3563 25.4424 25.7558 23.2207 27.3426C23.1195 27.4142 23.0207 27.5032 22.8908 27.5194C22.7057 27.5448 22.3632 27.3576 22.3057 27.1935C22.2241 26.9601 22.3655 26.8029 22.5299 26.6896C24.716 25.2023 26.9148 23.7323 29.3653 22.7037C29.771 22.5327 30.1975 22.4102 30.6193 22.2842C31.24 22.0981 31.548 22.3015 31.6354 22.9418C31.802 24.1899 31.6204 25.3987 31.2515 26.5879Z" fill="white"/>
<path fill-rule="evenodd" clip-rule="evenodd" d="M23.2342 36.7245C23.1859 36.8389 23.0594 36.8169 22.9503 36.7961C22.556 36.7245 22.1537 36.6933 21.7664 36.58C21.0469 36.5095 20.3538 36.3107 19.6492 36.1605C18.8377 35.9895 18.232 36.2541 17.8194 36.9695C17.5079 37.5092 17.2125 38.0593 16.9045 38.6013C16.8677 38.6672 16.8401 38.7804 16.7539 38.7712C16.6585 38.7619 16.6321 38.6452 16.601 38.5643C16.4436 38.1633 16.4217 37.7334 16.3792 37.3127C16.3332 36.8574 16.1861 36.491 15.7941 36.2102C15.1942 35.7791 15.2022 35.3076 15.7746 34.8407C16.2815 34.4281 16.8619 34.1311 17.4159 33.7925C18.4481 33.1627 19.4883 32.5478 20.5273 31.9319C20.8055 31.7666 21.0871 31.606 21.4492 31.6094C21.3664 31.9434 21.1917 32.2173 21.063 32.5097C20.9572 32.7501 20.8377 32.9835 20.7354 33.2251C20.4733 33.8445 20.5963 34.3958 21.0618 34.8661C21.3089 35.1158 21.5779 35.3434 21.8376 35.5803C22.2537 35.875 22.6721 36.1686 23.0882 36.4644C23.179 36.5292 23.2813 36.6101 23.2342 36.7245Z" fill="white"/>
<path fill-rule="evenodd" clip-rule="evenodd" d="M35.5996 11.9677C35.3514 12.2856 35.0985 12.6011 34.8479 12.9177C34.7985 12.9801 34.7594 13.0564 34.6675 13.0656C34.6721 13.1569 34.6089 13.2159 34.5594 13.2771C33.8054 14.2132 33.0491 15.1459 32.2951 16.082C32.1227 16.2958 31.9112 16.4645 31.6986 16.6309C31.5492 16.7476 31.3733 16.8112 31.194 16.713C31.0296 16.6228 30.9699 16.4553 30.9825 16.2727C31.0296 15.6116 30.686 15.2013 30.1354 14.9205C29.1366 14.4109 28.0585 14.1693 26.9654 13.9786C26.8068 13.9497 26.6482 13.9185 26.4884 13.8862C26.4643 13.8816 26.4436 13.8631 26.3999 13.8399C29.086 12.8287 31.802 12.0174 34.6594 11.7701C35.0123 11.732 35.3652 11.6788 35.7238 11.7054C35.741 11.8291 35.6571 11.8938 35.5996 11.9677Z" fill="white"/>
<path fill-rule="evenodd" clip-rule="evenodd" d="M16.2721 44.35C16.1583 44.3488 16.0353 44.3731 15.9342 44.2887C15.7778 44.2679 15.6342 44.2078 15.502 44.1223C14.8089 43.8507 14.2331 43.4058 13.7308 42.8672C13.0756 42.1634 12.4596 41.4284 12.2216 40.4588C12.1205 40.0439 12.163 39.6683 12.5136 39.3759C12.6285 39.28 12.6906 39.265 12.7572 39.4407C12.8457 39.6764 12.8331 39.9203 12.871 40.1606C13.0101 41.0193 13.4837 41.6746 14.1262 42.2224C14.3802 42.4396 14.6491 42.6373 14.9158 42.8383C14.9997 42.9008 15.1009 42.9759 15.2112 42.9042C15.3066 42.8418 15.2963 42.7286 15.2882 42.6303C15.2089 41.7023 15.1032 40.7743 15.0491 39.8451C14.9963 38.9426 14.7445 38.085 14.5629 37.209C14.4756 36.7895 14.5273 36.3608 14.6239 35.9424C14.6526 35.8176 14.7101 35.6674 14.8376 35.665C14.956 35.6639 15.0595 35.7829 15.0974 35.9135C15.2974 36.5965 15.5641 37.2645 15.6411 37.981C15.7457 38.5161 15.7388 39.0593 15.7204 39.5978C15.687 40.5409 15.7399 41.4712 16.0077 42.3807C16.1893 42.9273 16.4215 43.4589 16.5433 44.0241C16.6146 44.3488 16.6031 44.3557 16.2721 44.35Z" fill="white"/>
<path fill-rule="evenodd" clip-rule="evenodd" d="M28.8557 40.7239C28.7752 40.8637 28.6821 40.992 28.5557 41.0948C27.9833 41.7524 27.2511 42.2031 26.5224 42.6504C25.2707 43.4189 23.9225 43.9702 22.5156 44.3781C22.3513 44.4255 22.1846 44.4683 22.011 44.459C21.872 44.4521 21.7283 44.429 21.6754 44.281C21.6248 44.1366 21.703 44.0175 21.8122 43.9239C22.0191 43.7483 22.2386 43.5899 22.4846 43.4732C24.0891 42.7128 25.3293 41.5213 26.404 40.1333C26.5373 39.9623 26.6615 39.7808 26.8132 39.6283C27.3327 39.1036 28.1959 39.2041 28.5511 39.8213C28.974 40.0224 29.0798 40.3332 28.8557 40.7239Z" fill="white"/>
<path fill-rule="evenodd" clip-rule="evenodd" d="M21.7265 46.0012C21.6104 46.0254 21.5645 45.9445 21.5082 45.881C20.2381 45.1159 19.3645 44.0018 18.7427 42.5861C18.56 43.0715 18.522 43.4795 18.5105 43.8944C18.4864 44.7322 18.6508 45.5539 18.714 46.3825C18.7186 46.4369 18.7243 46.49 18.7289 46.5443C18.7335 46.601 18.7358 46.6576 18.6703 46.6796C18.6048 46.7027 18.5738 46.6507 18.5427 46.6056C18.368 46.3548 18.2979 46.0659 18.2358 45.7723C17.9243 44.2942 17.8611 42.815 18.1473 41.3253C18.2163 40.9693 18.3864 40.6642 18.5531 40.3557C18.6174 40.2366 18.7404 40.1257 18.8462 40.1511C18.9737 40.1823 19.0128 40.3487 19.0105 40.4874C18.9967 41.0063 19.0485 41.5206 19.1956 42.0175C19.5117 43.0808 20.0967 43.9614 20.9783 44.6409C21.1955 44.8085 21.4369 44.9668 21.515 45.2615C21.7231 45.4696 21.7081 45.7365 21.7265 46.0012Z" fill="white"/>
<path fill-rule="evenodd" clip-rule="evenodd" d="M14.8786 34.8547L14.875 34.8369L14.8881 34.8393L14.8786 34.8547Z" fill="white"/>
</svg>
