<svg width="139" height="38" viewBox="0 0 139 38" fill="none" xmlns="http://www.w3.org/2000/svg">
<path d="M29.6568 9.30987C29.6568 8.32812 29.6527 7.44912 29.6568 6.56933C29.6632 5.50088 30.1079 4.84906 31.0728 4.47418C31.9341 4.14025 32.6309 4.39391 32.9456 5.27692C33.1479 5.84365 33.2169 6.47059 33.2667 7.07746C33.3397 7.92756 33.3068 8.78729 33.3831 9.63738C33.5075 11.0398 33.9715 12.3514 34.5767 13.6133C36.4905 17.5997 39.1748 20.9985 42.4435 23.9558C44.3441 25.6864 46.4464 27.1814 48.7049 28.4086C51.8219 30.0943 55.1212 31.1684 58.6725 31.4919C62.52 31.8419 66.2463 31.2768 69.9108 30.1818C74.2455 28.8862 78.2512 26.8649 82.1124 24.5418C82.2423 24.4738 82.3442 24.3625 82.4005 24.2271C82.24 24.3074 82.0682 24.3732 81.9117 24.4631C77.8033 26.8151 73.4685 28.6285 68.7982 29.5003C62.3538 30.7044 56.1222 30.0277 50.2108 27.068C47.3298 25.6231 44.8895 23.6339 43.2214 20.858C40.1782 15.7944 40.0811 10.6111 43.0448 5.48643C44.456 3.03889 46.6732 1.50888 49.4538 0.910837C50.1121 0.769556 50.8362 0.83538 51.5129 0.926892C51.9142 0.980676 52.3092 1.23193 52.6527 1.47356C52.7509 1.55132 52.832 1.64848 52.891 1.75897C52.95 1.86945 52.9855 1.9909 52.9955 2.11574C52.9955 2.22973 52.6479 2.41276 52.4336 2.4545C51.7278 2.60444 51.0141 2.71433 50.2959 2.78362C48.2987 2.94417 46.8538 3.96926 45.7444 5.57313C44.9649 6.70178 44.5403 7.96448 44.3613 9.30104C43.7665 13.7016 45.1126 17.5467 47.8444 20.9407C49.6906 23.243 52.188 24.618 54.9357 25.5741C54.9518 25.5797 54.9799 25.5532 55.0529 25.5139L54.727 25.0812C52.8944 22.661 53.3214 19.7085 55.7762 17.8839C56.0337 17.6926 56.3071 17.5237 56.5934 17.379C56.8543 17.2481 57.0092 17.3701 56.9988 17.6583C56.9915 17.8711 56.9514 18.0822 56.9289 18.2949C56.8005 19.499 56.7933 20.7031 57.1087 21.8815C57.6137 23.7663 58.7945 25.1422 60.4473 26.1192C62.044 27.0632 63.7923 27.5095 65.641 27.6042C69.0928 27.78 72.3134 26.8513 75.4641 25.591C79.0307 24.1653 82.3765 22.3046 85.5665 20.1869C89.4678 17.6078 93.2961 14.9122 97.1492 12.2567C99.6377 10.5421 102.109 8.80495 104.823 7.44029C108.615 5.5354 112.597 4.25664 116.833 3.90826C122.014 3.4812 126.905 4.40515 131.304 7.33915C133.194 8.59945 134.814 10.1399 136.103 12.0159C138.169 15.0237 138.861 18.3415 138.33 21.9425C137.959 24.431 136.97 26.608 135.078 28.3114C132.991 30.1882 130.562 31.0239 127.758 30.5912C124.072 30.0221 122.245 26.8497 121.963 24.1741C121.745 22.1159 122.347 20.3009 123.693 18.7541C126.601 15.4139 130.794 17.4135 131.758 20.4446C132.601 23.0937 130.956 25.8727 128.204 26.2733C127.693 26.3479 127.147 26.2195 126.622 26.1577C126.39 26.1312 126.167 26.0349 125.909 26.0341C126.569 26.958 127.465 27.5023 128.596 27.5858C130.477 27.7254 132.002 26.9388 133.186 25.5508C135.417 22.9379 135.874 19.9236 134.975 16.6677C134.519 15.0157 133.658 13.5724 132.542 12.2808C129.932 9.2601 126.643 7.60726 122.661 7.23479C119.254 6.9137 115.998 7.51174 112.826 8.66768C109.374 9.92637 106.3 11.8521 103.434 14.1263C103.021 14.4538 102.879 14.8126 102.969 15.3063C103.084 15.9373 103.175 16.573 103.301 17.2024C103.35 17.4104 103.434 17.6089 103.548 17.79C103.731 18.1006 103.902 18.0918 104.047 17.7739C104.122 17.6021 104.181 17.424 104.224 17.2417C104.795 14.9523 106.333 13.5146 108.39 12.5569C109.079 12.2358 109.784 11.9284 110.532 11.7711L110.641 11.9316C110.467 12.1114 110.29 12.2864 110.123 12.471C109.481 13.1847 108.791 13.8654 108.212 14.6288C107.665 15.3472 107.267 16.1652 107.259 17.1976C107.75 17.0643 107.917 16.7111 108.097 16.4125C109.186 14.6063 110.706 13.2361 112.447 12.097C114.636 10.6657 117.038 9.85332 119.649 9.59725C122.192 9.3484 124.676 9.56434 127.082 10.412C129.104 11.1232 130.891 12.219 132.3 13.8734C133.543 15.3312 134.147 17.045 134.387 18.9154C134.433 19.2766 134.455 19.6379 134.496 20.0938C134.106 19.9108 134.13 19.6034 134.029 19.381C133.604 18.4603 133.27 17.4881 132.762 16.6172C131.152 13.8598 128.657 12.3827 125.544 11.9613C122.065 11.4925 118.793 12.211 115.734 13.9216C113.406 15.222 111.749 17.1189 110.677 19.5488C110.062 20.9439 109.473 22.3495 108.806 23.723C108.279 24.8429 107.489 25.8185 106.504 26.5663C105.213 27.5296 103.86 27.6195 102.439 26.8778C100.493 25.8615 99.4177 23.6243 99.7308 21.2441C99.9459 19.605 100.496 18.0782 101.277 16.6292C101.503 16.2094 101.742 15.796 101.905 15.2943C101.697 15.4339 101.47 15.5536 101.283 15.7165C99.6647 17.1165 98.0512 18.5213 96.442 19.9309C91.5694 24.1725 86.4704 28.114 80.8184 31.2711C76.1681 33.8688 71.2658 35.8379 65.9677 36.6968C60.5188 37.5798 55.1541 37.2122 49.8432 35.7384C46.7928 34.8915 43.8772 33.6898 40.9601 32.4833C38.2637 31.3683 35.5344 30.3504 32.675 29.7218C30.4394 29.2298 28.1797 29.0203 25.9064 29.3028C24.1572 29.5204 22.5349 30.1248 21.1028 31.1844C20.9093 31.3273 20.7151 31.4702 20.516 31.6051C20.4799 31.6292 20.4181 31.6155 20.2896 31.6251C20.3699 31.4381 20.4189 31.2703 20.5104 31.1315C22.4771 28.1525 25.1815 26.315 28.7585 25.8832C31.3489 25.5717 33.896 25.896 36.3516 26.726C38.1224 27.3241 39.8459 28.0626 41.5902 28.7393C41.8311 28.8308 42.0614 28.9287 42.3601 28.9063C42.1626 28.7393 41.9691 28.5675 41.7676 28.4062C37.5204 25.0194 33.7242 21.2104 30.5863 16.7496C29.1719 14.7428 27.6523 12.797 26.091 10.8985C24.6332 9.10863 22.8692 7.59174 20.8812 6.41841C16.2165 3.68509 10.3839 4.48141 6.68084 8.38271C5.38683 9.74736 4.66436 11.3898 4.381 13.2369C4.23704 14.1621 4.2319 15.1036 4.36575 16.0304C4.75828 18.7693 7.05331 21.3854 9.72481 22.0453C10.656 22.2757 11.5904 22.1898 12.4886 21.8655C13.9408 21.3413 14.9835 20.3403 15.6996 18.9917C15.7678 18.8624 15.7903 18.7099 15.8882 18.3944C15.6699 18.5742 15.584 18.6256 15.523 18.6979C14.347 20.0962 12.8467 20.6582 11.079 20.2488C9.3114 19.8394 8.12576 18.6553 7.53816 16.9527C6.85182 14.9579 8.05512 12.5425 10.1069 11.6731C11.7806 10.9627 13.3981 11.1168 14.9482 12.044C18.2756 14.0308 19.2027 18.3214 16.9013 21.5388C15.128 24.02 12.6412 25.086 9.58995 24.83C5.47111 24.488 1.32498 21.1085 0.626601 15.9076C0.116061 12.1074 1.15239 8.72869 3.68583 5.87335C7.03163 2.10772 11.3231 0.731025 16.2599 1.23193C20.0865 1.61725 23.2557 3.44909 26.0846 5.93356C27.2847 6.98755 28.4101 8.12663 29.6568 9.30987ZM84.1497 23.0664C84.1818 23.1217 84.2139 23.1779 84.2452 23.2341L86.3123 21.912L86.2216 21.7715L84.1497 23.0664Z" fill="#2B4A5C"/>
</svg>
