<svg width="1209" height="89" viewBox="0 0 1209 89" fill="none" xmlns="http://www.w3.org/2000/svg">
<g filter="url(#filter0_d_529_150945)">
<g clip-path="url(#clip0_529_150945)">
<path d="M61.0315 20.4006C61.0315 18.6175 61.0242 17.021 61.0315 15.4231C61.0432 13.4825 61.852 12.2986 63.607 11.6177C65.1736 11.0112 66.441 11.4719 67.0133 13.0757C67.3812 14.1051 67.5068 15.2437 67.5973 16.346C67.7302 17.89 67.6703 19.4515 67.809 20.9955C68.0354 23.5426 68.8793 25.9249 69.9801 28.2169C73.4609 35.4572 78.3433 41.6303 84.2886 47.0015C87.7454 50.1447 91.5691 52.8601 95.677 55.089C101.346 58.1507 107.347 60.1015 113.806 60.6891C120.804 61.3248 127.582 60.2984 134.247 58.3097C142.131 55.9565 149.417 52.2853 156.44 48.0659C156.676 47.9424 156.862 47.7402 156.964 47.4943C156.672 47.6401 156.36 47.7597 156.075 47.923C148.602 52.1949 140.718 55.4885 132.223 57.0718C120.502 59.2588 109.168 58.0297 98.4161 52.6541C93.1759 50.0298 88.7374 46.4169 85.7034 41.3752C80.1684 32.1782 79.9917 22.764 85.3822 13.4563C87.949 9.01086 91.9816 6.23194 97.0392 5.14575C98.2365 4.88914 99.5534 5.0087 100.784 5.17491C101.514 5.27259 102.233 5.72894 102.858 6.16779C103.036 6.30904 103.184 6.4855 103.291 6.68617C103.398 6.88685 103.463 7.10743 103.481 7.33418C103.481 7.54121 102.849 7.87363 102.459 7.94945C101.175 8.22179 99.8771 8.42136 98.5708 8.54722C94.9382 8.83882 92.3101 10.7007 90.2923 13.6137C88.8746 15.6636 88.1023 17.957 87.7767 20.3846C86.6948 28.3773 89.1433 35.361 94.1118 41.5254C97.4699 45.7068 102.012 48.2044 107.01 49.9408C107.039 49.951 107.09 49.9029 107.223 49.8315L106.63 49.0456C103.297 44.6498 104.074 39.2873 108.539 35.9734C109.007 35.6259 109.504 35.3191 110.025 35.0563C110.499 34.8186 110.781 35.0402 110.762 35.5637C110.749 35.95 110.676 36.3335 110.635 36.7198C110.402 38.9068 110.388 41.0938 110.962 43.2341C111.881 46.6575 114.028 49.1564 117.035 50.9308C119.939 52.6454 123.119 53.456 126.481 53.6281C132.759 53.9474 138.617 52.2605 144.348 49.9715C150.835 47.3821 156.92 44.0025 162.722 40.1563C169.818 35.4718 176.781 30.5759 183.79 25.7529C188.316 22.6386 192.811 19.4836 197.746 17.005C204.645 13.5452 211.887 11.2226 219.591 10.5899C229.015 9.81421 237.911 11.4923 245.912 16.8213C249.349 19.1103 252.295 21.9082 254.64 25.3155C258.398 30.7786 259.657 36.8044 258.69 43.3449C258.015 47.8647 256.217 51.8187 252.775 54.9126C248.979 58.3213 244.563 59.8391 239.463 59.0532C232.758 58.0195 229.435 52.2576 228.921 47.3981C228.525 43.6598 229.62 40.3633 232.069 37.5538C237.357 31.4871 244.983 35.119 246.738 40.6243C248.271 45.4357 245.278 50.4832 240.273 51.2107C239.343 51.3463 238.352 51.1131 237.395 51.0008C236.975 50.9527 236.569 50.7777 236.099 50.7763C237.3 52.4544 238.928 53.4429 240.985 53.5945C244.408 53.8482 247.18 52.4194 249.336 49.8986C253.393 45.1528 254.224 39.6781 252.588 33.7645C251.759 30.764 250.193 28.1425 248.163 25.7966C243.416 20.3102 237.433 17.3082 230.191 16.6317C223.995 16.0485 218.073 17.1347 212.303 19.2342C206.025 21.5204 200.433 25.0181 195.22 29.1485C194.47 29.7434 194.211 30.3951 194.375 31.2918C194.584 32.4377 194.749 33.5925 194.978 34.7355C195.069 35.1133 195.22 35.4738 195.428 35.8028C195.76 36.367 196.071 36.351 196.336 35.7736C196.471 35.4615 196.579 35.1381 196.657 34.807C197.696 30.6488 200.492 28.0375 204.235 26.2982C205.487 25.715 206.771 25.1566 208.13 24.8708L208.329 25.1624C208.013 25.489 207.691 25.8068 207.387 26.1422C206.219 27.4383 204.965 28.6747 203.91 30.0612C202.916 31.3661 202.192 32.8518 202.177 34.7268C203.071 34.4847 203.375 33.8432 203.702 33.3009C205.683 30.0204 208.447 27.5316 211.614 25.4627C215.595 22.8632 219.964 21.3877 224.713 20.9226C229.339 20.4706 233.856 20.8628 238.233 22.4024C241.91 23.6942 245.161 25.6844 247.724 28.6893C249.984 31.337 251.082 34.4498 251.52 37.8469C251.603 38.5029 251.642 39.159 251.717 39.9872C251.009 39.6548 251.053 39.0963 250.867 38.6925C250.095 37.0202 249.487 35.2546 248.563 33.6727C245.634 28.6645 241.096 25.9818 235.436 25.2163C229.107 24.3649 223.155 25.6698 217.593 28.7767C213.358 31.1387 210.345 34.5839 208.394 38.9972C207.276 41.5312 206.204 44.0841 204.991 46.5787C204.034 48.6128 202.597 50.3848 200.803 51.7429C198.456 53.4925 195.996 53.6558 193.411 52.3086C189.872 50.4628 187.916 46.3994 188.485 42.0765C188.876 39.0993 189.876 36.3262 191.297 33.6945C191.709 32.932 192.144 32.1811 192.44 31.2699C192.061 31.5236 191.649 31.7408 191.307 32.0368C188.365 34.5795 185.43 37.131 182.503 39.6912C173.641 47.3952 164.366 54.5539 154.086 60.2881C145.628 65.0062 136.712 68.5826 127.075 70.1427C117.165 71.7464 107.407 71.0787 97.7474 68.4018C92.1992 66.8636 86.8963 64.681 81.5904 62.4897C76.6861 60.4646 71.722 58.6158 66.5213 57.4742C62.455 56.5805 58.345 56.2 54.2101 56.7132C51.0287 57.1083 48.0779 58.2061 45.4732 60.1307C45.1213 60.3902 44.768 60.6497 44.4059 60.8947C44.3402 60.9384 44.2278 60.9136 43.9942 60.9311C44.1402 60.5914 44.2292 60.2867 44.3957 60.0345C47.9728 54.6239 52.8917 51.2866 59.3977 50.5022C64.1093 49.9365 68.742 50.5255 73.2083 52.033C76.4292 53.1192 79.5639 54.4606 82.7366 55.6897C83.1746 55.8559 83.5936 56.0337 84.1368 55.9929C83.7776 55.6897 83.4257 55.3777 83.0593 55.0846C75.3341 48.9334 68.4296 42.0152 62.7222 33.9132C60.1496 30.2683 57.3857 26.7341 54.546 23.286C51.8944 20.0351 48.6861 17.28 45.0702 15.149C36.5859 10.1845 25.9772 11.6309 19.242 18.7167C16.8884 21.1952 15.5743 24.1783 15.0589 27.5331C14.7971 29.2136 14.7877 30.9236 15.0312 32.6069C15.7451 37.5815 19.9194 42.3331 24.7785 43.5315C26.4721 43.95 28.1716 43.794 29.8054 43.205C32.4466 42.2529 34.3433 40.4348 35.6456 37.9854C35.7697 37.7506 35.8106 37.4736 35.9887 36.9006C35.5916 37.2272 35.4354 37.3205 35.3244 37.4517C33.1854 39.9916 30.4566 41.0121 27.2416 40.2686C24.0265 39.525 21.87 37.3745 20.8013 34.2821C19.5529 30.659 21.7416 26.2719 25.4734 24.6929C28.5177 23.4026 31.4597 23.6825 34.279 25.3665C40.3309 28.975 42.0173 36.768 37.8313 42.6115C34.6061 47.1182 30.0828 49.0544 24.5332 48.5893C17.0417 47.9682 9.50051 41.8301 8.23027 32.3838C7.30168 25.4817 9.1866 19.345 13.7945 14.159C19.88 7.3196 27.6854 4.81916 36.6647 5.72894C43.6248 6.42877 49.3891 9.75589 54.5343 14.2683C56.717 16.1827 58.764 18.2516 61.0315 20.4006ZM160.145 45.3861C160.204 45.4867 160.262 45.5888 160.319 45.6908L164.079 43.2895L163.914 43.0344L160.145 45.3861Z" fill="#790800"/>
</g>
<path d="M293.907 47.8238C293.894 44.7301 294.087 41.5719 294.487 38.3492C294.887 35.1137 295.486 31.9168 296.285 28.7586C297.097 25.6004 298.103 22.526 299.302 19.5354C300.5 16.5447 301.893 13.7539 303.478 11.1629C303.504 11.0984 303.555 10.9889 303.633 10.8342C303.71 10.6666 303.813 10.4604 303.942 10.2154C304.071 9.97051 304.194 9.73203 304.31 9.5C304.426 9.26797 304.529 9.05528 304.619 8.86192C304.709 8.66856 304.78 8.50098 304.832 8.35918C304.883 8.21738 304.909 8.12071 304.909 8.06914C304.909 7.48906 304.039 7.19903 302.299 7.19903C301.512 7.19903 300.745 7.33438 299.998 7.60508C299.263 7.86289 298.896 8.28184 298.896 8.86192C299.024 9.75137 299.418 10.441 300.075 10.9309C300.165 10.9824 300.275 11.0404 300.404 11.1049C300.546 11.1693 300.707 11.2402 300.887 11.3176C301.235 11.4465 301.441 11.5561 301.506 11.6463L299.611 15.6682C297.768 14.7787 296.214 13.973 294.951 13.2512C293.675 12.5035 292.56 11.5947 291.606 10.5248C290.652 9.41621 290.175 8.20449 290.175 6.88965C290.175 5.52324 290.832 4.40176 292.147 3.5252C293.488 2.64863 294.893 2.21035 296.363 2.21035H359.32C361.293 2.21035 362.865 2.52617 364.038 3.15781C365.224 3.80235 365.817 5.09785 365.817 7.04434C365.817 9.00371 364.773 10.86 362.685 12.6131C360.596 14.3791 358.231 15.7713 355.588 16.7897L354.409 12.7484C355.208 12.5293 355.995 12.149 356.768 11.6076C357.567 11.0404 357.967 10.3895 357.967 9.65469C357.967 7.91446 356.994 7.04434 355.047 7.04434C352.778 7.04434 351.644 7.49551 351.644 8.39785C351.644 9.00371 351.818 9.81582 352.166 10.8342C352.347 11.3369 352.488 11.7752 352.591 12.149C352.695 12.51 352.772 12.8129 352.823 13.0578C353.803 16.2031 354.654 19.4129 355.376 22.6871C356.111 25.9484 356.723 29.3064 357.213 32.7611C357.703 36.2158 358.07 39.6705 358.315 43.1252C358.56 46.567 358.682 50.0604 358.682 53.6053C358.463 56.0932 358.018 57.7883 357.348 58.6906C356.936 59.2191 356.169 59.4834 355.047 59.4834C354.867 59.4834 354.589 59.4641 354.216 59.4254C353.855 59.3867 353.384 59.3223 352.804 59.232C351.657 59.0773 350.632 59 349.73 59C349.163 59 348.37 59.0773 347.351 59.232C346.836 59.3223 346.327 59.3867 345.824 59.4254C345.334 59.4641 344.844 59.4834 344.354 59.4834C340.809 59.4834 339.037 58.8969 339.037 57.7238C339.037 57.466 339.166 57.1889 339.424 56.8924C339.681 56.5959 340.062 56.2479 340.564 55.8482C340.822 55.642 341.087 55.4422 341.357 55.2488C341.628 55.0426 341.886 54.8492 342.131 54.6688C342.388 54.4883 342.627 54.3271 342.846 54.1854C343.065 54.0307 343.252 53.8953 343.407 53.7793C343.858 53.457 344.316 53.1283 344.78 52.7932C345.244 52.458 345.676 52.1164 346.075 51.7684C346.475 51.4074 346.823 51.0336 347.119 50.6469C347.429 50.2602 347.641 49.8477 347.757 49.4094C348.08 47.9656 348.241 46.1223 348.241 43.8793C348.241 40.6824 348.028 37.6725 347.603 34.8494C346.52 25.4006 344.857 18.5105 342.614 14.1793C340.822 9.88672 338.418 7.66953 335.402 7.52774C333.442 7.52774 332.198 8.37207 331.67 10.0607C331.154 11.7236 330.897 13.8055 330.897 16.3063C328.499 16.3063 326.456 16.2805 324.767 16.2289C323.078 16.1773 321.712 16.1 320.668 15.9969C320.668 10.0285 318.928 7.04434 315.447 7.04434C312.108 7.04434 308.886 10.5055 305.779 17.4277C305.044 19.0648 304.38 20.7986 303.788 22.6291C303.195 24.4467 302.672 26.3803 302.221 28.4299C301.319 32.4775 300.868 35.9064 300.868 38.7166C300.894 40.2377 300.945 41.5848 301.022 42.7578C301.113 43.9309 301.242 44.9428 301.409 45.7936C301.744 47.4822 302.17 48.7326 302.685 49.5447C303.24 50.3439 303.916 50.9949 304.716 51.4977C305.128 51.7426 305.56 52.0068 306.011 52.2904C306.475 52.5611 306.978 52.8447 307.519 53.1412C310.42 54.9072 311.87 56.2027 311.87 57.0277C311.87 58.3426 310.529 59 307.848 59C306.959 59 305.953 58.9227 304.832 58.768C304.264 58.6777 303.73 58.6133 303.227 58.5746C302.737 58.5359 302.266 58.5166 301.815 58.5166C300.939 58.5166 300.004 58.6004 299.012 58.768C297.98 58.9227 297.2 59 296.672 59C295.744 59 295.138 58.6326 294.854 57.8979C294.223 56.8021 293.907 53.4441 293.907 47.8238ZM307.365 17.9691L308.796 14.8947C310.974 15.7842 313.591 16.4803 316.646 16.983C319.675 17.4857 322.866 17.7371 326.217 17.7371C331.85 17.7371 337.155 17.3697 342.131 16.635L343.233 19.8834C340.59 20.2057 337.87 20.4441 335.073 20.5988C332.276 20.7535 329.375 20.8309 326.372 20.8309C318.921 20.8309 312.585 19.877 307.365 17.9691ZM320.668 50.0475V22.0104C320.977 22.0361 321.364 22.0619 321.828 22.0877C322.305 22.1135 322.859 22.1393 323.491 22.165C324.767 22.2295 325.727 22.2875 326.372 22.3391C327.429 22.223 328.937 22.165 330.897 22.165V50.7629C330.897 51.4848 331.135 52.0648 331.612 52.5031C331.857 52.7223 332.166 52.9672 332.54 53.2379C332.927 53.5086 333.378 53.8051 333.894 54.1273C334.963 54.759 335.75 55.3262 336.253 55.8289C336.794 56.3316 337.065 56.9633 337.065 57.7238C337.065 58.8969 335.163 59.4834 331.361 59.4834C331.051 59.4834 330.652 59.4641 330.162 59.4254C329.685 59.3867 329.118 59.3223 328.46 59.232C327.158 59.0773 325.959 59 324.864 59C324 59 322.988 59.0773 321.828 59.232C321.248 59.3223 320.706 59.3867 320.204 59.4254C319.714 59.4641 319.263 59.4834 318.85 59.4834C315.628 59.4834 314.016 58.768 314.016 57.3371C314.016 56.5895 314.293 55.9771 314.848 55.5002C315.415 55.0104 316.24 54.4818 317.323 53.9146C318.444 53.3088 319.276 52.7416 319.817 52.2131C320.384 51.6459 320.668 50.924 320.668 50.0475ZM369.414 47.5145C369.414 45.4133 369.936 43.499 370.98 41.7717C372.024 40.0572 373.352 38.5684 374.963 37.3051C376.587 36.0547 378.289 34.9719 380.068 34.0566C380.97 33.6055 381.95 33.135 383.007 32.6451C384.064 32.1553 385.211 31.6461 386.449 31.1176C387.145 30.8598 387.705 30.6535 388.131 30.4988C388.556 30.3313 388.84 30.2152 388.982 30.1508C389.278 29.9961 389.465 29.7641 389.542 29.4547C389.542 28.9262 389.117 28.6619 388.266 28.6619C387.274 28.6619 385.804 28.8488 383.858 29.2227C382.891 29.4031 382.059 29.5449 381.363 29.648C380.667 29.7383 380.094 29.7834 379.642 29.7834C377.567 29.7834 375.691 29.2742 374.016 28.2559C372.327 27.2246 371.483 25.7744 371.483 23.9053C371.483 21.817 372.475 20.2701 374.46 19.2646C376.446 18.2463 378.643 17.7371 381.054 17.7371C381.724 17.7371 382.884 17.7758 384.534 17.8531C386.172 17.9305 387.415 17.9691 388.266 17.9691C389.375 17.9691 391.141 17.9305 393.564 17.8531C395.975 17.7758 397.56 17.7371 398.321 17.7371C402.446 17.7371 405.301 18.9488 406.887 21.3723C408.202 23.409 408.859 27.3471 408.859 33.1865V52.8318C411.128 54.3658 412.262 55.5518 412.262 56.3896C412.159 57.4338 410.683 58.3555 407.834 59.1547C407.138 59.2578 406.39 59.3352 405.591 59.3867C404.792 59.4512 403.928 59.4834 403 59.4834C402.588 59.4834 402.001 59.4447 401.241 59.3674C400.48 59.29 399.552 59.1676 398.456 59C397.361 58.8324 396.394 58.71 395.556 58.6326C394.718 58.5553 394.003 58.5166 393.41 58.5166C392.817 58.5166 392.075 58.5553 391.186 58.6326C390.309 58.71 389.278 58.8324 388.092 59C386.919 59.1676 385.881 59.29 384.979 59.3674C384.09 59.4447 383.336 59.4834 382.717 59.4834C380.384 59.4834 378.192 59 376.143 58.0332C374.08 57.0406 372.443 55.642 371.231 53.8373C370.02 52.0326 369.414 49.925 369.414 47.5145ZM398.166 46.799V28.8166C398.166 26.3287 397.367 24.4402 395.769 23.1512C394.17 21.8621 392.095 21.2176 389.542 21.2176C387.415 21.2176 385.617 21.4303 384.148 21.8557C382.266 22.1779 381.234 22.9707 381.054 24.234C381.054 25.4457 382.246 26.0516 384.631 26.0516C385.121 26.0516 385.733 26.0193 386.468 25.9549C387.203 25.8904 388.073 25.7938 389.078 25.6648C391.089 25.3941 392.378 25.2588 392.946 25.2588C395.317 25.2588 396.503 26.0773 396.503 27.7145C396.503 28.5395 396.149 29.2807 395.44 29.9381C394.731 30.5826 393.79 31.2143 392.617 31.833C392.024 32.1424 391.431 32.4518 390.838 32.7611C390.245 33.0576 389.652 33.3541 389.059 33.6506C386.713 34.7979 384.87 36.0289 383.529 37.3438C382.201 38.6328 381.537 40.3344 381.537 42.4484C381.537 44.498 382.201 46.0127 383.529 46.9924C384.857 47.9721 386.597 48.4619 388.75 48.4619C390.09 48.4619 391.734 48.1848 393.68 47.6305C395.653 47.0762 397.148 46.799 398.166 46.799ZM428.369 57.8979V24.3113C428.369 23.6926 428.195 23.2027 427.847 22.8418C427.512 22.4809 427.015 22.1135 426.358 21.7396C426.036 21.5463 425.752 21.3723 425.507 21.2176C425.275 21.05 425.082 20.8824 424.927 20.7148C424.772 20.5344 424.656 20.341 424.579 20.1348C424.515 19.9156 424.482 19.6707 424.482 19.4C424.482 18.8328 424.644 18.4139 424.966 18.1432C425.288 17.8725 426.004 17.7371 427.112 17.7371H439.545C440.525 17.7371 441.227 17.8338 441.653 18.0272C442.091 18.2205 442.31 18.6266 442.31 19.2453C442.31 19.5547 442.265 19.8254 442.175 20.0574C442.097 20.2895 441.975 20.5021 441.807 20.6955C441.653 20.8889 441.453 21.0758 441.208 21.2563C440.963 21.4367 440.68 21.6301 440.357 21.8363C440.035 22.0297 439.751 22.223 439.506 22.4164C439.262 22.6098 439.055 22.816 438.888 23.0352C438.733 23.2414 438.617 23.4734 438.54 23.7313C438.462 23.9891 438.424 24.2855 438.424 24.6207V55.5969C438.424 56.3316 438.701 57.2984 439.255 58.4973C439.539 59.116 439.771 59.6445 439.951 60.0828C440.145 60.534 440.293 60.9078 440.396 61.2043C440.615 61.823 440.725 62.7512 440.725 63.9887C440.725 67.2887 439.339 69.8023 436.567 71.5297C433.796 73.257 430.644 74.1207 427.112 74.1207C423.851 74.1207 420.899 73.4053 418.256 71.9744C415.601 70.5564 414.273 68.3457 414.273 65.3422C414.273 64.2723 414.57 63.2088 415.163 62.1518C415.768 61.0689 416.58 60.1924 417.599 59.5221C418.617 58.8518 419.726 58.5166 420.925 58.5166C422.472 58.5166 423.58 58.8518 424.25 59.5221C424.921 60.2053 425.481 61.0367 425.933 62.0164C426.384 63.009 426.777 63.5053 427.112 63.5053C427.422 63.5053 427.679 63.4021 427.886 63.1959C428.311 63.4666 428.524 63.9178 428.524 64.5494C428.524 65.4002 428.182 66.0963 427.499 66.6377C426.829 67.192 426.087 67.4691 425.275 67.4691C424.321 67.4691 423.612 67.1791 423.148 66.599C423.045 66.4959 422.942 66.3734 422.839 66.2316C422.736 66.1027 422.633 65.9738 422.53 65.8449C422.426 65.7289 422.317 65.6322 422.201 65.5549C422.098 65.4904 421.988 65.4711 421.872 65.4969C421.795 65.4969 421.717 65.5291 421.64 65.5936C421.576 65.6709 421.511 65.7611 421.447 65.8643C421.382 65.9674 421.331 66.0834 421.292 66.2123C421.253 66.3541 421.234 66.483 421.234 66.599C421.234 67.5787 421.711 68.3135 422.665 68.8033C423.619 69.2932 424.805 69.5381 426.223 69.5381C427.847 69.5381 429.226 69.1256 430.361 68.3006C431.521 67.4885 432.101 66.2896 432.101 64.7041C432.101 63.7631 431.514 62.4676 430.341 60.8176C430.238 60.6758 430.116 60.5146 429.974 60.3342C429.845 60.1537 429.69 59.9539 429.51 59.7348C429.149 59.3094 428.885 58.9742 428.717 58.7293C428.562 58.4844 428.446 58.2072 428.369 57.8979ZM427.576 8.39785C427.576 5.90996 429.529 4.66602 433.435 4.66602C437.289 4.66602 439.216 5.90996 439.216 8.39785C439.216 10.8729 437.238 12.1104 433.28 12.1104C429.478 12.1104 427.576 10.8729 427.576 8.39785ZM445.172 37.6145C445.172 32.3551 446.255 28.0238 448.42 24.6207C451.798 19.4 457.315 16.7897 464.972 16.7897C470.889 16.7897 475.536 18.4783 478.913 21.8557C482.716 25.8131 484.617 31.1176 484.617 37.7691C484.617 40.1152 484.295 42.5773 483.65 45.1555C483.006 47.7207 482.033 50.0797 480.731 52.2324C479.429 54.4109 477.785 56.1641 475.8 57.4918C473.815 58.8195 471.553 59.4834 469.013 59.4834C468.42 59.4834 467.75 59.3996 467.002 59.232C466.229 59.0773 465.552 59 464.972 59C464.302 59 463.573 59.0773 462.787 59.232C462.026 59.3996 461.511 59.4834 461.24 59.4834C457.747 59.4834 454.795 58.3748 452.384 56.1576C449.948 53.9275 448.137 51.1367 446.951 47.7852C445.765 44.382 445.172 40.9918 445.172 37.6145ZM454.356 33.8053C454.356 35.9451 454.717 37.9625 455.439 39.8574C456.148 41.7266 457.25 43.2219 458.746 44.3434C460.241 45.452 462.078 46.0063 464.256 46.0063C471.643 46.0063 475.336 41.6234 475.336 32.8578C475.349 31.0145 475.123 29.3516 474.659 27.8691C474.208 26.3738 473.551 25.1041 472.687 24.06C471.823 23.0158 470.779 22.2166 469.555 21.6623C468.33 21.0951 466.957 20.818 465.436 20.8309C462.033 20.9082 459.339 22.0361 457.354 24.2146C455.355 26.4061 454.356 29.6029 454.356 33.8053ZM492.622 52.1938V24.6207C492.622 23.9633 492.448 23.4283 492.1 23.0158C491.765 22.5904 491.249 22.1586 490.553 21.7203C489.857 21.2563 489.367 20.8953 489.084 20.6375C488.787 20.341 488.594 19.9285 488.504 19.4C488.504 18.6523 488.749 18.1883 489.238 18.0078C489.754 17.8273 490.482 17.7371 491.423 17.7371H504.108C504.598 17.7371 505.017 17.7436 505.365 17.7564C505.726 17.7693 506.016 17.7887 506.235 17.8145C506.763 18.1496 507.028 18.6266 507.028 19.2453C507.028 19.7738 506.854 20.1928 506.505 20.5021C506.17 20.7986 505.655 21.1338 504.959 21.5076C504.263 21.8686 503.734 22.2166 503.373 22.5518C503.012 22.874 502.832 23.2736 502.832 23.7506V24.6207C503.682 24.3887 505.004 23.5121 506.796 21.991C507.698 21.2176 508.491 20.5602 509.174 20.0188C509.857 19.4773 510.424 19.0455 510.875 18.7232C511.804 18.0658 512.899 17.7371 514.163 17.7371C514.846 17.7242 515.503 17.8209 516.135 18.0272C516.766 18.2205 517.353 18.5041 517.894 18.8779C518.436 19.2518 518.926 19.6965 519.364 20.2121C519.815 20.7148 520.195 21.2691 520.505 21.875C520.827 22.468 521.065 23.0996 521.22 23.7699C521.388 24.4273 521.465 25.0848 521.452 25.7422C521.452 28.3074 520.872 30.4408 519.712 32.1424C518.539 33.8568 516.792 35.3393 514.472 36.5896C513.634 36.8732 513.105 37.0859 512.886 37.2277C512.757 37.2277 512.603 37.3566 512.422 37.6145C512.629 37.8207 512.732 37.9818 512.732 38.0979C512.397 38.201 512.132 38.2525 511.939 38.2525C510.199 38.2525 509.329 37.434 509.329 35.7969C509.329 35.552 509.348 35.3199 509.387 35.1008C509.425 34.8816 509.483 34.6625 509.561 34.4434C509.638 34.2113 509.735 33.9729 509.851 33.7279C509.967 33.483 510.102 33.2123 510.257 32.9158C510.566 32.2971 510.805 31.7363 510.972 31.2336C511.14 30.7309 511.223 30.1895 511.223 29.6094C511.223 28.6426 510.946 27.94 510.392 27.5018C509.838 27.0635 509.219 26.8443 508.536 26.8443C508.097 26.8443 507.144 27.1215 505.674 27.6758C504.205 28.2301 503.257 28.5072 502.832 28.5072V52.3484C502.832 52.7867 502.993 53.1219 503.315 53.3539C503.483 53.457 503.708 53.5859 503.992 53.7406C504.275 53.8953 504.617 54.0629 505.017 54.2434C505.416 54.4238 505.764 54.5979 506.061 54.7654C506.357 54.9201 506.602 55.0877 506.796 55.2682C506.989 55.4357 507.131 55.6227 507.221 55.8289C507.311 56.0352 507.356 56.2736 507.356 56.5443C507.356 57.3564 506.66 58.0203 505.268 58.5359C503.914 59.0516 502.709 59.3094 501.652 59.3094C501.394 59.3094 501.104 59.29 500.782 59.2514C500.473 59.2256 500.144 59.1934 499.796 59.1547C499.448 59.116 499.1 59.0773 498.752 59.0387C498.404 59.0129 498.075 59 497.766 59C497.508 59 497.218 59.0129 496.896 59.0387C496.573 59.0645 496.225 59.1031 495.851 59.1547C495.478 59.2062 495.149 59.2449 494.865 59.2707C494.595 59.2965 494.375 59.3094 494.208 59.3094C492.996 59.3094 491.655 59.0838 490.186 58.6326C488.742 58.1686 488.02 57.4725 488.02 56.5443C488.02 55.8225 488.472 55.2424 489.374 54.8041C489.477 54.7396 489.87 54.5398 490.553 54.2047C491.249 53.8695 491.765 53.5602 492.1 53.2766C492.448 52.9801 492.622 52.6191 492.622 52.1938ZM553.937 50.6855C553.937 47.6691 554.723 43.7633 556.296 38.968C557.868 34.1469 559.802 29.242 562.096 24.2533C563.256 21.7268 564.378 19.3613 565.461 17.157C566.556 14.9398 567.626 12.8645 568.671 10.9309C569.779 9.28086 570.333 7.93379 570.333 6.88965C570.333 6.47715 569.779 6.16133 568.671 5.94219H567.085C565.138 5.94219 564.165 6.4127 564.165 7.35371C564.165 8.51387 565.087 9.7836 566.93 11.1629L564.629 15.2041C563.392 14.4564 562.27 13.6959 561.265 12.9225C560.272 12.1361 559.37 11.3369 558.558 10.5248C556.959 8.91348 556.16 7.38594 556.16 5.94219C556.16 4.45977 556.811 3.46719 558.113 2.96446C559.402 2.46172 561.258 2.21035 563.682 2.21035H591.564C592.57 2.21035 593.491 2.23613 594.329 2.2877C595.167 2.32637 595.921 2.39082 596.592 2.48106C597.919 2.64863 599.092 3.14492 600.111 3.96992C601.116 4.76914 601.671 6.00664 601.774 7.68242C601.774 8.86836 601.426 9.97051 600.73 10.9889C600.021 12.033 599.183 12.9354 598.216 13.6959C597.726 14.0826 597.197 14.4693 596.63 14.8561C596.063 15.2428 595.451 15.623 594.793 15.9969C594.136 16.3707 593.524 16.7252 592.956 17.0604C592.402 17.3826 591.887 17.6855 591.41 17.9691L571.919 29.7834C568.799 31.5494 566.344 33.367 564.552 35.2361C562.76 37.0795 561.864 39.3805 561.864 42.1391C561.864 45.3488 562.838 46.9537 564.784 46.9537C565.325 46.9537 565.809 46.8506 566.234 46.6443C566.66 46.4381 566.892 46.335 566.93 46.335C567.137 46.335 567.24 46.4381 567.24 46.6443C567.188 46.8119 567.137 46.9859 567.085 47.1664C567.033 47.334 566.982 47.5016 566.93 47.6691C566.93 48.0172 566.943 48.3781 566.969 48.752C566.995 49.1258 567.033 49.5189 567.085 49.9314C567.137 50.3439 567.175 50.7242 567.201 51.0723C567.227 51.4203 567.24 51.7426 567.24 52.0391C567.24 57.002 565.022 59.4834 560.588 59.4834C556.154 59.4834 553.937 56.5508 553.937 50.6855ZM580.872 17.7371C580.768 17.3633 580.639 16.8928 580.485 16.3256C580.33 15.7455 580.156 15.0688 579.963 14.2953C579.782 13.5219 579.615 12.858 579.46 12.3037C579.305 11.7494 579.17 11.2918 579.054 10.9309C578.448 9.12617 577.546 8.22383 576.347 8.22383C575.213 8.22383 573.685 9.99629 571.764 13.5412C571.506 14.0311 571.229 14.5918 570.933 15.2234C570.649 15.8422 570.34 16.5383 570.005 17.3117C569.67 18.0852 569.302 18.9553 568.903 19.9221C568.503 20.876 568.058 21.9459 567.568 23.1318C567.091 24.3049 566.647 25.3941 566.234 26.3996C565.822 27.3922 565.448 28.3074 565.113 29.1453L565.267 29.3L585.705 16.9443C586.556 16.4416 587.285 15.9969 587.89 15.6102C588.509 15.2234 589.018 14.9012 589.418 14.6434C589.818 14.3727 590.211 14.0568 590.597 13.6959C590.997 13.3221 591.384 12.9031 591.758 12.4391C592.518 11.4852 592.898 10.4539 592.898 9.34531C592.898 8.59766 592.724 7.9209 592.376 7.31504C592.041 6.70918 591.506 6.40625 590.772 6.40625C589.56 6.40625 588.954 7.12168 588.954 8.55254C588.954 9.79004 589.134 11.0275 589.495 12.265C588.206 13.2318 586.846 14.1729 585.415 15.0881C583.997 15.9904 582.483 16.8734 580.872 17.7371ZM586.73 46.1609L582.612 25.2588L591.081 20.1928L596.147 43.8793C596.843 47.1406 597.533 49.4352 598.216 50.7629C598.474 51.2914 598.828 51.7361 599.279 52.0971C599.524 52.2775 599.788 52.458 600.072 52.6385C600.369 52.8189 600.684 52.9994 601.02 53.1799C601.368 53.3475 601.677 53.5021 601.948 53.6439C602.218 53.7857 602.45 53.9082 602.644 54.0113C604.552 55.4551 605.505 56.5121 605.505 57.1824C605.505 57.943 604.951 58.5166 603.843 58.9033C602.734 59.29 601.516 59.4834 600.188 59.4834C599.814 59.4834 599.363 59.4641 598.835 59.4254C598.319 59.3867 597.732 59.3223 597.075 59.232C595.76 59.0773 594.632 59 593.691 59C592.544 59 591.229 59.0773 589.747 59.232C588.999 59.3223 588.348 59.3867 587.794 59.4254C587.252 59.4641 586.795 59.4834 586.421 59.4834C585.235 59.4834 584.113 59.2578 583.056 58.8066C582.025 58.3426 581.51 57.8527 581.51 57.3371C581.6 56.4734 582.206 55.6291 583.327 54.8041C583.43 54.7268 583.611 54.6172 583.869 54.4754C584.126 54.3207 584.462 54.1338 584.874 53.9146C585.725 53.4764 586.376 53.0639 586.827 52.6771C587.291 52.2904 587.523 51.865 587.523 51.401C587.523 51.0658 587.452 50.4664 587.31 49.6027C587.181 48.7391 586.988 47.5918 586.73 46.1609ZM612.911 52.1938V24.0793C612.911 23.525 612.357 23.0996 611.248 22.8031C609.714 22.0426 608.947 21.2756 608.947 20.5021C608.947 19.4451 610.217 18.9166 612.756 18.9166V16.9443C612.756 15.4232 612.305 14.5016 611.403 14.1793C610.874 14.0246 610.507 13.8699 610.301 13.7152C610.082 13.5605 609.972 13.2383 609.972 12.7484C609.972 12.3359 610.662 11.7816 612.041 11.0855C613.304 10.4668 614.406 9.91895 615.347 9.44199C616.301 8.95215 617.107 8.52031 617.764 8.14649C619.079 7.39883 620.31 6.45137 621.458 5.3041C622.36 4.72403 622.863 4.43399 622.966 4.43399C623.804 4.43399 624.223 4.77559 624.223 5.45879C624.223 5.93574 624.036 6.61895 623.662 7.5084C623.301 8.35918 623.121 9.07461 623.121 9.65469V19.5547C624.036 19.5547 625.106 19.4 626.33 19.0906C627.529 18.7684 628.464 18.6072 629.134 18.6072C630.23 18.6072 631.1 18.8521 631.744 19.342C632.389 19.8189 632.711 20.4441 632.711 21.2176C632.711 22.0941 632.486 23.0803 632.034 24.176C631.583 25.2717 631.358 26.1611 631.358 26.8443C631.358 28.2881 631.809 29.4225 632.711 30.2475C632.208 31.4592 630.964 32.065 628.979 32.065C627.652 32.065 626.633 31.5945 625.924 30.6535C625.215 29.7125 624.861 28.5459 624.861 27.1537C624.861 26.8572 624.912 26.4125 625.015 25.8195C625.131 25.2652 625.189 24.8656 625.189 24.6207C625.189 24.3629 624.977 24.234 624.551 24.234C623.752 24.234 623.275 24.3113 623.121 24.466V52.3484C623.121 52.7609 623.295 53.1025 623.643 53.3732C624.004 53.6439 624.558 53.9533 625.305 54.3014C626.079 54.6494 626.659 54.9846 627.046 55.3068C627.445 55.6162 627.645 56.0287 627.645 56.5443C627.645 57.2018 626.93 57.8076 625.499 58.3619C624.274 58.9936 623.088 59.3094 621.941 59.3094C621.773 59.3094 621.541 59.2965 621.245 59.2707C620.961 59.2449 620.613 59.2062 620.201 59.1547C619.788 59.1031 619.402 59.0645 619.041 59.0387C618.68 59.0129 618.351 59 618.054 59C617.797 59 617.507 59.0129 617.184 59.0387C616.862 59.0645 616.495 59.1031 616.082 59.1547C615.67 59.2062 615.315 59.2449 615.019 59.2707C614.735 59.2965 614.503 59.3094 614.323 59.3094C613.214 59.3094 611.938 59.0387 610.494 58.4973C609.037 57.9559 608.309 57.2533 608.309 56.3896C608.309 55.9771 608.535 55.5969 608.986 55.2488C609.411 54.9137 610.043 54.527 610.881 54.0887C611.719 53.6504 612.234 53.3346 612.428 53.1412C612.505 53.0768 612.57 53.0252 612.621 52.9865C612.686 52.9479 612.737 52.9027 612.776 52.8512C612.814 52.7867 612.847 52.7094 612.872 52.6191C612.898 52.516 612.911 52.3742 612.911 52.1938ZM639.053 52.1938V24.0793C639.053 23.525 638.499 23.0996 637.39 22.8031C635.856 22.0426 635.089 21.2756 635.089 20.5021C635.089 19.4451 636.359 18.9166 638.899 18.9166V16.9443C638.899 15.4232 638.447 14.5016 637.545 14.1793C637.017 14.0246 636.649 13.8699 636.443 13.7152C636.224 13.5605 636.114 13.2383 636.114 12.7484C636.114 12.3359 636.804 11.7816 638.183 11.0855C639.446 10.4668 640.549 9.91895 641.49 9.44199C642.444 8.95215 643.249 8.52031 643.907 8.14649C645.221 7.39883 646.453 6.45137 647.6 5.3041C648.502 4.72403 649.005 4.43399 649.108 4.43399C649.946 4.43399 650.365 4.77559 650.365 5.45879C650.365 5.93574 650.178 6.61895 649.804 7.5084C649.443 8.35918 649.263 9.07461 649.263 9.65469V19.5547C650.178 19.5547 651.248 19.4 652.472 19.0906C653.671 18.7684 654.606 18.6072 655.276 18.6072C656.372 18.6072 657.242 18.8521 657.887 19.342C658.531 19.8189 658.853 20.4441 658.853 21.2176C658.853 22.0941 658.628 23.0803 658.177 24.176C657.725 25.2717 657.5 26.1611 657.5 26.8443C657.5 28.2881 657.951 29.4225 658.853 30.2475C658.351 31.4592 657.107 32.065 655.121 32.065C653.794 32.065 652.775 31.5945 652.066 30.6535C651.357 29.7125 651.003 28.5459 651.003 27.1537C651.003 26.8572 651.054 26.4125 651.158 25.8195C651.274 25.2652 651.332 24.8656 651.332 24.6207C651.332 24.3629 651.119 24.234 650.694 24.234C649.894 24.234 649.417 24.3113 649.263 24.466V52.3484C649.263 52.7609 649.437 53.1025 649.785 53.3732C650.146 53.6439 650.7 53.9533 651.448 54.3014C652.221 54.6494 652.801 54.9846 653.188 55.3068C653.587 55.6162 653.787 56.0287 653.787 56.5443C653.787 57.2018 653.072 57.8076 651.641 58.3619C650.416 58.9936 649.23 59.3094 648.083 59.3094C647.916 59.3094 647.684 59.2965 647.387 59.2707C647.104 59.2449 646.755 59.2062 646.343 59.1547C645.93 59.1031 645.544 59.0645 645.183 59.0387C644.822 59.0129 644.493 59 644.197 59C643.939 59 643.649 59.0129 643.327 59.0387C643.004 59.0645 642.637 59.1031 642.224 59.1547C641.812 59.2062 641.457 59.2449 641.161 59.2707C640.877 59.2965 640.645 59.3094 640.465 59.3094C639.356 59.3094 638.08 59.0387 636.636 58.4973C635.18 57.9559 634.451 57.2533 634.451 56.3896C634.451 55.9771 634.677 55.5969 635.128 55.2488C635.554 54.9137 636.185 54.527 637.023 54.0887C637.861 53.6504 638.377 53.3346 638.57 53.1412C638.647 53.0768 638.712 53.0252 638.763 52.9865C638.828 52.9479 638.879 52.9027 638.918 52.8512C638.957 52.7867 638.989 52.7094 639.015 52.6191C639.04 52.516 639.053 52.3742 639.053 52.1938ZM665.872 52.1938V24.6207C665.872 23.9633 665.698 23.4283 665.35 23.0158C665.015 22.5904 664.499 22.1586 663.803 21.7203C663.107 21.2563 662.617 20.8953 662.334 20.6375C662.037 20.341 661.844 19.9285 661.754 19.4C661.754 18.6523 661.999 18.1883 662.488 18.0078C663.004 17.8273 663.732 17.7371 664.673 17.7371H677.358C677.848 17.7371 678.267 17.7436 678.615 17.7564C678.976 17.7693 679.266 17.7887 679.485 17.8145C680.013 18.1496 680.278 18.6266 680.278 19.2453C680.278 19.7738 680.104 20.1928 679.755 20.5021C679.42 20.7986 678.905 21.1338 678.209 21.5076C677.513 21.8686 676.984 22.2166 676.623 22.5518C676.262 22.874 676.082 23.2736 676.082 23.7506V24.6207C676.932 24.3887 678.254 23.5121 680.046 21.991C680.948 21.2176 681.741 20.5602 682.424 20.0188C683.107 19.4773 683.674 19.0455 684.125 18.7232C685.054 18.0658 686.149 17.7371 687.413 17.7371C688.096 17.7242 688.753 17.8209 689.385 18.0272C690.016 18.2205 690.603 18.5041 691.144 18.8779C691.686 19.2518 692.176 19.6965 692.614 20.2121C693.065 20.7148 693.445 21.2691 693.755 21.875C694.077 22.468 694.315 23.0996 694.47 23.7699C694.638 24.4273 694.715 25.0848 694.702 25.7422C694.702 28.3074 694.122 30.4408 692.962 32.1424C691.789 33.8568 690.042 35.3393 687.722 36.5896C686.884 36.8732 686.355 37.0859 686.136 37.2277C686.007 37.2277 685.853 37.3566 685.672 37.6145C685.879 37.8207 685.982 37.9818 685.982 38.0979C685.647 38.201 685.382 38.2525 685.189 38.2525C683.449 38.2525 682.579 37.434 682.579 35.7969C682.579 35.552 682.598 35.3199 682.637 35.1008C682.675 34.8816 682.733 34.6625 682.811 34.4434C682.888 34.2113 682.985 33.9729 683.101 33.7279C683.217 33.483 683.352 33.2123 683.507 32.9158C683.816 32.2971 684.055 31.7363 684.222 31.2336C684.39 30.7309 684.473 30.1895 684.473 29.6094C684.473 28.6426 684.196 27.94 683.642 27.5018C683.088 27.0635 682.469 26.8443 681.786 26.8443C681.347 26.8443 680.394 27.1215 678.924 27.6758C677.455 28.2301 676.507 28.5072 676.082 28.5072V52.3484C676.082 52.7867 676.243 53.1219 676.565 53.3539C676.733 53.457 676.958 53.5859 677.242 53.7406C677.525 53.8953 677.867 54.0629 678.267 54.2434C678.666 54.4238 679.014 54.5979 679.311 54.7654C679.607 54.9201 679.852 55.0877 680.046 55.2682C680.239 55.4357 680.381 55.6227 680.471 55.8289C680.561 56.0352 680.606 56.2736 680.606 56.5443C680.606 57.3564 679.91 58.0203 678.518 58.5359C677.164 59.0516 675.959 59.3094 674.902 59.3094C674.644 59.3094 674.354 59.29 674.032 59.2514C673.723 59.2256 673.394 59.1934 673.046 59.1547C672.698 59.116 672.35 59.0773 672.002 59.0387C671.654 59.0129 671.325 59 671.016 59C670.758 59 670.468 59.0129 670.146 59.0387C669.823 59.0645 669.475 59.1031 669.101 59.1547C668.728 59.2062 668.399 59.2449 668.115 59.2707C667.845 59.2965 667.625 59.3094 667.458 59.3094C666.246 59.3094 664.905 59.0838 663.436 58.6326C661.992 58.1686 661.27 57.4725 661.27 56.5443C661.27 55.8225 661.722 55.2424 662.624 54.8041C662.727 54.7396 663.12 54.5398 663.803 54.2047C664.499 53.8695 665.015 53.5602 665.35 53.2766C665.698 52.9801 665.872 52.6191 665.872 52.1938ZM697.274 47.5145C697.274 45.4133 697.796 43.499 698.84 41.7717C699.884 40.0572 701.212 38.5684 702.823 37.3051C704.447 36.0547 706.149 34.9719 707.928 34.0566C708.83 33.6055 709.81 33.135 710.867 32.6451C711.924 32.1553 713.071 31.6461 714.309 31.1176C715.005 30.8598 715.566 30.6535 715.991 30.4988C716.416 30.3313 716.7 30.2152 716.842 30.1508C717.138 29.9961 717.325 29.7641 717.403 29.4547C717.403 28.9262 716.977 28.6619 716.126 28.6619C715.134 28.6619 713.664 28.8488 711.718 29.2227C710.751 29.4031 709.92 29.5449 709.223 29.648C708.527 29.7383 707.954 29.7834 707.503 29.7834C705.427 29.7834 703.552 29.2742 701.876 28.2559C700.187 27.2246 699.343 25.7744 699.343 23.9053C699.343 21.817 700.335 20.2701 702.321 19.2646C704.306 18.2463 706.504 17.7371 708.914 17.7371C709.584 17.7371 710.745 17.7758 712.395 17.8531C714.032 17.9305 715.276 17.9691 716.126 17.9691C717.235 17.9691 719.001 17.9305 721.424 17.8531C723.835 17.7758 725.421 17.7371 726.181 17.7371C730.306 17.7371 733.161 18.9488 734.747 21.3723C736.062 23.409 736.719 27.3471 736.719 33.1865V52.8318C738.988 54.3658 740.122 55.5518 740.122 56.3896C740.019 57.4338 738.543 58.3555 735.694 59.1547C734.998 59.2578 734.251 59.3352 733.451 59.3867C732.652 59.4512 731.788 59.4834 730.86 59.4834C730.448 59.4834 729.861 59.4447 729.101 59.3674C728.34 59.29 727.412 59.1676 726.316 59C725.221 58.8324 724.254 58.71 723.416 58.6326C722.578 58.5553 721.863 58.5166 721.27 58.5166C720.677 58.5166 719.936 58.5553 719.046 58.6326C718.17 58.71 717.138 58.8324 715.952 59C714.779 59.1676 713.742 59.29 712.839 59.3674C711.95 59.4447 711.196 59.4834 710.577 59.4834C708.244 59.4834 706.052 59 704.003 58.0332C701.94 57.0406 700.303 55.642 699.091 53.8373C697.88 52.0326 697.274 49.925 697.274 47.5145ZM726.026 46.799V28.8166C726.026 26.3287 725.227 24.4402 723.629 23.1512C722.03 21.8621 719.955 21.2176 717.403 21.2176C715.276 21.2176 713.477 21.4303 712.008 21.8557C710.126 22.1779 709.095 22.9707 708.914 24.234C708.914 25.4457 710.106 26.0516 712.491 26.0516C712.981 26.0516 713.593 26.0193 714.328 25.9549C715.063 25.8904 715.933 25.7938 716.938 25.6648C718.949 25.3941 720.238 25.2588 720.806 25.2588C723.178 25.2588 724.363 26.0773 724.363 27.7145C724.363 28.5395 724.009 29.2807 723.3 29.9381C722.591 30.5826 721.65 31.2143 720.477 31.833C719.884 32.1424 719.291 32.4518 718.698 32.7611C718.105 33.0576 717.512 33.3541 716.919 33.6506C714.573 34.7979 712.73 36.0289 711.389 37.3438C710.061 38.6328 709.397 40.3344 709.397 42.4484C709.397 44.498 710.061 46.0127 711.389 46.9924C712.717 47.9721 714.457 48.4619 716.61 48.4619C717.95 48.4619 719.594 48.1848 721.54 47.6305C723.513 47.0762 725.008 46.799 726.026 46.799ZM743.39 40.6309C743.39 34.8559 744.473 30.1572 746.638 26.535C750.235 20.5021 756.12 17.4084 764.292 17.2537C767.566 17.2537 770.712 17.808 773.728 18.9166C776.732 20.0252 778.233 22.4551 778.233 26.2063C778.233 28.0754 777.46 29.6545 775.913 30.9436C774.366 32.2197 772.658 32.8578 770.789 32.8578C769.384 32.8578 768.037 32.3873 766.748 31.4463C766.696 31.4076 766.612 31.3367 766.496 31.2336C766.38 31.1176 766.219 30.9693 766.013 30.7889C765.613 30.4279 765.304 30.1701 765.085 30.0154C764.866 29.8607 764.653 29.7834 764.447 29.7834C763.815 29.7834 763.448 30.0477 763.345 30.5762C762.442 30.2152 761.991 29.474 761.991 28.3525C761.991 27.6049 762.288 26.9539 762.881 26.3996C763.474 25.8453 764.208 25.5682 765.085 25.5682C765.562 25.5682 766.123 25.6262 766.767 25.7422C767.089 25.7938 767.367 25.8324 767.599 25.8582C767.844 25.884 768.037 25.8969 768.179 25.8969C768.527 25.8969 768.836 25.7809 769.107 25.5488C769.378 25.3039 769.513 24.9945 769.513 24.6207C769.513 23.9504 768.959 23.293 767.85 22.6484C766.329 21.6945 764.827 21.2176 763.345 21.2176C760.818 21.2176 758.704 21.875 757.003 23.1898C755.301 24.5047 754.057 26.2256 753.271 28.3525C752.484 30.4666 752.091 32.7354 752.091 35.1588C752.091 38.1881 752.439 40.56 753.135 42.2744C753.844 43.976 754.927 45.3295 756.384 46.335C758.807 47.7529 762.365 48.4619 767.057 48.4619C770.19 48.4619 772.62 47.9076 774.347 46.799C776.074 45.6775 777.157 44.2789 777.595 42.6031C778.717 42.8352 779.793 43.6279 780.824 44.9814C781.843 46.3221 782.352 47.6434 782.352 48.9453C782.133 52.0133 781.076 54.5334 779.181 56.5057C777.273 58.4908 774.792 59.4834 771.737 59.4834C771.066 59.4834 770.383 59.4641 769.687 59.4254C769.004 59.3867 768.295 59.3223 767.56 59.232C766.103 59.0773 764.962 59 764.137 59C763.532 59 762.417 59.0773 760.792 59.232C759.98 59.3223 759.271 59.3867 758.665 59.4254C758.072 59.4641 757.57 59.4834 757.157 59.4834C754.283 59.4834 751.795 58.5037 749.694 56.5443C747.618 54.5979 746.046 52.1486 744.976 49.1967C743.919 46.2705 743.39 43.4152 743.39 40.6309ZM789.564 52.1938V24.0793C789.564 23.525 789.01 23.0996 787.901 22.8031C786.367 22.0426 785.6 21.2756 785.6 20.5021C785.6 19.4451 786.87 18.9166 789.41 18.9166V16.9443C789.41 15.4232 788.958 14.5016 788.056 14.1793C787.528 14.0246 787.16 13.8699 786.954 13.7152C786.735 13.5605 786.625 13.2383 786.625 12.7484C786.625 12.3359 787.315 11.7816 788.694 11.0855C789.957 10.4668 791.06 9.91895 792.001 9.44199C792.955 8.95215 793.76 8.52031 794.418 8.14649C795.732 7.39883 796.963 6.45137 798.111 5.3041C799.013 4.72403 799.516 4.43399 799.619 4.43399C800.457 4.43399 800.876 4.77559 800.876 5.45879C800.876 5.93574 800.689 6.61895 800.315 7.5084C799.954 8.35918 799.774 9.07461 799.774 9.65469V19.5547C800.689 19.5547 801.759 19.4 802.983 19.0906C804.182 18.7684 805.117 18.6072 805.787 18.6072C806.883 18.6072 807.753 18.8521 808.397 19.342C809.042 19.8189 809.364 20.4441 809.364 21.2176C809.364 22.0941 809.139 23.0803 808.688 24.176C808.236 25.2717 808.011 26.1611 808.011 26.8443C808.011 28.2881 808.462 29.4225 809.364 30.2475C808.862 31.4592 807.618 32.065 805.632 32.065C804.305 32.065 803.286 31.5945 802.577 30.6535C801.868 29.7125 801.514 28.5459 801.514 27.1537C801.514 26.8572 801.565 26.4125 801.669 25.8195C801.785 25.2652 801.843 24.8656 801.843 24.6207C801.843 24.3629 801.63 24.234 801.205 24.234C800.405 24.234 799.928 24.3113 799.774 24.466V52.3484C799.774 52.7609 799.948 53.1025 800.296 53.3732C800.657 53.6439 801.211 53.9533 801.959 54.3014C802.732 54.6494 803.312 54.9846 803.699 55.3068C804.098 55.6162 804.298 56.0287 804.298 56.5443C804.298 57.2018 803.583 57.8076 802.152 58.3619C800.927 58.9936 799.741 59.3094 798.594 59.3094C798.427 59.3094 798.195 59.2965 797.898 59.2707C797.614 59.2449 797.266 59.2062 796.854 59.1547C796.441 59.1031 796.055 59.0645 795.694 59.0387C795.333 59.0129 795.004 59 794.708 59C794.45 59 794.16 59.0129 793.838 59.0387C793.515 59.0645 793.148 59.1031 792.735 59.1547C792.323 59.2062 791.968 59.2449 791.672 59.2707C791.388 59.2965 791.156 59.3094 790.976 59.3094C789.867 59.3094 788.591 59.0387 787.147 58.4973C785.691 57.9559 784.962 57.2533 784.962 56.3896C784.962 55.9771 785.188 55.5969 785.639 55.2488C786.064 54.9137 786.696 54.527 787.534 54.0887C788.372 53.6504 788.888 53.3346 789.081 53.1412C789.158 53.0768 789.223 53.0252 789.274 52.9865C789.339 52.9479 789.39 52.9027 789.429 52.8512C789.468 52.7867 789.5 52.7094 789.526 52.6191C789.551 52.516 789.564 52.3742 789.564 52.1938ZM815.552 52.3484V22.4938C812.432 21.3465 810.872 20.3152 810.872 19.4C810.872 18.2914 812.168 17.7371 814.759 17.7371H825.935C828.836 17.7371 830.286 18.2398 830.286 19.2453C830.286 20.6117 828.726 21.6945 825.606 22.4938V52.3484C825.606 52.7867 825.774 53.1219 826.109 53.3539C826.277 53.457 826.502 53.5859 826.786 53.7406C827.082 53.8953 827.437 54.0629 827.849 54.2434C828.275 54.4238 828.636 54.5979 828.932 54.7654C829.242 54.9201 829.493 55.0877 829.686 55.2682C829.893 55.4357 830.041 55.6227 830.131 55.8289C830.234 56.0352 830.286 56.2736 830.286 56.5443C830.286 57.4209 829.59 58.0977 828.197 58.5746C826.805 59.0645 825.574 59.3094 824.504 59.3094C824.285 59.3094 824.027 59.2965 823.731 59.2707C823.434 59.2449 823.093 59.2062 822.706 59.1547C822.319 59.1031 821.952 59.0645 821.604 59.0387C821.256 59.0129 820.927 59 820.618 59C820.373 59 820.102 59.0129 819.806 59.0387C819.522 59.0645 819.213 59.1031 818.878 59.1547C818.542 59.2062 818.214 59.2449 817.891 59.2707C817.582 59.2965 817.279 59.3094 816.983 59.3094C815.835 59.3094 814.527 59.0645 813.057 58.5746C811.601 58.0848 810.872 57.408 810.872 56.5443C810.872 55.9256 811.15 55.4357 811.704 55.0748C811.987 54.8943 812.342 54.6816 812.767 54.4367C813.193 54.1789 813.702 53.9018 814.295 53.6053C815.133 53.1928 815.552 52.7738 815.552 52.3484ZM814.759 8.39785C814.759 5.90996 816.712 4.66602 820.618 4.66602C824.472 4.66602 826.399 5.90996 826.399 8.39785C826.399 10.8729 824.42 12.1104 820.463 12.1104C816.66 12.1104 814.759 10.8729 814.759 8.39785ZM832.819 37.6145C832.819 32.3551 833.902 28.0238 836.067 24.6207C839.445 19.4 844.962 16.7897 852.619 16.7897C858.536 16.7897 863.183 18.4783 866.56 21.8557C870.363 25.8131 872.264 31.1176 872.264 37.7691C872.264 40.1152 871.942 42.5773 871.297 45.1555C870.653 47.7207 869.68 50.0797 868.378 52.2324C867.076 54.4109 865.432 56.1641 863.447 57.4918C861.462 58.8195 859.199 59.4834 856.66 59.4834C856.067 59.4834 855.397 59.3996 854.649 59.232C853.876 59.0773 853.199 59 852.619 59C851.948 59 851.22 59.0773 850.434 59.232C849.673 59.3996 849.158 59.4834 848.887 59.4834C845.394 59.4834 842.442 58.3748 840.031 56.1576C837.595 53.9275 835.784 51.1367 834.598 47.7852C833.412 44.382 832.819 40.9918 832.819 37.6145ZM842.003 33.8053C842.003 35.9451 842.364 37.9625 843.086 39.8574C843.795 41.7266 844.897 43.2219 846.393 44.3434C847.888 45.452 849.725 46.0063 851.903 46.0063C859.29 46.0063 862.983 41.6234 862.983 32.8578C862.996 31.0145 862.77 29.3516 862.306 27.8691C861.855 26.3738 861.198 25.1041 860.334 24.06C859.47 23.0158 858.426 22.2166 857.201 21.6623C855.977 21.0951 854.604 20.818 853.083 20.8309C849.68 20.9082 846.986 22.0361 845 24.2146C843.002 26.4061 842.003 29.6029 842.003 33.8053ZM914.571 27.6371V52.3484C914.687 52.7996 914.913 53.1541 915.248 53.4119C915.609 53.6568 916.176 53.9469 916.949 54.282C917.736 54.6172 918.316 54.9459 918.69 55.2682C919.063 55.5775 919.25 56.0029 919.25 56.5443C919.25 57.4209 918.554 58.0977 917.162 58.5746C915.77 59.0645 914.539 59.3094 913.469 59.3094C913.288 59.3094 913.044 59.2965 912.734 59.2707C912.438 59.2449 912.083 59.2062 911.671 59.1547C911.258 59.1031 910.878 59.0645 910.53 59.0387C910.182 59.0129 909.866 59 909.582 59C909.286 59 908.977 59.0129 908.654 59.0387C908.332 59.0645 907.99 59.1031 907.63 59.1547C907.269 59.2062 906.946 59.2449 906.663 59.2707C906.392 59.2965 906.154 59.3094 905.947 59.3094C904.8 59.3094 903.492 59.0645 902.022 58.5746C900.565 58.0848 899.837 57.408 899.837 56.5443C899.837 56.0416 900.043 55.6033 900.456 55.2295C900.868 54.8686 901.461 54.5012 902.235 54.1273C902.622 53.9469 902.924 53.7986 903.144 53.6826C903.363 53.5666 903.505 53.4893 903.569 53.4506C904.201 53.0252 904.516 52.6578 904.516 52.3484V30.0928C904.516 28.8295 904.143 27.766 903.395 26.9023C902.634 26.0129 901.661 25.5682 900.475 25.5682C898.928 25.6326 897.659 25.8904 896.666 26.3416C896.176 26.5607 895.673 26.7992 895.158 27.057C894.655 27.3148 894.133 27.592 893.592 27.8885C892.522 28.4557 891.516 28.765 890.575 28.8166V52.3484C890.575 52.5805 890.62 52.7932 890.711 52.9865C890.814 53.167 890.955 53.3346 891.136 53.4893C891.329 53.6439 891.568 53.7986 891.851 53.9533C892.135 54.0951 892.464 54.2498 892.838 54.4174C893.585 54.7396 894.146 55.049 894.52 55.3455C894.906 55.642 895.1 56.0416 895.1 56.5443C895.1 57.1373 894.333 57.7947 892.799 58.5166C891.252 59.0451 890.118 59.3094 889.396 59.3094C889.151 59.3094 888.867 59.2965 888.545 59.2707C888.236 59.2449 887.881 59.2062 887.481 59.1547C887.082 59.1031 886.714 59.0645 886.379 59.0387C886.057 59.0129 885.767 59 885.509 59C885.329 59 885.09 59.0129 884.794 59.0387C884.497 59.0645 884.136 59.1031 883.711 59.1547C883.286 59.2062 882.912 59.2449 882.589 59.2707C882.267 59.2965 881.997 59.3094 881.777 59.3094C880.669 59.3094 879.38 59.0645 877.91 58.5746C876.479 58.0977 875.764 57.4209 875.764 56.5443C875.764 56.0932 876.105 55.5646 876.789 54.9588L878.258 54.2627C878.529 54.1338 878.793 53.9984 879.051 53.8566C879.309 53.702 879.534 53.5473 879.728 53.3926C879.921 53.2379 880.076 53.0768 880.192 52.9092C880.308 52.7287 880.366 52.5418 880.366 52.3484V24.466C880.366 24.1824 880.321 23.9246 880.23 23.6926C880.14 23.4605 880.005 23.2414 879.824 23.0352C879.657 22.8289 879.438 22.6291 879.167 22.4357C878.896 22.2424 878.587 22.0361 878.239 21.817C877.878 21.5979 877.569 21.3916 877.311 21.1982C877.066 21.0049 876.866 20.8309 876.711 20.6762C876.402 20.3668 876.247 19.9414 876.247 19.4C876.247 18.2914 877.272 17.7371 879.322 17.7371H892.006C893.849 17.7371 894.771 18.1303 894.771 18.9166C894.771 19.2002 894.726 19.4516 894.636 19.6707C894.558 19.8898 894.43 20.0961 894.249 20.2895C894.081 20.4699 893.862 20.6504 893.592 20.8309C893.334 21.0113 893.031 21.2047 892.683 21.4109C892.335 21.6301 892.025 21.8299 891.755 22.0104C891.497 22.1779 891.278 22.352 891.097 22.5324C890.93 22.7129 890.801 22.8998 890.711 23.0932C890.62 23.2865 890.575 23.5057 890.575 23.7506V24.6207C892.264 24.2211 893.914 23.2543 895.525 21.7203C897.149 20.1734 898.374 19.1293 899.199 18.5879C900.063 18.0207 901.674 17.7371 904.033 17.7371C907.14 17.7371 909.673 18.6072 911.632 20.3475C913.591 22.0748 914.571 24.5047 914.571 27.6371Z" fill="#790800"/>
<g clip-path="url(#clip1_529_150945)">
<path d="M1147.97 20.4006C1147.97 18.6175 1147.98 17.021 1147.97 15.4231C1147.96 13.4825 1147.15 12.2986 1145.39 11.6177C1143.83 11.0112 1142.56 11.4719 1141.99 13.0757C1141.62 14.1051 1141.49 15.2437 1141.4 16.346C1141.27 17.89 1141.33 19.4515 1141.19 20.9955C1140.96 23.5426 1140.12 25.9249 1139.02 28.2169C1135.54 35.4572 1130.66 41.6303 1124.71 47.0015C1121.25 50.1447 1117.43 52.8601 1113.32 55.089C1107.65 58.1507 1101.65 60.1015 1095.19 60.6891C1088.2 61.3248 1081.42 60.2984 1074.75 58.3097C1066.87 55.9565 1059.58 52.2853 1052.56 48.0659C1052.32 47.9424 1052.14 47.7402 1052.04 47.4943C1052.33 47.6401 1052.64 47.7597 1052.93 47.923C1060.4 52.1949 1068.28 55.4885 1076.78 57.0718C1088.5 59.2588 1099.83 58.0297 1110.58 52.6541C1115.82 50.0298 1120.26 46.4169 1123.3 41.3752C1128.83 32.1782 1129.01 22.764 1123.62 13.4563C1121.05 9.01086 1117.02 6.23194 1111.96 5.14575C1110.76 4.88914 1109.45 5.0087 1108.22 5.17491C1107.49 5.27259 1106.77 5.72894 1106.14 6.16779C1105.96 6.30904 1105.82 6.4855 1105.71 6.68617C1105.6 6.88685 1105.54 7.10743 1105.52 7.33418C1105.52 7.54121 1106.15 7.87363 1106.54 7.94945C1107.82 8.22179 1109.12 8.42136 1110.43 8.54722C1114.06 8.83882 1116.69 10.7007 1118.71 13.6137C1120.13 15.6636 1120.9 17.957 1121.22 20.3846C1122.31 28.3773 1119.86 35.361 1114.89 41.5254C1111.53 45.7068 1106.99 48.2044 1101.99 49.9408C1101.96 49.951 1101.91 49.9029 1101.78 49.8315L1102.37 49.0456C1105.7 44.6498 1104.93 39.2873 1100.46 35.9734C1099.99 35.6259 1099.5 35.3191 1098.98 35.0563C1098.5 34.8186 1098.22 35.0402 1098.24 35.5637C1098.25 35.95 1098.32 36.3335 1098.36 36.7198C1098.6 38.9068 1098.61 41.0938 1098.04 43.2341C1097.12 46.6575 1094.97 49.1564 1091.97 50.9308C1089.06 52.6454 1085.88 53.456 1082.52 53.6281C1076.24 53.9474 1070.38 52.2605 1064.65 49.9715C1058.17 47.3821 1052.08 44.0025 1046.28 40.1563C1039.18 35.4718 1032.22 30.5759 1025.21 25.7529C1020.68 22.6386 1016.19 19.4836 1011.25 17.005C1004.36 13.5452 997.113 11.2226 989.409 10.5899C979.985 9.81421 971.089 11.4923 963.088 16.8213C959.651 19.1103 956.705 21.9082 954.36 25.3155C950.602 30.7786 949.343 36.8044 950.31 43.3449C950.985 47.8647 952.783 51.8187 956.225 54.9126C960.021 58.3213 964.437 59.8391 969.537 59.0532C976.242 58.0195 979.565 52.2576 980.079 47.3981C980.475 43.6598 979.38 40.3633 976.931 37.5538C971.643 31.4871 964.017 35.119 962.262 40.6243C960.729 45.4357 963.722 50.4832 968.727 51.2107C969.657 51.3463 970.648 51.1131 971.605 51.0008C972.025 50.9527 972.431 50.7777 972.901 50.7763C971.7 52.4544 970.072 53.4429 968.015 53.5945C964.592 53.8482 961.82 52.4194 959.664 49.8986C955.607 45.1528 954.776 39.6781 956.412 33.7645C957.241 30.764 958.807 28.1425 960.837 25.7966C965.584 20.3102 971.567 17.3082 978.809 16.6317C985.005 16.0485 990.927 17.1347 996.697 19.2342C1002.98 21.5204 1008.57 25.0181 1013.78 29.1485C1014.53 29.7434 1014.79 30.3951 1014.63 31.2918C1014.42 32.4377 1014.25 33.5925 1014.02 34.7355C1013.93 35.1133 1013.78 35.4738 1013.57 35.8028C1013.24 36.367 1012.93 36.351 1012.66 35.7736C1012.53 35.4615 1012.42 35.1381 1012.34 34.807C1011.3 30.6488 1008.51 28.0375 1004.77 26.2982C1003.51 25.715 1002.23 25.1566 1000.87 24.8708L1000.67 25.1624C1000.99 25.489 1001.31 25.8068 1001.61 26.1422C1002.78 27.4383 1004.04 28.6747 1005.09 30.0612C1006.08 31.3661 1006.81 32.8518 1006.82 34.7268C1005.93 34.4847 1005.63 33.8432 1005.3 33.3009C1003.32 30.0204 1000.55 27.5316 997.386 25.4627C993.405 22.8632 989.036 21.3877 984.287 20.9226C979.661 20.4706 975.144 20.8628 970.767 22.4024C967.09 23.6942 963.839 25.6844 961.276 28.6893C959.016 31.337 957.918 34.4498 957.48 37.8469C957.397 38.5029 957.358 39.159 957.283 39.9872C957.991 39.6548 957.947 39.0963 958.133 38.6925C958.905 37.0202 959.513 35.2546 960.437 33.6727C963.366 28.6645 967.904 25.9818 973.564 25.2163C979.893 24.3649 985.845 25.6698 991.407 28.7767C995.642 31.1387 998.655 34.5839 1000.61 38.9972C1001.72 41.5312 1002.8 44.0841 1004.01 46.5787C1004.97 48.6128 1006.4 50.3848 1008.2 51.7429C1010.54 53.4925 1013 53.6558 1015.59 52.3086C1019.13 50.4628 1021.08 46.3994 1020.51 42.0765C1020.12 39.0993 1019.12 36.3262 1017.7 33.6945C1017.29 32.932 1016.86 32.1811 1016.56 31.2699C1016.94 31.5236 1017.35 31.7408 1017.69 32.0368C1020.64 34.5795 1023.57 37.131 1026.5 39.6912C1035.36 47.3952 1044.63 54.5539 1054.91 60.2881C1063.37 65.0062 1072.29 68.5826 1081.92 70.1427C1091.84 71.7464 1101.59 71.0787 1111.25 68.4018C1116.8 66.8636 1122.1 64.681 1127.41 62.4897C1132.31 60.4646 1137.28 58.6158 1142.48 57.4742C1146.54 56.5805 1150.65 56.2 1154.79 56.7132C1157.97 57.1083 1160.92 58.2061 1163.53 60.1307C1163.88 60.3902 1164.23 60.6497 1164.59 60.8947C1164.66 60.9384 1164.77 60.9136 1165.01 60.9311C1164.86 60.5914 1164.77 60.2867 1164.6 60.0345C1161.03 54.6239 1156.11 51.2866 1149.6 50.5022C1144.89 49.9365 1140.26 50.5255 1135.79 52.033C1132.57 53.1192 1129.44 54.4606 1126.26 55.6897C1125.83 55.8559 1125.41 56.0337 1124.86 55.9929C1125.22 55.6897 1125.57 55.3777 1125.94 55.0846C1133.67 48.9334 1140.57 42.0152 1146.28 33.9132C1148.85 30.2683 1151.61 26.7341 1154.45 23.286C1157.11 20.0351 1160.31 17.28 1163.93 15.149C1172.41 10.1845 1183.02 11.6309 1189.76 18.7167C1192.11 21.1952 1193.43 24.1783 1193.94 27.5331C1194.2 29.2136 1194.21 30.9236 1193.97 32.6069C1193.25 37.5815 1189.08 42.3331 1184.22 43.5315C1182.53 43.95 1180.83 43.794 1179.19 43.205C1176.55 42.2529 1174.66 40.4348 1173.35 37.9854C1173.23 37.7506 1173.19 37.4736 1173.01 36.9006C1173.41 37.2272 1173.56 37.3205 1173.68 37.4517C1175.81 39.9916 1178.54 41.0121 1181.76 40.2686C1184.97 39.525 1187.13 37.3745 1188.2 34.2821C1189.45 30.659 1187.26 26.2719 1183.53 24.6929C1180.48 23.4026 1177.54 23.6825 1174.72 25.3665C1168.67 28.975 1166.98 36.768 1171.17 42.6115C1174.39 47.1182 1178.92 49.0544 1184.47 48.5893C1191.96 47.9682 1199.5 41.8301 1200.77 32.3838C1201.7 25.4817 1199.81 19.345 1195.21 14.159C1189.12 7.3196 1181.31 4.81916 1172.34 5.72894C1165.38 6.42877 1159.61 9.75589 1154.47 14.2683C1152.28 16.1827 1150.24 18.2516 1147.97 20.4006ZM1048.85 45.3861C1048.8 45.4867 1048.74 45.5888 1048.68 45.6908L1044.92 43.2895L1045.09 43.0344L1048.85 45.3861Z" fill="#790800"/>
</g>
</g>
<defs>
<filter id="filter0_d_529_150945" x="0" y="-1" width="1209" height="90" filterUnits="userSpaceOnUse" color-interpolation-filters="sRGB">
<feFlood flood-opacity="0" result="BackgroundImageFix"/>
<feColorMatrix in="SourceAlpha" type="matrix" values="0 0 0 0 0 0 0 0 0 0 0 0 0 0 0 0 0 0 127 0" result="hardAlpha"/>
<feOffset dy="6"/>
<feGaussianBlur stdDeviation="4"/>
<feComposite in2="hardAlpha" operator="out"/>
<feColorMatrix type="matrix" values="0 0 0 0 0 0 0 0 0 0 0 0 0 0 0 0 0 0 0.25 0"/>
<feBlend mode="normal" in2="BackgroundImageFix" result="effect1_dropShadow_529_150945"/>
<feBlend mode="normal" in="SourceGraphic" in2="effect1_dropShadow_529_150945" result="shape"/>
</filter>
<clipPath id="clip0_529_150945">
<rect width="251" height="66" fill="white" transform="translate(8 5)"/>
</clipPath>
<clipPath id="clip1_529_150945">
<rect width="251" height="66" fill="white" transform="matrix(-1 0 0 1 1201 5)"/>
</clipPath>
</defs>
</svg>
