<svg width="502" height="97" viewBox="0 0 502 97" fill="none" xmlns="http://www.w3.org/2000/svg">
<mask id="path-1-outside-1_101_624" maskUnits="userSpaceOnUse" x="2" y="38" width="318" height="36" fill="black">
<rect fill="white" x="2" y="38" width="318" height="36"/>
<path d="M3.29 39.664H12.878C15.0713 39.664 16.7163 40.1027 17.813 40.98C18.9097 41.826 19.6147 42.954 19.928 44.364C20.2727 45.7427 20.445 47.56 20.445 49.816C20.445 52.0093 20.2727 53.811 19.928 55.221C19.6147 56.5997 18.9097 57.7277 17.813 58.605C16.7163 59.4823 15.0713 59.921 12.878 59.921H6.815V72H3.29V39.664ZM11.938 56.866C13.442 56.866 14.5387 56.6153 15.228 56.114C15.9487 55.6127 16.403 54.892 16.591 53.952C16.8103 52.9807 16.92 51.602 16.92 49.816C16.92 47.9987 16.8103 46.62 16.591 45.68C16.403 44.7087 15.9643 43.988 15.275 43.518C14.5857 43.0167 13.489 42.766 11.985 42.766H6.815V56.866H11.938ZM43.1857 72L39.1437 58.981H38.4857H32.4227V72H28.8977V39.664H38.7677C40.9923 39.664 42.653 40.0713 43.7497 40.886C44.8463 41.7007 45.5513 42.7817 45.8647 44.129C46.2093 45.4763 46.3817 47.2153 46.3817 49.346C46.3817 51.696 46.131 53.6387 45.6297 55.174C45.1597 56.678 44.1257 57.7433 42.5277 58.37L46.8987 72H43.1857ZM37.8747 55.926C39.3473 55.926 40.444 55.691 41.1647 55.221C41.8853 54.751 42.3397 54.0773 42.5277 53.2C42.747 52.2913 42.8567 51.0067 42.8567 49.346C42.8567 47.654 42.747 46.3693 42.5277 45.492C42.3397 44.6147 41.901 43.941 41.2117 43.471C40.5223 43.001 39.4257 42.766 37.9217 42.766H32.4227V55.926H37.8747ZM55.9774 72V39.664H59.5024V72H55.9774ZM67.9965 72V69.086L80.8745 42.766H68.3725V39.664H85.0575V42.578L72.1325 68.898H85.2455V72H67.9965ZM93.6034 72V39.664H108.878V42.766H97.1284V54.093H107.327V57.195H97.1284V68.898H108.878V72H93.6034ZM124.981 72.376C122.067 72.376 119.388 72.1723 116.944 71.765V68.71C118.041 68.8667 119.247 69.0077 120.563 69.133C121.879 69.227 122.992 69.274 123.9 69.274C125.154 69.274 126.141 69.1957 126.861 69.039C127.613 68.851 128.224 68.5377 128.694 68.099C129.133 67.6917 129.415 67.0963 129.54 66.313C129.697 65.5297 129.775 64.48 129.775 63.164C129.775 61.4407 129.713 60.2343 129.587 59.545C129.462 58.8557 129.164 58.37 128.694 58.088C128.256 57.7747 127.457 57.524 126.297 57.336L120.845 56.49C119.529 56.2707 118.542 55.832 117.884 55.174C117.226 54.4847 116.788 53.6073 116.568 52.542C116.38 51.4767 116.286 50.051 116.286 48.265C116.286 45.0063 116.976 42.7033 118.354 41.356C119.733 39.9773 121.942 39.288 124.981 39.288C127.895 39.288 130.277 39.5387 132.125 40.04V42.954C130.026 42.578 127.911 42.39 125.78 42.39C124.433 42.39 123.368 42.5153 122.584 42.766C121.801 42.9853 121.206 43.33 120.798 43.8C120.391 44.27 120.125 44.8497 119.999 45.539C119.874 46.2283 119.811 47.1057 119.811 48.171C119.811 49.6123 119.874 50.662 119.999 51.32C120.125 51.9467 120.375 52.3853 120.751 52.636C121.127 52.8867 121.754 53.0903 122.631 53.247L127.895 54.093C129.211 54.3123 130.245 54.6413 130.997 55.08C131.749 55.5187 132.329 56.2707 132.736 57.336C133.112 58.2447 133.3 60.0463 133.3 62.741C133.3 65.1537 133.034 67.0493 132.501 68.428C132 69.8067 131.138 70.8093 129.916 71.436C128.726 72.0627 127.081 72.376 124.981 72.376ZM173.379 72L168.209 45.727H168.021L162.898 72H158.48L152.464 39.664H156.083L160.736 66.877H160.971L166.188 39.664H170.136L175.4 66.877H175.682L180.241 39.664H183.766L177.75 72H173.379ZM199.776 72.376C196.706 72.376 194.512 71.953 193.196 71.107C191.88 70.261 191.034 68.7727 190.658 66.642C190.282 64.48 190.094 60.8767 190.094 55.832C190.094 50.7873 190.282 47.1997 190.658 45.069C191.034 42.907 191.88 41.403 193.196 40.557C194.512 39.711 196.706 39.288 199.776 39.288C202.847 39.288 205.04 39.711 206.356 40.557C207.672 41.403 208.518 42.907 208.894 45.069C209.27 47.1997 209.458 50.7873 209.458 55.832C209.458 60.8767 209.27 64.48 208.894 66.642C208.518 68.7727 207.672 70.261 206.356 71.107C205.04 71.953 202.847 72.376 199.776 72.376ZM199.776 69.274C201.782 69.274 203.176 69.039 203.959 68.569C204.743 68.099 205.26 66.9867 205.51 65.232C205.761 63.4773 205.886 60.344 205.886 55.832C205.886 51.32 205.761 48.1867 205.51 46.432C205.26 44.6773 204.743 43.565 203.959 43.095C203.176 42.625 201.782 42.39 199.776 42.39C197.771 42.39 196.377 42.625 195.593 43.095C194.81 43.565 194.293 44.6773 194.042 46.432C193.792 48.1867 193.666 51.32 193.666 55.832C193.666 60.344 193.792 63.4773 194.042 65.232C194.293 66.9867 194.81 68.099 195.593 68.569C196.377 69.039 197.771 69.274 199.776 69.274ZM233.268 72L229.226 58.981H228.568H222.505V72H218.98V39.664H228.85C231.074 39.664 232.735 40.0713 233.832 40.886C234.928 41.7007 235.633 42.7817 235.947 44.129C236.291 45.4763 236.464 47.2153 236.464 49.346C236.464 51.696 236.213 53.6387 235.712 55.174C235.242 56.678 234.208 57.7433 232.61 58.37L236.981 72H233.268ZM227.957 55.926C229.429 55.926 230.526 55.691 231.247 55.221C231.967 54.751 232.422 54.0773 232.61 53.2C232.829 52.2913 232.939 51.0067 232.939 49.346C232.939 47.654 232.829 46.3693 232.61 45.492C232.422 44.6147 231.983 43.941 231.294 43.471C230.604 43.001 229.508 42.766 228.004 42.766H222.505V55.926H227.957ZM250.112 72V42.86H242.921V39.664H260.828V42.86H253.637V72H250.112ZM283.345 72V57.289H272.112V72H268.634V39.664H272.112V54.093H283.345V39.664H286.823V72H283.345ZM309.371 60.109V57.054H318.536V60.109H309.371Z"/>
</mask>
<path d="M3.29 39.664H12.878C15.0713 39.664 16.7163 40.1027 17.813 40.98C18.9097 41.826 19.6147 42.954 19.928 44.364C20.2727 45.7427 20.445 47.56 20.445 49.816C20.445 52.0093 20.2727 53.811 19.928 55.221C19.6147 56.5997 18.9097 57.7277 17.813 58.605C16.7163 59.4823 15.0713 59.921 12.878 59.921H6.815V72H3.29V39.664ZM11.938 56.866C13.442 56.866 14.5387 56.6153 15.228 56.114C15.9487 55.6127 16.403 54.892 16.591 53.952C16.8103 52.9807 16.92 51.602 16.92 49.816C16.92 47.9987 16.8103 46.62 16.591 45.68C16.403 44.7087 15.9643 43.988 15.275 43.518C14.5857 43.0167 13.489 42.766 11.985 42.766H6.815V56.866H11.938ZM43.1857 72L39.1437 58.981H38.4857H32.4227V72H28.8977V39.664H38.7677C40.9923 39.664 42.653 40.0713 43.7497 40.886C44.8463 41.7007 45.5513 42.7817 45.8647 44.129C46.2093 45.4763 46.3817 47.2153 46.3817 49.346C46.3817 51.696 46.131 53.6387 45.6297 55.174C45.1597 56.678 44.1257 57.7433 42.5277 58.37L46.8987 72H43.1857ZM37.8747 55.926C39.3473 55.926 40.444 55.691 41.1647 55.221C41.8853 54.751 42.3397 54.0773 42.5277 53.2C42.747 52.2913 42.8567 51.0067 42.8567 49.346C42.8567 47.654 42.747 46.3693 42.5277 45.492C42.3397 44.6147 41.901 43.941 41.2117 43.471C40.5223 43.001 39.4257 42.766 37.9217 42.766H32.4227V55.926H37.8747ZM55.9774 72V39.664H59.5024V72H55.9774ZM67.9965 72V69.086L80.8745 42.766H68.3725V39.664H85.0575V42.578L72.1325 68.898H85.2455V72H67.9965ZM93.6034 72V39.664H108.878V42.766H97.1284V54.093H107.327V57.195H97.1284V68.898H108.878V72H93.6034ZM124.981 72.376C122.067 72.376 119.388 72.1723 116.944 71.765V68.71C118.041 68.8667 119.247 69.0077 120.563 69.133C121.879 69.227 122.992 69.274 123.9 69.274C125.154 69.274 126.141 69.1957 126.861 69.039C127.613 68.851 128.224 68.5377 128.694 68.099C129.133 67.6917 129.415 67.0963 129.54 66.313C129.697 65.5297 129.775 64.48 129.775 63.164C129.775 61.4407 129.713 60.2343 129.587 59.545C129.462 58.8557 129.164 58.37 128.694 58.088C128.256 57.7747 127.457 57.524 126.297 57.336L120.845 56.49C119.529 56.2707 118.542 55.832 117.884 55.174C117.226 54.4847 116.788 53.6073 116.568 52.542C116.38 51.4767 116.286 50.051 116.286 48.265C116.286 45.0063 116.976 42.7033 118.354 41.356C119.733 39.9773 121.942 39.288 124.981 39.288C127.895 39.288 130.277 39.5387 132.125 40.04V42.954C130.026 42.578 127.911 42.39 125.78 42.39C124.433 42.39 123.368 42.5153 122.584 42.766C121.801 42.9853 121.206 43.33 120.798 43.8C120.391 44.27 120.125 44.8497 119.999 45.539C119.874 46.2283 119.811 47.1057 119.811 48.171C119.811 49.6123 119.874 50.662 119.999 51.32C120.125 51.9467 120.375 52.3853 120.751 52.636C121.127 52.8867 121.754 53.0903 122.631 53.247L127.895 54.093C129.211 54.3123 130.245 54.6413 130.997 55.08C131.749 55.5187 132.329 56.2707 132.736 57.336C133.112 58.2447 133.3 60.0463 133.3 62.741C133.3 65.1537 133.034 67.0493 132.501 68.428C132 69.8067 131.138 70.8093 129.916 71.436C128.726 72.0627 127.081 72.376 124.981 72.376ZM173.379 72L168.209 45.727H168.021L162.898 72H158.48L152.464 39.664H156.083L160.736 66.877H160.971L166.188 39.664H170.136L175.4 66.877H175.682L180.241 39.664H183.766L177.75 72H173.379ZM199.776 72.376C196.706 72.376 194.512 71.953 193.196 71.107C191.88 70.261 191.034 68.7727 190.658 66.642C190.282 64.48 190.094 60.8767 190.094 55.832C190.094 50.7873 190.282 47.1997 190.658 45.069C191.034 42.907 191.88 41.403 193.196 40.557C194.512 39.711 196.706 39.288 199.776 39.288C202.847 39.288 205.04 39.711 206.356 40.557C207.672 41.403 208.518 42.907 208.894 45.069C209.27 47.1997 209.458 50.7873 209.458 55.832C209.458 60.8767 209.27 64.48 208.894 66.642C208.518 68.7727 207.672 70.261 206.356 71.107C205.04 71.953 202.847 72.376 199.776 72.376ZM199.776 69.274C201.782 69.274 203.176 69.039 203.959 68.569C204.743 68.099 205.26 66.9867 205.51 65.232C205.761 63.4773 205.886 60.344 205.886 55.832C205.886 51.32 205.761 48.1867 205.51 46.432C205.26 44.6773 204.743 43.565 203.959 43.095C203.176 42.625 201.782 42.39 199.776 42.39C197.771 42.39 196.377 42.625 195.593 43.095C194.81 43.565 194.293 44.6773 194.042 46.432C193.792 48.1867 193.666 51.32 193.666 55.832C193.666 60.344 193.792 63.4773 194.042 65.232C194.293 66.9867 194.81 68.099 195.593 68.569C196.377 69.039 197.771 69.274 199.776 69.274ZM233.268 72L229.226 58.981H228.568H222.505V72H218.98V39.664H228.85C231.074 39.664 232.735 40.0713 233.832 40.886C234.928 41.7007 235.633 42.7817 235.947 44.129C236.291 45.4763 236.464 47.2153 236.464 49.346C236.464 51.696 236.213 53.6387 235.712 55.174C235.242 56.678 234.208 57.7433 232.61 58.37L236.981 72H233.268ZM227.957 55.926C229.429 55.926 230.526 55.691 231.247 55.221C231.967 54.751 232.422 54.0773 232.61 53.2C232.829 52.2913 232.939 51.0067 232.939 49.346C232.939 47.654 232.829 46.3693 232.61 45.492C232.422 44.6147 231.983 43.941 231.294 43.471C230.604 43.001 229.508 42.766 228.004 42.766H222.505V55.926H227.957ZM250.112 72V42.86H242.921V39.664H260.828V42.86H253.637V72H250.112ZM283.345 72V57.289H272.112V72H268.634V39.664H272.112V54.093H283.345V39.664H286.823V72H283.345ZM309.371 60.109V57.054H318.536V60.109H309.371Z" fill="black"/>
<path d="M3.29 39.664V38.664H2.29V39.664H3.29ZM17.813 40.98L17.1883 41.7609L17.1952 41.7664L17.2022 41.7718L17.813 40.98ZM19.928 44.364L18.9518 44.5809L18.9547 44.5938L18.9579 44.6065L19.928 44.364ZM19.928 55.221L18.9566 54.9835L18.9547 54.9914L18.9529 54.9994L19.928 55.221ZM17.813 58.605L17.1883 57.8241L17.813 58.605ZM6.815 59.921V58.921H5.815V59.921H6.815ZM6.815 72V73H7.815V72H6.815ZM3.29 72H2.29V73H3.29V72ZM15.228 56.114L14.6569 55.2931L14.6483 55.2991L14.6398 55.3053L15.228 56.114ZM16.591 53.952L15.6156 53.7317L15.6128 53.7438L15.6104 53.7559L16.591 53.952ZM16.591 45.68L15.6092 45.87L15.6128 45.8887L15.6172 45.9072L16.591 45.68ZM15.275 43.518L14.6868 44.3267L14.6991 44.3357L14.7117 44.3442L15.275 43.518ZM6.815 42.766V41.766H5.815V42.766H6.815ZM6.815 56.866H5.815V57.866H6.815V56.866ZM3.29 40.664H12.878V38.664H3.29V40.664ZM12.878 40.664C14.9645 40.664 16.3443 41.0857 17.1883 41.7609L18.4377 40.1991C17.0884 39.1197 15.1782 38.664 12.878 38.664V40.664ZM17.2022 41.7718C18.1051 42.4683 18.6869 43.3888 18.9518 44.5809L20.9042 44.1471C20.5424 42.5192 19.7142 41.1837 18.4238 40.1882L17.2022 41.7718ZM18.9579 44.6065C19.2746 45.8736 19.445 47.6 19.445 49.816H21.445C21.445 47.52 21.2707 45.6117 20.8981 44.1215L18.9579 44.6065ZM19.445 49.816C19.445 51.9656 19.2753 53.68 18.9566 54.9835L20.8994 55.4585C21.2701 53.942 21.445 52.0531 21.445 49.816H19.445ZM18.9529 54.9994C18.6893 56.159 18.107 57.0892 17.1883 57.8241L18.4377 59.3859C19.7124 58.3661 20.54 57.0404 20.9031 55.4426L18.9529 54.9994ZM17.1883 57.8241C16.3443 58.4993 14.9645 58.921 12.878 58.921V60.921C15.1782 60.921 17.0884 60.4653 18.4377 59.3859L17.1883 57.8241ZM12.878 58.921H6.815V60.921H12.878V58.921ZM5.815 59.921V72H7.815V59.921H5.815ZM6.815 71H3.29V73H6.815V71ZM4.29 72V39.664H2.29V72H4.29ZM11.938 57.866C13.5104 57.866 14.8684 57.612 15.8162 56.9227L14.6398 55.3053C14.209 55.6186 13.3736 55.866 11.938 55.866V57.866ZM15.7991 56.9349C16.7522 56.2718 17.338 55.316 17.5716 54.1481L15.6104 53.7559C15.468 54.468 15.1451 54.9535 14.6569 55.2931L15.7991 56.9349ZM17.5664 54.1723C17.8101 53.0931 17.92 51.6276 17.92 49.816H15.92C15.92 51.5764 15.8105 52.8682 15.6156 53.7317L17.5664 54.1723ZM17.92 49.816C17.92 47.9767 17.8107 46.5063 17.5648 45.4528L15.6172 45.9072C15.81 46.7337 15.92 48.0206 15.92 49.816H17.92ZM17.5728 45.49C17.3447 44.3113 16.7855 43.3376 15.8383 42.6918L14.7117 44.3442C15.1432 44.6384 15.4613 45.106 15.6092 45.87L17.5728 45.49ZM15.8632 42.7093C14.9154 42.02 13.5574 41.766 11.985 41.766V43.766C13.4206 43.766 14.256 44.0134 14.6868 44.3267L15.8632 42.7093ZM11.985 41.766H6.815V43.766H11.985V41.766ZM5.815 42.766V56.866H7.815V42.766H5.815ZM6.815 57.866H11.938V55.866H6.815V57.866ZM43.1857 72L42.2306 72.2965L42.449 73H43.1857V72ZM39.1437 58.981L40.0987 58.6845L39.8803 57.981H39.1437V58.981ZM32.4227 58.981V57.981H31.4227V58.981H32.4227ZM32.4227 72V73H33.4227V72H32.4227ZM28.8977 72H27.8977V73H28.8977V72ZM28.8977 39.664V38.664H27.8977V39.664H28.8977ZM43.7497 40.886L44.346 40.0833L43.7497 40.886ZM45.8647 44.129L44.8906 44.3555L44.8931 44.3662L44.8959 44.3768L45.8647 44.129ZM45.6297 55.174L44.679 54.8636L44.6752 54.8757L45.6297 55.174ZM42.5277 58.37L42.1626 57.439L41.2888 57.7817L41.5754 58.6754L42.5277 58.37ZM46.8987 72V73H48.2695L47.8509 71.6946L46.8987 72ZM41.1647 55.221L40.6184 54.3834L41.1647 55.221ZM42.5277 53.2L41.5556 52.9654L41.5526 52.9779L41.5499 52.9905L42.5277 53.2ZM42.5277 45.492L41.5499 45.7015L41.5534 45.7181L41.5575 45.7345L42.5277 45.492ZM41.2117 43.471L41.775 42.6448V42.6448L41.2117 43.471ZM32.4227 42.766V41.766H31.4227V42.766H32.4227ZM32.4227 55.926H31.4227V56.926H32.4227V55.926ZM44.1407 71.7035L40.0987 58.6845L38.1886 59.2775L42.2306 72.2965L44.1407 71.7035ZM39.1437 57.981H38.4857V59.981H39.1437V57.981ZM38.4857 57.981H32.4227V59.981H38.4857V57.981ZM31.4227 58.981V72H33.4227V58.981H31.4227ZM32.4227 71H28.8977V73H32.4227V71ZM29.8977 72V39.664H27.8977V72H29.8977ZM28.8977 40.664H38.7677V38.664H28.8977V40.664ZM38.7677 40.664C40.9015 40.664 42.3074 41.0603 43.1533 41.6887L44.346 40.0833C42.9986 39.0823 41.0832 38.664 38.7677 38.664V40.664ZM43.1533 41.6887C44.0572 42.3602 44.6302 43.2358 44.8906 44.3555L46.8387 43.9025C46.4724 42.3276 45.6354 41.0411 44.346 40.0833L43.1533 41.6887ZM44.8959 44.3768C45.2119 45.6124 45.3817 47.2597 45.3817 49.346H47.3817C47.3817 47.171 47.2067 45.3403 46.8335 43.8812L44.8959 44.3768ZM45.3817 49.346C45.3817 51.6341 45.1365 53.4628 44.6791 54.8636L46.5803 55.4844C47.1255 53.8145 47.3817 51.7579 47.3817 49.346H45.3817ZM44.6752 54.8757C44.3044 56.0621 43.5072 56.9117 42.1626 57.439L42.8927 59.301C44.7441 58.5749 46.0149 57.2939 46.5841 55.4723L44.6752 54.8757ZM41.5754 58.6754L45.9464 72.3054L47.8509 71.6946L43.4799 58.0646L41.5754 58.6754ZM46.8987 71H43.1857V73H46.8987V71ZM37.8747 56.926C39.4189 56.926 40.749 56.6859 41.7109 56.0586L40.6184 54.3834C40.139 54.6961 39.2757 54.926 37.8747 54.926V56.926ZM41.7109 56.0586C42.663 55.4377 43.2648 54.5327 43.5055 53.4095L41.5499 52.9905C41.4145 53.622 41.1076 54.0643 40.6184 54.3834L41.7109 56.0586ZM43.4997 53.4346C43.7466 52.4118 43.8567 51.0348 43.8567 49.346H41.8567C41.8567 50.9785 41.7473 52.1709 41.5556 52.9654L43.4997 53.4346ZM43.8567 49.346C43.8567 47.63 43.7473 46.2474 43.4978 45.2495L41.5575 45.7345C41.7467 46.4913 41.8567 47.678 41.8567 49.346H43.8567ZM43.5055 45.2825C43.2681 44.1748 42.6935 43.271 41.775 42.6448L40.6483 44.2972C41.1085 44.611 41.4112 45.0546 41.5499 45.7015L43.5055 45.2825ZM41.775 42.6448C40.8327 42.0023 39.4863 41.766 37.9217 41.766V43.766C39.365 43.766 40.212 43.9997 40.6483 44.2972L41.775 42.6448ZM37.9217 41.766H32.4227V43.766H37.9217V41.766ZM31.4227 42.766V55.926H33.4227V42.766H31.4227ZM32.4227 56.926H37.8747V54.926H32.4227V56.926ZM55.9774 72H54.9774V73H55.9774V72ZM55.9774 39.664V38.664H54.9774V39.664H55.9774ZM59.5024 39.664H60.5024V38.664H59.5024V39.664ZM59.5024 72V73H60.5024V72H59.5024ZM56.9774 72V39.664H54.9774V72H56.9774ZM55.9774 40.664H59.5024V38.664H55.9774V40.664ZM58.5024 39.664V72H60.5024V39.664H58.5024ZM59.5024 71H55.9774V73H59.5024V71ZM67.9965 72H66.9965V73H67.9965V72ZM67.9965 69.086L67.0983 68.6465L66.9965 68.8545V69.086H67.9965ZM80.8745 42.766L81.7728 43.2055L82.4771 41.766H80.8745V42.766ZM68.3725 42.766H67.3725V43.766H68.3725V42.766ZM68.3725 39.664V38.664H67.3725V39.664H68.3725ZM85.0575 39.664H86.0575V38.664H85.0575V39.664ZM85.0575 42.578L85.9551 43.0188L86.0575 42.8103V42.578H85.0575ZM72.1325 68.898L71.2349 68.4572L70.5274 69.898H72.1325V68.898ZM85.2455 68.898H86.2455V67.898H85.2455V68.898ZM85.2455 72V73H86.2455V72H85.2455ZM68.9965 72V69.086H66.9965V72H68.9965ZM68.8948 69.5255L81.7728 43.2055L79.9763 42.3265L67.0983 68.6465L68.8948 69.5255ZM80.8745 41.766H68.3725V43.766H80.8745V41.766ZM69.3725 42.766V39.664H67.3725V42.766H69.3725ZM68.3725 40.664H85.0575V38.664H68.3725V40.664ZM84.0575 39.664V42.578H86.0575V39.664H84.0575ZM84.1599 42.1372L71.2349 68.4572L73.0301 69.3388L85.9551 43.0188L84.1599 42.1372ZM72.1325 69.898H85.2455V67.898H72.1325V69.898ZM84.2455 68.898V72H86.2455V68.898H84.2455ZM85.2455 71H67.9965V73H85.2455V71ZM93.6034 72H92.6034V73H93.6034V72ZM93.6034 39.664V38.664H92.6034V39.664H93.6034ZM108.878 39.664H109.878V38.664H108.878V39.664ZM108.878 42.766V43.766H109.878V42.766H108.878ZM97.1284 42.766V41.766H96.1284V42.766H97.1284ZM97.1284 54.093H96.1284V55.093H97.1284V54.093ZM107.327 54.093H108.327V53.093H107.327V54.093ZM107.327 57.195V58.195H108.327V57.195H107.327ZM97.1284 57.195V56.195H96.1284V57.195H97.1284ZM97.1284 68.898H96.1284V69.898H97.1284V68.898ZM108.878 68.898H109.878V67.898H108.878V68.898ZM108.878 72V73H109.878V72H108.878ZM94.6034 72V39.664H92.6034V72H94.6034ZM93.6034 40.664H108.878V38.664H93.6034V40.664ZM107.878 39.664V42.766H109.878V39.664H107.878ZM108.878 41.766H97.1284V43.766H108.878V41.766ZM96.1284 42.766V54.093H98.1284V42.766H96.1284ZM97.1284 55.093H107.327V53.093H97.1284V55.093ZM106.327 54.093V57.195H108.327V54.093H106.327ZM107.327 56.195H97.1284V58.195H107.327V56.195ZM96.1284 57.195V68.898H98.1284V57.195H96.1284ZM97.1284 69.898H108.878V67.898H97.1284V69.898ZM107.878 68.898V72H109.878V68.898H107.878ZM108.878 71H93.6034V73H108.878V71ZM116.944 71.765H115.944V72.6121L116.78 72.7514L116.944 71.765ZM116.944 68.71L117.086 67.7201L115.944 67.557V68.71H116.944ZM120.563 69.133L120.469 70.1285L120.48 70.1296L120.492 70.1305L120.563 69.133ZM126.861 69.039L127.074 70.0162L127.089 70.0129L127.104 70.0091L126.861 69.039ZM128.694 68.099L128.014 67.3662L128.012 67.3679L128.694 68.099ZM129.54 66.313L128.56 66.1169L128.556 66.1359L128.553 66.155L129.54 66.313ZM129.587 59.545L130.571 59.3661L129.587 59.545ZM128.694 58.088L128.113 58.9017L128.146 58.9249L128.18 58.9455L128.694 58.088ZM126.297 57.336L126.458 56.3489L126.451 56.3478L126.297 57.336ZM120.845 56.49L120.681 57.4765L120.692 57.4782L120.845 56.49ZM117.884 55.174L117.161 55.8645L117.169 55.8729L117.177 55.8811L117.884 55.174ZM116.568 52.542L115.584 52.7158L115.586 52.7298L115.589 52.7437L116.568 52.542ZM118.354 41.356L119.053 42.0712L119.062 42.0631L118.354 41.356ZM132.125 40.04H133.125V39.2751L132.387 39.0749L132.125 40.04ZM132.125 42.954L131.949 43.9383L133.125 44.149V42.954H132.125ZM122.584 42.766L122.854 43.729L122.872 43.724L122.889 43.7184L122.584 42.766ZM120.798 43.8L121.554 44.4549L120.798 43.8ZM119.999 51.32L119.017 51.5071L119.019 51.5161L119.999 51.32ZM120.751 52.636L121.306 51.8039H121.306L120.751 52.636ZM122.631 53.247L122.456 54.2314L122.464 54.233L122.473 54.2343L122.631 53.247ZM127.895 54.093L128.06 53.1066L128.054 53.1057L127.895 54.093ZM130.997 55.08L131.501 54.2162L130.997 55.08ZM132.736 57.336L131.802 57.6931L131.807 57.7058L131.812 57.7184L132.736 57.336ZM132.501 68.428L131.569 68.0676L131.565 68.0769L131.562 68.0863L132.501 68.428ZM129.916 71.436L129.46 70.5461L129.451 70.5511L129.916 71.436ZM124.981 71.376C122.113 71.376 119.49 71.1755 117.109 70.7786L116.78 72.7514C119.287 73.1692 122.022 73.376 124.981 73.376V71.376ZM117.944 71.765V68.71H115.944V71.765H117.944ZM116.803 69.7C117.918 69.8592 119.14 70.002 120.469 70.1285L120.658 68.1375C119.355 68.0134 118.164 67.8741 117.086 67.7201L116.803 69.7ZM120.492 70.1305C121.822 70.2255 122.96 70.274 123.9 70.274V68.274C123.024 68.274 121.937 68.2285 120.635 68.1355L120.492 70.1305ZM123.9 70.274C125.183 70.274 126.252 70.1949 127.074 70.0162L126.649 68.0618C126.03 68.1964 125.125 68.274 123.9 68.274V70.274ZM127.104 70.0091C127.987 69.7884 128.76 69.406 129.377 68.8301L128.012 67.3679C127.689 67.6693 127.24 67.9136 126.619 68.0689L127.104 70.0091ZM129.375 68.8318C130.023 68.2295 130.379 67.4031 130.528 66.471L128.553 66.155C128.451 66.7896 128.243 67.1538 128.014 67.3662L129.375 68.8318ZM130.521 66.5091C130.696 65.6333 130.775 64.5095 130.775 63.164H128.775C128.775 64.4505 128.698 65.426 128.56 66.1169L130.521 66.5091ZM130.775 63.164C130.775 61.4423 130.715 60.154 130.571 59.3661L128.604 59.7239C128.711 60.3147 128.775 61.439 128.775 63.164H130.775ZM130.571 59.3661C130.41 58.478 129.991 57.6997 129.209 57.2305L128.18 58.9455C128.338 59.0403 128.514 59.2334 128.604 59.7239L130.571 59.3661ZM129.276 57.2743C128.633 56.8155 127.63 56.5391 126.458 56.3489L126.137 58.3231C127.283 58.5089 127.878 58.7339 128.113 58.9017L129.276 57.2743ZM126.451 56.3478L120.999 55.5018L120.692 57.4782L126.144 58.3242L126.451 56.3478ZM121.01 55.5036C119.814 55.3042 119.051 54.9261 118.592 54.4669L117.177 55.8811C118.034 56.7379 119.245 57.2371 120.681 57.4764L121.01 55.5036ZM118.608 54.4835C118.097 53.9483 117.735 53.2485 117.548 52.3403L115.589 52.7437C115.841 53.9661 116.356 55.0211 117.161 55.8645L118.608 54.4835ZM117.553 52.3682C117.38 51.3851 117.286 50.025 117.286 48.265H115.286C115.286 50.077 115.381 51.5682 115.584 52.7158L117.553 52.3682ZM117.286 48.265C117.286 45.1003 117.964 43.1357 119.053 42.0712L117.656 40.6408C115.987 42.271 115.286 44.9124 115.286 48.265H117.286ZM119.062 42.0631C120.171 40.9539 122.063 40.288 124.981 40.288V38.288C121.821 38.288 119.295 39.0008 117.647 40.6489L119.062 42.0631ZM124.981 40.288C127.848 40.288 130.132 40.5356 131.864 41.0051L132.387 39.0749C130.421 38.5417 127.943 38.288 124.981 38.288V40.288ZM131.125 40.04V42.954H133.125V40.04H131.125ZM132.302 41.9697C130.144 41.5833 127.97 41.39 125.78 41.39V43.39C127.852 43.39 129.908 43.5727 131.949 43.9383L132.302 41.9697ZM125.78 41.39C124.387 41.39 123.204 41.5177 122.28 41.8136L122.889 43.7184C123.531 43.5129 124.479 43.39 125.78 43.39V41.39ZM122.315 41.803C121.4 42.0592 120.613 42.4877 120.043 43.1451L121.554 44.4549C121.799 44.1723 122.202 43.9115 122.854 43.729L122.315 41.803ZM120.043 43.1451C119.504 43.7669 119.169 44.5173 119.016 45.3601L120.983 45.7179C121.081 45.182 121.278 44.7731 121.554 44.4549L120.043 43.1451ZM119.016 45.3601C118.876 46.1305 118.811 47.0732 118.811 48.171H120.811C120.811 47.1382 120.873 46.3262 120.983 45.7179L119.016 45.3601ZM118.811 48.171C118.811 49.6205 118.873 50.7504 119.017 51.5071L120.982 51.1329C120.875 50.5736 120.811 49.6041 120.811 48.171H118.811ZM119.019 51.5161C119.174 52.2939 119.522 53.0184 120.197 53.468L121.306 51.8039C121.229 51.7523 121.075 51.5994 120.98 51.1239L119.019 51.5161ZM120.197 53.468C120.752 53.8381 121.549 54.0695 122.456 54.2314L122.807 52.2626C121.959 52.1111 121.503 51.9353 121.306 51.8039L120.197 53.468ZM122.473 54.2343L127.737 55.0803L128.054 53.1057L122.79 52.2597L122.473 54.2343ZM127.731 55.0794C128.984 55.2883 129.887 55.5898 130.494 55.9438L131.501 54.2162C130.604 53.6929 129.439 53.3364 128.06 53.1066L127.731 55.0794ZM130.494 55.9438C130.995 56.2362 131.451 56.7742 131.802 57.6931L133.671 56.9789C133.207 55.7671 132.504 54.8012 131.501 54.2162L130.494 55.9438ZM131.812 57.7184C131.945 58.0381 132.074 58.6013 132.165 59.4725C132.254 60.3267 132.3 61.4134 132.3 62.741H134.3C134.3 61.374 134.253 60.2125 134.154 59.265C134.057 58.3345 133.904 57.5425 133.66 56.9536L131.812 57.7184ZM132.3 62.741C132.3 65.0984 132.038 66.8537 131.569 68.0676L133.434 68.7884C134.031 67.2449 134.3 65.2089 134.3 62.741H132.3ZM131.562 68.0863C131.14 69.2455 130.441 70.043 129.46 70.5462L130.373 72.3258C131.836 71.5757 132.86 70.3678 133.441 68.7697L131.562 68.0863ZM129.451 70.5511C128.462 71.0714 127.001 71.376 124.981 71.376V73.376C127.161 73.376 128.989 73.0539 130.382 72.3209L129.451 70.5511ZM173.379 72L172.398 72.1931L172.557 73H173.379V72ZM168.209 45.727L169.191 45.5339L169.032 44.727H168.209V45.727ZM168.021 45.727V44.727H167.197L167.04 45.5356L168.021 45.727ZM162.898 72V73H163.722L163.88 72.1914L162.898 72ZM158.48 72L157.497 72.1829L157.649 73H158.48V72ZM152.464 39.664V38.664H151.261L151.481 39.8469L152.464 39.664ZM156.083 39.664L157.069 39.4955L156.927 38.664H156.083V39.664ZM160.736 66.877L159.751 67.0455L159.893 67.877H160.736V66.877ZM160.971 66.877V67.877H161.798L161.953 67.0653L160.971 66.877ZM166.188 39.664V38.664H165.362L165.206 39.4757L166.188 39.664ZM170.136 39.664L171.118 39.4741L170.961 38.664H170.136V39.664ZM175.4 66.877L174.419 67.0669L174.575 67.877H175.4V66.877ZM175.682 66.877V67.877H176.529L176.669 67.0422L175.682 66.877ZM180.241 39.664V38.664H179.395L179.255 39.4988L180.241 39.664ZM183.766 39.664L184.749 39.8469L184.97 38.664H183.766V39.664ZM177.75 72V73H178.581L178.733 72.1829L177.75 72ZM174.361 71.8069L169.191 45.5339L167.228 45.9201L172.398 72.1931L174.361 71.8069ZM168.209 44.727H168.021V46.727H168.209V44.727ZM167.04 45.5356L161.917 71.8086L163.88 72.1914L169.003 45.9184L167.04 45.5356ZM162.898 71H158.48V73H162.898V71ZM159.463 71.8171L153.447 39.4811L151.481 39.8469L157.497 72.1829L159.463 71.8171ZM152.464 40.664H156.083V38.664H152.464V40.664ZM155.098 39.8325L159.751 67.0455L161.722 66.7085L157.069 39.4955L155.098 39.8325ZM160.736 67.877H160.971V65.877H160.736V67.877ZM161.953 67.0653L167.17 39.8523L165.206 39.4757L159.989 66.6887L161.953 67.0653ZM166.188 40.664H170.136V38.664H166.188V40.664ZM169.155 39.8539L174.419 67.0669L176.382 66.6871L171.118 39.4741L169.155 39.8539ZM175.4 67.877H175.682V65.877H175.4V67.877ZM176.669 67.0422L181.228 39.8292L179.255 39.4988L174.696 66.7118L176.669 67.0422ZM180.241 40.664H183.766V38.664H180.241V40.664ZM182.783 39.4811L176.767 71.8171L178.733 72.1829L184.749 39.8469L182.783 39.4811ZM177.75 71H173.379V73H177.75V71ZM193.196 71.107L192.656 71.9482L193.196 71.107ZM190.658 66.642L189.673 66.8133L189.674 66.8158L190.658 66.642ZM190.658 45.069L191.643 45.2428L191.644 45.2403L190.658 45.069ZM193.196 40.557L192.656 39.7158L193.196 40.557ZM208.894 45.069L207.909 45.2403L207.91 45.2428L208.894 45.069ZM208.894 66.642L209.879 66.8158L209.88 66.8133L208.894 66.642ZM206.356 71.107L206.897 71.9482L206.356 71.107ZM203.959 68.569L203.445 67.7115L203.959 68.569ZM205.51 65.232L204.52 65.0906V65.0906L205.51 65.232ZM205.51 46.432L204.52 46.5734L205.51 46.432ZM203.959 43.095L203.445 43.9525V43.9525L203.959 43.095ZM195.593 43.095L196.108 43.9525L195.593 43.095ZM194.042 65.232L195.032 65.0906L194.042 65.232ZM195.593 68.569L195.079 69.4265L195.593 68.569ZM199.776 71.376C196.744 71.376 194.799 70.9483 193.737 70.2658L192.656 71.9482C194.226 72.9577 196.667 73.376 199.776 73.376V71.376ZM193.737 70.2658C192.735 69.6214 191.99 68.4328 191.643 66.4682L189.674 66.8158C190.079 69.1125 191.026 70.9006 192.656 71.9482L193.737 70.2658ZM191.644 66.4707C191.284 64.4012 191.094 60.8736 191.094 55.832H189.094C189.094 60.8797 189.281 64.5588 189.673 66.8133L191.644 66.4707ZM191.094 55.832C191.094 50.7894 191.284 47.2792 191.643 45.2428L189.674 44.8952C189.281 47.1201 189.094 50.7852 189.094 55.832H191.094ZM191.644 45.2403C191.992 43.2399 192.739 42.04 193.737 41.3982L192.656 39.7158C191.022 40.766 190.077 42.5741 189.673 44.8977L191.644 45.2403ZM193.737 41.3982C194.799 40.7157 196.744 40.288 199.776 40.288V38.288C196.667 38.288 194.226 38.7063 192.656 39.7158L193.737 41.3982ZM199.776 40.288C202.809 40.288 204.754 40.7157 205.816 41.3982L206.897 39.7158C205.327 38.7063 202.885 38.288 199.776 38.288V40.288ZM205.816 41.3982C206.814 42.04 207.561 43.2399 207.909 45.2403L209.88 44.8977C209.476 42.5741 208.531 40.766 206.897 39.7158L205.816 41.3982ZM207.91 45.2428C208.269 47.2792 208.458 50.7894 208.458 55.832H210.458C210.458 50.7852 210.272 47.1201 209.879 44.8952L207.91 45.2428ZM208.458 55.832C208.458 60.8736 208.269 64.4012 207.909 66.4707L209.88 66.8133C210.272 64.5588 210.458 60.8797 210.458 55.832H208.458ZM207.91 66.4682C207.563 68.4328 206.818 69.6214 205.816 70.2658L206.897 71.9482C208.527 70.9006 209.474 69.1125 209.879 66.8158L207.91 66.4682ZM205.816 70.2658C204.754 70.9483 202.809 71.376 199.776 71.376V73.376C202.885 73.376 205.327 72.9577 206.897 71.9482L205.816 70.2658ZM199.776 70.274C201.794 70.274 203.436 70.0494 204.474 69.4265L203.445 67.7115C202.916 68.0286 201.77 68.274 199.776 68.274V70.274ZM204.474 69.4265C205.676 68.7054 206.244 67.1712 206.5 65.3734L204.52 65.0906C204.276 66.8021 203.81 67.4926 203.445 67.7115L204.474 69.4265ZM206.5 65.3734C206.762 63.5399 206.886 60.3409 206.886 55.832H204.886C204.886 60.3471 204.76 63.4148 204.52 65.0906L206.5 65.3734ZM206.886 55.832C206.886 51.3231 206.762 48.1241 206.5 46.2906L204.52 46.5734C204.76 48.2492 204.886 51.3169 204.886 55.832H206.886ZM206.5 46.2906C206.244 44.4928 205.676 42.9586 204.474 42.2375L203.445 43.9525C203.81 44.1714 204.276 44.8619 204.52 46.5734L206.5 46.2906ZM204.474 42.2375C203.436 41.6146 201.794 41.39 199.776 41.39V43.39C201.77 43.39 202.916 43.6354 203.445 43.9525L204.474 42.2375ZM199.776 41.39C197.759 41.39 196.117 41.6146 195.079 42.2375L196.108 43.9525C196.636 43.6354 197.783 43.39 199.776 43.39V41.39ZM195.079 42.2375C193.877 42.9586 193.309 44.4928 193.052 46.2906L195.032 46.5734C195.277 44.8619 195.743 44.1714 196.108 43.9525L195.079 42.2375ZM193.052 46.2906C192.791 48.1241 192.666 51.3231 192.666 55.832H194.666C194.666 51.3169 194.793 48.2492 195.032 46.5734L193.052 46.2906ZM192.666 55.832C192.666 60.3409 192.791 63.5399 193.052 65.3734L195.032 65.0906C194.793 63.4148 194.666 60.3471 194.666 55.832H192.666ZM193.052 65.3734C193.309 67.1712 193.877 68.7054 195.079 69.4265L196.108 67.7115C195.743 67.4926 195.277 66.8021 195.032 65.0906L193.052 65.3734ZM195.079 69.4265C196.117 70.0494 197.759 70.274 199.776 70.274V68.274C197.783 68.274 196.636 68.0286 196.108 67.7115L195.079 69.4265ZM233.268 72L232.313 72.2965L232.531 73H233.268V72ZM229.226 58.981L230.181 58.6845L229.962 57.981H229.226V58.981ZM222.505 58.981V57.981H221.505V58.981H222.505ZM222.505 72V73H223.505V72H222.505ZM218.98 72H217.98V73H218.98V72ZM218.98 39.664V38.664H217.98V39.664H218.98ZM233.832 40.886L234.428 40.0833L233.832 40.886ZM235.947 44.129L234.973 44.3555L234.975 44.3662L234.978 44.3768L235.947 44.129ZM235.712 55.174L234.761 54.8636L234.757 54.8757L235.712 55.174ZM232.61 58.37L232.245 57.439L231.371 57.7817L231.657 58.6754L232.61 58.37ZM236.981 72V73H238.351L237.933 71.6946L236.981 72ZM231.247 55.221L230.7 54.3834L231.247 55.221ZM232.61 53.2L231.638 52.9654L231.635 52.9779L231.632 52.9905L232.61 53.2ZM232.61 45.492L231.632 45.7015L231.635 45.7181L231.639 45.7345L232.61 45.492ZM231.294 43.471L231.857 42.6448V42.6448L231.294 43.471ZM222.505 42.766V41.766H221.505V42.766H222.505ZM222.505 55.926H221.505V56.926H222.505V55.926ZM234.223 71.7035L230.181 58.6845L228.271 59.2775L232.313 72.2965L234.223 71.7035ZM229.226 57.981H228.568V59.981H229.226V57.981ZM228.568 57.981H222.505V59.981H228.568V57.981ZM221.505 58.981V72H223.505V58.981H221.505ZM222.505 71H218.98V73H222.505V71ZM219.98 72V39.664H217.98V72H219.98ZM218.98 40.664H228.85V38.664H218.98V40.664ZM228.85 40.664C230.983 40.664 232.389 41.0603 233.235 41.6887L234.428 40.0833C233.081 39.0823 231.165 38.664 228.85 38.664V40.664ZM233.235 41.6887C234.139 42.3602 234.712 43.2358 234.973 44.3555L236.921 43.9025C236.554 42.3276 235.717 41.0411 234.428 40.0833L233.235 41.6887ZM234.978 44.3768C235.294 45.6124 235.464 47.2597 235.464 49.346H237.464C237.464 47.171 237.289 45.3403 236.915 43.8812L234.978 44.3768ZM235.464 49.346C235.464 51.6341 235.218 53.4628 234.761 54.8636L236.662 55.4844C237.207 53.8145 237.464 51.7579 237.464 49.346H235.464ZM234.757 54.8757C234.386 56.0621 233.589 56.9117 232.245 57.439L232.975 59.301C234.826 58.5749 236.097 57.2939 236.666 55.4723L234.757 54.8757ZM231.657 58.6754L236.028 72.3054L237.933 71.6946L233.562 58.0646L231.657 58.6754ZM236.981 71H233.268V73H236.981V71ZM227.957 56.926C229.501 56.926 230.831 56.6859 231.793 56.0586L230.7 54.3834C230.221 54.6961 229.358 54.926 227.957 54.926V56.926ZM231.793 56.0586C232.745 55.4377 233.347 54.5327 233.587 53.4095L231.632 52.9905C231.496 53.622 231.19 54.0643 230.7 54.3834L231.793 56.0586ZM233.582 53.4346C233.829 52.4118 233.939 51.0348 233.939 49.346H231.939C231.939 50.9785 231.829 52.1709 231.638 52.9654L233.582 53.4346ZM233.939 49.346C233.939 47.63 233.829 46.2474 233.58 45.2495L231.639 45.7345C231.829 46.4913 231.939 47.678 231.939 49.346H233.939ZM233.587 45.2825C233.35 44.1748 232.775 43.271 231.857 42.6448L230.73 44.2972C231.19 44.611 231.493 45.0546 231.632 45.7015L233.587 45.2825ZM231.857 42.6448C230.915 42.0023 229.568 41.766 228.004 41.766V43.766C229.447 43.766 230.294 43.9997 230.73 44.2972L231.857 42.6448ZM228.004 41.766H222.505V43.766H228.004V41.766ZM221.505 42.766V55.926H223.505V42.766H221.505ZM222.505 56.926H227.957V54.926H222.505V56.926ZM250.112 72H249.112V73H250.112V72ZM250.112 42.86H251.112V41.86H250.112V42.86ZM242.921 42.86H241.921V43.86H242.921V42.86ZM242.921 39.664V38.664H241.921V39.664H242.921ZM260.828 39.664H261.828V38.664H260.828V39.664ZM260.828 42.86V43.86H261.828V42.86H260.828ZM253.637 42.86V41.86H252.637V42.86H253.637ZM253.637 72V73H254.637V72H253.637ZM251.112 72V42.86H249.112V72H251.112ZM250.112 41.86H242.921V43.86H250.112V41.86ZM243.921 42.86V39.664H241.921V42.86H243.921ZM242.921 40.664H260.828V38.664H242.921V40.664ZM259.828 39.664V42.86H261.828V39.664H259.828ZM260.828 41.86H253.637V43.86H260.828V41.86ZM252.637 42.86V72H254.637V42.86H252.637ZM253.637 71H250.112V73H253.637V71ZM283.345 72H282.345V73H283.345V72ZM283.345 57.289H284.345V56.289H283.345V57.289ZM272.112 57.289V56.289H271.112V57.289H272.112ZM272.112 72V73H273.112V72H272.112ZM268.634 72H267.634V73H268.634V72ZM268.634 39.664V38.664H267.634V39.664H268.634ZM272.112 39.664H273.112V38.664H272.112V39.664ZM272.112 54.093H271.112V55.093H272.112V54.093ZM283.345 54.093V55.093H284.345V54.093H283.345ZM283.345 39.664V38.664H282.345V39.664H283.345ZM286.823 39.664H287.823V38.664H286.823V39.664ZM286.823 72V73H287.823V72H286.823ZM284.345 72V57.289H282.345V72H284.345ZM283.345 56.289H272.112V58.289H283.345V56.289ZM271.112 57.289V72H273.112V57.289H271.112ZM272.112 71H268.634V73H272.112V71ZM269.634 72V39.664H267.634V72H269.634ZM268.634 40.664H272.112V38.664H268.634V40.664ZM271.112 39.664V54.093H273.112V39.664H271.112ZM272.112 55.093H283.345V53.093H272.112V55.093ZM284.345 54.093V39.664H282.345V54.093H284.345ZM283.345 40.664H286.823V38.664H283.345V40.664ZM285.823 39.664V72H287.823V39.664H285.823ZM286.823 71H283.345V73H286.823V71ZM309.371 60.109H308.371V61.109H309.371V60.109ZM309.371 57.054V56.054H308.371V57.054H309.371ZM318.536 57.054H319.536V56.054H318.536V57.054ZM318.536 60.109V61.109H319.536V60.109H318.536ZM310.371 60.109V57.054H308.371V60.109H310.371ZM309.371 58.054H318.536V56.054H309.371V58.054ZM317.536 57.054V60.109H319.536V57.054H317.536ZM318.536 59.109H309.371V61.109H318.536V59.109Z" fill="black" mask="url(#path-1-outside-1_101_624)"/>
<mask id="path-3-outside-2_101_624" maskUnits="userSpaceOnUse" x="325" y="7" width="179" height="68" fill="black">
<rect fill="white" x="325" y="7" width="179" height="68"/>
<path d="M336.16 72V18.27L327.52 22.59V16.29L338.05 10.08H342.91V72H336.16ZM378.677 72.72C373.217 72.72 369.347 71.94 367.067 70.38C364.787 68.76 363.317 65.91 362.657 61.83C361.997 57.69 361.667 50.76 361.667 41.04C361.667 31.32 361.997 24.42 362.657 20.34C363.317 16.2 364.787 13.35 367.067 11.79C369.347 10.17 373.217 9.36 378.677 9.36C384.257 9.36 388.187 10.17 390.467 11.79C392.747 13.35 394.187 16.14 394.787 20.16C395.387 24.12 395.687 31.08 395.687 41.04C395.687 50.76 395.357 57.69 394.697 61.83C394.037 65.91 392.567 68.76 390.287 70.38C388.007 71.94 384.137 72.72 378.677 72.72ZM378.677 66.78C382.097 66.78 384.437 66.33 385.697 65.43C387.017 64.53 387.887 62.43 388.307 59.13C388.727 55.77 388.937 49.74 388.937 41.04C388.937 32.34 388.727 26.34 388.307 23.04C387.887 19.68 387.017 17.55 385.697 16.65C384.437 15.75 382.097 15.3 378.677 15.3C375.197 15.3 372.797 15.75 371.477 16.65C370.217 17.55 369.377 19.65 368.957 22.95C368.597 26.25 368.417 32.28 368.417 41.04C368.417 49.8 368.597 55.83 368.957 59.13C369.377 62.43 370.217 64.53 371.477 65.43C372.797 66.33 375.197 66.78 378.677 66.78ZM429.471 72.72C424.011 72.72 420.141 71.94 417.861 70.38C415.581 68.76 414.111 65.91 413.451 61.83C412.791 57.69 412.461 50.76 412.461 41.04C412.461 31.32 412.791 24.42 413.451 20.34C414.111 16.2 415.581 13.35 417.861 11.79C420.141 10.17 424.011 9.36 429.471 9.36C435.051 9.36 438.981 10.17 441.261 11.79C443.541 13.35 444.981 16.14 445.581 20.16C446.181 24.12 446.481 31.08 446.481 41.04C446.481 50.76 446.151 57.69 445.491 61.83C444.831 65.91 443.361 68.76 441.081 70.38C438.801 71.94 434.931 72.72 429.471 72.72ZM429.471 66.78C432.891 66.78 435.231 66.33 436.491 65.43C437.811 64.53 438.681 62.43 439.101 59.13C439.521 55.77 439.731 49.74 439.731 41.04C439.731 32.34 439.521 26.34 439.101 23.04C438.681 19.68 437.811 17.55 436.491 16.65C435.231 15.75 432.891 15.3 429.471 15.3C425.991 15.3 423.591 15.75 422.271 16.65C421.011 17.55 420.171 19.65 419.751 22.95C419.391 26.25 419.211 32.28 419.211 41.04C419.211 49.8 419.391 55.83 419.751 59.13C420.171 62.43 421.011 64.53 422.271 65.43C423.591 66.33 425.991 66.78 429.471 66.78ZM493.045 72L478.465 43.56H471.535V72H464.785V10.08H471.535V37.62H478.465L493.045 10.08H500.335L484.045 40.23L500.515 72H493.045Z"/>
</mask>
<path d="M336.16 72V18.27L327.52 22.59V16.29L338.05 10.08H342.91V72H336.16ZM378.677 72.72C373.217 72.72 369.347 71.94 367.067 70.38C364.787 68.76 363.317 65.91 362.657 61.83C361.997 57.69 361.667 50.76 361.667 41.04C361.667 31.32 361.997 24.42 362.657 20.34C363.317 16.2 364.787 13.35 367.067 11.79C369.347 10.17 373.217 9.36 378.677 9.36C384.257 9.36 388.187 10.17 390.467 11.79C392.747 13.35 394.187 16.14 394.787 20.16C395.387 24.12 395.687 31.08 395.687 41.04C395.687 50.76 395.357 57.69 394.697 61.83C394.037 65.91 392.567 68.76 390.287 70.38C388.007 71.94 384.137 72.72 378.677 72.72ZM378.677 66.78C382.097 66.78 384.437 66.33 385.697 65.43C387.017 64.53 387.887 62.43 388.307 59.13C388.727 55.77 388.937 49.74 388.937 41.04C388.937 32.34 388.727 26.34 388.307 23.04C387.887 19.68 387.017 17.55 385.697 16.65C384.437 15.75 382.097 15.3 378.677 15.3C375.197 15.3 372.797 15.75 371.477 16.65C370.217 17.55 369.377 19.65 368.957 22.95C368.597 26.25 368.417 32.28 368.417 41.04C368.417 49.8 368.597 55.83 368.957 59.13C369.377 62.43 370.217 64.53 371.477 65.43C372.797 66.33 375.197 66.78 378.677 66.78ZM429.471 72.72C424.011 72.72 420.141 71.94 417.861 70.38C415.581 68.76 414.111 65.91 413.451 61.83C412.791 57.69 412.461 50.76 412.461 41.04C412.461 31.32 412.791 24.42 413.451 20.34C414.111 16.2 415.581 13.35 417.861 11.79C420.141 10.17 424.011 9.36 429.471 9.36C435.051 9.36 438.981 10.17 441.261 11.79C443.541 13.35 444.981 16.14 445.581 20.16C446.181 24.12 446.481 31.08 446.481 41.04C446.481 50.76 446.151 57.69 445.491 61.83C444.831 65.91 443.361 68.76 441.081 70.38C438.801 71.94 434.931 72.72 429.471 72.72ZM429.471 66.78C432.891 66.78 435.231 66.33 436.491 65.43C437.811 64.53 438.681 62.43 439.101 59.13C439.521 55.77 439.731 49.74 439.731 41.04C439.731 32.34 439.521 26.34 439.101 23.04C438.681 19.68 437.811 17.55 436.491 16.65C435.231 15.75 432.891 15.3 429.471 15.3C425.991 15.3 423.591 15.75 422.271 16.65C421.011 17.55 420.171 19.65 419.751 22.95C419.391 26.25 419.211 32.28 419.211 41.04C419.211 49.8 419.391 55.83 419.751 59.13C420.171 62.43 421.011 64.53 422.271 65.43C423.591 66.33 425.991 66.78 429.471 66.78ZM493.045 72L478.465 43.56H471.535V72H464.785V10.08H471.535V37.62H478.465L493.045 10.08H500.335L484.045 40.23L500.515 72H493.045Z" fill="#19465B"/>
<path d="M336.16 72H334.16V74H336.16V72ZM336.16 18.27H338.16V15.0339L335.266 16.4811L336.16 18.27ZM327.52 22.59H325.52V25.8261L328.414 24.3789L327.52 22.59ZM327.52 16.29L326.504 14.5673L325.52 15.1476V16.29H327.52ZM338.05 10.08V8.08H337.504L337.034 8.35727L338.05 10.08ZM342.91 10.08H344.91V8.08H342.91V10.08ZM342.91 72V74H344.91V72H342.91ZM338.16 72V18.27H334.16V72H338.16ZM335.266 16.4811L326.626 20.8011L328.414 24.3789L337.054 20.0589L335.266 16.4811ZM329.52 22.59V16.29H325.52V22.59H329.52ZM328.536 18.0127L339.066 11.8027L337.034 8.35727L326.504 14.5673L328.536 18.0127ZM338.05 12.08H342.91V8.08H338.05V12.08ZM340.91 10.08V72H344.91V10.08H340.91ZM342.91 70H336.16V74H342.91V70ZM367.067 70.38L365.909 72.0104L365.923 72.0206L365.938 72.0306L367.067 70.38ZM362.657 61.83L360.682 62.1449L360.683 62.1494L362.657 61.83ZM362.657 20.34L364.632 20.6594L364.632 20.6549L362.657 20.34ZM367.067 11.79L368.197 13.4406L368.211 13.4306L368.226 13.4204L367.067 11.79ZM390.467 11.79L389.309 13.4204L389.323 13.4306L389.338 13.4406L390.467 11.79ZM394.787 20.16L392.809 20.4552L392.81 20.4596L394.787 20.16ZM394.697 61.83L396.672 62.1494L396.672 62.1449L394.697 61.83ZM390.287 70.38L391.417 72.0306L391.431 72.0206L391.446 72.0104L390.287 70.38ZM385.697 65.43L384.571 63.7775L384.553 63.7898L384.535 63.8025L385.697 65.43ZM388.307 59.13L390.291 59.3825L390.292 59.3781L388.307 59.13ZM388.307 23.04L386.323 23.2881L386.323 23.2925L388.307 23.04ZM385.697 16.65L384.535 18.2775L384.553 18.2902L384.571 18.3025L385.697 16.65ZM371.477 16.65L370.351 14.9975L370.333 15.0098L370.315 15.0225L371.477 16.65ZM368.957 22.95L366.973 22.6975L366.971 22.7153L366.969 22.7331L368.957 22.95ZM368.957 59.13L366.969 59.3469L366.971 59.3647L366.973 59.3825L368.957 59.13ZM371.477 65.43L370.315 67.0575L370.333 67.0702L370.351 67.0825L371.477 65.43ZM378.677 70.72C373.292 70.72 369.949 69.9287 368.197 68.7294L365.938 72.0306C368.745 73.9513 373.142 74.72 378.677 74.72V70.72ZM368.226 68.7496C366.553 67.5615 365.247 65.3136 364.632 61.5106L360.683 62.1494C361.388 66.5064 363.021 69.9585 365.909 72.0104L368.226 68.7496ZM364.632 61.5151C364 57.5459 363.667 50.7554 363.667 41.04H359.667C359.667 50.7646 359.995 57.8341 360.682 62.1449L364.632 61.5151ZM363.667 41.04C363.667 31.3228 364 24.5655 364.632 20.6594L360.683 20.0206C359.995 24.2745 359.667 31.3172 359.667 41.04H363.667ZM364.632 20.6549C365.25 16.7789 366.559 14.5608 368.197 13.4406L365.938 10.1394C363.015 12.1392 361.384 15.6211 360.682 20.0251L364.632 20.6549ZM368.226 13.4204C369.971 12.1801 373.3 11.36 378.677 11.36V7.36C373.135 7.36 368.723 8.1599 365.909 10.1596L368.226 13.4204ZM378.677 11.36C384.186 11.36 387.568 12.1834 389.309 13.4204L391.626 10.1596C388.807 8.15658 384.328 7.36 378.677 7.36V11.36ZM389.338 13.4406C390.979 14.5633 392.252 16.7242 392.809 20.4552L396.765 19.8648C396.122 15.5558 394.516 12.1367 391.597 10.1394L389.338 13.4406ZM392.81 20.4596C393.385 24.2537 393.687 31.0761 393.687 41.04H397.687C397.687 31.0839 397.39 23.9863 396.765 19.8604L392.81 20.4596ZM393.687 41.04C393.687 50.7554 393.355 57.5459 392.722 61.5151L396.672 62.1449C397.36 57.8341 397.687 50.7646 397.687 41.04H393.687ZM392.723 61.5106C392.108 65.3136 390.801 67.5615 389.129 68.7496L391.446 72.0104C394.333 69.9585 395.967 66.5064 396.672 62.1494L392.723 61.5106ZM389.158 68.7294C387.405 69.9287 384.062 70.72 378.677 70.72V74.72C384.212 74.72 388.609 73.9513 391.417 72.0306L389.158 68.7294ZM378.677 68.78C380.464 68.78 382.04 68.6633 383.375 68.4065C384.69 68.1535 385.903 67.7405 386.86 67.0575L384.535 63.8025C384.231 64.0195 383.644 64.2814 382.62 64.4785C381.615 64.6717 380.31 64.78 378.677 64.78V68.78ZM386.824 67.0825C387.915 66.3389 388.664 65.2097 389.187 63.9455C389.714 62.6746 390.068 61.1353 390.291 59.3825L386.323 58.8775C386.126 60.4247 385.836 61.5854 385.492 62.4145C385.146 63.2503 384.8 63.6211 384.571 63.7775L386.824 67.0825ZM390.292 59.3781C390.729 55.8792 390.937 49.7338 390.937 41.04H386.937C386.937 49.7462 386.725 55.6608 386.323 58.8819L390.292 59.3781ZM390.937 41.04C390.937 32.3481 390.729 26.2295 390.291 22.7875L386.323 23.2925C386.725 26.4505 386.937 32.3319 386.937 41.04H390.937ZM390.292 22.7919C390.069 21.0113 389.716 19.451 389.191 18.1662C388.67 16.8902 387.922 15.746 386.824 14.9975L384.571 18.3025C384.793 18.454 385.139 18.8248 385.488 19.6787C385.834 20.524 386.125 21.7087 386.323 23.2881L390.292 22.7919ZM386.86 15.0225C385.903 14.3395 384.69 13.9264 383.375 13.6735C382.04 13.4167 380.464 13.3 378.677 13.3V17.3C380.31 17.3 381.615 17.4083 382.62 17.6015C383.644 17.7985 384.231 18.0605 384.535 18.2775L386.86 15.0225ZM378.677 13.3C375.171 13.3 372.216 13.7255 370.351 14.9975L372.604 18.3025C373.378 17.7745 375.224 17.3 378.677 17.3V13.3ZM370.315 15.0225C369.261 15.7751 368.546 16.9065 368.045 18.1572C367.54 19.4195 367.196 20.9504 366.973 22.6975L370.941 23.2025C371.139 21.6496 371.424 20.4805 371.759 19.6428C372.099 18.7935 372.433 18.4249 372.64 18.2775L370.315 15.0225ZM366.969 22.7331C366.596 26.1555 366.417 32.2877 366.417 41.04H370.417C370.417 32.2723 370.599 26.3445 370.945 23.1669L366.969 22.7331ZM366.417 41.04C366.417 49.7923 366.596 55.9245 366.969 59.3469L370.945 58.9131C370.599 55.7355 370.417 49.8077 370.417 41.04H366.417ZM366.973 59.3825C367.196 61.1296 367.54 62.6605 368.045 63.9228C368.546 65.1735 369.261 66.3049 370.315 67.0575L372.64 63.8025C372.433 63.6551 372.099 63.2865 371.759 62.4372C371.424 61.5995 371.139 60.4304 370.941 58.8775L366.973 59.3825ZM370.351 67.0825C372.216 68.3545 375.171 68.78 378.677 68.78V64.78C375.224 64.78 373.378 64.3055 372.604 63.7775L370.351 67.0825ZM417.861 70.38L416.703 72.0104L416.717 72.0206L416.732 72.0306L417.861 70.38ZM413.451 61.83L411.476 62.1449L411.477 62.1494L413.451 61.83ZM413.451 20.34L415.425 20.6594L415.426 20.6549L413.451 20.34ZM417.861 11.79L418.99 13.4406L419.005 13.4306L419.019 13.4204L417.861 11.79ZM441.261 11.79L440.103 13.4204L440.117 13.4306L440.132 13.4406L441.261 11.79ZM445.581 20.16L443.603 20.4552L443.604 20.4596L445.581 20.16ZM445.491 61.83L447.465 62.1494L447.466 62.1449L445.491 61.83ZM441.081 70.38L442.21 72.0306L442.225 72.0206L442.239 72.0104L441.081 70.38ZM436.491 65.43L435.364 63.7775L435.346 63.7898L435.329 63.8025L436.491 65.43ZM439.101 59.13L441.085 59.3825L441.086 59.3781L439.101 59.13ZM439.101 23.04L437.116 23.2881L437.117 23.2925L439.101 23.04ZM436.491 16.65L435.329 18.2775L435.346 18.2902L435.364 18.3025L436.491 16.65ZM422.271 16.65L421.144 14.9975L421.126 15.0098L421.109 15.0225L422.271 16.65ZM419.751 22.95L417.767 22.6975L417.765 22.7153L417.763 22.7331L419.751 22.95ZM419.751 59.13L417.763 59.3469L417.765 59.3647L417.767 59.3825L419.751 59.13ZM422.271 65.43L421.109 67.0575L421.126 67.0702L421.144 67.0825L422.271 65.43ZM429.471 70.72C424.086 70.72 420.743 69.9287 418.99 68.7294L416.732 72.0306C419.539 73.9513 423.936 74.72 429.471 74.72V70.72ZM419.019 68.7496C417.347 67.5615 416.041 65.3136 415.425 61.5106L411.477 62.1494C412.181 66.5064 413.815 69.9585 416.703 72.0104L419.019 68.7496ZM415.426 61.5151C414.793 57.5459 414.461 50.7554 414.461 41.04H410.461C410.461 50.7646 410.789 57.8341 411.476 62.1449L415.426 61.5151ZM414.461 41.04C414.461 31.3228 414.793 24.5655 415.425 20.6594L411.477 20.0206C410.789 24.2745 410.461 31.3172 410.461 41.04H414.461ZM415.426 20.6549C416.044 16.7789 417.353 14.5608 418.99 13.4406L416.732 10.1394C413.809 12.1392 412.178 15.6211 411.476 20.0251L415.426 20.6549ZM419.019 13.4204C420.765 12.1801 424.094 11.36 429.471 11.36V7.36C423.929 7.36 419.517 8.1599 416.703 10.1596L419.019 13.4204ZM429.471 11.36C434.98 11.36 438.362 12.1834 440.103 13.4204L442.419 10.1596C439.6 8.15658 435.122 7.36 429.471 7.36V11.36ZM440.132 13.4406C441.772 14.5633 443.046 16.7242 443.603 20.4552L447.559 19.8648C446.916 15.5558 445.31 12.1367 442.39 10.1394L440.132 13.4406ZM443.604 20.4596C444.178 24.2537 444.481 31.0761 444.481 41.04H448.481C448.481 31.0839 448.184 23.9863 447.558 19.8604L443.604 20.4596ZM444.481 41.04C444.481 50.7554 444.149 57.5459 443.516 61.5151L447.466 62.1449C448.153 57.8341 448.481 50.7646 448.481 41.04H444.481ZM443.517 61.5106C442.901 65.3136 441.595 67.5615 439.923 68.7496L442.239 72.0104C445.127 69.9585 446.761 66.5064 447.465 62.1494L443.517 61.5106ZM439.952 68.7294C438.199 69.9287 434.856 70.72 429.471 70.72V74.72C435.006 74.72 439.403 73.9513 442.21 72.0306L439.952 68.7294ZM429.471 68.78C431.258 68.78 432.833 68.6633 434.169 68.4065C435.484 68.1535 436.697 67.7405 437.653 67.0575L435.329 63.8025C435.025 64.0195 434.438 64.2814 433.413 64.4785C432.409 64.6717 431.104 64.78 429.471 64.78V68.78ZM437.618 67.0825C438.708 66.3389 439.457 65.2097 439.981 63.9455C440.508 62.6746 440.862 61.1353 441.085 59.3825L437.117 58.8775C436.92 60.4247 436.629 61.5854 436.286 62.4145C435.94 63.2503 435.594 63.6211 435.364 63.7775L437.618 67.0825ZM441.086 59.3781C441.523 55.8792 441.731 49.7338 441.731 41.04H437.731C437.731 49.7462 437.519 55.6608 437.116 58.8819L441.086 59.3781ZM441.731 41.04C441.731 32.3481 441.523 26.2295 441.085 22.7875L437.117 23.2925C437.519 26.4505 437.731 32.3319 437.731 41.04H441.731ZM441.086 22.7919C440.863 21.0113 440.51 19.451 439.985 18.1662C439.464 16.8902 438.715 15.746 437.618 14.9975L435.364 18.3025C435.587 18.454 435.933 18.8248 436.282 19.6787C436.627 20.524 436.919 21.7087 437.116 23.2881L441.086 22.7919ZM437.653 15.0225C436.697 14.3395 435.484 13.9264 434.169 13.6735C432.833 13.4167 431.258 13.3 429.471 13.3V17.3C431.104 17.3 432.409 17.4083 433.413 17.6015C434.438 17.7985 435.025 18.0605 435.329 18.2775L437.653 15.0225ZM429.471 13.3C425.965 13.3 423.01 13.7255 421.144 14.9975L423.398 18.3025C424.172 17.7745 426.017 17.3 429.471 17.3V13.3ZM421.109 15.0225C420.055 15.7751 419.339 16.9065 418.839 18.1572C418.334 19.4195 417.989 20.9504 417.767 22.6975L421.735 23.2025C421.933 21.6496 422.218 20.4805 422.553 19.6428C422.893 18.7935 423.227 18.4249 423.433 18.2775L421.109 15.0225ZM417.763 22.7331C417.389 26.1555 417.211 32.2877 417.211 41.04H421.211C421.211 32.2723 421.393 26.3445 421.739 23.1669L417.763 22.7331ZM417.211 41.04C417.211 49.7923 417.389 55.9245 417.763 59.3469L421.739 58.9131C421.393 55.7355 421.211 49.8077 421.211 41.04H417.211ZM417.767 59.3825C417.989 61.1296 418.334 62.6605 418.839 63.9228C419.339 65.1735 420.055 66.3049 421.109 67.0575L423.433 63.8025C423.227 63.6551 422.893 63.2865 422.553 62.4372C422.218 61.5995 421.933 60.4304 421.735 58.8775L417.767 59.3825ZM421.144 67.0825C423.01 68.3545 425.965 68.78 429.471 68.78V64.78C426.017 64.78 424.172 64.3055 423.398 63.7775L421.144 67.0825ZM493.045 72L491.265 72.9124L491.823 74H493.045V72ZM478.465 43.56L480.245 42.6476L479.687 41.56H478.465V43.56ZM471.535 43.56V41.56H469.535V43.56H471.535ZM471.535 72V74H473.535V72H471.535ZM464.785 72H462.785V74H464.785V72ZM464.785 10.08V8.08H462.785V10.08H464.785ZM471.535 10.08H473.535V8.08H471.535V10.08ZM471.535 37.62H469.535V39.62H471.535V37.62ZM478.465 37.62V39.62H479.669L480.232 38.5558L478.465 37.62ZM493.045 10.08V8.08H491.841L491.277 9.14422L493.045 10.08ZM500.335 10.08L502.094 11.0307L503.689 8.08H500.335V10.08ZM484.045 40.23L482.285 39.2793L481.782 40.2107L482.269 41.1505L484.045 40.23ZM500.515 72V74H503.804L502.29 71.0795L500.515 72ZM494.825 71.0876L480.245 42.6476L476.685 44.4724L491.265 72.9124L494.825 71.0876ZM478.465 41.56H471.535V45.56H478.465V41.56ZM469.535 43.56V72H473.535V43.56H469.535ZM471.535 70H464.785V74H471.535V70ZM466.785 72V10.08H462.785V72H466.785ZM464.785 12.08H471.535V8.08H464.785V12.08ZM469.535 10.08V37.62H473.535V10.08H469.535ZM471.535 39.62H478.465V35.62H471.535V39.62ZM480.232 38.5558L494.812 11.0158L491.277 9.14422L476.697 36.6842L480.232 38.5558ZM493.045 12.08H500.335V8.08H493.045V12.08ZM498.575 9.12929L482.285 39.2793L485.804 41.1807L502.094 11.0307L498.575 9.12929ZM482.269 41.1505L498.739 72.9205L502.29 71.0795L485.82 39.3095L482.269 41.1505ZM500.515 70H493.045V74H500.515V70Z" fill="#19465B" mask="url(#path-3-outside-2_101_624)"/>
</svg>
