<svg width="246" height="40" viewBox="0 0 246 40" fill="none" xmlns="http://www.w3.org/2000/svg">
<mask id="path-1-outside-1_100_437" maskUnits="userSpaceOnUse" x="-1" y="-1" width="248" height="42" fill="black">
<rect fill="white" x="-1" y="-1" width="248" height="42"/>
<path d="M17.691 38.776C16.8696 38.9627 15.8616 39.112 14.667 39.224C13.5096 39.3733 12.4083 39.448 11.363 39.448C8.00297 39.448 5.53897 38.944 3.97097 37.936C2.4403 36.928 1.39497 35.0987 0.83497 32.448C0.312303 29.76 0.0509698 25.5227 0.0509698 19.736C0.0509698 13.9867 0.312303 9.78667 0.83497 7.136C1.39497 4.448 2.4403 2.6 3.97097 1.592C5.53897 0.546664 8.00297 0.0239978 11.363 0.0239978C12.4083 0.0239978 13.5096 0.0986646 14.667 0.247998C15.8243 0.397332 16.7763 0.583998 17.523 0.807998V4.224C15.4323 3.888 13.6776 3.72 12.259 3.72C9.68297 3.72 7.8723 4.056 6.82697 4.728C5.78164 5.4 5.09097 6.78133 4.75497 8.872C4.4563 10.9627 4.30697 14.584 4.30697 19.736C4.30697 24.888 4.4563 28.5093 4.75497 30.6C5.09097 32.6907 5.78164 34.072 6.82697 34.744C7.8723 35.416 9.68297 35.752 12.259 35.752C14.1256 35.752 15.9363 35.584 17.691 35.248V38.776ZM36.2488 39.448C32.5902 39.448 29.9768 38.944 28.4088 37.936C26.8408 36.928 25.8328 35.1547 25.3848 32.616C24.9368 30.04 24.7128 25.7467 24.7128 19.736C24.7128 13.7253 24.9368 9.45067 25.3848 6.912C25.8328 4.336 26.8408 2.544 28.4088 1.536C29.9768 0.527998 32.5902 0.0239978 36.2488 0.0239978C39.9075 0.0239978 42.5208 0.527998 44.0888 1.536C45.6568 2.544 46.6648 4.336 47.1128 6.912C47.5608 9.45067 47.7848 13.7253 47.7848 19.736C47.7848 25.7467 47.5608 30.04 47.1128 32.616C46.6648 35.1547 45.6568 36.928 44.0888 37.936C42.5208 38.944 39.9075 39.448 36.2488 39.448ZM36.2488 35.752C38.6382 35.752 40.2995 35.472 41.2328 34.912C42.1662 34.352 42.7822 33.0267 43.0808 30.936C43.3795 28.8453 43.5288 25.112 43.5288 19.736C43.5288 14.36 43.3795 10.6267 43.0808 8.536C42.7822 6.44533 42.1662 5.12 41.2328 4.56C40.2995 4 38.6382 3.72 36.2488 3.72C33.8595 3.72 32.1982 4 31.2648 4.56C30.3315 5.12 29.7155 6.44533 29.4168 8.536C29.1182 10.6267 28.9688 14.36 28.9688 19.736C28.9688 25.112 29.1182 28.8453 29.4168 30.936C29.7155 33.0267 30.3315 34.352 31.2648 34.912C32.1982 35.472 33.8595 35.752 36.2488 35.752ZM82.2012 39V7.808H81.9772L73.4092 39H69.6012L61.0892 7.808H60.8652V39H56.8892V0.471999H62.9372L71.4492 31.776H71.7852L80.3532 0.471999H86.2892V39H82.2012ZM121.683 39V7.808H121.459L112.891 39H109.083L100.571 7.808H100.347V39H96.3714V0.471999H102.419L110.931 31.776H111.267L119.835 0.471999H125.771V39H121.683ZM136.022 39V0.471999H140.222V39H136.022ZM155.942 39V4.28H147.374V0.471999H168.71V4.28H160.142V39H155.942ZM181.315 39V4.28H172.747V0.471999H194.083V4.28H185.515V39H181.315ZM201.144 39V0.471999H219.344V4.168H205.344V17.664H217.496V21.36H205.344V35.304H219.344V39H201.144ZM227.61 39V0.471999H245.81V4.168H231.81V17.664H243.962V21.36H231.81V35.304H245.81V39H227.61Z"/>
</mask>
<path d="M17.691 38.776C16.8696 38.9627 15.8616 39.112 14.667 39.224C13.5096 39.3733 12.4083 39.448 11.363 39.448C8.00297 39.448 5.53897 38.944 3.97097 37.936C2.4403 36.928 1.39497 35.0987 0.83497 32.448C0.312303 29.76 0.0509698 25.5227 0.0509698 19.736C0.0509698 13.9867 0.312303 9.78667 0.83497 7.136C1.39497 4.448 2.4403 2.6 3.97097 1.592C5.53897 0.546664 8.00297 0.0239978 11.363 0.0239978C12.4083 0.0239978 13.5096 0.0986646 14.667 0.247998C15.8243 0.397332 16.7763 0.583998 17.523 0.807998V4.224C15.4323 3.888 13.6776 3.72 12.259 3.72C9.68297 3.72 7.8723 4.056 6.82697 4.728C5.78164 5.4 5.09097 6.78133 4.75497 8.872C4.4563 10.9627 4.30697 14.584 4.30697 19.736C4.30697 24.888 4.4563 28.5093 4.75497 30.6C5.09097 32.6907 5.78164 34.072 6.82697 34.744C7.8723 35.416 9.68297 35.752 12.259 35.752C14.1256 35.752 15.9363 35.584 17.691 35.248V38.776ZM36.2488 39.448C32.5902 39.448 29.9768 38.944 28.4088 37.936C26.8408 36.928 25.8328 35.1547 25.3848 32.616C24.9368 30.04 24.7128 25.7467 24.7128 19.736C24.7128 13.7253 24.9368 9.45067 25.3848 6.912C25.8328 4.336 26.8408 2.544 28.4088 1.536C29.9768 0.527998 32.5902 0.0239978 36.2488 0.0239978C39.9075 0.0239978 42.5208 0.527998 44.0888 1.536C45.6568 2.544 46.6648 4.336 47.1128 6.912C47.5608 9.45067 47.7848 13.7253 47.7848 19.736C47.7848 25.7467 47.5608 30.04 47.1128 32.616C46.6648 35.1547 45.6568 36.928 44.0888 37.936C42.5208 38.944 39.9075 39.448 36.2488 39.448ZM36.2488 35.752C38.6382 35.752 40.2995 35.472 41.2328 34.912C42.1662 34.352 42.7822 33.0267 43.0808 30.936C43.3795 28.8453 43.5288 25.112 43.5288 19.736C43.5288 14.36 43.3795 10.6267 43.0808 8.536C42.7822 6.44533 42.1662 5.12 41.2328 4.56C40.2995 4 38.6382 3.72 36.2488 3.72C33.8595 3.72 32.1982 4 31.2648 4.56C30.3315 5.12 29.7155 6.44533 29.4168 8.536C29.1182 10.6267 28.9688 14.36 28.9688 19.736C28.9688 25.112 29.1182 28.8453 29.4168 30.936C29.7155 33.0267 30.3315 34.352 31.2648 34.912C32.1982 35.472 33.8595 35.752 36.2488 35.752ZM82.2012 39V7.808H81.9772L73.4092 39H69.6012L61.0892 7.808H60.8652V39H56.8892V0.471999H62.9372L71.4492 31.776H71.7852L80.3532 0.471999H86.2892V39H82.2012ZM121.683 39V7.808H121.459L112.891 39H109.083L100.571 7.808H100.347V39H96.3714V0.471999H102.419L110.931 31.776H111.267L119.835 0.471999H125.771V39H121.683ZM136.022 39V0.471999H140.222V39H136.022ZM155.942 39V4.28H147.374V0.471999H168.71V4.28H160.142V39H155.942ZM181.315 39V4.28H172.747V0.471999H194.083V4.28H185.515V39H181.315ZM201.144 39V0.471999H219.344V4.168H205.344V17.664H217.496V21.36H205.344V35.304H219.344V39H201.144ZM227.61 39V0.471999H245.81V4.168H231.81V17.664H243.962V21.36H231.81V35.304H245.81V39H227.61Z" fill="#FDD52E"/>
<path d="M17.691 38.776L17.9126 39.7511L18.691 39.5742V38.776H17.691ZM14.667 39.224L14.5736 38.2284L14.5563 38.23L14.539 38.2322L14.667 39.224ZM3.97097 37.936L3.42095 38.7712L3.43021 38.7772L3.97097 37.936ZM0.83497 32.448L-0.146646 32.6389L-0.145103 32.6468L-0.143434 32.6547L0.83497 32.448ZM0.83497 7.136L-0.144067 6.93203L-0.146139 6.94254L0.83497 7.136ZM3.97097 1.592L4.52097 2.42718L4.52567 2.42405L3.97097 1.592ZM14.667 0.247997L14.539 1.23978L14.667 0.247997ZM17.523 0.807999H18.523V0.0639668L17.8103 -0.149828L17.523 0.807999ZM17.523 4.224L17.3643 5.21133L18.523 5.39754V4.224H17.523ZM4.75497 8.872L3.76764 8.71332L3.76625 8.72194L3.76502 8.73058L4.75497 8.872ZM4.75497 30.6L3.76502 30.7414L3.76625 30.7501L3.76764 30.7587L4.75497 30.6ZM6.82697 34.744L7.36773 33.9028L6.82697 34.744ZM17.691 35.248H18.691V34.0383L17.5029 34.2658L17.691 35.248ZM17.4694 37.8009C16.7038 37.9748 15.7416 38.1189 14.5736 38.2284L14.7603 40.2196C15.9816 40.1051 17.0354 39.9505 17.9126 39.7511L17.4694 37.8009ZM14.539 38.2322C13.4193 38.3767 12.3609 38.448 11.363 38.448V40.448C12.4557 40.448 13.6 40.37 14.7949 40.2158L14.539 38.2322ZM11.363 38.448C8.06161 38.448 5.83447 37.9452 4.51173 37.0948L3.43021 38.7772C5.24347 39.9428 7.94433 40.448 11.363 40.448V38.448ZM4.52096 37.1008C3.29636 36.2944 2.34476 34.7565 1.81337 32.2413L-0.143434 32.6547C0.445178 35.4408 1.58424 37.5616 3.42098 38.7712L4.52096 37.1008ZM1.81659 32.2571C1.31337 29.6692 1.05097 25.513 1.05097 19.736H-0.94903C-0.94903 25.5324 -0.688768 29.8508 -0.146646 32.6389L1.81659 32.2571ZM1.05097 19.736C1.05097 13.996 1.31345 9.87849 1.81608 7.32946L-0.146139 6.94254C-0.688847 9.69485 -0.94903 13.9774 -0.94903 19.736H1.05097ZM1.81395 7.33995C2.34656 4.78341 3.30012 3.23114 4.52096 2.42717L3.42098 0.756826C1.58049 1.96886 0.443376 4.11259 -0.144011 6.93204L1.81395 7.33995ZM4.52567 2.42405C5.84483 1.54461 8.06555 1.024 11.363 1.024V-0.976002C7.94039 -0.976002 5.23311 -0.451277 3.41627 0.759947L4.52567 2.42405ZM11.363 1.024C12.3609 1.024 13.4193 1.0953 14.539 1.23978L14.7949 -0.74378C13.6 -0.897968 12.4557 -0.976002 11.363 -0.976002V1.024ZM14.539 1.23978C15.6661 1.38521 16.5598 1.56309 17.2356 1.76582L17.8103 -0.149828C16.9928 -0.395094 15.9825 -0.590546 14.7949 -0.74378L14.539 1.23978ZM16.523 0.807999V4.224H18.523V0.807999H16.523ZM17.6816 3.23667C15.5614 2.89591 13.7498 2.72 12.259 2.72V4.72C13.6055 4.72 15.3032 4.88008 17.3643 5.21133L17.6816 3.23667ZM12.259 2.72C9.65766 2.72 7.59133 3.04782 6.28621 3.88682L7.36773 5.56918C8.15328 5.06418 9.70828 4.72 12.259 4.72V2.72ZM6.28621 3.88682C4.87832 4.79189 4.11851 6.53016 3.76764 8.71332L5.7423 9.03067C6.06343 7.03251 6.68495 6.00811 7.36773 5.56918L6.28621 3.88682ZM3.76502 8.73058C3.45522 10.8992 3.30697 14.5847 3.30697 19.736H5.30697C5.30697 14.5833 5.45739 11.0261 5.74492 9.01342L3.76502 8.73058ZM3.30697 19.736C3.30697 24.8873 3.45522 28.5728 3.76502 30.7414L5.74492 30.4586C5.45739 28.4459 5.30697 24.8887 5.30697 19.736H3.30697ZM3.76764 30.7587C4.11851 32.9418 4.87832 34.6801 6.28621 35.5852L7.36773 33.9028C6.68495 33.4639 6.06343 32.4395 5.7423 30.4413L3.76764 30.7587ZM6.28621 35.5852C7.59133 36.4242 9.65766 36.752 12.259 36.752V34.752C9.70828 34.752 8.15328 34.4078 7.36773 33.9028L6.28621 35.5852ZM12.259 36.752C14.1859 36.752 16.0597 36.5785 17.879 36.2302L17.5029 34.2658C15.8129 34.5895 14.0653 34.752 12.259 34.752V36.752ZM16.691 35.248V38.776H18.691V35.248H16.691ZM28.4088 37.936L27.8681 38.7772L28.4088 37.936ZM25.3848 32.616L24.3996 32.7873L24.4001 32.7898L25.3848 32.616ZM25.3848 6.912L26.3696 7.08578L26.3701 7.08334L25.3848 6.912ZM28.4088 1.536L27.8681 0.69482L28.4088 1.536ZM47.1128 6.912L46.1276 7.08334L46.1281 7.08578L47.1128 6.912ZM47.1128 32.616L48.0976 32.7898L48.0981 32.7873L47.1128 32.616ZM44.0888 37.936L44.6296 38.7772L44.0888 37.936ZM41.2328 34.912L40.7183 34.0545L41.2328 34.912ZM43.0808 30.936L42.0909 30.7946L43.0808 30.936ZM43.0808 8.536L42.0909 8.67742V8.67742L43.0808 8.536ZM41.2328 4.56L40.7183 5.41749L41.2328 4.56ZM31.2648 4.56L31.7793 5.41749H31.7793L31.2648 4.56ZM29.4168 30.936L30.4068 30.7946L29.4168 30.936ZM31.2648 34.912L30.7503 35.7695L31.2648 34.912ZM36.2488 38.448C32.6285 38.448 30.2633 37.9393 28.9496 37.0948L27.8681 38.7772C29.6904 39.9487 32.5519 40.448 36.2488 40.448V38.448ZM28.9496 37.0948C27.6952 36.2884 26.7883 34.8148 26.3696 32.4422L24.4001 32.7898C24.8774 35.4945 25.9865 37.5676 27.8681 38.7772L28.9496 37.0948ZM26.3701 32.4447C25.9382 29.9612 25.7128 25.7436 25.7128 19.736H23.7128C23.7128 25.7497 23.9355 30.1188 24.3996 32.7873L26.3701 32.4447ZM25.7128 19.736C25.7128 13.7274 25.9383 9.53019 26.3696 7.08578L24.4001 6.73821C23.9354 9.37115 23.7128 13.7232 23.7128 19.736H25.7128ZM26.3701 7.08334C26.79 4.6689 27.6993 3.18096 28.9496 2.37718L27.8681 0.69482C25.9824 1.90704 24.8757 4.0031 24.3996 6.74066L26.3701 7.08334ZM28.9496 2.37718C30.2633 1.53269 32.6285 1.024 36.2488 1.024V-0.976002C32.5519 -0.976002 29.6904 -0.476692 27.8681 0.69482L28.9496 2.37718ZM36.2488 1.024C39.8692 1.024 42.2344 1.53269 43.5481 2.37718L44.6296 0.69482C42.8073 -0.476692 39.9458 -0.976002 36.2488 -0.976002V1.024ZM43.5481 2.37718C44.7984 3.18096 45.7077 4.6689 46.1276 7.08334L48.0981 6.74066C47.622 4.0031 46.5153 1.90704 44.6296 0.69482L43.5481 2.37718ZM46.1281 7.08578C46.5594 9.53019 46.7848 13.7274 46.7848 19.736H48.7848C48.7848 13.7232 48.5623 9.37115 48.0976 6.73821L46.1281 7.08578ZM46.7848 19.736C46.7848 25.7436 46.5595 29.9612 46.1276 32.4447L48.0981 32.7873C48.5622 30.1188 48.7848 25.7497 48.7848 19.736H46.7848ZM46.1281 32.4422C45.7094 34.8148 44.8025 36.2884 43.5481 37.0948L44.6296 38.7772C46.5112 37.5676 47.6203 35.4945 48.0976 32.7898L46.1281 32.4422ZM43.5481 37.0948C42.2344 37.9393 39.8692 38.448 36.2488 38.448V40.448C39.9458 40.448 42.8073 39.9487 44.6296 38.7772L43.5481 37.0948ZM36.2488 36.752C38.6502 36.752 40.5591 36.4824 41.7473 35.7695L40.7183 34.0545C40.0399 34.4616 38.6261 34.752 36.2488 34.752V36.752ZM41.7473 35.7695C43.0991 34.9584 43.766 33.2112 44.0708 31.0774L42.0909 30.7946C41.7984 32.8421 41.2332 33.7456 40.7183 34.0545L41.7473 35.7695ZM44.0708 31.0774C44.3807 28.9079 44.5288 25.1089 44.5288 19.736H42.5288C42.5288 25.1151 42.3783 28.7828 42.0909 30.7946L44.0708 31.0774ZM44.5288 19.736C44.5288 14.3631 44.3807 10.5641 44.0708 8.39458L42.0909 8.67742C42.3783 10.6892 42.5288 14.3569 42.5288 19.736H44.5288ZM44.0708 8.39458C43.766 6.26075 43.0991 4.51358 41.7473 3.70251L40.7183 5.41749C41.2332 5.72641 41.7984 6.62991 42.0909 8.67742L44.0708 8.39458ZM41.7473 3.70251C40.5591 2.98958 38.6502 2.72 36.2488 2.72V4.72C38.6261 4.72 40.0399 5.01041 40.7183 5.41749L41.7473 3.70251ZM36.2488 2.72C33.8474 2.72 31.9386 2.98958 30.7503 3.70251L31.7793 5.41749C32.4578 5.01041 33.8716 4.72 36.2488 4.72V2.72ZM30.7503 3.70251C29.3986 4.51358 28.7317 6.26075 28.4269 8.39458L30.4068 8.67742C30.6993 6.62991 31.2645 5.72641 31.7793 5.41749L30.7503 3.70251ZM28.4269 8.39458C28.117 10.5641 27.9688 14.3631 27.9688 19.736H29.9688C29.9688 14.3569 30.1194 10.6892 30.4068 8.67742L28.4269 8.39458ZM27.9688 19.736C27.9688 25.1089 28.117 28.9079 28.4269 31.0774L30.4068 30.7946C30.1194 28.7828 29.9688 25.1151 29.9688 19.736H27.9688ZM28.4269 31.0774C28.7317 33.2112 29.3986 34.9584 30.7503 35.7695L31.7793 34.0545C31.2645 33.7456 30.6993 32.8421 30.4068 30.7946L28.4269 31.0774ZM30.7503 35.7695C31.9386 36.4824 33.8474 36.752 36.2488 36.752V34.752C33.8716 34.752 32.4578 34.4616 31.7793 34.0545L30.7503 35.7695ZM82.2012 39H81.2012V40H82.2012V39ZM82.2012 7.808H83.2012V6.808H82.2012V7.808ZM81.9772 7.808V6.808H81.2149L81.0129 7.54312L81.9772 7.808ZM73.4092 39V40H74.1716L74.3735 39.2649L73.4092 39ZM69.6012 39L68.6365 39.2633L68.8375 40H69.6012V39ZM61.0892 7.808L62.0539 7.54473L61.8529 6.808H61.0892V7.808ZM60.8652 7.808V6.808H59.8652V7.808H60.8652ZM60.8652 39V40H61.8652V39H60.8652ZM56.8892 39H55.8892V40H56.8892V39ZM56.8892 0.471998V-0.528002H55.8892V0.471998H56.8892ZM62.9372 0.471998L63.9022 0.209612L63.7016 -0.528002H62.9372V0.471998ZM71.4492 31.776L70.4843 32.0384L70.6848 32.776H71.4492V31.776ZM71.7852 31.776V32.776H72.5483L72.7497 32.04L71.7852 31.776ZM80.3532 0.471998V-0.528002H79.5901L79.3887 0.208006L80.3532 0.471998ZM86.2892 0.471998H87.2892V-0.528002H86.2892V0.471998ZM86.2892 39V40H87.2892V39H86.2892ZM83.2012 39V7.808H81.2012V39H83.2012ZM82.2012 6.808H81.9772V8.808H82.2012V6.808ZM81.0129 7.54312L72.4449 38.7351L74.3735 39.2649L82.9415 8.07287L81.0129 7.54312ZM73.4092 38H69.6012V40H73.4092V38ZM70.5659 38.7367L62.0539 7.54473L60.1245 8.07126L68.6365 39.2633L70.5659 38.7367ZM61.0892 6.808H60.8652V8.808H61.0892V6.808ZM59.8652 7.808V39H61.8652V7.808H59.8652ZM60.8652 38H56.8892V40H60.8652V38ZM57.8892 39V0.471998H55.8892V39H57.8892ZM56.8892 1.472H62.9372V-0.528002H56.8892V1.472ZM61.9723 0.734386L70.4843 32.0384L72.4142 31.5136L63.9022 0.209612L61.9723 0.734386ZM71.4492 32.776H71.7852V30.776H71.4492V32.776ZM72.7497 32.04L81.3177 0.735992L79.3887 0.208006L70.8207 31.512L72.7497 32.04ZM80.3532 1.472H86.2892V-0.528002H80.3532V1.472ZM85.2892 0.471998V39H87.2892V0.471998H85.2892ZM86.2892 38H82.2012V40H86.2892V38ZM121.683 39H120.683V40H121.683V39ZM121.683 7.808H122.683V6.808H121.683V7.808ZM121.459 7.808V6.808H120.697L120.495 7.54312L121.459 7.808ZM112.891 39V40H113.654L113.856 39.2649L112.891 39ZM109.083 39L108.119 39.2633L108.32 40H109.083V39ZM100.571 7.808L101.536 7.54473L101.335 6.808H100.571V7.808ZM100.347 7.808V6.808H99.3474V7.808H100.347ZM100.347 39V40H101.347V39H100.347ZM96.3714 39H95.3714V40H96.3714V39ZM96.3714 0.471998V-0.528002H95.3714V0.471998H96.3714ZM102.419 0.471998L103.384 0.209612L103.184 -0.528002H102.419V0.471998ZM110.931 31.776L109.966 32.0384L110.167 32.776H110.931V31.776ZM111.267 31.776V32.776H112.03L112.232 32.04L111.267 31.776ZM119.835 0.471998V-0.528002H119.072L118.871 0.208006L119.835 0.471998ZM125.771 0.471998H126.771V-0.528002H125.771V0.471998ZM125.771 39V40H126.771V39H125.771ZM122.683 39V7.808H120.683V39H122.683ZM121.683 6.808H121.459V8.808H121.683V6.808ZM120.495 7.54312L111.927 38.7351L113.856 39.2649L122.424 8.07287L120.495 7.54312ZM112.891 38H109.083V40H112.891V38ZM110.048 38.7367L101.536 7.54473L99.6067 8.07126L108.119 39.2633L110.048 38.7367ZM100.571 6.808H100.347V8.808H100.571V6.808ZM99.3474 7.808V39H101.347V7.808H99.3474ZM100.347 38H96.3714V40H100.347V38ZM97.3714 39V0.471998H95.3714V39H97.3714ZM96.3714 1.472H102.419V-0.528002H96.3714V1.472ZM101.454 0.734386L109.966 32.0384L111.896 31.5136L103.384 0.209612L101.454 0.734386ZM110.931 32.776H111.267V30.776H110.931V32.776ZM112.232 32.04L120.8 0.735992L118.871 0.208006L110.303 31.512L112.232 32.04ZM119.835 1.472H125.771V-0.528002H119.835V1.472ZM124.771 0.471998V39H126.771V0.471998H124.771ZM125.771 38H121.683V40H125.771V38ZM136.022 39H135.022V40H136.022V39ZM136.022 0.471998V-0.528002H135.022V0.471998H136.022ZM140.222 0.471998H141.222V-0.528002H140.222V0.471998ZM140.222 39V40H141.222V39H140.222ZM137.022 39V0.471998H135.022V39H137.022ZM136.022 1.472H140.222V-0.528002H136.022V1.472ZM139.222 0.471998V39H141.222V0.471998H139.222ZM140.222 38H136.022V40H140.222V38ZM155.942 39H154.942V40H155.942V39ZM155.942 4.28H156.942V3.28H155.942V4.28ZM147.374 4.28H146.374V5.28H147.374V4.28ZM147.374 0.471998V-0.528002H146.374V0.471998H147.374ZM168.71 0.471998H169.71V-0.528002H168.71V0.471998ZM168.71 4.28V5.28H169.71V4.28H168.71ZM160.142 4.28V3.28H159.142V4.28H160.142ZM160.142 39V40H161.142V39H160.142ZM156.942 39V4.28H154.942V39H156.942ZM155.942 3.28H147.374V5.28H155.942V3.28ZM148.374 4.28V0.471998H146.374V4.28H148.374ZM147.374 1.472H168.71V-0.528002H147.374V1.472ZM167.71 0.471998V4.28H169.71V0.471998H167.71ZM168.71 3.28H160.142V5.28H168.71V3.28ZM159.142 4.28V39H161.142V4.28H159.142ZM160.142 38H155.942V40H160.142V38ZM181.315 39H180.315V40H181.315V39ZM181.315 4.28H182.315V3.28H181.315V4.28ZM172.747 4.28H171.747V5.28H172.747V4.28ZM172.747 0.471998V-0.528002H171.747V0.471998H172.747ZM194.083 0.471998H195.083V-0.528002H194.083V0.471998ZM194.083 4.28V5.28H195.083V4.28H194.083ZM185.515 4.28V3.28H184.515V4.28H185.515ZM185.515 39V40H186.515V39H185.515ZM182.315 39V4.28H180.315V39H182.315ZM181.315 3.28H172.747V5.28H181.315V3.28ZM173.747 4.28V0.471998H171.747V4.28H173.747ZM172.747 1.472H194.083V-0.528002H172.747V1.472ZM193.083 0.471998V4.28H195.083V0.471998H193.083ZM194.083 3.28H185.515V5.28H194.083V3.28ZM184.515 4.28V39H186.515V4.28H184.515ZM185.515 38H181.315V40H185.515V38ZM201.144 39H200.144V40H201.144V39ZM201.144 0.471998V-0.528002H200.144V0.471998H201.144ZM219.344 0.471998H220.344V-0.528002H219.344V0.471998ZM219.344 4.168V5.168H220.344V4.168H219.344ZM205.344 4.168V3.168H204.344V4.168H205.344ZM205.344 17.664H204.344V18.664H205.344V17.664ZM217.496 17.664H218.496V16.664H217.496V17.664ZM217.496 21.36V22.36H218.496V21.36H217.496ZM205.344 21.36V20.36H204.344V21.36H205.344ZM205.344 35.304H204.344V36.304H205.344V35.304ZM219.344 35.304H220.344V34.304H219.344V35.304ZM219.344 39V40H220.344V39H219.344ZM202.144 39V0.471998H200.144V39H202.144ZM201.144 1.472H219.344V-0.528002H201.144V1.472ZM218.344 0.471998V4.168H220.344V0.471998H218.344ZM219.344 3.168H205.344V5.168H219.344V3.168ZM204.344 4.168V17.664H206.344V4.168H204.344ZM205.344 18.664H217.496V16.664H205.344V18.664ZM216.496 17.664V21.36H218.496V17.664H216.496ZM217.496 20.36H205.344V22.36H217.496V20.36ZM204.344 21.36V35.304H206.344V21.36H204.344ZM205.344 36.304H219.344V34.304H205.344V36.304ZM218.344 35.304V39H220.344V35.304H218.344ZM219.344 38H201.144V40H219.344V38ZM227.61 39H226.61V40H227.61V39ZM227.61 0.471998V-0.528002H226.61V0.471998H227.61ZM245.81 0.471998H246.81V-0.528002H245.81V0.471998ZM245.81 4.168V5.168H246.81V4.168H245.81ZM231.81 4.168V3.168H230.81V4.168H231.81ZM231.81 17.664H230.81V18.664H231.81V17.664ZM243.962 17.664H244.962V16.664H243.962V17.664ZM243.962 21.36V22.36H244.962V21.36H243.962ZM231.81 21.36V20.36H230.81V21.36H231.81ZM231.81 35.304H230.81V36.304H231.81V35.304ZM245.81 35.304H246.81V34.304H245.81V35.304ZM245.81 39V40H246.81V39H245.81ZM228.61 39V0.471998H226.61V39H228.61ZM227.61 1.472H245.81V-0.528002H227.61V1.472ZM244.81 0.471998V4.168H246.81V0.471998H244.81ZM245.81 3.168H231.81V5.168H245.81V3.168ZM230.81 4.168V17.664H232.81V4.168H230.81ZM231.81 18.664H243.962V16.664H231.81V18.664ZM242.962 17.664V21.36H244.962V17.664H242.962ZM243.962 20.36H231.81V22.36H243.962V20.36ZM230.81 21.36V35.304H232.81V21.36H230.81ZM231.81 36.304H245.81V34.304H231.81V36.304ZM244.81 35.304V39H246.81V35.304H244.81ZM245.81 38H227.61V40H245.81V38Z" fill="#FDD52E" mask="url(#path-1-outside-1_100_437)"/>
</svg>
