<svg width="96" height="46" viewBox="0 0 96 46" fill="none" xmlns="http://www.w3.org/2000/svg">
<mask id="path-1-outside-1_100_451" maskUnits="userSpaceOnUse" x="-1" y="-1" width="98" height="48" fill="black">
<rect fill="white" x="-1" y="-1" width="98" height="48"/>
<path d="M0.00593752 39V0.471999H17.3659V4.168H4.20594V18.56H15.9099V22.2H4.20594V39H0.00593752ZM38.7737 39L36.0857 28.304H24.2697L21.6377 39H17.4377L27.5177 0.471999H33.0057L43.0857 39H38.7737ZM30.3177 5.568H30.0377L25.2777 24.608H35.0777L30.3177 5.568ZM70.9816 45.272V45.44H66.5016L63.0856 39.168C61.6669 39.3547 60.1736 39.448 58.6056 39.448C54.9469 39.448 52.3336 38.944 50.7656 37.936C49.1976 36.928 48.1896 35.1547 47.7416 32.616C47.2936 30.04 47.0696 25.7467 47.0696 19.736C47.0696 13.7253 47.2936 9.45067 47.7416 6.912C48.1896 4.336 49.1976 2.544 50.7656 1.536C52.3336 0.527998 54.9469 0.0239978 58.6056 0.0239978C62.2642 0.0239978 64.8776 0.527998 66.4456 1.536C68.0136 2.544 69.0216 4.336 69.4696 6.912C69.9176 9.45067 70.1416 13.7253 70.1416 19.736C70.1416 23.656 70.0669 26.736 69.9176 28.976C69.7682 31.1787 69.4509 33.008 68.9656 34.464C68.4802 35.8827 67.7336 36.9653 66.7256 37.712L70.9816 45.272ZM58.6056 35.752C59.8376 35.752 60.6962 35.7333 61.1816 35.696L56.3096 26.792H60.6216L64.5976 33.848C65.1202 32.952 65.4562 31.4773 65.6056 29.424C65.7922 27.3707 65.8856 24.1413 65.8856 19.736C65.8856 14.36 65.7362 10.6267 65.4376 8.536C65.1389 6.44533 64.5229 5.12 63.5896 4.56C62.6562 4 60.9949 3.72 58.6056 3.72C56.2162 3.72 54.5549 4 53.6216 4.56C52.6882 5.12 52.0722 6.44533 51.7736 8.536C51.4749 10.6267 51.3256 14.36 51.3256 19.736C51.3256 25.112 51.4749 28.8453 51.7736 30.936C52.0722 33.0267 52.6882 34.352 53.6216 34.912C54.5549 35.472 56.2162 35.752 58.6056 35.752ZM85.6859 39.448C82.2139 39.448 79.0219 39.2053 76.1099 38.72V35.08C77.4166 35.2667 78.8539 35.4347 80.4219 35.584C81.9899 35.696 83.3153 35.752 84.3979 35.752C85.8913 35.752 87.0673 35.6587 87.9259 35.472C88.8219 35.248 89.5499 34.8747 90.1099 34.352C90.6326 33.8667 90.9686 33.1573 91.1179 32.224C91.3046 31.2907 91.3979 30.04 91.3979 28.472C91.3979 26.4187 91.3233 24.9813 91.1739 24.16C91.0246 23.3387 90.6699 22.76 90.1099 22.424C89.5873 22.0507 88.6353 21.752 87.2539 21.528L80.7579 20.52C79.1899 20.2587 78.0139 19.736 77.2299 18.952C76.4459 18.1307 75.9233 17.0853 75.6619 15.816C75.4379 14.5467 75.3259 12.848 75.3259 10.72C75.3259 6.83733 76.1473 4.09333 77.7899 2.488C79.4326 0.845332 82.0646 0.0239978 85.6859 0.0239978C89.1579 0.0239978 91.9953 0.322665 94.1979 0.92V4.392C91.6966 3.944 89.1766 3.72 86.6379 3.72C85.0326 3.72 83.7633 3.86933 82.8299 4.168C81.8966 4.42933 81.1873 4.84 80.7019 5.4C80.2166 5.96 79.8993 6.65066 79.7499 7.472C79.6006 8.29333 79.5259 9.33867 79.5259 10.608C79.5259 12.3253 79.6006 13.576 79.7499 14.36C79.8993 15.1067 80.1979 15.6293 80.6459 15.928C81.0939 16.2267 81.8406 16.4693 82.8859 16.656L89.1579 17.664C90.7259 17.9253 91.9579 18.3173 92.8539 18.84C93.7499 19.3627 94.4406 20.2587 94.9259 21.528C95.3739 22.6107 95.5979 24.7573 95.5979 27.968C95.5979 30.8427 95.2806 33.1013 94.6459 34.744C94.0486 36.3867 93.0219 37.5813 91.5659 38.328C90.1473 39.0747 88.1873 39.448 85.6859 39.448Z"/>
</mask>
<path d="M0.00593752 39V0.471999H17.3659V4.168H4.20594V18.56H15.9099V22.2H4.20594V39H0.00593752ZM38.7737 39L36.0857 28.304H24.2697L21.6377 39H17.4377L27.5177 0.471999H33.0057L43.0857 39H38.7737ZM30.3177 5.568H30.0377L25.2777 24.608H35.0777L30.3177 5.568ZM70.9816 45.272V45.44H66.5016L63.0856 39.168C61.6669 39.3547 60.1736 39.448 58.6056 39.448C54.9469 39.448 52.3336 38.944 50.7656 37.936C49.1976 36.928 48.1896 35.1547 47.7416 32.616C47.2936 30.04 47.0696 25.7467 47.0696 19.736C47.0696 13.7253 47.2936 9.45067 47.7416 6.912C48.1896 4.336 49.1976 2.544 50.7656 1.536C52.3336 0.527998 54.9469 0.0239978 58.6056 0.0239978C62.2642 0.0239978 64.8776 0.527998 66.4456 1.536C68.0136 2.544 69.0216 4.336 69.4696 6.912C69.9176 9.45067 70.1416 13.7253 70.1416 19.736C70.1416 23.656 70.0669 26.736 69.9176 28.976C69.7682 31.1787 69.4509 33.008 68.9656 34.464C68.4802 35.8827 67.7336 36.9653 66.7256 37.712L70.9816 45.272ZM58.6056 35.752C59.8376 35.752 60.6962 35.7333 61.1816 35.696L56.3096 26.792H60.6216L64.5976 33.848C65.1202 32.952 65.4562 31.4773 65.6056 29.424C65.7922 27.3707 65.8856 24.1413 65.8856 19.736C65.8856 14.36 65.7362 10.6267 65.4376 8.536C65.1389 6.44533 64.5229 5.12 63.5896 4.56C62.6562 4 60.9949 3.72 58.6056 3.72C56.2162 3.72 54.5549 4 53.6216 4.56C52.6882 5.12 52.0722 6.44533 51.7736 8.536C51.4749 10.6267 51.3256 14.36 51.3256 19.736C51.3256 25.112 51.4749 28.8453 51.7736 30.936C52.0722 33.0267 52.6882 34.352 53.6216 34.912C54.5549 35.472 56.2162 35.752 58.6056 35.752ZM85.6859 39.448C82.2139 39.448 79.0219 39.2053 76.1099 38.72V35.08C77.4166 35.2667 78.8539 35.4347 80.4219 35.584C81.9899 35.696 83.3153 35.752 84.3979 35.752C85.8913 35.752 87.0673 35.6587 87.9259 35.472C88.8219 35.248 89.5499 34.8747 90.1099 34.352C90.6326 33.8667 90.9686 33.1573 91.1179 32.224C91.3046 31.2907 91.3979 30.04 91.3979 28.472C91.3979 26.4187 91.3233 24.9813 91.1739 24.16C91.0246 23.3387 90.6699 22.76 90.1099 22.424C89.5873 22.0507 88.6353 21.752 87.2539 21.528L80.7579 20.52C79.1899 20.2587 78.0139 19.736 77.2299 18.952C76.4459 18.1307 75.9233 17.0853 75.6619 15.816C75.4379 14.5467 75.3259 12.848 75.3259 10.72C75.3259 6.83733 76.1473 4.09333 77.7899 2.488C79.4326 0.845332 82.0646 0.0239978 85.6859 0.0239978C89.1579 0.0239978 91.9953 0.322665 94.1979 0.92V4.392C91.6966 3.944 89.1766 3.72 86.6379 3.72C85.0326 3.72 83.7633 3.86933 82.8299 4.168C81.8966 4.42933 81.1873 4.84 80.7019 5.4C80.2166 5.96 79.8993 6.65066 79.7499 7.472C79.6006 8.29333 79.5259 9.33867 79.5259 10.608C79.5259 12.3253 79.6006 13.576 79.7499 14.36C79.8993 15.1067 80.1979 15.6293 80.6459 15.928C81.0939 16.2267 81.8406 16.4693 82.8859 16.656L89.1579 17.664C90.7259 17.9253 91.9579 18.3173 92.8539 18.84C93.7499 19.3627 94.4406 20.2587 94.9259 21.528C95.3739 22.6107 95.5979 24.7573 95.5979 27.968C95.5979 30.8427 95.2806 33.1013 94.6459 34.744C94.0486 36.3867 93.0219 37.5813 91.5659 38.328C90.1473 39.0747 88.1873 39.448 85.6859 39.448Z" fill="#FDD52E"/>
<path d="M0.00593758 39H-0.994062V40H0.00593758V39ZM0.00593758 0.471998V-0.528002H-0.994062V0.471998H0.00593758ZM17.3659 0.471998H18.3659V-0.528002H17.3659V0.471998ZM17.3659 4.168V5.168H18.3659V4.168H17.3659ZM4.20594 4.168V3.168H3.20594V4.168H4.20594ZM4.20594 18.56H3.20594V19.56H4.20594V18.56ZM15.9099 18.56H16.9099V17.56H15.9099V18.56ZM15.9099 22.2V23.2H16.9099V22.2H15.9099ZM4.20594 22.2V21.2H3.20594V22.2H4.20594ZM4.20594 39V40H5.20594V39H4.20594ZM1.00594 39V0.471998H-0.994062V39H1.00594ZM0.00593758 1.472H17.3659V-0.528002H0.00593758V1.472ZM16.3659 0.471998V4.168H18.3659V0.471998H16.3659ZM17.3659 3.168H4.20594V5.168H17.3659V3.168ZM3.20594 4.168V18.56H5.20594V4.168H3.20594ZM4.20594 19.56H15.9099V17.56H4.20594V19.56ZM14.9099 18.56V22.2H16.9099V18.56H14.9099ZM15.9099 21.2H4.20594V23.2H15.9099V21.2ZM3.20594 22.2V39H5.20594V22.2H3.20594ZM4.20594 38H0.00593758V40H4.20594V38ZM38.7737 39L37.8038 39.2437L37.9939 40H38.7737V39ZM36.0857 28.304L37.0555 28.0603L36.8655 27.304H36.0857V28.304ZM24.2697 28.304V27.304H23.4859L23.2987 28.0651L24.2697 28.304ZM21.6377 39V40H22.4214L22.6087 39.2389L21.6377 39ZM17.4377 39L16.4702 38.7469L16.1424 40H17.4377V39ZM27.5177 0.471998V-0.528002H26.7457L26.5503 0.218889L27.5177 0.471998ZM33.0057 0.471998L33.9731 0.218889L33.7777 -0.528002H33.0057V0.471998ZM43.0857 39V40H44.381L44.0531 38.7469L43.0857 39ZM30.3177 5.568L31.2878 5.32546L31.0985 4.568H30.3177V5.568ZM30.0377 5.568V4.568H29.2569L29.0675 5.32546L30.0377 5.568ZM25.2777 24.608L24.3075 24.3655L23.9969 25.608H25.2777V24.608ZM35.0777 24.608V25.608H36.3585L36.0478 24.3655L35.0777 24.608ZM39.7435 38.7563L37.0555 28.0603L35.1158 28.5477L37.8038 39.2437L39.7435 38.7563ZM36.0857 27.304H24.2697V29.304H36.0857V27.304ZM23.2987 28.0651L20.6667 38.7611L22.6087 39.2389L25.2407 28.5429L23.2987 28.0651ZM21.6377 38H17.4377V40H21.6377V38ZM18.4051 39.2531L28.4851 0.725107L26.5503 0.218889L16.4702 38.7469L18.4051 39.2531ZM27.5177 1.472H33.0057V-0.528002H27.5177V1.472ZM32.0382 0.725107L42.1183 39.2531L44.0531 38.7469L33.9731 0.218889L32.0382 0.725107ZM43.0857 38H38.7737V40H43.0857V38ZM30.3177 4.568H30.0377V6.568H30.3177V4.568ZM29.0675 5.32546L24.3075 24.3655L26.2478 24.8505L31.0078 5.81054L29.0675 5.32546ZM25.2777 25.608H35.0777V23.608H25.2777V25.608ZM36.0478 24.3655L31.2878 5.32546L29.3475 5.81054L34.1075 24.8505L36.0478 24.3655ZM70.9816 45.272H71.9816V45.0099L71.853 44.7814L70.9816 45.272ZM70.9816 45.44V46.44H71.9816V45.44H70.9816ZM66.5016 45.44L65.6234 45.9183L65.9075 46.44H66.5016V45.44ZM63.0856 39.168L63.9638 38.6897L63.6355 38.087L62.9551 38.1765L63.0856 39.168ZM50.7656 37.936L50.2248 38.7772L50.7656 37.936ZM47.7416 32.616L46.7563 32.7873L46.7568 32.7898L47.7416 32.616ZM47.7416 6.912L48.7263 7.08578L48.7268 7.08334L47.7416 6.912ZM50.7656 1.536L50.2248 0.69482L50.7656 1.536ZM69.4696 6.912L68.4843 7.08334L68.4848 7.08578L69.4696 6.912ZM69.9176 28.976L70.9153 29.0436L70.9154 29.0425L69.9176 28.976ZM68.9656 34.464L69.9118 34.7877L69.9142 34.7802L68.9656 34.464ZM66.7256 37.712L66.1303 36.9084L65.4213 37.4337L65.8542 38.2026L66.7256 37.712ZM61.1816 35.696L61.2583 36.6931L62.8021 36.5743L62.0588 35.216L61.1816 35.696ZM56.3096 26.792V25.792H54.6225L55.4323 27.272L56.3096 26.792ZM60.6216 26.792L61.4928 26.3011L61.2059 25.792H60.6216V26.792ZM64.5976 33.848L63.7264 34.3389L64.5826 35.8584L65.4613 34.3519L64.5976 33.848ZM65.6056 29.424L64.6097 29.3335L64.6088 29.3425L64.6082 29.3515L65.6056 29.424ZM65.4376 8.536L64.4476 8.67742V8.67742L65.4376 8.536ZM63.5896 4.56L63.0751 5.41749L63.5896 4.56ZM53.6216 4.56L54.1361 5.41749L53.6216 4.56ZM51.7736 30.936L52.7635 30.7946L51.7736 30.936ZM53.6216 34.912L53.1071 35.7695L53.6216 34.912ZM69.9816 45.272V45.44H71.9816V45.272H69.9816ZM70.9816 44.44H66.5016V46.44H70.9816V44.44ZM67.3798 44.9617L63.9638 38.6897L62.2074 39.6463L65.6234 45.9183L67.3798 44.9617ZM62.9551 38.1765C61.5836 38.357 60.134 38.448 58.6056 38.448V40.448C60.2131 40.448 61.7502 40.3523 63.216 40.1595L62.9551 38.1765ZM58.6056 38.448C54.9852 38.448 52.62 37.9393 51.3063 37.0948L50.2248 38.7772C52.0472 39.9487 54.9086 40.448 58.6056 40.448V38.448ZM51.3063 37.0948C50.0519 36.2884 49.145 34.8148 48.7263 32.4422L46.7568 32.7898C47.2341 35.4945 48.3432 37.5676 50.2248 38.7772L51.3063 37.0948ZM48.7268 32.4447C48.2949 29.9612 48.0696 25.7436 48.0696 19.736H46.0696C46.0696 25.7497 46.2923 30.1188 46.7564 32.7873L48.7268 32.4447ZM48.0696 19.736C48.0696 13.7274 48.295 9.53019 48.7263 7.08578L46.7568 6.73821C46.2921 9.37115 46.0696 13.7232 46.0696 19.736H48.0696ZM48.7268 7.08334C49.1467 4.6689 50.056 3.18096 51.3063 2.37718L50.2248 0.69482C48.3391 1.90704 47.2324 4.0031 46.7564 6.74066L48.7268 7.08334ZM51.3063 2.37718C52.62 1.53269 54.9852 1.024 58.6056 1.024V-0.976002C54.9086 -0.976002 52.0472 -0.476692 50.2248 0.69482L51.3063 2.37718ZM58.6056 1.024C62.2259 1.024 64.5912 1.53269 65.9048 2.37718L66.9863 0.69482C65.164 -0.476692 62.3026 -0.976002 58.6056 -0.976002V1.024ZM65.9048 2.37718C67.1551 3.18096 68.0644 4.6689 68.4844 7.08334L70.4548 6.74066C69.9787 4.0031 68.872 1.90704 66.9863 0.69482L65.9048 2.37718ZM68.4848 7.08578C68.9161 9.53019 69.1416 13.7274 69.1416 19.736H71.1416C71.1416 13.7232 70.919 9.37115 70.4543 6.73821L68.4848 7.08578ZM69.1416 19.736C69.1416 23.6475 69.0669 26.702 68.9198 28.9095L70.9154 29.0425C71.0669 26.77 71.1416 23.6645 71.1416 19.736H69.1416ZM68.9199 28.9084C68.774 31.06 68.4665 32.7989 68.0169 34.1478L69.9142 34.7802C70.4353 33.2171 70.7625 31.2974 70.9153 29.0436L68.9199 28.9084ZM68.0194 34.1403C67.5866 35.4053 66.9457 36.3044 66.1303 36.9084L67.3208 38.5156C68.5214 37.6262 69.3738 36.36 69.9117 34.7877L68.0194 34.1403ZM65.8542 38.2026L70.1102 45.7626L71.853 44.7814L67.597 37.2214L65.8542 38.2026ZM58.6056 36.752C59.8361 36.752 60.7301 36.7337 61.2583 36.6931L61.1049 34.6989C60.6624 34.733 59.839 34.752 58.6056 34.752V36.752ZM62.0588 35.216L57.1868 26.312L55.4323 27.272L60.3043 36.176L62.0588 35.216ZM56.3096 27.792H60.6216V25.792H56.3096V27.792ZM59.7504 27.2829L63.7264 34.3389L65.4688 33.3571L61.4928 26.3011L59.7504 27.2829ZM65.4613 34.3519C66.1048 33.2489 66.4513 31.5807 66.6029 29.4965L64.6082 29.3515C64.4611 31.3739 64.1357 32.6551 63.7338 33.3441L65.4613 34.3519ZM66.6015 29.5145C66.7925 27.4132 66.8856 24.1456 66.8856 19.736H64.8856C64.8856 24.137 64.792 27.3281 64.6097 29.3335L66.6015 29.5145ZM66.8856 19.736C66.8856 14.3631 66.7374 10.5641 66.4275 8.39458L64.4476 8.67742C64.735 10.6892 64.8856 14.3569 64.8856 19.736H66.8856ZM66.4275 8.39458C66.1227 6.26075 65.4559 4.51358 64.1041 3.70251L63.0751 5.41749C63.5899 5.72641 64.1551 6.62991 64.4476 8.67742L66.4275 8.39458ZM64.1041 3.70251C62.9159 2.98958 61.007 2.72 58.6056 2.72V4.72C60.9828 4.72 62.3966 5.01041 63.0751 5.41749L64.1041 3.70251ZM58.6056 2.72C56.2042 2.72 54.2953 2.98958 53.1071 3.70251L54.1361 5.41749C54.8145 5.01041 56.2283 4.72 58.6056 4.72V2.72ZM53.1071 3.70251C51.7553 4.51358 51.0884 6.26075 50.7836 8.39458L52.7635 8.67742C53.056 6.62991 53.6212 5.72641 54.1361 5.41749L53.1071 3.70251ZM50.7836 8.39458C50.4737 10.5641 50.3256 14.3631 50.3256 19.736H52.3256C52.3256 14.3569 52.4761 10.6892 52.7635 8.67742L50.7836 8.39458ZM50.3256 19.736C50.3256 25.1089 50.4737 28.9079 50.7836 31.0774L52.7635 30.7946C52.4761 28.7828 52.3256 25.1151 52.3256 19.736H50.3256ZM50.7836 31.0774C51.0884 33.2112 51.7553 34.9584 53.1071 35.7695L54.1361 34.0545C53.6212 33.7456 53.056 32.8421 52.7635 30.7946L50.7836 31.0774ZM53.1071 35.7695C54.2953 36.4824 56.2042 36.752 58.6056 36.752V34.752C56.2283 34.752 54.8145 34.4616 54.1361 34.0545L53.1071 35.7695ZM76.1099 38.72H75.1099V39.5671L75.9455 39.7064L76.1099 38.72ZM76.1099 35.08L76.2514 34.09L75.1099 33.927V35.08H76.1099ZM80.4219 35.584L80.3271 36.5795L80.3389 36.5806L80.3507 36.5815L80.4219 35.584ZM87.9259 35.472L88.1384 36.4492L88.1535 36.4459L88.1685 36.4421L87.9259 35.472ZM90.1099 34.352L89.4295 33.6192L89.4276 33.6209L90.1099 34.352ZM91.1179 32.224L90.1374 32.0279L90.1336 32.0469L90.1305 32.066L91.1179 32.224ZM91.1739 24.16L92.1578 23.9811L91.1739 24.16ZM90.1099 22.424L89.5287 23.2377L89.5612 23.2609L89.5954 23.2815L90.1099 22.424ZM87.2539 21.528L87.414 20.5409L87.4073 20.5398L87.2539 21.528ZM80.7579 20.52L80.5935 21.5065L80.6046 21.5082L80.7579 20.52ZM77.2299 18.952L76.5066 19.6425L76.5146 19.6509L76.5228 19.6591L77.2299 18.952ZM75.6619 15.816L74.6772 15.9898L74.6796 16.0038L74.6825 16.0177L75.6619 15.816ZM77.7899 2.488L78.4889 3.20323L78.497 3.19511L77.7899 2.488ZM94.1979 0.92H95.1979V0.155067L94.4597 -0.0451412L94.1979 0.92ZM94.1979 4.392L94.0216 5.37634L95.1979 5.58702V4.392H94.1979ZM82.8299 4.168L83.0996 5.13096L83.1172 5.12601L83.1347 5.12042L82.8299 4.168ZM80.7019 5.4L81.4576 6.05493L80.7019 5.4ZM79.7499 14.36L78.7676 14.5471L78.7694 14.5561L79.7499 14.36ZM80.6459 15.928L81.2006 15.0959L80.6459 15.928ZM82.8859 16.656L82.7101 17.6404L82.7187 17.642L82.7273 17.6433L82.8859 16.656ZM89.1579 17.664L89.3223 16.6776L89.3166 16.6767L89.1579 17.664ZM94.9259 21.528L93.9919 21.8851L93.9967 21.8978L94.0019 21.9104L94.9259 21.528ZM94.6459 34.744L93.7131 34.3836L93.7095 34.3929L93.7061 34.4023L94.6459 34.744ZM91.5659 38.328L91.1096 37.4381L91.1002 37.4431L91.5659 38.328ZM85.6859 38.448C82.2597 38.448 79.1235 38.2085 76.2743 37.7336L75.9455 39.7064C78.9203 40.2022 82.1682 40.448 85.6859 40.448V38.448ZM77.1099 38.72V35.08H75.1099V38.72H77.1099ZM75.9685 36.07C77.2933 36.2592 78.7464 36.429 80.3271 36.5795L80.5167 34.5885C78.9615 34.4404 77.5399 34.2741 76.2514 34.09L75.9685 36.07ZM80.3507 36.5815C81.9328 36.6945 83.2835 36.752 84.3979 36.752V34.752C83.347 34.752 82.047 34.6975 80.4932 34.5865L80.3507 36.5815ZM84.3979 36.752C85.9205 36.752 87.1782 36.6579 88.1384 36.4492L87.7135 34.4948C86.9564 34.6594 85.862 34.752 84.3979 34.752V36.752ZM88.1685 36.4421C89.1953 36.1854 90.0852 35.743 90.7923 35.0831L89.4276 33.6209C89.0147 34.0063 88.4486 34.3106 87.6834 34.5019L88.1685 36.4421ZM90.7904 35.0848C91.523 34.4045 91.9322 33.4641 92.1054 32.382L90.1305 32.066C90.005 32.8506 89.7422 33.3288 89.4295 33.6192L90.7904 35.0848ZM92.0985 32.4201C92.3037 31.3943 92.3979 30.0695 92.3979 28.472H90.3979C90.3979 30.0105 90.3055 31.187 90.1374 32.0279L92.0985 32.4201ZM92.3979 28.472C92.3979 26.4203 92.3251 24.901 92.1578 23.9811L90.1901 24.3389C90.3215 25.0617 90.3979 26.417 90.3979 28.472H92.3979ZM92.1578 23.9811C91.9723 22.961 91.4964 22.0897 90.6244 21.5665L89.5954 23.2815C89.8435 23.4303 90.0769 23.7164 90.1901 24.3389L92.1578 23.9811ZM90.6912 21.6103C89.9649 21.0915 88.8088 20.7671 87.414 20.5409L87.0939 22.5151C88.4617 22.7369 89.2097 23.0099 89.5287 23.2377L90.6912 21.6103ZM87.4073 20.5398L80.9113 19.5318L80.6046 21.5082L87.1006 22.5162L87.4073 20.5398ZM80.9223 19.5336C79.4742 19.2922 78.5222 18.8301 77.937 18.2449L76.5228 19.6591C77.5056 20.6419 78.9057 21.2251 80.5935 21.5064L80.9223 19.5336ZM77.9533 18.2615C77.3164 17.5943 76.8704 16.7265 76.6414 15.6143L74.6825 16.0177C74.9762 17.4441 75.5755 18.6671 76.5066 19.6425L77.9533 18.2615ZM76.6467 15.6422C76.4372 14.4551 76.3259 12.822 76.3259 10.72H74.3259C74.3259 12.874 74.4386 14.6382 74.6772 15.9898L76.6467 15.6422ZM76.3259 10.72C76.3259 6.93127 77.1356 4.52566 78.4889 3.20319L77.091 1.77281C75.1589 3.661 74.3259 6.74339 74.3259 10.72H76.3259ZM78.497 3.19511C79.8703 1.8219 82.1856 1.024 85.6859 1.024V-0.976002C81.9436 -0.976002 78.995 -0.131233 77.0828 1.78089L78.497 3.19511ZM85.6859 1.024C89.1104 1.024 91.8509 1.31963 93.9362 1.88514L94.4597 -0.0451412C92.1396 -0.674303 89.2055 -0.976002 85.6859 -0.976002V1.024ZM93.1979 0.92V4.392H95.1979V0.92H93.1979ZM94.3742 3.40766C91.8148 2.94925 89.2358 2.72 86.6379 2.72V4.72C89.1174 4.72 91.5784 4.93875 94.0216 5.37634L94.3742 3.40766ZM86.6379 2.72C84.9862 2.72 83.5996 2.87174 82.5252 3.21557L83.1347 5.12042C83.9269 4.86692 85.079 4.72 86.6379 4.72V2.72ZM82.5603 3.20503C81.4955 3.50317 80.594 3.99766 79.9463 4.74507L81.4576 6.05493C81.7805 5.68234 82.2977 5.3555 83.0996 5.13096L82.5603 3.20503ZM79.9463 4.74507C79.3293 5.45695 78.9433 6.31832 78.7661 7.29311L80.7338 7.65088C80.8552 6.98301 81.1039 6.46305 81.4576 6.05493L79.9463 4.74507ZM78.7661 7.29311C78.602 8.19546 78.5259 9.30617 78.5259 10.608H80.5259C80.5259 9.37116 80.5992 8.3912 80.7338 7.65088L78.7661 7.29311ZM78.5259 10.608C78.5259 12.3335 78.5995 13.6644 78.7676 14.5471L80.7323 14.1729C80.6018 13.4876 80.5259 12.3171 80.5259 10.608H78.5259ZM78.7694 14.5561C78.9489 15.4539 79.3447 16.2624 80.0912 16.76L81.2006 15.0959C81.0511 14.9963 80.8496 14.7594 80.7305 14.1639L78.7694 14.5561ZM80.0912 16.76C80.7183 17.1781 81.6356 17.4485 82.7101 17.6404L83.0617 15.6716C82.0457 15.4901 81.4696 15.2753 81.2006 15.0959L80.0912 16.76ZM82.7273 17.6433L88.9993 18.6513L89.3166 16.6767L83.0446 15.6687L82.7273 17.6433ZM88.9935 18.6504C90.4988 18.9013 91.5992 19.2658 92.3501 19.7038L93.3578 17.9762C92.3166 17.3689 90.953 16.9494 89.3223 16.6776L88.9935 18.6504ZM92.3501 19.7038C92.9953 20.0802 93.5625 20.7622 93.9919 21.8851L95.86 21.1709C95.3187 19.7551 94.5046 18.6452 93.3578 17.9762L92.3501 19.7038ZM94.0019 21.9104C94.1702 22.3171 94.3264 23.0101 94.4353 24.0538C94.5425 25.0804 94.5979 26.3824 94.5979 27.968H96.5979C96.5979 26.343 96.5414 24.9662 96.4245 23.8462C96.3094 22.7432 96.1296 21.8215 95.85 21.1456L94.0019 21.9104ZM94.5979 27.968C94.5979 30.7874 94.2841 32.9057 93.7131 34.3836L95.5787 35.1044C96.2771 33.2969 96.5979 30.8979 96.5979 27.968H94.5979ZM93.7061 34.4023C93.1886 35.8255 92.3249 36.815 91.1096 37.4382L92.0223 39.2178C93.719 38.3477 94.9086 36.9478 95.5857 35.0857L93.7061 34.4023ZM91.1002 37.4431C89.8836 38.0834 88.1072 38.448 85.6859 38.448V40.448C88.2673 40.448 90.411 40.0659 92.0317 39.2129L91.1002 37.4431Z" fill="#FDD52E" mask="url(#path-1-outside-1_100_451)"/>
</svg>
