<svg width="364" height="40" viewBox="0 0 364 40" fill="none" xmlns="http://www.w3.org/2000/svg">
<mask id="path-1-outside-1_100_443" maskUnits="userSpaceOnUse" x="-1" y="-1" width="366" height="42" fill="black">
<rect fill="white" x="-1" y="-1" width="366" height="42"/>
<path d="M0.0215625 39V0.471999H18.2216V4.168H4.22156V17.664H16.3736V21.36H4.22156V35.304H18.2216V39H0.0215625ZM41.7761 39L33.9361 23.208H33.6001L25.8161 39H21.2801L31.1921 19.624L21.3921 0.471999H26.0961L33.8241 15.984H34.1041L41.8321 0.471999H46.3681L36.5681 19.512L46.4801 39H41.7761ZM51.3731 39V0.471999H69.5731V4.168H55.5731V17.664H67.7251V21.36H55.5731V35.304H69.5731V39H51.3731ZM92.2877 38.776C91.4664 38.9627 90.4584 39.112 89.2637 39.224C88.1064 39.3733 87.005 39.448 85.9597 39.448C82.5997 39.448 80.1357 38.944 78.5677 37.936C77.037 36.928 75.9917 35.0987 75.4317 32.448C74.909 29.76 74.6477 25.5227 74.6477 19.736C74.6477 13.9867 74.909 9.78667 75.4317 7.136C75.9917 4.448 77.037 2.6 78.5677 1.592C80.1357 0.546664 82.5997 0.0239978 85.9597 0.0239978C87.005 0.0239978 88.1064 0.0986646 89.2637 0.247998C90.421 0.397332 91.373 0.583998 92.1197 0.807998V4.224C90.029 3.888 88.2744 3.72 86.8557 3.72C84.2797 3.72 82.469 4.056 81.4237 4.728C80.3784 5.4 79.6877 6.78133 79.3517 8.872C79.053 10.9627 78.9037 14.584 78.9037 19.736C78.9037 24.888 79.053 28.5093 79.3517 30.6C79.6877 32.6907 80.3784 34.072 81.4237 34.744C82.469 35.416 84.2797 35.752 86.8557 35.752C88.7224 35.752 90.533 35.584 92.2877 35.248V38.776ZM119.246 0.471999V22.256C119.246 27.2587 119.022 30.8987 118.574 33.176C118.126 35.4533 117.155 37.0773 115.662 38.048C114.206 38.9813 111.816 39.448 108.494 39.448C105.171 39.448 102.763 38.9813 101.27 38.048C99.7762 37.0773 98.8056 35.4533 98.3576 33.176C97.9096 30.8613 97.6856 27.2213 97.6856 22.256V0.471999H101.886V24.16C101.886 27.7067 102.016 30.2267 102.278 31.72C102.539 33.2133 103.099 34.2587 103.958 34.856C104.854 35.4533 106.366 35.752 108.494 35.752C110.622 35.752 112.115 35.4533 112.974 34.856C113.87 34.2587 114.43 33.2133 114.654 31.72C114.915 30.2267 115.046 27.7067 115.046 24.16V0.471999H119.246ZM132.331 39V4.28H123.763V0.471999H145.099V4.28H136.531V39H132.331ZM150.088 39V0.471999H154.288V39H150.088ZM168.497 39L158.865 0.471999H163.233L171.129 33.456H171.465L179.361 0.471999H183.561L173.985 39H168.497ZM188.092 39V0.471999H206.292V4.168H192.292V17.664H204.444V21.36H192.292V35.304H206.292V39H188.092ZM220.068 35.472C221.972 35.3973 223.241 35.192 223.876 34.856C224.548 34.52 224.959 33.792 225.108 32.672C225.257 31.5147 225.332 29.2 225.332 25.728V0.471999H229.532V24.664C229.532 29.592 229.364 32.952 229.028 34.744C228.692 36.4987 227.927 37.6373 226.732 38.16C225.575 38.6827 223.353 38.9627 220.068 39V35.472ZM258.316 0.471999V22.256C258.316 27.2587 258.092 30.8987 257.644 33.176C257.196 35.4533 256.225 37.0773 254.732 38.048C253.276 38.9813 250.887 39.448 247.564 39.448C244.241 39.448 241.833 38.9813 240.34 38.048C238.847 37.0773 237.876 35.4533 237.428 33.176C236.98 30.8613 236.756 27.2213 236.756 22.256V0.471999H240.956V24.16C240.956 27.7067 241.087 30.2267 241.348 31.72C241.609 33.2133 242.169 34.2587 243.028 34.856C243.924 35.4533 245.436 35.752 247.564 35.752C249.692 35.752 251.185 35.4533 252.044 34.856C252.94 34.2587 253.5 33.2133 253.724 31.72C253.985 30.2267 254.116 27.7067 254.116 24.16V0.471999H258.316ZM265.858 0.471999H275.042C278.775 0.471999 281.426 0.957331 282.994 1.928C284.599 2.89866 285.626 4.65333 286.074 7.192C286.559 9.69333 286.802 13.8747 286.802 19.736C286.802 25.5973 286.559 29.7973 286.074 32.336C285.626 34.8373 284.599 36.5733 282.994 37.544C281.426 38.5147 278.775 39 275.042 39H265.858V0.471999ZM274.874 35.304C277.45 35.304 279.204 35.0427 280.138 34.52C281.108 33.96 281.762 32.672 282.098 30.656C282.434 28.64 282.602 25 282.602 19.736C282.602 14.5093 282.434 10.888 282.098 8.872C281.762 6.81866 281.108 5.53066 280.138 5.008C279.167 4.448 277.412 4.168 274.874 4.168H270.002V35.304H274.874ZM303.885 22.088V18.504H313.685V38.384C312.379 38.6827 310.867 38.9253 309.149 39.112C307.469 39.336 305.976 39.448 304.669 39.448C301.272 39.448 298.752 38.9627 297.109 37.992C295.467 36.984 294.328 35.1173 293.693 32.392C293.059 29.6667 292.741 25.448 292.741 19.736C292.741 14.0987 293.059 9.91733 293.693 7.192C294.328 4.46667 295.467 2.6 297.109 1.592C298.752 0.546664 301.291 0.0239978 304.725 0.0239978C306.219 0.0239978 307.805 0.135997 309.485 0.359997C311.203 0.583998 312.565 0.826665 313.573 1.088V4.56C312.565 4.336 311.333 4.14933 309.877 4C308.459 3.81333 307.32 3.72 306.461 3.72C303.437 3.72 301.328 4 300.133 4.56C298.939 5.12 298.117 6.464 297.669 8.592C297.221 10.72 296.997 14.4347 296.997 19.736C296.997 24.5893 297.165 28.0987 297.501 30.264C297.837 32.392 298.528 33.848 299.573 34.632C300.619 35.416 302.336 35.808 304.725 35.808C306.667 35.808 308.291 35.6587 309.597 35.36V22.088H303.885ZM320.764 39V0.471999H338.964V4.168H324.964V17.664H337.116V21.36H324.964V35.304H338.964V39H320.764ZM353.67 39.448C350.198 39.448 347.006 39.2053 344.094 38.72V35.08C345.401 35.2667 346.838 35.4347 348.406 35.584C349.974 35.696 351.3 35.752 352.382 35.752C353.876 35.752 355.052 35.6587 355.91 35.472C356.806 35.248 357.534 34.8747 358.094 34.352C358.617 33.8667 358.953 33.1573 359.102 32.224C359.289 31.2907 359.382 30.04 359.382 28.472C359.382 26.4187 359.308 24.9813 359.158 24.16C359.009 23.3387 358.654 22.76 358.094 22.424C357.572 22.0507 356.62 21.752 355.238 21.528L348.742 20.52C347.174 20.2587 345.998 19.736 345.214 18.952C344.43 18.1307 343.908 17.0853 343.646 15.816C343.422 14.5467 343.31 12.848 343.31 10.72C343.31 6.83733 344.132 4.09333 345.774 2.488C347.417 0.845332 350.049 0.0239978 353.67 0.0239978C357.142 0.0239978 359.98 0.322665 362.182 0.92V4.392C359.681 3.944 357.161 3.72 354.622 3.72C353.017 3.72 351.748 3.86933 350.814 4.168C349.881 4.42933 349.172 4.84 348.686 5.4C348.201 5.96 347.884 6.65066 347.734 7.472C347.585 8.29333 347.51 9.33867 347.51 10.608C347.51 12.3253 347.585 13.576 347.734 14.36C347.884 15.1067 348.182 15.6293 348.63 15.928C349.078 16.2267 349.825 16.4693 350.87 16.656L357.142 17.664C358.71 17.9253 359.942 18.3173 360.838 18.84C361.734 19.3627 362.425 20.2587 362.91 21.528C363.358 22.6107 363.582 24.7573 363.582 27.968C363.582 30.8427 363.265 33.1013 362.63 34.744C362.033 36.3867 361.006 37.5813 359.55 38.328C358.132 39.0747 356.172 39.448 353.67 39.448Z"/>
</mask>
<path d="M0.0215625 39V0.471999H18.2216V4.168H4.22156V17.664H16.3736V21.36H4.22156V35.304H18.2216V39H0.0215625ZM41.7761 39L33.9361 23.208H33.6001L25.8161 39H21.2801L31.1921 19.624L21.3921 0.471999H26.0961L33.8241 15.984H34.1041L41.8321 0.471999H46.3681L36.5681 19.512L46.4801 39H41.7761ZM51.3731 39V0.471999H69.5731V4.168H55.5731V17.664H67.7251V21.36H55.5731V35.304H69.5731V39H51.3731ZM92.2877 38.776C91.4664 38.9627 90.4584 39.112 89.2637 39.224C88.1064 39.3733 87.005 39.448 85.9597 39.448C82.5997 39.448 80.1357 38.944 78.5677 37.936C77.037 36.928 75.9917 35.0987 75.4317 32.448C74.909 29.76 74.6477 25.5227 74.6477 19.736C74.6477 13.9867 74.909 9.78667 75.4317 7.136C75.9917 4.448 77.037 2.6 78.5677 1.592C80.1357 0.546664 82.5997 0.0239978 85.9597 0.0239978C87.005 0.0239978 88.1064 0.0986646 89.2637 0.247998C90.421 0.397332 91.373 0.583998 92.1197 0.807998V4.224C90.029 3.888 88.2744 3.72 86.8557 3.72C84.2797 3.72 82.469 4.056 81.4237 4.728C80.3784 5.4 79.6877 6.78133 79.3517 8.872C79.053 10.9627 78.9037 14.584 78.9037 19.736C78.9037 24.888 79.053 28.5093 79.3517 30.6C79.6877 32.6907 80.3784 34.072 81.4237 34.744C82.469 35.416 84.2797 35.752 86.8557 35.752C88.7224 35.752 90.533 35.584 92.2877 35.248V38.776ZM119.246 0.471999V22.256C119.246 27.2587 119.022 30.8987 118.574 33.176C118.126 35.4533 117.155 37.0773 115.662 38.048C114.206 38.9813 111.816 39.448 108.494 39.448C105.171 39.448 102.763 38.9813 101.27 38.048C99.7762 37.0773 98.8056 35.4533 98.3576 33.176C97.9096 30.8613 97.6856 27.2213 97.6856 22.256V0.471999H101.886V24.16C101.886 27.7067 102.016 30.2267 102.278 31.72C102.539 33.2133 103.099 34.2587 103.958 34.856C104.854 35.4533 106.366 35.752 108.494 35.752C110.622 35.752 112.115 35.4533 112.974 34.856C113.87 34.2587 114.43 33.2133 114.654 31.72C114.915 30.2267 115.046 27.7067 115.046 24.16V0.471999H119.246ZM132.331 39V4.28H123.763V0.471999H145.099V4.28H136.531V39H132.331ZM150.088 39V0.471999H154.288V39H150.088ZM168.497 39L158.865 0.471999H163.233L171.129 33.456H171.465L179.361 0.471999H183.561L173.985 39H168.497ZM188.092 39V0.471999H206.292V4.168H192.292V17.664H204.444V21.36H192.292V35.304H206.292V39H188.092ZM220.068 35.472C221.972 35.3973 223.241 35.192 223.876 34.856C224.548 34.52 224.959 33.792 225.108 32.672C225.257 31.5147 225.332 29.2 225.332 25.728V0.471999H229.532V24.664C229.532 29.592 229.364 32.952 229.028 34.744C228.692 36.4987 227.927 37.6373 226.732 38.16C225.575 38.6827 223.353 38.9627 220.068 39V35.472ZM258.316 0.471999V22.256C258.316 27.2587 258.092 30.8987 257.644 33.176C257.196 35.4533 256.225 37.0773 254.732 38.048C253.276 38.9813 250.887 39.448 247.564 39.448C244.241 39.448 241.833 38.9813 240.34 38.048C238.847 37.0773 237.876 35.4533 237.428 33.176C236.98 30.8613 236.756 27.2213 236.756 22.256V0.471999H240.956V24.16C240.956 27.7067 241.087 30.2267 241.348 31.72C241.609 33.2133 242.169 34.2587 243.028 34.856C243.924 35.4533 245.436 35.752 247.564 35.752C249.692 35.752 251.185 35.4533 252.044 34.856C252.94 34.2587 253.5 33.2133 253.724 31.72C253.985 30.2267 254.116 27.7067 254.116 24.16V0.471999H258.316ZM265.858 0.471999H275.042C278.775 0.471999 281.426 0.957331 282.994 1.928C284.599 2.89866 285.626 4.65333 286.074 7.192C286.559 9.69333 286.802 13.8747 286.802 19.736C286.802 25.5973 286.559 29.7973 286.074 32.336C285.626 34.8373 284.599 36.5733 282.994 37.544C281.426 38.5147 278.775 39 275.042 39H265.858V0.471999ZM274.874 35.304C277.45 35.304 279.204 35.0427 280.138 34.52C281.108 33.96 281.762 32.672 282.098 30.656C282.434 28.64 282.602 25 282.602 19.736C282.602 14.5093 282.434 10.888 282.098 8.872C281.762 6.81866 281.108 5.53066 280.138 5.008C279.167 4.448 277.412 4.168 274.874 4.168H270.002V35.304H274.874ZM303.885 22.088V18.504H313.685V38.384C312.379 38.6827 310.867 38.9253 309.149 39.112C307.469 39.336 305.976 39.448 304.669 39.448C301.272 39.448 298.752 38.9627 297.109 37.992C295.467 36.984 294.328 35.1173 293.693 32.392C293.059 29.6667 292.741 25.448 292.741 19.736C292.741 14.0987 293.059 9.91733 293.693 7.192C294.328 4.46667 295.467 2.6 297.109 1.592C298.752 0.546664 301.291 0.0239978 304.725 0.0239978C306.219 0.0239978 307.805 0.135997 309.485 0.359997C311.203 0.583998 312.565 0.826665 313.573 1.088V4.56C312.565 4.336 311.333 4.14933 309.877 4C308.459 3.81333 307.32 3.72 306.461 3.72C303.437 3.72 301.328 4 300.133 4.56C298.939 5.12 298.117 6.464 297.669 8.592C297.221 10.72 296.997 14.4347 296.997 19.736C296.997 24.5893 297.165 28.0987 297.501 30.264C297.837 32.392 298.528 33.848 299.573 34.632C300.619 35.416 302.336 35.808 304.725 35.808C306.667 35.808 308.291 35.6587 309.597 35.36V22.088H303.885ZM320.764 39V0.471999H338.964V4.168H324.964V17.664H337.116V21.36H324.964V35.304H338.964V39H320.764ZM353.67 39.448C350.198 39.448 347.006 39.2053 344.094 38.72V35.08C345.401 35.2667 346.838 35.4347 348.406 35.584C349.974 35.696 351.3 35.752 352.382 35.752C353.876 35.752 355.052 35.6587 355.91 35.472C356.806 35.248 357.534 34.8747 358.094 34.352C358.617 33.8667 358.953 33.1573 359.102 32.224C359.289 31.2907 359.382 30.04 359.382 28.472C359.382 26.4187 359.308 24.9813 359.158 24.16C359.009 23.3387 358.654 22.76 358.094 22.424C357.572 22.0507 356.62 21.752 355.238 21.528L348.742 20.52C347.174 20.2587 345.998 19.736 345.214 18.952C344.43 18.1307 343.908 17.0853 343.646 15.816C343.422 14.5467 343.31 12.848 343.31 10.72C343.31 6.83733 344.132 4.09333 345.774 2.488C347.417 0.845332 350.049 0.0239978 353.67 0.0239978C357.142 0.0239978 359.98 0.322665 362.182 0.92V4.392C359.681 3.944 357.161 3.72 354.622 3.72C353.017 3.72 351.748 3.86933 350.814 4.168C349.881 4.42933 349.172 4.84 348.686 5.4C348.201 5.96 347.884 6.65066 347.734 7.472C347.585 8.29333 347.51 9.33867 347.51 10.608C347.51 12.3253 347.585 13.576 347.734 14.36C347.884 15.1067 348.182 15.6293 348.63 15.928C349.078 16.2267 349.825 16.4693 350.87 16.656L357.142 17.664C358.71 17.9253 359.942 18.3173 360.838 18.84C361.734 19.3627 362.425 20.2587 362.91 21.528C363.358 22.6107 363.582 24.7573 363.582 27.968C363.582 30.8427 363.265 33.1013 362.63 34.744C362.033 36.3867 361.006 37.5813 359.55 38.328C358.132 39.0747 356.172 39.448 353.67 39.448Z" fill="#FDD52E"/>
<path d="M0.0215626 39H-0.978437V40H0.0215626V39ZM0.0215626 0.471998V-0.528002H-0.978437V0.471998H0.0215626ZM18.2216 0.471998H19.2216V-0.528002H18.2216V0.471998ZM18.2216 4.168V5.168H19.2216V4.168H18.2216ZM4.22156 4.168V3.168H3.22156V4.168H4.22156ZM4.22156 17.664H3.22156V18.664H4.22156V17.664ZM16.3736 17.664H17.3736V16.664H16.3736V17.664ZM16.3736 21.36V22.36H17.3736V21.36H16.3736ZM4.22156 21.36V20.36H3.22156V21.36H4.22156ZM4.22156 35.304H3.22156V36.304H4.22156V35.304ZM18.2216 35.304H19.2216V34.304H18.2216V35.304ZM18.2216 39V40H19.2216V39H18.2216ZM1.02156 39V0.471998H-0.978437V39H1.02156ZM0.0215626 1.472H18.2216V-0.528002H0.0215626V1.472ZM17.2216 0.471998V4.168H19.2216V0.471998H17.2216ZM18.2216 3.168H4.22156V5.168H18.2216V3.168ZM3.22156 4.168V17.664H5.22156V4.168H3.22156ZM4.22156 18.664H16.3736V16.664H4.22156V18.664ZM15.3736 17.664V21.36H17.3736V17.664H15.3736ZM16.3736 20.36H4.22156V22.36H16.3736V20.36ZM3.22156 21.36V35.304H5.22156V21.36H3.22156ZM4.22156 36.304H18.2216V34.304H4.22156V36.304ZM17.2216 35.304V39H19.2216V35.304H17.2216ZM18.2216 38H0.0215626V40H18.2216V38ZM41.7761 39L40.8804 39.4447L41.1561 40H41.7761V39ZM33.9361 23.208L34.8318 22.7633L34.5561 22.208H33.9361V23.208ZM33.6001 23.208V22.208H32.9782L32.7032 22.7659L33.6001 23.208ZM25.8161 39V40H26.4381L26.7131 39.4421L25.8161 39ZM21.2801 39L20.3899 38.5446L19.6453 40H21.2801V39ZM31.1921 19.624L32.0824 20.0794L32.3154 19.6239L32.0823 19.1685L31.1921 19.624ZM21.3921 0.471998V-0.528002H19.7571L20.5019 0.927523L21.3921 0.471998ZM26.0961 0.471998L26.9912 0.0260773L26.7152 -0.528002H26.0961V0.471998ZM33.8241 15.984L32.9291 16.4299L33.2051 16.984H33.8241V15.984ZM34.1041 15.984V16.984H34.7232L34.9992 16.4299L34.1041 15.984ZM41.8321 0.471998V-0.528002H41.2131L40.9371 0.0260773L41.8321 0.471998ZM46.3681 0.471998L47.2573 0.929642L48.0075 -0.528002H46.3681V0.471998ZM36.5681 19.512L35.679 19.0544L35.4448 19.5093L35.6768 19.9653L36.5681 19.512ZM46.4801 39V40H48.1107L47.3715 38.5466L46.4801 39ZM42.6718 38.5553L34.8318 22.7633L33.0404 23.6527L40.8804 39.4447L42.6718 38.5553ZM33.9361 22.208H33.6001V24.208H33.9361V22.208ZM32.7032 22.7659L24.9192 38.5579L26.7131 39.4421L34.4971 23.6501L32.7032 22.7659ZM25.8161 38H21.2801V40H25.8161V38ZM22.1704 39.4554L32.0824 20.0794L30.3019 19.1686L20.3899 38.5446L22.1704 39.4554ZM32.0823 19.1685L22.2823 0.0164757L20.5019 0.927523L30.3019 20.0795L32.0823 19.1685ZM21.3921 1.472H26.0961V-0.528002H21.3921V1.472ZM25.2011 0.917919L32.9291 16.4299L34.7192 15.5381L26.9912 0.0260773L25.2011 0.917919ZM33.8241 16.984H34.1041V14.984H33.8241V16.984ZM34.9992 16.4299L42.7272 0.917919L40.9371 0.0260773L33.2091 15.5381L34.9992 16.4299ZM41.8321 1.472H46.3681V-0.528002H41.8321V1.472ZM45.479 0.0143547L35.679 19.0544L37.4573 19.9696L47.2573 0.929642L45.479 0.0143547ZM35.6768 19.9653L45.5888 39.4534L47.3715 38.5466L37.4595 19.0586L35.6768 19.9653ZM46.4801 38H41.7761V40H46.4801V38ZM51.3731 39H50.3731V40H51.3731V39ZM51.3731 0.471998V-0.528002H50.3731V0.471998H51.3731ZM69.5731 0.471998H70.5731V-0.528002H69.5731V0.471998ZM69.5731 4.168V5.168H70.5731V4.168H69.5731ZM55.5731 4.168V3.168H54.5731V4.168H55.5731ZM55.5731 17.664H54.5731V18.664H55.5731V17.664ZM67.7251 17.664H68.7251V16.664H67.7251V17.664ZM67.7251 21.36V22.36H68.7251V21.36H67.7251ZM55.5731 21.36V20.36H54.5731V21.36H55.5731ZM55.5731 35.304H54.5731V36.304H55.5731V35.304ZM69.5731 35.304H70.5731V34.304H69.5731V35.304ZM69.5731 39V40H70.5731V39H69.5731ZM52.3731 39V0.471998H50.3731V39H52.3731ZM51.3731 1.472H69.5731V-0.528002H51.3731V1.472ZM68.5731 0.471998V4.168H70.5731V0.471998H68.5731ZM69.5731 3.168H55.5731V5.168H69.5731V3.168ZM54.5731 4.168V17.664H56.5731V4.168H54.5731ZM55.5731 18.664H67.7251V16.664H55.5731V18.664ZM66.7251 17.664V21.36H68.7251V17.664H66.7251ZM67.7251 20.36H55.5731V22.36H67.7251V20.36ZM54.5731 21.36V35.304H56.5731V21.36H54.5731ZM55.5731 36.304H69.5731V34.304H55.5731V36.304ZM68.5731 35.304V39H70.5731V35.304H68.5731ZM69.5731 38H51.3731V40H69.5731V38ZM92.2877 38.776L92.5093 39.7511L93.2877 39.5742V38.776H92.2877ZM89.2637 39.224L89.1703 38.2284L89.153 38.23L89.1357 38.2322L89.2637 39.224ZM78.5677 37.936L78.0177 38.7712L78.0269 38.7772L78.5677 37.936ZM75.4317 32.448L74.4501 32.6389L74.4516 32.6468L74.4533 32.6547L75.4317 32.448ZM75.4317 7.136L74.4527 6.93203L74.4506 6.94254L75.4317 7.136ZM78.5677 1.592L79.1177 2.42718L79.1224 2.42405L78.5677 1.592ZM89.2637 0.247997L89.1357 1.23978L89.2637 0.247997ZM92.1197 0.807999H93.1197V0.0639668L92.407 -0.149828L92.1197 0.807999ZM92.1197 4.224L91.961 5.21133L93.1197 5.39754V4.224H92.1197ZM79.3517 8.872L78.3644 8.71332L78.363 8.72194L78.3617 8.73058L79.3517 8.872ZM79.3517 30.6L78.3617 30.7414L78.363 30.7501L78.3644 30.7587L79.3517 30.6ZM81.4237 34.744L81.9644 33.9028L81.4237 34.744ZM92.2877 35.248H93.2877V34.0383L92.0996 34.2658L92.2877 35.248ZM92.0661 37.8009C91.3006 37.9748 90.3383 38.1189 89.1703 38.2284L89.357 40.2196C90.5784 40.1051 91.6322 39.9505 92.5093 39.7511L92.0661 37.8009ZM89.1357 38.2322C88.016 38.3767 86.9576 38.448 85.9597 38.448V40.448C87.0524 40.448 88.1967 40.37 89.3917 40.2158L89.1357 38.2322ZM85.9597 38.448C82.6583 38.448 80.4312 37.9452 79.1084 37.0948L78.0269 38.7772C79.8402 39.9428 82.541 40.448 85.9597 40.448V38.448ZM79.1177 37.1008C77.8931 36.2944 76.9415 34.7565 76.4101 32.2413L74.4533 32.6547C75.0419 35.4408 76.181 37.5616 78.0177 38.7712L79.1177 37.1008ZM76.4133 32.2571C75.9101 29.6692 75.6477 25.513 75.6477 19.736H73.6477C73.6477 25.5324 73.908 29.8508 74.4501 32.6389L76.4133 32.2571ZM75.6477 19.736C75.6477 13.996 75.9102 9.87849 76.4128 7.32946L74.4506 6.94254C73.9079 9.69485 73.6477 13.9774 73.6477 19.736H75.6477ZM76.4107 7.33995C76.9433 4.78341 77.8968 3.23114 79.1177 2.42717L78.0177 0.756826C76.1772 1.96886 75.0401 4.11259 74.4527 6.93204L76.4107 7.33995ZM79.1224 2.42405C80.4416 1.54461 82.6623 1.024 85.9597 1.024V-0.976002C82.5371 -0.976002 79.8298 -0.451277 78.013 0.759947L79.1224 2.42405ZM85.9597 1.024C86.9576 1.024 88.016 1.0953 89.1357 1.23978L89.3917 -0.74378C88.1967 -0.897968 87.0524 -0.976002 85.9597 -0.976002V1.024ZM89.1357 1.23978C90.2628 1.38521 91.1566 1.56309 91.8323 1.76582L92.407 -0.149828C91.5895 -0.395094 90.5792 -0.590546 89.3917 -0.74378L89.1357 1.23978ZM91.1197 0.807999V4.224H93.1197V0.807999H91.1197ZM92.2784 3.23667C90.1581 2.89591 88.3465 2.72 86.8557 2.72V4.72C88.2022 4.72 89.8999 4.88008 91.961 5.21133L92.2784 3.23667ZM86.8557 2.72C84.2544 2.72 82.188 3.04782 80.8829 3.88682L81.9644 5.56918C82.75 5.06418 84.305 4.72 86.8557 4.72V2.72ZM80.8829 3.88682C79.475 4.79189 78.7152 6.53016 78.3644 8.71332L80.339 9.03067C80.6602 7.03251 81.2817 6.00811 81.9644 5.56918L80.8829 3.88682ZM78.3617 8.73058C78.0519 10.8992 77.9037 14.5847 77.9037 19.736H79.9037C79.9037 14.5833 80.0541 11.0261 80.3416 9.01342L78.3617 8.73058ZM77.9037 19.736C77.9037 24.8873 78.0519 28.5728 78.3617 30.7414L80.3416 30.4586C80.0541 28.4459 79.9037 24.8887 79.9037 19.736H77.9037ZM78.3644 30.7587C78.7152 32.9418 79.475 34.6801 80.8829 35.5852L81.9644 33.9028C81.2817 33.4639 80.6602 32.4395 80.339 30.4413L78.3644 30.7587ZM80.8829 35.5852C82.188 36.4242 84.2544 36.752 86.8557 36.752V34.752C84.305 34.752 82.75 34.4078 81.9644 33.9028L80.8829 35.5852ZM86.8557 36.752C88.7827 36.752 90.6564 36.5785 92.4758 36.2302L92.0996 34.2658C90.4096 34.5895 88.6621 34.752 86.8557 34.752V36.752ZM91.2877 35.248V38.776H93.2877V35.248H91.2877ZM119.246 0.471998H120.246V-0.528002H119.246V0.471998ZM118.574 33.176L117.592 32.983L118.574 33.176ZM115.662 38.048L116.201 38.8899L116.207 38.8864L115.662 38.048ZM101.27 38.048L100.725 38.8864L100.732 38.8913L100.74 38.896L101.27 38.048ZM98.3576 33.176L97.3758 33.366L97.3764 33.369L98.3576 33.176ZM97.6856 0.471998V-0.528002H96.6856V0.471998H97.6856ZM101.886 0.471998H102.886V-0.528002H101.886V0.471998ZM102.278 31.72L103.263 31.5476L102.278 31.72ZM103.958 34.856L103.386 35.6769L103.395 35.6826L103.403 35.688L103.958 34.856ZM112.974 34.856L112.419 34.0239L112.411 34.0294L112.402 34.0351L112.974 34.856ZM114.654 31.72L113.669 31.5476L113.666 31.5596L113.665 31.5717L114.654 31.72ZM115.046 0.471998V-0.528002H114.046V0.471998H115.046ZM118.246 0.471998V22.256H120.246V0.471998H118.246ZM118.246 22.256C118.246 27.2504 118.02 30.8075 117.592 32.983L119.555 33.369C120.023 30.9898 120.246 27.267 120.246 22.256H118.246ZM117.592 32.983C117.18 35.0792 116.32 36.4272 115.117 37.2096L116.207 38.8864C117.99 37.7275 119.071 35.8275 119.555 33.369L117.592 32.983ZM115.122 37.2061C113.918 37.9781 111.773 38.448 108.494 38.448V40.448C111.86 40.448 114.493 39.9846 116.201 38.8899L115.122 37.2061ZM108.494 38.448C105.218 38.448 103.047 37.9794 101.8 37.2L100.74 38.896C102.479 39.9833 105.124 40.448 108.494 40.448V38.448ZM101.815 37.2096C100.611 36.4272 99.7511 35.0792 99.3388 32.983L97.3764 33.369C97.86 35.8275 98.9416 37.7275 100.725 38.8864L101.815 37.2096ZM99.3393 32.986C98.9106 30.7708 98.6856 27.2114 98.6856 22.256H96.6856C96.6856 27.2313 96.9085 30.9519 97.3758 33.366L99.3393 32.986ZM98.6856 22.256V0.471998H96.6856V22.256H98.6856ZM97.6856 1.472H101.886V-0.528002H97.6856V1.472ZM100.886 0.471998V24.16H102.886V0.471998H100.886ZM100.886 24.16C100.886 27.7085 101.015 30.3054 101.293 31.8924L103.263 31.5476C103.018 30.1479 102.886 27.7048 102.886 24.16H100.886ZM101.293 31.8924C101.579 33.53 102.227 34.8701 103.386 35.6769L104.529 34.0351C103.971 33.6472 103.499 32.8966 103.263 31.5476L101.293 31.8924ZM103.403 35.688C104.559 36.4588 106.328 36.752 108.494 36.752V34.752C106.403 34.752 105.148 34.4479 104.512 34.0239L103.403 35.688ZM108.494 36.752C110.652 36.752 112.417 36.4612 113.545 35.6769L112.402 34.0351C111.813 34.4454 110.591 34.752 108.494 34.752V36.752ZM113.528 35.688C114.741 34.8794 115.394 33.525 115.643 31.8683L113.665 31.5717C113.465 32.9016 112.998 33.6379 112.419 34.0239L113.528 35.688ZM115.639 31.8924C115.916 30.3054 116.046 27.7085 116.046 24.16H114.046C114.046 27.7048 113.913 30.1479 113.669 31.5476L115.639 31.8924ZM116.046 24.16V0.471998H114.046V24.16H116.046ZM115.046 1.472H119.246V-0.528002H115.046V1.472ZM132.331 39H131.331V40H132.331V39ZM132.331 4.28H133.331V3.28H132.331V4.28ZM123.763 4.28H122.763V5.28H123.763V4.28ZM123.763 0.471998V-0.528002H122.763V0.471998H123.763ZM145.099 0.471998H146.099V-0.528002H145.099V0.471998ZM145.099 4.28V5.28H146.099V4.28H145.099ZM136.531 4.28V3.28H135.531V4.28H136.531ZM136.531 39V40H137.531V39H136.531ZM133.331 39V4.28H131.331V39H133.331ZM132.331 3.28H123.763V5.28H132.331V3.28ZM124.763 4.28V0.471998H122.763V4.28H124.763ZM123.763 1.472H145.099V-0.528002H123.763V1.472ZM144.099 0.471998V4.28H146.099V0.471998H144.099ZM145.099 3.28H136.531V5.28H145.099V3.28ZM135.531 4.28V39H137.531V4.28H135.531ZM136.531 38H132.331V40H136.531V38ZM150.088 39H149.088V40H150.088V39ZM150.088 0.471998V-0.528002H149.088V0.471998H150.088ZM154.288 0.471998H155.288V-0.528002H154.288V0.471998ZM154.288 39V40H155.288V39H154.288ZM151.088 39V0.471998H149.088V39H151.088ZM150.088 1.472H154.288V-0.528002H150.088V1.472ZM153.288 0.471998V39H155.288V0.471998H153.288ZM154.288 38H150.088V40H154.288V38ZM168.497 39L167.527 39.2425L167.716 40H168.497V39ZM158.865 0.471998V-0.528002H157.584L157.895 0.714535L158.865 0.471998ZM163.233 0.471998L164.205 0.239187L164.022 -0.528002H163.233V0.471998ZM171.129 33.456L170.156 33.6888L170.34 34.456H171.129V33.456ZM171.465 33.456V34.456H172.254L172.437 33.6888L171.465 33.456ZM179.361 0.471998V-0.528002H178.572L178.388 0.239187L179.361 0.471998ZM183.561 0.471998L184.531 0.713207L184.84 -0.528002H183.561V0.471998ZM173.985 39V40H174.767L174.955 39.2412L173.985 39ZM169.467 38.7575L159.835 0.229464L157.895 0.714535L167.527 39.2425L169.467 38.7575ZM158.865 1.472H163.233V-0.528002H158.865V1.472ZM162.26 0.704809L170.156 33.6888L172.101 33.2232L164.205 0.239187L162.26 0.704809ZM171.129 34.456H171.465V32.456H171.129V34.456ZM172.437 33.6888L180.333 0.704809L178.388 0.239187L170.492 33.2232L172.437 33.6888ZM179.361 1.472H183.561V-0.528002H179.361V1.472ZM182.59 0.230791L173.014 38.7588L174.955 39.2412L184.531 0.713207L182.59 0.230791ZM173.985 38H168.497V40H173.985V38ZM188.092 39H187.092V40H188.092V39ZM188.092 0.471998V-0.528002H187.092V0.471998H188.092ZM206.292 0.471998H207.292V-0.528002H206.292V0.471998ZM206.292 4.168V5.168H207.292V4.168H206.292ZM192.292 4.168V3.168H191.292V4.168H192.292ZM192.292 17.664H191.292V18.664H192.292V17.664ZM204.444 17.664H205.444V16.664H204.444V17.664ZM204.444 21.36V22.36H205.444V21.36H204.444ZM192.292 21.36V20.36H191.292V21.36H192.292ZM192.292 35.304H191.292V36.304H192.292V35.304ZM206.292 35.304H207.292V34.304H206.292V35.304ZM206.292 39V40H207.292V39H206.292ZM189.092 39V0.471998H187.092V39H189.092ZM188.092 1.472H206.292V-0.528002H188.092V1.472ZM205.292 0.471998V4.168H207.292V0.471998H205.292ZM206.292 3.168H192.292V5.168H206.292V3.168ZM191.292 4.168V17.664H193.292V4.168H191.292ZM192.292 18.664H204.444V16.664H192.292V18.664ZM203.444 17.664V21.36H205.444V17.664H203.444ZM204.444 20.36H192.292V22.36H204.444V20.36ZM191.292 21.36V35.304H193.292V21.36H191.292ZM192.292 36.304H206.292V34.304H192.292V36.304ZM205.292 35.304V39H207.292V35.304H205.292ZM206.292 38H188.092V40H206.292V38ZM220.068 35.472L220.029 34.4728L219.068 34.5104V35.472H220.068ZM223.876 34.856L223.429 33.9616L223.418 33.9668L223.408 33.9722L223.876 34.856ZM225.108 32.672L226.099 32.8042L226.1 32.8L225.108 32.672ZM225.332 0.471998V-0.528002H224.332V0.471998H225.332ZM229.532 0.471998H230.532V-0.528002H229.532V0.471998ZM229.028 34.744L230.01 34.9321L230.011 34.9283L229.028 34.744ZM226.732 38.16L226.331 37.2438L226.32 37.2486L226.732 38.16ZM220.068 39H219.068V40.0114L220.079 39.9999L220.068 39ZM220.107 36.4712C221.082 36.433 221.919 36.3606 222.608 36.2492C223.279 36.1406 223.882 35.9841 224.344 35.7398L223.408 33.9722C223.235 34.0639 222.886 34.1781 222.288 34.2748C221.707 34.3688 220.958 34.4363 220.029 34.4728L220.107 36.4712ZM224.323 35.7504C225.42 35.2018 225.929 34.0782 226.099 32.8042L224.117 32.5398C223.988 33.5058 223.675 33.8382 223.429 33.9616L224.323 35.7504ZM226.1 32.8C226.259 31.5684 226.332 29.1896 226.332 25.728H224.332C224.332 29.2104 224.256 31.4609 224.116 32.544L226.1 32.8ZM226.332 25.728V0.471998H224.332V25.728H226.332ZM225.332 1.472H229.532V-0.528002H225.332V1.472ZM228.532 0.471998V24.664H230.532V0.471998H228.532ZM228.532 24.664C228.532 29.6005 228.361 32.8718 228.045 34.5597L230.011 34.9283C230.366 33.0322 230.532 29.5835 230.532 24.664H228.532ZM228.046 34.5559C227.747 36.1176 227.12 36.8989 226.331 37.2438L227.133 39.0762C228.734 38.3758 229.637 36.8797 230.01 34.9321L228.046 34.5559ZM226.32 37.2486C225.877 37.449 225.148 37.6344 224.073 37.7699C223.013 37.9035 221.677 37.9817 220.057 38.0001L220.079 39.9999C221.744 39.981 223.162 39.9005 224.323 39.7542C225.469 39.6096 226.43 39.3936 227.143 39.0714L226.32 37.2486ZM221.068 39V35.472H219.068V39H221.068ZM258.316 0.471998H259.316V-0.528002H258.316V0.471998ZM257.644 33.176L256.663 32.983L257.644 33.176ZM254.732 38.048L255.272 38.8899L255.277 38.8864L254.732 38.048ZM240.34 38.048L239.795 38.8864L239.802 38.8913L239.81 38.896L240.34 38.048ZM237.428 33.176L236.446 33.366L236.447 33.369L237.428 33.176ZM236.756 0.471998V-0.528002H235.756V0.471998H236.756ZM240.956 0.471998H241.956V-0.528002H240.956V0.471998ZM241.348 31.72L242.333 31.5476L241.348 31.72ZM243.028 34.856L242.457 35.6769L242.465 35.6826L242.473 35.688L243.028 34.856ZM252.044 34.856L251.489 34.0239L251.481 34.0294L251.473 34.0351L252.044 34.856ZM253.724 31.72L252.739 31.5476L252.737 31.5596L252.735 31.5717L253.724 31.72ZM254.116 0.471998V-0.528002H253.116V0.471998H254.116ZM257.316 0.471998V22.256H259.316V0.471998H257.316ZM257.316 22.256C257.316 27.2504 257.091 30.8075 256.663 32.983L258.625 33.369C259.093 30.9898 259.316 27.267 259.316 22.256H257.316ZM256.663 32.983C256.25 35.0792 255.391 36.4272 254.187 37.2096L255.277 38.8864C257.06 37.7275 258.141 35.8275 258.625 33.369L256.663 32.983ZM254.192 37.2061C252.988 37.9781 250.843 38.448 247.564 38.448V40.448C250.93 40.448 253.564 39.9846 255.272 38.8899L254.192 37.2061ZM247.564 38.448C244.288 38.448 242.117 37.9794 240.87 37.2L239.81 38.896C241.55 39.9833 244.194 40.448 247.564 40.448V38.448ZM240.885 37.2096C239.681 36.4272 238.821 35.0792 238.409 32.983L236.447 33.369C236.93 35.8275 238.012 37.7275 239.795 38.8864L240.885 37.2096ZM238.41 32.986C237.981 30.7708 237.756 27.2114 237.756 22.256H235.756C235.756 27.2313 235.979 30.9519 236.446 33.366L238.41 32.986ZM237.756 22.256V0.471998H235.756V22.256H237.756ZM236.756 1.472H240.956V-0.528002H236.756V1.472ZM239.956 0.471998V24.16H241.956V0.471998H239.956ZM239.956 24.16C239.956 27.7085 240.085 30.3054 240.363 31.8924L242.333 31.5476C242.088 30.1479 241.956 27.7048 241.956 24.16H239.956ZM240.363 31.8924C240.649 33.53 241.297 34.8701 242.457 35.6769L243.599 34.0351C243.041 33.6472 242.569 32.8966 242.333 31.5476L240.363 31.8924ZM242.473 35.688C243.629 36.4588 245.399 36.752 247.564 36.752V34.752C245.473 34.752 244.219 34.4479 243.583 34.0239L242.473 35.688ZM247.564 36.752C249.722 36.752 251.487 36.4612 252.615 35.6769L251.473 34.0351C250.883 34.4454 249.661 34.752 247.564 34.752V36.752ZM252.599 35.688C253.812 34.8794 254.464 33.525 254.713 31.8683L252.735 31.5717C252.535 32.9016 252.068 33.6379 251.489 34.0239L252.599 35.688ZM254.709 31.8924C254.987 30.3054 255.116 27.7085 255.116 24.16H253.116C253.116 27.7048 252.984 30.1479 252.739 31.5476L254.709 31.8924ZM255.116 24.16V0.471998H253.116V24.16H255.116ZM254.116 1.472H258.316V-0.528002H254.116V1.472ZM265.858 0.471998V-0.528002H264.858V0.471998H265.858ZM282.993 1.928L282.467 2.77831L282.476 2.78373L282.993 1.928ZM286.073 7.192L285.089 7.36578L285.09 7.37414L285.092 7.38248L286.073 7.192ZM286.073 32.336L285.091 32.1482L285.089 32.1597L286.073 32.336ZM282.993 37.544L282.476 36.6882L282.467 36.6937L282.993 37.544ZM265.858 39H264.858V40H265.858V39ZM280.138 34.52L280.626 35.3926L280.637 35.3862L280.138 34.52ZM282.098 30.656L283.084 30.8204L282.098 30.656ZM282.098 8.872L281.111 9.03349L281.111 9.0364L282.098 8.872ZM280.138 5.008L279.638 5.87418L279.65 5.88151L279.663 5.88847L280.138 5.008ZM270.001 4.168V3.168H269.001V4.168H270.001ZM270.001 35.304H269.001V36.304H270.001V35.304ZM265.858 1.472H275.042V-0.528002H265.858V1.472ZM275.042 1.472C278.744 1.472 281.151 1.96364 282.467 2.77826L283.52 1.07773C281.7 -0.0489731 278.805 -0.528002 275.042 -0.528002V1.472ZM282.476 2.78373C283.752 3.55532 284.671 5.0002 285.089 7.36578L287.058 7.01821C286.58 4.30646 285.445 2.24201 283.511 1.07227L282.476 2.78373ZM285.092 7.38248C285.557 9.78108 285.802 13.8779 285.802 19.736H287.802C287.802 13.8714 287.56 9.60558 287.055 7.00152L285.092 7.38248ZM285.802 19.736C285.802 25.593 285.557 29.7104 285.091 32.1482L287.056 32.5238C287.56 29.8843 287.802 25.6016 287.802 19.736H285.802ZM285.089 32.1597C284.673 34.4832 283.757 35.914 282.476 36.6883L283.511 38.3997C285.441 37.2327 286.578 35.1914 287.058 32.5123L285.089 32.1597ZM282.467 36.6937C281.151 37.5084 278.744 38 275.042 38V40C278.805 40 281.7 39.521 283.52 38.3943L282.467 36.6937ZM275.042 38H265.858V40H275.042V38ZM266.858 39V0.471998H264.858V39H266.858ZM274.874 36.304C276.191 36.304 277.326 36.2375 278.269 36.0971C279.198 35.9587 280.007 35.7394 280.626 35.3925L279.649 33.6475C279.335 33.8233 278.8 33.9959 277.974 34.1189C277.162 34.2399 276.132 34.304 274.874 34.304V36.304ZM280.637 35.3862C282.016 34.5908 282.737 32.904 283.084 30.8204L281.111 30.4916C280.786 32.44 280.2 33.3292 279.638 33.6538L280.637 35.3862ZM283.084 30.8204C283.435 28.7126 283.602 24.9956 283.602 19.736H281.602C281.602 25.0044 281.432 28.5674 281.111 30.4916L283.084 30.8204ZM283.602 19.736C283.602 14.5133 283.435 10.8153 283.084 8.7076L281.111 9.0364C281.432 10.9607 281.602 14.5054 281.602 19.736H283.602ZM283.084 8.71051C282.74 6.60374 282.021 4.88657 280.612 4.12753L279.663 5.88847C280.195 6.17476 280.783 7.03358 281.111 9.03349L283.084 8.71051ZM280.637 4.14181C279.415 3.43671 277.418 3.168 274.874 3.168V5.168C277.407 5.168 278.919 5.45929 279.638 5.87418L280.637 4.14181ZM274.874 3.168H270.001V5.168H274.874V3.168ZM269.001 4.168V35.304H271.001V4.168H269.001ZM270.001 36.304H274.874V34.304H270.001V36.304ZM303.885 22.088H302.885V23.088H303.885V22.088ZM303.885 18.504V17.504H302.885V18.504H303.885ZM313.685 18.504H314.685V17.504H313.685V18.504ZM313.685 38.384L313.908 39.3589L314.685 39.1812V38.384H313.685ZM309.149 39.112L309.041 38.1179L309.029 38.1192L309.017 38.1208L309.149 39.112ZM297.109 37.992L296.586 38.8443L296.594 38.8487L296.601 38.8529L297.109 37.992ZM293.693 32.392L292.72 32.6188L293.693 32.392ZM293.693 7.192L292.72 6.96519L293.693 7.192ZM297.109 1.592L297.632 2.44432L297.639 2.44005L297.646 2.43566L297.109 1.592ZM309.485 0.359997L309.353 1.35123L309.356 1.3516L309.485 0.359997ZM313.573 1.088H314.573V0.314196L313.824 0.120001L313.573 1.088ZM313.573 4.56L313.357 5.53619L314.573 5.80662V4.56H313.573ZM309.877 4L309.747 4.99145L309.761 4.99332L309.775 4.99478L309.877 4ZM300.133 4.56L300.558 5.46546L300.133 4.56ZM297.669 8.592L296.691 8.38599L297.669 8.592ZM297.501 30.264L296.513 30.4173L296.514 30.42L297.501 30.264ZM299.573 34.632L300.173 33.832L299.573 34.632ZM309.597 35.36L309.82 36.3349L310.597 36.1572V35.36H309.597ZM309.597 22.088H310.597V21.088H309.597V22.088ZM304.885 22.088V18.504H302.885V22.088H304.885ZM303.885 19.504H313.685V17.504H303.885V19.504ZM312.685 18.504V38.384H314.685V18.504H312.685ZM313.463 37.4091C312.203 37.6971 310.73 37.9343 309.041 38.1179L309.258 40.1061C311.003 39.9164 312.555 39.6682 313.908 39.3589L313.463 37.4091ZM309.017 38.1208C307.369 38.3405 305.921 38.448 304.669 38.448V40.448C306.031 40.448 307.57 40.3315 309.282 40.1032L309.017 38.1208ZM304.669 38.448C301.33 38.448 299.028 37.9644 297.618 37.1311L296.601 38.8529C298.476 39.9609 301.214 40.448 304.669 40.448V38.448ZM297.632 37.1397C296.304 36.3242 295.269 34.7481 294.667 32.1652L292.72 32.6188C293.387 35.4865 294.63 37.6438 296.586 38.8443L297.632 37.1397ZM294.667 32.1652C294.06 29.5568 293.741 25.4334 293.741 19.736H291.741C291.741 25.4626 292.058 29.7765 292.72 32.6188L294.667 32.1652ZM293.741 19.736C293.741 14.1144 294.06 10.0278 294.667 7.41881L292.72 6.96519C292.058 9.8069 291.741 14.0829 291.741 19.736H293.741ZM294.667 7.41881C295.269 4.83586 296.304 3.25979 297.632 2.44432L296.586 0.739676C294.63 1.94021 293.387 4.09747 292.72 6.96519L294.667 7.41881ZM297.646 2.43566C299.047 1.544 301.354 1.024 304.725 1.024V-0.976002C301.227 -0.976002 298.457 -0.450666 296.573 0.748337L297.646 2.43566ZM304.725 1.024C306.169 1.024 307.711 1.1323 309.353 1.35122L309.618 -0.631231C307.9 -0.860308 306.268 -0.976002 304.725 -0.976002V1.024ZM309.356 1.3516C311.055 1.57326 312.372 1.80957 313.322 2.05599L313.824 0.120001C312.759 -0.156242 311.35 -0.405258 309.615 -0.631603L309.356 1.3516ZM312.573 1.088V4.56H314.573V1.088H312.573ZM313.79 3.58381C312.732 3.34872 311.46 3.15702 309.979 3.00522L309.775 4.99478C311.207 5.14164 312.398 5.32327 313.357 5.53619L313.79 3.58381ZM310.008 3.00855C308.57 2.8194 307.383 2.72 306.461 2.72V4.72C307.257 4.72 308.347 4.80727 309.747 4.99145L310.008 3.00855ZM306.461 2.72C303.433 2.72 301.123 2.99167 299.709 3.65454L300.558 5.46546C301.533 5.00832 303.442 4.72 306.461 4.72V2.72ZM299.709 3.65454C298.087 4.41504 297.162 6.14891 296.691 8.38599L298.648 8.79801C299.073 6.77909 299.791 5.82496 300.558 5.46546L299.709 3.65454ZM296.691 8.38599C296.219 10.6269 295.997 14.4359 295.997 19.736H297.997C297.997 14.4334 298.224 10.8131 298.648 8.79801L296.691 8.38599ZM295.997 19.736C295.997 24.5944 296.165 28.17 296.513 30.4173L298.49 30.1107C298.166 28.0273 297.997 24.5843 297.997 19.736H295.997ZM296.514 30.42C296.865 32.6472 297.62 34.417 298.973 35.432L300.173 33.832C299.436 33.279 298.81 32.1368 298.489 30.108L296.514 30.42ZM298.973 35.432C300.285 36.4158 302.276 36.808 304.725 36.808V34.808C302.396 34.808 300.952 34.4162 300.173 33.832L298.973 35.432ZM304.725 36.808C306.711 36.808 308.416 36.6558 309.82 36.3349L309.375 34.3851C308.166 34.6615 306.622 34.808 304.725 34.808V36.808ZM310.597 35.36V22.088H308.597V35.36H310.597ZM309.597 21.088H303.885V23.088H309.597V21.088ZM320.764 39H319.764V40H320.764V39ZM320.764 0.471998V-0.528002H319.764V0.471998H320.764ZM338.964 0.471998H339.964V-0.528002H338.964V0.471998ZM338.964 4.168V5.168H339.964V4.168H338.964ZM324.964 4.168V3.168H323.964V4.168H324.964ZM324.964 17.664H323.964V18.664H324.964V17.664ZM337.116 17.664H338.116V16.664H337.116V17.664ZM337.116 21.36V22.36H338.116V21.36H337.116ZM324.964 21.36V20.36H323.964V21.36H324.964ZM324.964 35.304H323.964V36.304H324.964V35.304ZM338.964 35.304H339.964V34.304H338.964V35.304ZM338.964 39V40H339.964V39H338.964ZM321.764 39V0.471998H319.764V39H321.764ZM320.764 1.472H338.964V-0.528002H320.764V1.472ZM337.964 0.471998V4.168H339.964V0.471998H337.964ZM338.964 3.168H324.964V5.168H338.964V3.168ZM323.964 4.168V17.664H325.964V4.168H323.964ZM324.964 18.664H337.116V16.664H324.964V18.664ZM336.116 17.664V21.36H338.116V17.664H336.116ZM337.116 20.36H324.964V22.36H337.116V20.36ZM323.964 21.36V35.304H325.964V21.36H323.964ZM324.964 36.304H338.964V34.304H324.964V36.304ZM337.964 35.304V39H339.964V35.304H337.964ZM338.964 38H320.764V40H338.964V38ZM344.094 38.72H343.094V39.5671L343.93 39.7064L344.094 38.72ZM344.094 35.08L344.236 34.09L343.094 33.927V35.08H344.094ZM348.406 35.584L348.311 36.5795L348.323 36.5806L348.335 36.5815L348.406 35.584ZM355.91 35.472L356.123 36.4492L356.138 36.4459L356.153 36.4421L355.91 35.472ZM358.094 34.352L357.414 33.6192L357.412 33.6209L358.094 34.352ZM359.102 32.224L358.122 32.0279L358.118 32.0469L358.115 32.066L359.102 32.224ZM359.158 24.16L360.142 23.9811L359.158 24.16ZM358.094 22.424L357.513 23.2377L357.546 23.2609L357.58 23.2815L358.094 22.424ZM355.238 21.528L355.398 20.5409L355.392 20.5398L355.238 21.528ZM348.742 20.52L348.578 21.5065L348.589 21.5082L348.742 20.52ZM345.214 18.952L344.491 19.6425L344.499 19.6509L344.507 19.6591L345.214 18.952ZM343.646 15.816L342.662 15.9898L342.664 16.0038L342.667 16.0177L343.646 15.816ZM345.774 2.488L346.473 3.20323L346.481 3.19511L345.774 2.488ZM362.182 0.92H363.182V0.155067L362.444 -0.0451412L362.182 0.92ZM362.182 4.392L362.006 5.37634L363.182 5.58702V4.392H362.182ZM350.814 4.168L351.084 5.13096L351.102 5.12601L351.119 5.12042L350.814 4.168ZM348.686 5.4L349.442 6.05493L348.686 5.4ZM347.734 14.36L346.752 14.5471L346.754 14.5561L347.734 14.36ZM348.63 15.928L349.185 15.0959H349.185L348.63 15.928ZM350.87 16.656L350.695 17.6404L350.703 17.642L350.712 17.6433L350.87 16.656ZM357.142 17.664L357.307 16.6776L357.301 16.6767L357.142 17.664ZM362.91 21.528L361.976 21.8851L361.981 21.8978L361.986 21.9104L362.91 21.528ZM362.63 34.744L361.698 34.3836L361.694 34.3929L361.691 34.4023L362.63 34.744ZM359.55 38.328L359.094 37.4381L359.085 37.4431L359.55 38.328ZM353.67 38.448C350.244 38.448 347.108 38.2085 344.259 37.7336L343.93 39.7064C346.905 40.2022 350.153 40.448 353.67 40.448V38.448ZM345.094 38.72V35.08H343.094V38.72H345.094ZM343.953 36.07C345.278 36.2592 346.731 36.429 348.311 36.5795L348.501 34.5885C346.946 34.4404 345.524 34.2741 344.236 34.09L343.953 36.07ZM348.335 36.5815C349.917 36.6945 351.268 36.752 352.382 36.752V34.752C351.331 34.752 350.031 34.6975 348.478 34.5865L348.335 36.5815ZM352.382 36.752C353.905 36.752 355.163 36.6579 356.123 36.4492L355.698 34.4948C354.941 34.6594 353.846 34.752 352.382 34.752V36.752ZM356.153 36.4421C357.18 36.1854 358.07 35.743 358.777 35.0831L357.412 33.6209C356.999 34.0063 356.433 34.3106 355.668 34.5019L356.153 36.4421ZM358.775 35.0848C359.507 34.4045 359.917 33.4641 360.09 32.382L358.115 32.066C357.989 32.8506 357.727 33.3288 357.414 33.6192L358.775 35.0848ZM360.083 32.4201C360.288 31.3943 360.382 30.0695 360.382 28.472H358.382C358.382 30.0105 358.29 31.187 358.122 32.0279L360.083 32.4201ZM360.382 28.472C360.382 26.4203 360.309 24.901 360.142 23.9811L358.174 24.3389C358.306 25.0617 358.382 26.417 358.382 28.472H360.382ZM360.142 23.9811C359.957 22.961 359.481 22.0897 358.609 21.5665L357.58 23.2815C357.828 23.4303 358.061 23.7164 358.174 24.3389L360.142 23.9811ZM358.676 21.6103C357.949 21.0915 356.793 20.7671 355.398 20.5409L355.078 22.5151C356.446 22.7369 357.194 23.0099 357.513 23.2377L358.676 21.6103ZM355.392 20.5398L348.896 19.5318L348.589 21.5082L355.085 22.5162L355.392 20.5398ZM348.907 19.5336C347.459 19.2922 346.507 18.8301 345.921 18.2449L344.507 19.6591C345.49 20.6419 346.89 21.2251 348.578 21.5064L348.907 19.5336ZM345.938 18.2615C345.301 17.5943 344.855 16.7265 344.626 15.6143L342.667 16.0177C342.961 17.4441 343.56 18.6671 344.491 19.6425L345.938 18.2615ZM344.631 15.6422C344.422 14.4551 344.31 12.822 344.31 10.72H342.31C342.31 12.874 342.423 14.6382 342.662 15.9898L344.631 15.6422ZM344.31 10.72C344.31 6.93127 345.12 4.52566 346.473 3.20319L345.075 1.77281C343.143 3.661 342.31 6.74339 342.31 10.72H344.31ZM346.481 3.19511C347.855 1.8219 350.17 1.024 353.67 1.024V-0.976002C349.928 -0.976002 346.979 -0.131233 345.067 1.78089L346.481 3.19511ZM353.67 1.024C357.095 1.024 359.835 1.31963 361.921 1.88514L362.444 -0.0451412C360.124 -0.674303 357.19 -0.976002 353.67 -0.976002V1.024ZM361.182 0.92V4.392H363.182V0.92H361.182ZM362.359 3.40766C359.799 2.94925 357.22 2.72 354.622 2.72V4.72C357.102 4.72 359.563 4.93875 362.006 5.37634L362.359 3.40766ZM354.622 2.72C352.971 2.72 351.584 2.87174 350.51 3.21557L351.119 5.12042C351.911 4.86692 353.063 4.72 354.622 4.72V2.72ZM350.545 3.20503C349.48 3.50317 348.578 3.99766 347.931 4.74507L349.442 6.05493C349.765 5.68234 350.282 5.3555 351.084 5.13096L350.545 3.20503ZM347.931 4.74507C347.314 5.45695 346.928 6.31832 346.75 7.29311L348.718 7.65088C348.84 6.98301 349.088 6.46305 349.442 6.05493L347.931 4.74507ZM346.75 7.29311C346.586 8.19546 346.51 9.30617 346.51 10.608H348.51C348.51 9.37116 348.584 8.3912 348.718 7.65088L346.75 7.29311ZM346.51 10.608C346.51 12.3335 346.584 13.6644 346.752 14.5471L348.717 14.1729C348.586 13.4876 348.51 12.3171 348.51 10.608H346.51ZM346.754 14.5561C346.933 15.4539 347.329 16.2624 348.076 16.76L349.185 15.0959C349.036 14.9963 348.834 14.7594 348.715 14.1639L346.754 14.5561ZM348.076 16.76C348.703 17.1781 349.62 17.4485 350.695 17.6404L351.046 15.6716C350.03 15.4901 349.454 15.2753 349.185 15.0959L348.076 16.76ZM350.712 17.6433L356.984 18.6513L357.301 16.6767L351.029 15.6687L350.712 17.6433ZM356.978 18.6504C358.483 18.9013 359.584 19.2658 360.334 19.7038L361.342 17.9762C360.301 17.3689 358.937 16.9494 357.307 16.6776L356.978 18.6504ZM360.334 19.7038C360.98 20.0802 361.547 20.7622 361.976 21.8851L363.844 21.1709C363.303 19.7551 362.489 18.6452 361.342 17.9762L360.334 19.7038ZM361.986 21.9104C362.155 22.3171 362.311 23.0101 362.42 24.0538C362.527 25.0804 362.582 26.3824 362.582 27.968H364.582C364.582 26.343 364.526 24.9662 364.409 23.8462C364.294 22.7432 364.114 21.8215 363.834 21.1456L361.986 21.9104ZM362.582 27.968C362.582 30.7874 362.269 32.9057 361.698 34.3836L363.563 35.1044C364.261 33.2969 364.582 30.8979 364.582 27.968H362.582ZM361.691 34.4023C361.173 35.8255 360.309 36.815 359.094 37.4382L360.007 39.2178C361.703 38.3477 362.893 36.9478 363.57 35.0857L361.691 34.4023ZM359.085 37.4431C357.868 38.0834 356.092 38.448 353.67 38.448V40.448C356.252 40.448 358.395 40.0659 360.016 39.2129L359.085 37.4431Z" fill="#EBBE00" mask="url(#path-1-outside-1_100_443)"/>
</svg>
