<svg width="1106" height="187" viewBox="0 0 1106 187" fill="none" xmlns="http://www.w3.org/2000/svg">
<g filter="url(#filter0_d_529_150924)">
<g clip-path="url(#clip0_529_150924)">
<path d="M61.0315 76.4006C61.0315 74.6175 61.0242 73.021 61.0315 71.4231C61.0432 69.4825 61.852 68.2986 63.607 67.6177C65.1736 67.0112 66.441 67.4719 67.0133 69.0757C67.3812 70.1051 67.5068 71.2437 67.5973 72.346C67.7302 73.89 67.6703 75.4515 67.809 76.9955C68.0354 79.5426 68.8793 81.9249 69.9801 84.2169C73.4609 91.4572 78.3433 97.6303 84.2886 103.002C87.7454 106.145 91.5691 108.86 95.677 111.089C101.346 114.151 107.347 116.102 113.806 116.689C120.804 117.325 127.582 116.298 134.247 114.31C142.131 111.956 149.417 108.285 156.44 104.066C156.676 103.942 156.862 103.74 156.964 103.494C156.672 103.64 156.36 103.76 156.075 103.923C148.602 108.195 140.718 111.488 132.223 113.072C120.502 115.259 109.168 114.03 98.4161 108.654C93.1759 106.03 88.7374 102.417 85.7034 97.3752C80.1684 88.1782 79.9917 78.764 85.3822 69.4563C87.949 65.0109 91.9816 62.2319 97.0392 61.1457C98.2365 60.8891 99.5534 61.0087 100.784 61.1749C101.514 61.2726 102.233 61.7289 102.858 62.1678C103.036 62.309 103.184 62.4855 103.291 62.6862C103.398 62.8868 103.463 63.1074 103.481 63.3342C103.481 63.5412 102.849 63.8736 102.459 63.9494C101.175 64.2218 99.8771 64.4214 98.5708 64.5472C94.9382 64.8388 92.3101 66.7007 90.2923 69.6137C88.8746 71.6636 88.1023 73.957 87.7767 76.3846C86.6948 84.3773 89.1433 91.361 94.1118 97.5254C97.4699 101.707 102.012 104.204 107.01 105.941C107.039 105.951 107.09 105.903 107.223 105.831L106.63 105.046C103.297 100.65 104.074 95.2873 108.539 91.9734C109.007 91.6259 109.504 91.3191 110.025 91.0563C110.499 90.8186 110.781 91.0402 110.762 91.5637C110.749 91.95 110.676 92.3335 110.635 92.7198C110.402 94.9068 110.388 97.0938 110.962 99.2341C111.881 102.657 114.028 105.156 117.035 106.931C119.939 108.645 123.119 109.456 126.481 109.628C132.759 109.947 138.617 108.26 144.348 105.971C150.835 103.382 156.92 100.002 162.722 96.1563C169.818 91.4718 176.781 86.5759 183.79 81.7529C188.316 78.6386 192.811 75.4836 197.746 73.005C204.645 69.5452 211.887 67.2226 219.591 66.5899C229.015 65.8142 237.911 67.4923 245.912 72.8213C249.349 75.1103 252.295 77.9082 254.64 81.3155C258.398 86.7786 259.657 92.8044 258.69 99.3449C258.015 103.865 256.217 107.819 252.775 110.913C248.979 114.321 244.563 115.839 239.463 115.053C232.758 114.02 229.435 108.258 228.921 103.398C228.525 99.6598 229.62 96.3633 232.069 93.5538C237.357 87.4871 244.983 91.119 246.738 96.6243C248.271 101.436 245.278 106.483 240.273 107.211C239.343 107.346 238.352 107.113 237.395 107.001C236.975 106.953 236.569 106.778 236.099 106.776C237.3 108.454 238.928 109.443 240.985 109.595C244.408 109.848 247.18 108.419 249.336 105.899C253.393 101.153 254.224 95.6781 252.588 89.7645C251.759 86.764 250.193 84.1425 248.163 81.7966C243.416 76.3102 237.433 73.3082 230.191 72.6317C223.995 72.0485 218.073 73.1347 212.303 75.2342C206.025 77.5204 200.433 81.0181 195.22 85.1485C194.47 85.7434 194.211 86.3951 194.375 87.2918C194.584 88.4377 194.749 89.5925 194.978 90.7355C195.069 91.1133 195.22 91.4738 195.428 91.8028C195.76 92.367 196.071 92.351 196.336 91.7736C196.471 91.4615 196.579 91.1381 196.657 90.807C197.696 86.6488 200.492 84.0375 204.235 82.2982C205.487 81.715 206.771 81.1566 208.13 80.8708L208.329 81.1624C208.013 81.489 207.691 81.8068 207.387 82.1422C206.219 83.4383 204.965 84.6747 203.91 86.0612C202.916 87.3661 202.192 88.8518 202.177 90.7268C203.071 90.4847 203.375 89.8432 203.702 89.3009C205.683 86.0204 208.447 83.5316 211.614 81.4627C215.595 78.8632 219.964 77.3877 224.713 76.9226C229.339 76.4706 233.856 76.8628 238.233 78.4024C241.91 79.6942 245.161 81.6844 247.724 84.6893C249.984 87.337 251.082 90.4498 251.52 93.8469C251.603 94.5029 251.642 95.159 251.717 95.9872C251.009 95.6548 251.053 95.0963 250.867 94.6925C250.095 93.0202 249.487 91.2546 248.563 89.6727C245.634 84.6645 241.096 81.9818 235.436 81.2163C229.107 80.3649 223.155 81.6698 217.593 84.7767C213.358 87.1387 210.345 90.5839 208.394 94.9972C207.276 97.5312 206.204 100.084 204.991 102.579C204.034 104.613 202.597 106.385 200.803 107.743C198.456 109.492 195.996 109.656 193.411 108.309C189.872 106.463 187.916 102.399 188.485 98.0765C188.876 95.0993 189.876 92.3262 191.297 89.6945C191.709 88.932 192.144 88.1811 192.44 87.2699C192.061 87.5236 191.649 87.7408 191.307 88.0368C188.365 90.5795 185.43 93.131 182.503 95.6912C173.641 103.395 164.366 110.554 154.086 116.288C145.628 121.006 136.712 124.583 127.075 126.143C117.165 127.746 107.407 127.079 97.7474 124.402C92.1992 122.864 86.8963 120.681 81.5904 118.49C76.6861 116.465 71.722 114.616 66.5213 113.474C62.455 112.58 58.345 112.2 54.2101 112.713C51.0287 113.108 48.0779 114.206 45.4732 116.131C45.1213 116.39 44.768 116.65 44.4059 116.895C44.3402 116.938 44.2278 116.914 43.9942 116.931C44.1402 116.591 44.2292 116.287 44.3957 116.034C47.9728 110.624 52.8917 107.287 59.3977 106.502C64.1093 105.936 68.742 106.525 73.2083 108.033C76.4292 109.119 79.5639 110.461 82.7366 111.69C83.1746 111.856 83.5936 112.034 84.1368 111.993C83.7776 111.69 83.4257 111.378 83.0593 111.085C75.3341 104.933 68.4296 98.0152 62.7222 89.9132C60.1496 86.2683 57.3857 82.7341 54.546 79.286C51.8944 76.0351 48.6861 73.28 45.0702 71.149C36.5859 66.1845 25.9772 67.6309 19.242 74.7167C16.8884 77.1952 15.5743 80.1783 15.0589 83.5331C14.7971 85.2136 14.7877 86.9236 15.0312 88.6069C15.7451 93.5815 19.9194 98.3331 24.7785 99.5315C26.4721 99.95 28.1716 99.794 29.8054 99.205C32.4466 98.2529 34.3433 96.4348 35.6456 93.9854C35.7697 93.7506 35.8106 93.4736 35.9887 92.9006C35.5916 93.2272 35.4354 93.3205 35.3244 93.4517C33.1854 95.9916 30.4566 97.0121 27.2416 96.2686C24.0265 95.525 21.87 93.3745 20.8013 90.2821C19.5529 86.659 21.7416 82.2719 25.4734 80.6929C28.5177 79.4026 31.4597 79.6825 34.279 81.3665C40.3309 84.975 42.0173 92.768 37.8313 98.6115C34.6061 103.118 30.0828 105.054 24.5332 104.589C17.0417 103.968 9.50051 97.8301 8.23027 88.3838C7.30168 81.4817 9.1866 75.345 13.7945 70.159C19.88 63.3196 27.6854 60.8192 36.6647 61.7289C43.6248 62.4288 49.3891 65.7559 54.5343 70.2683C56.717 72.1827 58.764 74.2516 61.0315 76.4006ZM160.145 101.386C160.204 101.487 160.262 101.589 160.319 101.691L164.079 99.2895L163.914 99.0344L160.145 101.386Z" fill="white"/>
</g>
<path d="M298.776 63.5859C298.776 59.8078 299.761 54.9156 301.73 48.9094C303.7 42.8708 306.122 36.7273 308.996 30.4789C310.449 27.3143 311.854 24.3516 313.21 21.5906C314.583 18.8135 315.923 16.2141 317.23 13.7922C318.619 11.7255 319.313 10.0383 319.313 8.73047C319.313 8.2138 318.619 7.81823 317.23 7.54375H315.245C312.807 7.54375 311.588 8.13307 311.588 9.31172C311.588 10.7648 312.742 12.3552 315.051 14.0828L312.169 19.1445C310.619 18.2081 309.214 17.2555 307.955 16.2867C306.711 15.3018 305.581 14.3008 304.564 13.2836C302.562 11.2654 301.561 9.35209 301.561 7.54375C301.561 5.68698 302.376 4.44375 304.007 3.81406C305.622 3.18438 307.947 2.86953 310.982 2.86953H345.905C347.165 2.86953 348.319 2.90183 349.369 2.96641C350.418 3.01485 351.363 3.09558 352.202 3.2086C353.865 3.41849 355.335 4.04011 356.61 5.07344C357.87 6.07448 358.564 7.62448 358.693 9.72344C358.693 11.2089 358.257 12.5893 357.385 13.8648C356.497 15.1727 355.448 16.3029 354.237 17.2555C353.623 17.7398 352.961 18.2242 352.251 18.7086C351.54 19.193 350.773 19.6693 349.95 20.1375C349.127 20.6057 348.36 21.0497 347.649 21.4695C346.955 21.8732 346.309 22.2526 345.712 22.6078L321.299 37.4055C317.392 39.6174 314.316 41.894 312.072 44.2352C309.828 46.544 308.705 49.426 308.705 52.8813C308.705 56.9016 309.925 58.9117 312.363 58.9117C313.041 58.9117 313.646 58.7826 314.179 58.5242C314.712 58.2659 315.002 58.1367 315.051 58.1367C315.309 58.1367 315.438 58.2659 315.438 58.5242C315.374 58.7341 315.309 58.9521 315.245 59.1781C315.18 59.388 315.115 59.5979 315.051 59.8078C315.051 60.2438 315.067 60.6958 315.099 61.1641C315.132 61.6323 315.18 62.1247 315.245 62.6414C315.309 63.1581 315.358 63.6344 315.39 64.0703C315.422 64.5063 315.438 64.9099 315.438 65.2813C315.438 71.4974 312.661 74.6055 307.107 74.6055C301.553 74.6055 298.776 70.9323 298.776 63.5859ZM332.513 22.3172C332.383 21.849 332.222 21.2596 332.028 20.5492C331.834 19.8227 331.616 18.975 331.374 18.0063C331.148 17.0375 330.938 16.206 330.745 15.5117C330.551 14.8174 330.381 14.2443 330.236 13.7922C329.477 11.5318 328.347 10.4016 326.845 10.4016C325.425 10.4016 323.511 12.6216 321.105 17.0617C320.783 17.6753 320.435 18.3776 320.064 19.1688C319.709 19.9438 319.321 20.8156 318.902 21.7844C318.482 22.7531 318.022 23.843 317.521 25.0539C317.021 26.2487 316.464 27.5888 315.85 29.0742C315.253 30.5435 314.696 31.9078 314.179 33.1672C313.662 34.4104 313.194 35.5568 312.774 36.6063L312.968 36.8L338.567 21.3242C339.633 20.6945 340.545 20.1375 341.304 19.6531C342.079 19.1688 342.717 18.7651 343.217 18.4422C343.718 18.1031 344.21 17.7076 344.695 17.2555C345.195 16.7872 345.679 16.2625 346.148 15.6813C347.1 14.4865 347.577 13.1948 347.577 11.8063C347.577 10.8698 347.359 10.0221 346.923 9.26328C346.503 8.50443 345.833 8.125 344.913 8.125C343.395 8.125 342.636 9.0211 342.636 10.8133C342.636 12.3633 342.862 13.9133 343.314 15.4633C341.7 16.6742 339.996 17.8529 338.204 18.9992C336.428 20.1294 334.531 21.2354 332.513 22.3172ZM339.851 57.9188L334.692 31.7383L345.3 25.393L351.645 55.0609C352.517 59.1458 353.381 62.0198 354.237 63.6828C354.56 64.3448 355.004 64.9018 355.569 65.3539C355.876 65.5799 356.207 65.806 356.562 66.032C356.933 66.2581 357.329 66.4841 357.748 66.7102C358.184 66.9201 358.572 67.1138 358.911 67.2914C359.25 67.469 359.541 67.6224 359.783 67.7516C362.172 69.5599 363.367 70.8839 363.367 71.7234C363.367 72.676 362.673 73.3945 361.284 73.8789C359.896 74.3633 358.37 74.6055 356.707 74.6055C356.239 74.6055 355.674 74.5812 355.012 74.5328C354.366 74.4844 353.631 74.4036 352.808 74.2906C351.161 74.0969 349.748 74 348.57 74C347.133 74 345.486 74.0969 343.629 74.2906C342.692 74.4036 341.877 74.4844 341.183 74.5328C340.505 74.5812 339.932 74.6055 339.463 74.6055C337.978 74.6055 336.573 74.3229 335.249 73.7578C333.958 73.1766 333.312 72.563 333.312 71.9172C333.425 70.8354 334.184 69.7779 335.588 68.7445C335.717 68.6477 335.944 68.5104 336.266 68.3328C336.589 68.1391 337.009 67.9049 337.526 67.6305C338.591 67.0815 339.407 66.5648 339.972 66.0805C340.553 65.5961 340.844 65.0633 340.844 64.482C340.844 64.0622 340.755 63.3115 340.577 62.2297C340.416 61.1479 340.174 59.7109 339.851 57.9188ZM370.439 29.6555C370.439 26.8461 371.941 24.9167 374.944 23.8672C377.931 22.8339 381.192 22.3172 384.728 22.3172H404.854C410.941 22.3172 413.984 24.1013 413.984 27.6695C413.984 28.3315 413.863 28.937 413.621 29.4859C413.395 30.0349 413.064 30.5031 412.628 30.8906C412.192 31.2781 411.659 31.5849 411.03 31.8109C410.4 32.0208 409.698 32.1258 408.923 32.1258C406.113 32.1258 404.531 31.3023 404.176 29.6555C404.176 29.0258 404.111 28.501 403.982 28.0813C403.578 27.6776 402.916 27.4758 401.996 27.4758H391.776C387.61 27.4758 385.527 28.4042 385.527 30.2609C385.527 31.3266 386.302 32.2307 387.852 32.9734C388.644 33.3448 389.733 33.813 391.122 34.3781C392.51 34.9432 394.214 35.5971 396.232 36.3398C400.236 37.8091 403.247 39.1169 405.266 40.2633C409.318 42.556 412.378 45.0747 414.445 47.8195C416.495 50.5482 417.569 53.9872 417.666 58.1367C417.666 61.2367 417.06 64.0461 415.849 66.5648C414.671 69.0674 412.999 71.0372 410.836 72.4742C408.721 73.8951 406.364 74.6055 403.764 74.6055C403.199 74.6055 402.456 74.5732 401.536 74.5086C400.616 74.4602 399.51 74.3794 398.218 74.2664C396.926 74.1534 395.748 74.0565 394.682 73.9758C393.616 73.8951 392.648 73.8385 391.776 73.8063C391.162 73.8063 390.371 73.8385 389.402 73.9031C388.434 73.9677 387.271 74.0646 385.915 74.1937C384.575 74.3229 383.404 74.4198 382.403 74.4844C381.402 74.5651 380.554 74.6055 379.86 74.6055C378.165 74.6055 376.583 74.3471 375.113 73.8305C373.66 73.3138 372.393 72.5711 371.311 71.6023C370.229 70.6174 369.365 69.4388 368.72 68.0664C368.074 66.6779 367.719 65.1198 367.654 63.3922C367.654 62.0521 367.856 60.8896 368.259 59.9047C368.663 58.9036 369.236 57.9026 369.979 56.9016C370.35 56.401 370.665 55.957 370.923 55.5695C371.198 55.1659 371.424 54.8107 371.602 54.5039C371.957 53.9065 372.134 53.1638 372.134 52.2758C372.134 51.5654 371.9 50.7419 371.432 49.8055C372.788 49.4018 374.241 49.2 375.791 49.2C377.616 49.2 379.247 49.9185 380.684 51.3555C382.121 52.7924 382.839 54.5201 382.839 56.5383C382.839 58.5727 383.703 59.8966 385.43 60.5102C387.158 61.1076 389.338 61.4063 391.97 61.4063C394.714 61.4063 397.169 60.9461 399.332 60.0258C401.496 59.0732 402.577 57.4182 402.577 55.0609C402.577 52.7521 400.955 50.4674 397.709 48.207C396.595 47.4966 395.425 46.8427 394.198 46.2453C393.584 45.9224 392.753 45.5107 391.703 45.0102C390.654 44.5096 389.386 43.8961 387.901 43.1695C386.415 42.443 385.019 41.7648 383.711 41.1352C382.419 40.4893 381.2 39.8677 380.054 39.2703C376.809 37.5911 374.387 36.0734 372.788 34.7172C371.222 33.3609 370.439 31.6737 370.439 29.6555ZM424.786 29.6555C424.786 26.8461 426.288 24.9167 429.291 23.8672C432.278 22.8339 435.539 22.3172 439.075 22.3172H459.201C465.288 22.3172 468.331 24.1013 468.331 27.6695C468.331 28.3315 468.21 28.937 467.968 29.4859C467.742 30.0349 467.411 30.5031 466.975 30.8906C466.539 31.2781 466.006 31.5849 465.377 31.8109C464.747 32.0208 464.045 32.1258 463.27 32.1258C460.46 32.1258 458.878 31.3023 458.523 29.6555C458.523 29.0258 458.458 28.501 458.329 28.0813C457.925 27.6776 457.263 27.4758 456.343 27.4758H446.123C441.957 27.4758 439.874 28.4042 439.874 30.2609C439.874 31.3266 440.649 32.2307 442.199 32.9734C442.99 33.3448 444.08 33.813 445.469 34.3781C446.857 34.9432 448.561 35.5971 450.579 36.3398C454.583 37.8091 457.594 39.1169 459.613 40.2633C463.665 42.556 466.725 45.0747 468.791 47.8195C470.842 50.5482 471.916 53.9872 472.013 58.1367C472.013 61.2367 471.407 64.0461 470.196 66.5648C469.017 69.0674 467.346 71.0372 465.183 72.4742C463.068 73.8951 460.71 74.6055 458.111 74.6055C457.546 74.6055 456.803 74.5732 455.883 74.5086C454.963 74.4602 453.857 74.3794 452.565 74.2664C451.273 74.1534 450.095 74.0565 449.029 73.9758C447.963 73.8951 446.995 73.8385 446.123 73.8063C445.509 73.8063 444.718 73.8385 443.749 73.9031C442.78 73.9677 441.618 74.0646 440.262 74.1937C438.922 74.3229 437.751 74.4198 436.75 74.4844C435.749 74.5651 434.901 74.6055 434.207 74.6055C432.512 74.6055 430.929 74.3471 429.46 73.8305C428.007 73.3138 426.74 72.5711 425.658 71.6023C424.576 70.6174 423.712 69.4388 423.066 68.0664C422.421 66.6779 422.065 65.1198 422.001 63.3922C422.001 62.0521 422.203 60.8896 422.606 59.9047C423.01 58.9036 423.583 57.9026 424.326 56.9016C424.697 56.401 425.012 55.957 425.27 55.5695C425.545 55.1659 425.771 54.8107 425.948 54.5039C426.304 53.9065 426.481 53.1638 426.481 52.2758C426.481 51.5654 426.247 50.7419 425.779 49.8055C427.135 49.4018 428.588 49.2 430.138 49.2C431.963 49.2 433.594 49.9185 435.03 51.3555C436.467 52.7924 437.186 54.5201 437.186 56.5383C437.186 58.5727 438.05 59.8966 439.777 60.5102C441.505 61.1076 443.685 61.4063 446.316 61.4063C449.061 61.4063 451.515 60.9461 453.679 60.0258C455.842 59.0732 456.924 57.4182 456.924 55.0609C456.924 52.7521 455.302 50.4674 452.056 48.207C450.942 47.4966 449.772 46.8427 448.545 46.2453C447.931 45.9224 447.1 45.5107 446.05 45.0102C445.001 44.5096 443.733 43.8961 442.248 43.1695C440.762 42.443 439.366 41.7648 438.058 41.1352C436.766 40.4893 435.547 39.8677 434.401 39.2703C431.155 37.5911 428.734 36.0734 427.135 34.7172C425.569 33.3609 424.786 31.6737 424.786 29.6555ZM476.227 47.2141C476.227 40.6266 477.583 35.2016 480.295 30.9391C484.526 24.4 491.436 21.1305 501.027 21.1305C508.438 21.1305 514.258 23.2456 518.488 27.4758C523.251 32.4326 525.633 39.0766 525.633 47.4078C525.633 50.3464 525.229 53.4302 524.422 56.6594C523.615 59.8724 522.396 62.8271 520.765 65.5234C519.134 68.2521 517.076 70.4479 514.589 72.1109C512.103 73.774 509.269 74.6055 506.088 74.6055C505.346 74.6055 504.506 74.5005 503.57 74.2906C502.601 74.0969 501.753 74 501.027 74C500.187 74 499.275 74.0969 498.29 74.2906C497.337 74.5005 496.691 74.6055 496.352 74.6055C491.977 74.6055 488.279 73.2169 485.26 70.4398C482.209 67.6466 479.94 64.151 478.455 59.9531C476.969 55.6906 476.227 51.4443 476.227 47.2141ZM487.73 42.443C487.73 45.1232 488.183 47.65 489.087 50.0234C489.975 52.3646 491.355 54.2375 493.228 55.6422C495.101 57.0307 497.402 57.725 500.13 57.725C509.382 57.725 514.008 52.2354 514.008 41.2563C514.024 38.9474 513.741 36.8646 513.16 35.0078C512.595 33.1349 511.772 31.5445 510.69 30.2367C509.608 28.9289 508.3 27.9279 506.766 27.2336C505.233 26.5232 503.513 26.176 501.608 26.1922C497.345 26.2891 493.971 27.7018 491.484 30.4305C488.982 33.1753 487.73 37.1794 487.73 42.443ZM529.677 50.9922C529.677 43.7589 531.034 37.8737 533.746 33.3367C538.251 25.7805 545.621 21.9055 555.858 21.7117C559.959 21.7117 563.898 22.406 567.677 23.7945C571.439 25.1831 573.32 28.2266 573.32 32.925C573.32 35.2661 572.351 37.244 570.413 38.8586C568.476 40.457 566.336 41.2563 563.995 41.2563C562.235 41.2563 560.548 40.6669 558.934 39.4883C558.869 39.4398 558.764 39.351 558.619 39.2219C558.473 39.0766 558.272 38.8909 558.013 38.6648C557.513 38.2128 557.125 37.8898 556.851 37.6961C556.576 37.5023 556.31 37.4055 556.052 37.4055C555.26 37.4055 554.8 37.7365 554.671 38.3984C553.541 37.9464 552.976 37.018 552.976 35.6133C552.976 34.6768 553.347 33.8615 554.09 33.1672C554.833 32.4729 555.753 32.1258 556.851 32.1258C557.448 32.1258 558.151 32.1984 558.958 32.3438C559.361 32.4083 559.709 32.4568 559.999 32.4891C560.306 32.5214 560.548 32.5375 560.726 32.5375C561.162 32.5375 561.549 32.3922 561.888 32.1016C562.227 31.7948 562.397 31.4073 562.397 30.9391C562.397 30.0995 561.703 29.276 560.314 28.4688C558.409 27.274 556.528 26.6766 554.671 26.6766C551.507 26.6766 548.859 27.5 546.727 29.1469C544.596 30.7938 543.038 32.9492 542.053 35.6133C541.068 38.2612 540.576 41.1029 540.576 44.1383C540.576 47.9326 541.012 50.9034 541.884 53.0508C542.772 55.182 544.128 56.8773 545.952 58.1367C548.988 59.9128 553.444 60.8008 559.321 60.8008C563.245 60.8008 566.288 60.1065 568.452 58.718C570.615 57.3133 571.971 55.5615 572.52 53.4625C573.925 53.7531 575.273 54.7461 576.565 56.4414C577.84 58.1206 578.478 59.7755 578.478 61.4063C578.204 65.249 576.88 68.4055 574.506 70.8758C572.117 73.3622 569.009 74.6055 565.182 74.6055C564.342 74.6055 563.487 74.5812 562.615 74.5328C561.759 74.4844 560.871 74.4036 559.951 74.2906C558.126 74.0969 556.697 74 555.664 74C554.905 74 553.509 74.0969 551.474 74.2906C550.457 74.4036 549.569 74.4844 548.81 74.5328C548.067 74.5812 547.438 74.6055 546.921 74.6055C543.321 74.6055 540.204 73.3784 537.573 70.9242C534.973 68.4862 533.003 65.4185 531.663 61.7211C530.339 58.056 529.677 54.4797 529.677 50.9922ZM587.318 65.6688V28.275C583.411 26.838 581.457 25.5464 581.457 24.4C581.457 23.0115 583.08 22.3172 586.325 22.3172H600.323C603.956 22.3172 605.773 22.9469 605.773 24.2063C605.773 25.9177 603.819 27.274 599.912 28.275V65.6688C599.912 66.2177 600.122 66.6375 600.541 66.9281C600.751 67.0573 601.034 67.2188 601.389 67.4125C601.76 67.6063 602.204 67.8161 602.721 68.0422C603.254 68.2682 603.706 68.4862 604.077 68.6961C604.465 68.8898 604.78 69.0997 605.022 69.3258C605.28 69.5357 605.466 69.7698 605.579 70.0281C605.708 70.2865 605.773 70.5852 605.773 70.9242C605.773 72.0221 604.901 72.8698 603.157 73.4672C601.413 74.0807 599.871 74.3875 598.531 74.3875C598.257 74.3875 597.934 74.3714 597.562 74.3391C597.191 74.3068 596.763 74.2583 596.279 74.1937C595.795 74.1292 595.334 74.0807 594.898 74.0484C594.462 74.0161 594.051 74 593.663 74C593.357 74 593.017 74.0161 592.646 74.0484C592.291 74.0807 591.903 74.1292 591.484 74.1937C591.064 74.2583 590.652 74.3068 590.248 74.3391C589.861 74.3714 589.482 74.3875 589.11 74.3875C587.673 74.3875 586.034 74.0807 584.194 73.4672C582.369 72.8536 581.457 72.006 581.457 70.9242C581.457 70.1492 581.804 69.5357 582.498 69.0836C582.854 68.8576 583.298 68.5911 583.83 68.2844C584.363 67.9615 585.001 67.6143 585.744 67.243C586.793 66.7263 587.318 66.2016 587.318 65.6688ZM586.325 10.6195C586.325 7.50339 588.771 5.94531 593.663 5.94531C598.491 5.94531 600.905 7.50339 600.905 10.6195C600.905 13.7195 598.426 15.2695 593.47 15.2695C588.707 15.2695 586.325 13.7195 586.325 10.6195ZM609.091 59.6141C609.091 56.9823 609.745 54.5846 611.052 52.4211C612.36 50.2737 614.023 48.4089 616.041 46.8266C618.076 45.2604 620.207 43.9042 622.435 42.7578C623.565 42.1927 624.792 41.6034 626.116 40.9898C627.44 40.3763 628.877 39.7385 630.427 39.0766C631.299 38.7536 632.002 38.4953 632.534 38.3016C633.067 38.0917 633.422 37.9464 633.6 37.8656C633.971 37.6719 634.205 37.3813 634.302 36.9938C634.302 36.3318 633.77 36.0008 632.704 36.0008C631.461 36.0008 629.62 36.2349 627.182 36.7031C625.971 36.9292 624.93 37.1068 624.058 37.2359C623.186 37.349 622.467 37.4055 621.902 37.4055C619.303 37.4055 616.954 36.7677 614.855 35.4922C612.74 34.2005 611.682 32.3841 611.682 30.043C611.682 27.4273 612.925 25.4898 615.412 24.2305C617.898 22.9549 620.651 22.3172 623.67 22.3172C624.51 22.3172 625.963 22.3656 628.03 22.4625C630.08 22.5594 631.638 22.6078 632.704 22.6078C634.092 22.6078 636.304 22.5594 639.34 22.4625C642.359 22.3656 644.345 22.3172 645.298 22.3172C650.464 22.3172 654.041 23.8349 656.027 26.8703C657.673 29.4214 658.497 34.3539 658.497 41.668V66.2742C661.339 68.1956 662.759 69.681 662.759 70.7305C662.63 72.0383 660.782 73.1927 657.213 74.1937C656.341 74.3229 655.405 74.4198 654.404 74.4844C653.403 74.5651 652.321 74.6055 651.159 74.6055C650.642 74.6055 649.907 74.557 648.955 74.4602C648.002 74.3633 646.84 74.2099 645.467 74C644.095 73.7901 642.884 73.6367 641.834 73.5398C640.785 73.443 639.889 73.3945 639.146 73.3945C638.403 73.3945 637.475 73.443 636.361 73.5398C635.263 73.6367 633.971 73.7901 632.486 74C631.017 74.2099 629.717 74.3633 628.587 74.4602C627.473 74.557 626.528 74.6055 625.753 74.6055C622.831 74.6055 620.086 74 617.519 72.7891C614.935 71.5458 612.885 69.794 611.367 67.5336C609.849 65.2732 609.091 62.6333 609.091 59.6141ZM645.104 58.718V36.1945C645.104 33.0784 644.103 30.713 642.101 29.0984C640.099 27.4839 637.499 26.6766 634.302 26.6766C631.638 26.6766 629.386 26.943 627.545 27.4758C625.188 27.8794 623.896 28.8724 623.67 30.4547C623.67 31.9724 625.164 32.7313 628.151 32.7313C628.764 32.7313 629.531 32.6909 630.452 32.6102C631.372 32.5294 632.462 32.4083 633.721 32.2469C636.24 31.9078 637.854 31.7383 638.565 31.7383C641.536 31.7383 643.021 32.7635 643.021 34.8141C643.021 35.8474 642.577 36.7758 641.689 37.5992C640.801 38.4065 639.622 39.1977 638.153 39.9727C637.41 40.3602 636.668 40.7477 635.925 41.1352C635.182 41.5065 634.44 41.8779 633.697 42.2492C630.758 43.6862 628.449 45.2281 626.77 46.875C625.107 48.4896 624.276 50.6208 624.276 53.2688C624.276 55.8359 625.107 57.7331 626.77 58.9602C628.433 60.1872 630.613 60.8008 633.309 60.8008C634.989 60.8008 637.047 60.4536 639.485 59.7594C641.955 59.0651 643.828 58.718 645.104 58.718ZM671.987 65.475V30.2609C671.987 29.5667 671.292 29.0339 669.904 28.6625C667.983 27.7099 667.022 26.7492 667.022 25.7805C667.022 24.4565 668.612 23.7945 671.793 23.7945V21.3242C671.793 19.419 671.228 18.2646 670.098 17.8609C669.436 17.6672 668.976 17.4734 668.717 17.2797C668.443 17.0859 668.305 16.6823 668.305 16.0688C668.305 15.5521 669.169 14.8578 670.897 13.9859C672.479 13.2109 673.86 12.5247 675.038 11.9273C676.233 11.3138 677.242 10.7729 678.066 10.3047C679.713 9.36823 681.254 8.18151 682.691 6.74453C683.822 6.01797 684.451 5.65469 684.58 5.65469C685.63 5.65469 686.155 6.08255 686.155 6.93828C686.155 7.53568 685.921 8.39141 685.452 9.50547C685 10.5711 684.774 11.4672 684.774 12.1938V24.5938C685.921 24.5938 687.261 24.4 688.795 24.0125C690.296 23.6089 691.467 23.407 692.306 23.407C693.679 23.407 694.768 23.7138 695.576 24.3273C696.383 24.9247 696.787 25.7078 696.787 26.6766C696.787 27.7745 696.504 29.0096 695.939 30.382C695.374 31.7544 695.091 32.8685 695.091 33.7242C695.091 35.5326 695.657 36.9534 696.787 37.9867C696.157 39.5044 694.599 40.2633 692.113 40.2633C690.449 40.2633 689.174 39.674 688.286 38.4953C687.398 37.3167 686.954 35.8555 686.954 34.1117C686.954 33.7404 687.018 33.1833 687.148 32.4406C687.293 31.7464 687.366 31.2458 687.366 30.9391C687.366 30.6161 687.099 30.4547 686.566 30.4547C685.565 30.4547 684.968 30.5516 684.774 30.7453V65.6688C684.774 66.1854 684.992 66.6133 685.428 66.9523C685.88 67.2914 686.574 67.6789 687.511 68.1148C688.48 68.5508 689.206 68.9706 689.691 69.3742C690.191 69.7617 690.441 70.2784 690.441 70.9242C690.441 71.7477 689.545 72.5065 687.753 73.2008C686.219 73.9919 684.734 74.3875 683.297 74.3875C683.087 74.3875 682.796 74.3714 682.425 74.3391C682.07 74.3068 681.634 74.2583 681.117 74.1937C680.601 74.1292 680.116 74.0807 679.664 74.0484C679.212 74.0161 678.8 74 678.429 74C678.106 74 677.743 74.0161 677.339 74.0484C676.935 74.0807 676.475 74.1292 675.959 74.1937C675.442 74.2583 674.998 74.3068 674.627 74.3391C674.271 74.3714 673.981 74.3875 673.755 74.3875C672.366 74.3875 670.768 74.0484 668.959 73.3703C667.135 72.6922 666.223 71.8122 666.223 70.7305C666.223 70.2138 666.505 69.7375 667.07 69.3016C667.603 68.8818 668.394 68.3974 669.444 67.8484C670.493 67.2995 671.139 66.9039 671.381 66.6617C671.478 66.581 671.559 66.5164 671.623 66.468C671.704 66.4195 671.769 66.363 671.817 66.2984C671.866 66.2177 671.906 66.1208 671.938 66.0078C671.971 65.8786 671.987 65.701 671.987 65.475ZM699.62 50.9922C699.62 46.2453 700.42 41.676 702.018 37.2844C703.649 32.8604 706.127 29.268 709.453 26.507C712.811 23.7138 716.904 22.3172 721.732 22.3172H735.924C739.008 22.3172 741.737 22.8096 744.11 23.7945C746.516 24.7633 747.719 26.5878 747.719 29.268C747.719 30.1883 747.606 31.0521 747.38 31.8594C747.154 32.6505 746.839 33.4013 746.435 34.1117C746.032 34.806 745.547 35.4599 744.982 36.0734C744.433 36.6708 743.82 37.2198 743.141 37.7203C741.817 38.7375 740.372 39.6659 738.806 40.5055C737.256 41.3289 735.569 42.2089 733.745 43.1453C732.098 43.9365 730.62 44.6711 729.312 45.3492C728.021 46.0112 726.883 46.6247 725.898 47.1898C723.896 48.3201 722.071 49.7732 720.424 51.5492C718.761 53.3253 717.712 55.4484 717.276 57.9188C720.844 59.8401 724.84 60.8008 729.264 60.8008C733.171 60.8008 736.231 60.0581 738.443 58.5727C740.655 57.1034 741.995 55.4 742.463 53.4625C744.046 53.9146 745.442 54.9641 746.653 56.6109C747.832 58.2255 748.421 59.8885 748.421 61.6C748.421 63.8766 747.824 66.024 746.629 68.0422C745.434 70.0443 743.852 71.6346 741.882 72.8133C739.912 74.0081 737.797 74.6055 735.537 74.6055C734.681 74.6055 733.793 74.5812 732.873 74.5328C731.968 74.4844 731.016 74.4036 730.015 74.2906C728.045 74.0969 726.576 74 725.607 74C724.816 74 723.468 74.0969 721.562 74.2906C720.594 74.4036 719.706 74.4844 718.898 74.5328C718.091 74.5812 717.348 74.6055 716.67 74.6055C714.491 74.6055 712.351 73.9677 710.252 72.6922C708.137 71.4005 706.28 69.6568 704.682 67.4609C701.308 62.8271 699.62 57.3375 699.62 50.9922ZM712.602 54.2617C713.829 50.9357 715.564 48.2555 717.809 46.2211C720.037 44.2352 722.765 42.451 725.995 40.8688C729.53 38.9958 731.896 37.5911 733.091 36.6547C734.318 35.7182 734.931 34.3458 734.931 32.5375C734.931 29.163 731.621 27.4758 725.002 27.4758C719.237 27.4758 715.379 29.0339 713.425 32.15C711.487 35.2823 710.519 39.1492 710.519 43.7508C710.519 48.4492 711.213 51.9529 712.602 54.2617ZM751.957 48.0133C751.957 43.7992 752.821 39.6013 754.548 35.4195C756.26 31.2701 758.754 27.8471 762.032 25.1508C765.294 22.4706 769.112 21.1305 773.488 21.1305C775.764 21.1305 778.234 21.631 780.898 22.632C782.222 23.1326 783.522 23.6331 784.798 24.1336C786.073 24.618 787.324 25.1023 788.552 25.5867V12.3875C788.552 11.2896 787.938 10.4419 786.711 9.84453C786.097 9.53776 785.484 9.23099 784.87 8.92422C784.273 8.61745 783.667 8.31068 783.054 8.00391C781.827 7.40651 781.213 6.55886 781.213 5.46094C781.213 3.73334 782.206 2.86953 784.192 2.86953H797.295C798.554 2.86953 799.507 3.24896 800.152 4.00781C800.814 4.75052 801.145 5.72735 801.145 6.93828V65.2813C805.585 67.7354 807.805 69.4872 807.805 70.5367C807.805 72.8456 804.762 74 798.675 74C796.899 74 794.534 73.9031 791.579 73.7094C790.094 73.5964 788.842 73.5156 787.825 73.4672C786.824 73.4188 786.041 73.3945 785.476 73.3945C784.652 73.3945 783.74 73.443 782.739 73.5398C781.738 73.6367 780.632 73.7901 779.421 74C778.21 74.2099 777.161 74.3633 776.273 74.4602C775.385 74.557 774.65 74.6055 774.069 74.6055C768.902 74.6055 764.656 73.3542 761.33 70.8516C758.036 68.349 755.646 65.0794 754.161 61.043C752.692 57.0227 751.957 52.6794 751.957 48.0133ZM788.552 31.7383C787.518 31.5445 786.267 30.9875 784.798 30.0672C783.28 29.1307 781.972 28.4365 780.874 27.9844C779.744 27.5161 778.234 27.282 776.345 27.282C773.278 27.282 770.815 28.275 768.959 30.2609C767.118 32.2146 765.818 34.5799 765.059 37.357C764.317 40.0695 763.945 42.6609 763.945 45.1313C763.945 47.0526 764.26 49.1516 764.89 51.4281C765.52 53.6885 766.504 55.626 767.845 57.2406C769.201 58.8229 770.88 59.6141 772.882 59.6141H783.393C784.652 59.6141 785.831 59.2266 786.929 58.4516C788.011 57.6604 788.552 56.6271 788.552 55.3516V31.7383ZM308.754 133.675C308.754 127.491 309.924 121.445 312.266 115.535C314.607 109.61 318.094 104.758 322.728 100.98C327.346 97.1854 332.868 95.2883 339.294 95.2883C343.734 95.2883 347.698 95.9745 351.185 97.3469C354.737 98.7354 357.482 100.657 359.42 103.111C361.405 105.565 362.398 108.374 362.398 111.539C362.431 113.477 362.092 115.253 361.381 116.867C360.671 118.466 359.686 119.838 358.427 120.984C357.183 122.131 355.714 123.019 354.019 123.648C352.34 124.262 350.539 124.561 348.618 124.545C343.839 124.545 340.238 122.76 337.816 119.192C337.51 118.563 337.267 117.965 337.09 117.4C336.912 116.819 336.767 116.262 336.654 115.729C336.541 115.18 336.452 114.647 336.388 114.13C336.339 113.598 336.283 113.065 336.218 112.532C335.847 111.273 335.152 110.643 334.135 110.643C333.409 110.643 332.948 111.079 332.755 111.951C332.819 112.08 332.884 112.274 332.948 112.532C333.013 112.79 333.078 112.992 333.142 113.138C332.658 113.799 331.834 114.13 330.672 114.13C328.282 114.13 327.088 112.839 327.088 110.255C327.088 108.835 327.636 107.672 328.734 106.768C329.848 105.848 331.124 105.388 332.561 105.388C333.82 105.388 334.87 105.662 335.709 106.211C336.145 106.485 336.605 106.824 337.09 107.228C337.59 107.632 338.123 108.108 338.688 108.657C339.253 109.206 339.77 109.674 340.238 110.062C340.707 110.449 341.134 110.772 341.522 111.03C342.297 111.515 343.241 111.757 344.355 111.757C345.679 111.757 346.785 111.337 347.673 110.498C348.561 109.658 349.005 108.488 349.005 106.986C349.005 104.919 348.126 103.232 346.366 101.924C344.638 100.6 341.982 99.9383 338.398 99.9383C334.071 99.9383 330.365 101.262 327.281 103.91C324.197 106.558 321.897 109.916 320.379 113.985C318.845 118.102 318.078 122.22 318.078 126.337C318.078 131.81 319.313 136.63 321.784 140.795C324.254 144.945 327.491 148.134 331.495 150.362C335.516 152.59 339.738 153.736 344.162 153.801C347.795 153.801 351.435 153.107 355.084 151.718C358.717 150.313 361.026 147.738 362.011 143.992C365.127 144.493 366.685 147.334 366.685 152.517C366.685 155.488 365.692 158.023 363.706 160.122C361.736 162.221 359.218 163.852 356.15 165.014C351.888 166.742 346.995 167.605 341.473 167.605C332.206 167.605 324.633 164.828 318.756 159.274C317.222 157.821 315.834 156.198 314.591 154.406C313.364 152.614 312.314 150.652 311.442 148.521C310.586 146.374 309.924 144.065 309.456 141.595C308.988 139.108 308.754 136.468 308.754 133.675ZM370.584 143.992C370.584 139.245 371.384 134.676 372.982 130.284C374.613 125.86 377.091 122.268 380.417 119.507C383.776 116.714 387.868 115.317 392.696 115.317H406.888C409.972 115.317 412.701 115.81 415.074 116.795C417.48 117.763 418.683 119.588 418.683 122.268C418.683 123.188 418.57 124.052 418.344 124.859C418.118 125.651 417.803 126.401 417.399 127.112C416.996 127.806 416.511 128.46 415.946 129.073C415.397 129.671 414.784 130.22 414.105 130.72C412.782 131.738 411.336 132.666 409.77 133.505C408.22 134.329 406.533 135.209 404.709 136.145C403.062 136.936 401.584 137.671 400.277 138.349C398.985 139.011 397.847 139.625 396.862 140.19C394.86 141.32 393.035 142.773 391.388 144.549C389.725 146.325 388.676 148.448 388.24 150.919C391.808 152.84 395.804 153.801 400.228 153.801C404.135 153.801 407.195 153.058 409.407 151.573C411.619 150.103 412.959 148.4 413.427 146.463C415.01 146.915 416.406 147.964 417.617 149.611C418.796 151.226 419.385 152.889 419.385 154.6C419.385 156.877 418.788 159.024 417.593 161.042C416.398 163.044 414.816 164.635 412.846 165.813C410.876 167.008 408.761 167.605 406.501 167.605C405.645 167.605 404.757 167.581 403.837 167.533C402.933 167.484 401.98 167.404 400.979 167.291C399.009 167.097 397.54 167 396.571 167C395.78 167 394.432 167.097 392.527 167.291C391.558 167.404 390.67 167.484 389.863 167.533C389.055 167.581 388.313 167.605 387.634 167.605C385.455 167.605 383.315 166.968 381.216 165.692C379.101 164.401 377.245 162.657 375.646 160.461C372.272 155.827 370.584 150.338 370.584 143.992ZM383.566 147.262C384.793 143.936 386.528 141.255 388.773 139.221C391.001 137.235 393.729 135.451 396.959 133.869C400.495 131.996 402.86 130.591 404.055 129.655C405.282 128.718 405.895 127.346 405.895 125.538C405.895 122.163 402.585 120.476 395.966 120.476C390.202 120.476 386.343 122.034 384.389 125.15C382.452 128.282 381.483 132.149 381.483 136.751C381.483 141.449 382.177 144.953 383.566 147.262ZM429.17 158.475V103.62C429.17 102.877 428.943 102.288 428.491 101.852C428.039 101.416 427.402 101.012 426.578 100.641C425.755 100.253 425.133 99.8818 424.713 99.5266C424.31 99.1714 424.108 98.6789 424.108 98.0492C424.108 97.4518 424.35 96.9432 424.834 96.5234C425.319 96.0875 425.868 95.8695 426.481 95.8695H438.687C440.738 95.8695 441.763 96.6607 441.763 98.243V158.669C441.763 159.218 441.973 159.638 442.393 159.928C442.603 160.057 442.885 160.219 443.241 160.413C443.612 160.606 444.056 160.816 444.573 161.042C445.105 161.268 445.558 161.486 445.929 161.696C446.316 161.89 446.631 162.1 446.873 162.326C447.132 162.536 447.317 162.77 447.43 163.028C447.56 163.286 447.624 163.585 447.624 163.924C447.624 165.022 446.704 165.87 444.863 166.467C442.99 167.081 441.432 167.387 440.189 167.387C439.963 167.387 439.656 167.371 439.269 167.339C438.897 167.307 438.453 167.258 437.937 167.194C437.42 167.129 436.944 167.081 436.508 167.048C436.072 167.016 435.676 167 435.321 167C434.998 167 434.643 167.016 434.255 167.048C433.868 167.081 433.464 167.129 433.045 167.194C432.625 167.258 432.237 167.307 431.882 167.339C431.543 167.371 431.236 167.387 430.962 167.387C429.509 167.387 427.862 167.105 426.021 166.54C424.213 165.959 423.309 165.087 423.309 163.924C423.309 163.085 423.971 162.293 425.295 161.551C425.698 161.373 426.126 161.188 426.578 160.994C427.03 160.8 427.45 160.59 427.837 160.364C428.225 160.122 428.54 159.847 428.782 159.541C429.04 159.234 429.17 158.879 429.17 158.475ZM450.894 143.992C450.894 139.245 451.693 134.676 453.291 130.284C454.922 125.86 457.401 122.268 460.727 119.507C464.085 116.714 468.178 115.317 473.005 115.317H487.198C490.282 115.317 493.01 115.81 495.384 116.795C497.789 117.763 498.992 119.588 498.992 122.268C498.992 123.188 498.879 124.052 498.653 124.859C498.427 125.651 498.112 126.401 497.709 127.112C497.305 127.806 496.821 128.46 496.255 129.073C495.707 129.671 495.093 130.22 494.415 130.72C493.091 131.738 491.646 132.666 490.08 133.505C488.53 134.329 486.842 135.209 485.018 136.145C483.371 136.936 481.894 137.671 480.586 138.349C479.294 139.011 478.156 139.625 477.171 140.19C475.169 141.32 473.345 142.773 471.698 144.549C470.035 146.325 468.985 148.448 468.549 150.919C472.117 152.84 476.114 153.801 480.537 153.801C484.445 153.801 487.504 153.058 489.716 151.573C491.928 150.103 493.268 148.4 493.737 146.463C495.319 146.915 496.716 147.964 497.927 149.611C499.105 151.226 499.695 152.889 499.695 154.6C499.695 156.877 499.097 159.024 497.902 161.042C496.708 163.044 495.125 164.635 493.155 165.813C491.186 167.008 489.071 167.605 486.81 167.605C485.954 167.605 485.066 167.581 484.146 167.533C483.242 167.484 482.289 167.404 481.288 167.291C479.318 167.097 477.849 167 476.88 167C476.089 167 474.741 167.097 472.836 167.291C471.867 167.404 470.979 167.484 470.172 167.533C469.365 167.581 468.622 167.605 467.944 167.605C465.764 167.605 463.625 166.968 461.526 165.692C459.411 164.401 457.554 162.657 455.955 160.461C452.581 155.827 450.894 150.338 450.894 143.992ZM463.875 147.262C465.102 143.936 466.838 141.255 469.082 139.221C471.31 137.235 474.039 135.451 477.268 133.869C480.804 131.996 483.169 130.591 484.364 129.655C485.591 128.718 486.205 127.346 486.205 125.538C486.205 122.163 482.895 120.476 476.275 120.476C470.511 120.476 466.652 122.034 464.698 125.15C462.761 128.282 461.792 132.149 461.792 136.751C461.792 141.449 462.486 144.953 463.875 147.262ZM510.448 153.801V106.598C510.448 105.597 510.173 104.798 509.624 104.201C509.059 103.587 508.228 102.933 507.13 102.239C506.581 101.884 506.104 101.561 505.701 101.27C505.297 100.964 504.958 100.673 504.684 100.398C504.151 99.8495 503.884 99.131 503.884 98.243C503.884 97.4518 504.28 96.8625 505.071 96.475C505.862 96.0714 506.758 95.8695 507.759 95.8695H519.966C522.145 95.8695 523.235 96.7979 523.235 98.6547V117.788C524.543 117.788 526.69 117.279 529.677 116.262C532.664 115.228 535.046 114.712 536.822 114.712C541.44 114.712 545.46 116.052 548.883 118.732C552.338 121.412 554.986 124.892 556.827 129.17C558.683 133.481 559.62 137.824 559.636 142.2C559.636 146.285 558.885 150.273 557.384 154.164C555.914 158.023 553.646 161.236 550.578 163.803C547.559 166.338 543.87 167.605 539.51 167.605C538.832 167.605 538.089 167.581 537.282 167.533C536.475 167.484 535.579 167.404 534.594 167.291C532.656 167.097 531.219 167 530.283 167C529.088 167 527.619 167.097 525.875 167.291C525.003 167.404 524.22 167.484 523.526 167.533C522.848 167.581 522.25 167.605 521.734 167.605C517.229 167.605 514.121 166.047 512.409 162.931C511.102 160.784 510.448 157.74 510.448 153.801ZM548.035 138.93C548.035 136.848 547.793 134.773 547.309 132.706C546.84 130.623 546.122 128.71 545.153 126.966C544.669 126.095 544.104 125.303 543.458 124.593C542.828 123.866 542.11 123.245 541.302 122.728C540.511 122.195 539.639 121.792 538.687 121.517C537.75 121.227 536.733 121.081 535.635 121.081C534.57 121.081 533.577 121.235 532.656 121.541C532.188 121.687 531.679 121.872 531.13 122.098C530.582 122.308 530 122.551 529.387 122.825C528.144 123.39 527.038 123.842 526.069 124.181C525.116 124.504 524.172 124.69 523.235 124.738V144.888C523.235 147.601 523.502 149.546 524.034 150.725C524.826 152.388 526.577 153.22 529.29 153.22H538.808C544.959 153.22 548.035 148.457 548.035 138.93ZM568.645 158.475V123.939C568.645 123.116 568.427 122.446 567.991 121.929C567.572 121.396 566.926 120.855 566.054 120.306C565.182 119.725 564.569 119.273 564.213 118.95C563.842 118.579 563.6 118.062 563.487 117.4C563.487 116.464 563.794 115.882 564.407 115.656C565.053 115.43 565.965 115.317 567.144 115.317H583.031C583.645 115.317 584.17 115.325 584.605 115.341C585.058 115.358 585.421 115.382 585.695 115.414C586.357 115.834 586.688 116.431 586.688 117.206C586.688 117.868 586.47 118.393 586.034 118.78C585.615 119.152 584.969 119.572 584.097 120.04C583.225 120.492 582.563 120.928 582.111 121.348C581.659 121.751 581.433 122.252 581.433 122.849V123.939C582.498 123.648 584.153 122.551 586.398 120.645C587.528 119.677 588.521 118.853 589.377 118.175C590.232 117.497 590.943 116.956 591.508 116.552C592.67 115.729 594.043 115.317 595.625 115.317C596.481 115.301 597.304 115.422 598.095 115.68C598.886 115.923 599.621 116.278 600.299 116.746C600.977 117.214 601.591 117.771 602.14 118.417C602.705 119.047 603.181 119.741 603.569 120.5C603.972 121.243 604.271 122.034 604.465 122.873C604.675 123.697 604.772 124.52 604.755 125.344C604.755 128.557 604.029 131.229 602.576 133.36C601.107 135.508 598.919 137.364 596.013 138.93C594.963 139.286 594.301 139.552 594.027 139.73C593.865 139.73 593.671 139.891 593.445 140.214C593.704 140.472 593.833 140.674 593.833 140.82C593.413 140.949 593.082 141.013 592.84 141.013C590.66 141.013 589.57 139.988 589.57 137.938C589.57 137.631 589.595 137.34 589.643 137.066C589.691 136.791 589.764 136.517 589.861 136.242C589.958 135.952 590.079 135.653 590.224 135.346C590.37 135.039 590.539 134.7 590.733 134.329C591.12 133.554 591.419 132.852 591.629 132.222C591.839 131.592 591.944 130.914 591.944 130.188C591.944 128.977 591.597 128.097 590.902 127.548C590.208 126.999 589.433 126.724 588.577 126.724C588.028 126.724 586.834 127.071 584.993 127.766C583.152 128.46 581.966 128.807 581.433 128.807V158.669C581.433 159.218 581.635 159.638 582.038 159.928C582.248 160.057 582.531 160.219 582.886 160.413C583.241 160.606 583.669 160.816 584.17 161.042C584.67 161.268 585.106 161.486 585.477 161.696C585.849 161.89 586.155 162.1 586.398 162.326C586.64 162.536 586.817 162.77 586.93 163.028C587.044 163.286 587.1 163.585 587.1 163.924C587.1 164.941 586.228 165.773 584.484 166.419C582.789 167.065 581.279 167.387 579.955 167.387C579.633 167.387 579.269 167.363 578.866 167.315C578.478 167.283 578.066 167.242 577.63 167.194C577.195 167.145 576.759 167.097 576.323 167.048C575.887 167.016 575.475 167 575.088 167C574.765 167 574.401 167.016 573.998 167.048C573.594 167.081 573.158 167.129 572.69 167.194C572.222 167.258 571.81 167.307 571.455 167.339C571.116 167.371 570.841 167.387 570.631 167.387C569.114 167.387 567.434 167.105 565.594 166.54C563.785 165.959 562.881 165.087 562.881 163.924C562.881 163.02 563.446 162.293 564.577 161.745C564.706 161.664 565.198 161.414 566.054 160.994C566.926 160.574 567.572 160.186 567.991 159.831C568.427 159.46 568.645 159.008 568.645 158.475ZM612.748 158.669V121.275C608.84 119.838 606.887 118.546 606.887 117.4C606.887 116.011 608.509 115.317 611.755 115.317H625.753C629.386 115.317 631.202 115.947 631.202 117.206C631.202 118.918 629.249 120.274 625.341 121.275V158.669C625.341 159.218 625.551 159.638 625.971 159.928C626.181 160.057 626.464 160.219 626.819 160.413C627.19 160.606 627.634 160.816 628.151 161.042C628.684 161.268 629.136 161.486 629.507 161.696C629.895 161.89 630.209 162.1 630.452 162.326C630.71 162.536 630.896 162.77 631.009 163.028C631.138 163.286 631.202 163.585 631.202 163.924C631.202 165.022 630.33 165.87 628.587 166.467C626.843 167.081 625.301 167.387 623.961 167.387C623.686 167.387 623.364 167.371 622.992 167.339C622.621 167.307 622.193 167.258 621.709 167.194C621.224 167.129 620.764 167.081 620.328 167.048C619.892 167.016 619.48 167 619.093 167C618.786 167 618.447 167.016 618.076 167.048C617.721 167.081 617.333 167.129 616.913 167.194C616.493 167.258 616.082 167.307 615.678 167.339C615.291 167.371 614.911 167.387 614.54 167.387C613.103 167.387 611.464 167.081 609.623 166.467C607.799 165.854 606.887 165.006 606.887 163.924C606.887 163.149 607.234 162.536 607.928 162.084C608.283 161.858 608.727 161.591 609.26 161.284C609.793 160.961 610.431 160.614 611.173 160.243C612.223 159.726 612.748 159.202 612.748 158.669ZM611.755 103.62C611.755 100.503 614.201 98.9453 619.093 98.9453C623.921 98.9453 626.334 100.503 626.334 103.62C626.334 106.72 623.856 108.27 618.899 108.27C614.136 108.27 611.755 106.72 611.755 103.62ZM639.485 158.475V123.261C639.485 122.567 638.791 122.034 637.402 121.663C635.481 120.71 634.52 119.749 634.52 118.78C634.52 117.457 636.111 116.795 639.291 116.795V114.324C639.291 112.419 638.726 111.265 637.596 110.861C636.934 110.667 636.474 110.473 636.216 110.28C635.941 110.086 635.804 109.682 635.804 109.069C635.804 108.552 636.668 107.858 638.395 106.986C639.978 106.211 641.358 105.525 642.537 104.927C643.732 104.314 644.741 103.773 645.564 103.305C647.211 102.368 648.753 101.182 650.19 99.7445C651.32 99.018 651.95 98.6547 652.079 98.6547C653.128 98.6547 653.653 99.0826 653.653 99.9383C653.653 100.536 653.419 101.391 652.951 102.505C652.499 103.571 652.273 104.467 652.273 105.194V117.594C653.419 117.594 654.759 117.4 656.293 117.013C657.795 116.609 658.965 116.407 659.805 116.407C661.177 116.407 662.267 116.714 663.074 117.327C663.882 117.925 664.285 118.708 664.285 119.677C664.285 120.774 664.003 122.01 663.438 123.382C662.872 124.754 662.59 125.868 662.59 126.724C662.59 128.533 663.155 129.953 664.285 130.987C663.655 132.504 662.097 133.263 659.611 133.263C657.948 133.263 656.672 132.674 655.784 131.495C654.896 130.317 654.452 128.855 654.452 127.112C654.452 126.74 654.517 126.183 654.646 125.441C654.791 124.746 654.864 124.246 654.864 123.939C654.864 123.616 654.598 123.455 654.065 123.455C653.064 123.455 652.466 123.552 652.273 123.745V158.669C652.273 159.185 652.491 159.613 652.927 159.952C653.379 160.291 654.073 160.679 655.009 161.115C655.978 161.551 656.705 161.971 657.189 162.374C657.69 162.762 657.94 163.278 657.94 163.924C657.94 164.748 657.044 165.507 655.252 166.201C653.718 166.992 652.232 167.387 650.795 167.387C650.585 167.387 650.295 167.371 649.923 167.339C649.568 167.307 649.132 167.258 648.616 167.194C648.099 167.129 647.615 167.081 647.163 167.048C646.71 167.016 646.299 167 645.927 167C645.604 167 645.241 167.016 644.838 167.048C644.434 167.081 643.974 167.129 643.457 167.194C642.94 167.258 642.496 167.307 642.125 167.339C641.77 167.371 641.479 167.387 641.253 167.387C639.865 167.387 638.266 167.048 636.458 166.37C634.633 165.692 633.721 164.812 633.721 163.73C633.721 163.214 634.004 162.738 634.569 162.302C635.102 161.882 635.893 161.397 636.942 160.848C637.992 160.299 638.638 159.904 638.88 159.662C638.977 159.581 639.057 159.516 639.122 159.468C639.203 159.42 639.267 159.363 639.316 159.298C639.364 159.218 639.404 159.121 639.437 159.008C639.469 158.879 639.485 158.701 639.485 158.475ZM672.035 158.669V121.275C668.128 119.838 666.174 118.546 666.174 117.4C666.174 116.011 667.797 115.317 671.042 115.317H685.041C688.673 115.317 690.49 115.947 690.49 117.206C690.49 118.918 688.536 120.274 684.629 121.275V158.669C684.629 159.218 684.839 159.638 685.259 159.928C685.468 160.057 685.751 160.219 686.106 160.413C686.478 160.606 686.922 160.816 687.438 161.042C687.971 161.268 688.423 161.486 688.795 161.696C689.182 161.89 689.497 162.1 689.739 162.326C689.997 162.536 690.183 162.77 690.296 163.028C690.425 163.286 690.49 163.585 690.49 163.924C690.49 165.022 689.618 165.87 687.874 166.467C686.13 167.081 684.589 167.387 683.248 167.387C682.974 167.387 682.651 167.371 682.28 167.339C681.908 167.307 681.48 167.258 680.996 167.194C680.512 167.129 680.052 167.081 679.616 167.048C679.18 167.016 678.768 167 678.38 167C678.074 167 677.735 167.016 677.363 167.048C677.008 167.081 676.621 167.129 676.201 167.194C675.781 167.258 675.369 167.307 674.966 167.339C674.578 167.371 674.199 167.387 673.827 167.387C672.39 167.387 670.752 167.081 668.911 166.467C667.086 165.854 666.174 165.006 666.174 163.924C666.174 163.149 666.521 162.536 667.216 162.084C667.571 161.858 668.015 161.591 668.548 161.284C669.08 160.961 669.718 160.614 670.461 160.243C671.51 159.726 672.035 159.202 672.035 158.669ZM671.042 103.62C671.042 100.503 673.488 98.9453 678.38 98.9453C683.208 98.9453 685.622 100.503 685.622 103.62C685.622 106.72 683.143 108.27 678.187 108.27C673.424 108.27 671.042 106.72 671.042 103.62ZM693.662 143.992C693.662 139.245 694.462 134.676 696.06 130.284C697.691 125.86 700.169 122.268 703.495 119.507C706.854 116.714 710.947 115.317 715.774 115.317H729.966C733.05 115.317 735.779 115.81 738.152 116.795C740.558 117.763 741.761 119.588 741.761 122.268C741.761 123.188 741.648 124.052 741.422 124.859C741.196 125.651 740.881 126.401 740.477 127.112C740.074 127.806 739.589 128.46 739.024 129.073C738.475 129.671 737.862 130.22 737.184 130.72C735.86 131.738 734.415 132.666 732.848 133.505C731.298 134.329 729.611 135.209 727.787 136.145C726.14 136.936 724.662 137.671 723.355 138.349C722.063 139.011 720.925 139.625 719.94 140.19C717.938 141.32 716.113 142.773 714.466 144.549C712.803 146.325 711.754 148.448 711.318 150.919C714.886 152.84 718.882 153.801 723.306 153.801C727.214 153.801 730.273 153.058 732.485 151.573C734.697 150.103 736.037 148.4 736.505 146.463C738.088 146.915 739.484 147.964 740.695 149.611C741.874 151.226 742.463 152.889 742.463 154.6C742.463 156.877 741.866 159.024 740.671 161.042C739.476 163.044 737.894 164.635 735.924 165.813C733.954 167.008 731.839 167.605 729.579 167.605C728.723 167.605 727.835 167.581 726.915 167.533C726.011 167.484 725.058 167.404 724.057 167.291C722.087 167.097 720.618 167 719.649 167C718.858 167 717.51 167.097 715.605 167.291C714.636 167.404 713.748 167.484 712.941 167.533C712.133 167.581 711.391 167.605 710.712 167.605C708.533 167.605 706.393 166.968 704.295 165.692C702.179 164.401 700.323 162.657 698.724 160.461C695.35 155.827 693.662 150.338 693.662 143.992ZM706.644 147.262C707.871 143.936 709.606 141.255 711.851 139.221C714.079 137.235 716.808 135.451 720.037 133.869C723.573 131.996 725.938 130.591 727.133 129.655C728.36 128.718 728.973 127.346 728.973 125.538C728.973 122.163 725.664 120.476 719.044 120.476C713.28 120.476 709.421 122.034 707.467 125.15C705.53 128.282 704.561 132.149 704.561 136.751C704.561 141.449 705.255 144.953 706.644 147.262ZM749.753 122.655C749.753 119.846 751.255 117.917 754.258 116.867C757.245 115.834 760.506 115.317 764.042 115.317H784.168C790.255 115.317 793.298 117.101 793.298 120.67C793.298 121.332 793.177 121.937 792.935 122.486C792.709 123.035 792.378 123.503 791.942 123.891C791.506 124.278 790.973 124.585 790.344 124.811C789.714 125.021 789.012 125.126 788.237 125.126C785.427 125.126 783.845 124.302 783.49 122.655C783.49 122.026 783.425 121.501 783.296 121.081C782.892 120.678 782.23 120.476 781.31 120.476H771.09C766.924 120.476 764.841 121.404 764.841 123.261C764.841 124.327 765.616 125.231 767.166 125.973C767.958 126.345 769.047 126.813 770.436 127.378C771.824 127.943 773.528 128.597 775.546 129.34C779.55 130.809 782.561 132.117 784.58 133.263C788.632 135.556 791.692 138.075 793.759 140.82C795.809 143.548 796.883 146.987 796.98 151.137C796.98 154.237 796.374 157.046 795.163 159.565C793.985 162.067 792.314 164.037 790.15 165.474C788.035 166.895 785.678 167.605 783.078 167.605C782.513 167.605 781.77 167.573 780.85 167.509C779.93 167.46 778.824 167.379 777.532 167.266C776.24 167.153 775.062 167.057 773.996 166.976C772.93 166.895 771.962 166.839 771.09 166.806C770.476 166.806 769.685 166.839 768.716 166.903C767.748 166.968 766.585 167.065 765.229 167.194C763.889 167.323 762.718 167.42 761.717 167.484C760.716 167.565 759.868 167.605 759.174 167.605C757.479 167.605 755.897 167.347 754.427 166.83C752.974 166.314 751.707 165.571 750.625 164.602C749.543 163.617 748.679 162.439 748.034 161.066C747.388 159.678 747.033 158.12 746.968 156.392C746.968 155.052 747.17 153.89 747.573 152.905C747.977 151.904 748.55 150.903 749.293 149.902C749.664 149.401 749.979 148.957 750.237 148.57C750.512 148.166 750.738 147.811 750.916 147.504C751.271 146.907 751.448 146.164 751.448 145.276C751.448 144.565 751.214 143.742 750.746 142.805C752.102 142.402 753.555 142.2 755.105 142.2C756.93 142.2 758.561 142.918 759.998 144.355C761.435 145.792 762.153 147.52 762.153 149.538C762.153 151.573 763.017 152.897 764.745 153.51C766.472 154.108 768.652 154.406 771.284 154.406C774.028 154.406 776.483 153.946 778.646 153.026C780.81 152.073 781.891 150.418 781.891 148.061C781.891 145.752 780.269 143.467 777.023 141.207C775.909 140.497 774.739 139.843 773.512 139.245C772.898 138.922 772.067 138.511 771.017 138.01C769.968 137.51 768.7 136.896 767.215 136.17C765.729 135.443 764.333 134.765 763.025 134.135C761.733 133.489 760.514 132.868 759.368 132.27C756.123 130.591 753.701 129.073 752.102 127.717C750.536 126.361 749.753 124.674 749.753 122.655Z" fill="white"/>
<g clip-path="url(#clip1_529_150924)">
<path d="M1044.97 76.4006C1044.97 74.6175 1044.98 73.021 1044.97 71.4231C1044.96 69.4825 1044.15 68.2986 1042.39 67.6177C1040.83 67.0112 1039.56 67.4719 1038.99 69.0757C1038.62 70.1051 1038.49 71.2437 1038.4 72.346C1038.27 73.89 1038.33 75.4515 1038.19 76.9955C1037.96 79.5426 1037.12 81.9249 1036.02 84.2169C1032.54 91.4572 1027.66 97.6303 1021.71 103.002C1018.25 106.145 1014.43 108.86 1010.32 111.089C1004.65 114.151 998.653 116.102 992.194 116.689C985.196 117.325 978.418 116.298 971.753 114.31C963.869 111.956 956.583 108.285 949.56 104.066C949.324 103.942 949.138 103.74 949.036 103.494C949.328 103.64 949.64 103.76 949.925 103.923C957.398 108.195 965.282 111.488 973.777 113.072C985.498 115.259 996.832 114.03 1007.58 108.654C1012.82 106.03 1017.26 102.417 1020.3 97.3752C1025.83 88.1782 1026.01 78.764 1020.62 69.4563C1018.05 65.0109 1014.02 62.2319 1008.96 61.1457C1007.76 60.8891 1006.45 61.0087 1005.22 61.1749C1004.49 61.2726 1003.77 61.7289 1003.14 62.1678C1002.96 62.309 1002.82 62.4855 1002.71 62.6862C1002.6 62.8868 1002.54 63.1074 1002.52 63.3342C1002.52 63.5412 1003.15 63.8736 1003.54 63.9494C1004.82 64.2218 1006.12 64.4214 1007.43 64.5472C1011.06 64.8388 1013.69 66.7007 1015.71 69.6137C1017.13 71.6636 1017.9 73.957 1018.22 76.3846C1019.31 84.3773 1016.86 91.361 1011.89 97.5254C1008.53 101.707 1003.99 104.204 998.99 105.941C998.961 105.951 998.91 105.903 998.777 105.831L999.37 105.046C1002.7 100.65 1001.93 95.2873 997.461 91.9734C996.993 91.6259 996.496 91.3191 995.975 91.0563C995.501 90.8186 995.219 91.0402 995.238 91.5637C995.251 91.95 995.324 92.3335 995.365 92.7198C995.598 94.9068 995.612 97.0938 995.038 99.2341C994.119 102.657 991.972 105.156 988.965 106.931C986.061 108.645 982.881 109.456 979.519 109.628C973.241 109.947 967.383 108.26 961.652 105.971C955.165 103.382 949.08 100.002 943.278 96.1563C936.182 91.4718 929.219 86.5759 922.21 81.7529C917.684 78.6386 913.189 75.4836 908.254 73.005C901.355 69.5452 894.113 67.2226 886.409 66.5899C876.985 65.8142 868.089 67.4923 860.088 72.8213C856.651 75.1103 853.705 77.9082 851.36 81.3155C847.602 86.7786 846.343 92.8044 847.31 99.3449C847.985 103.865 849.783 107.819 853.225 110.913C857.021 114.321 861.437 115.839 866.537 115.053C873.242 114.02 876.565 108.258 877.079 103.398C877.475 99.6598 876.38 96.3633 873.931 93.5538C868.643 87.4871 861.017 91.119 859.262 96.6243C857.729 101.436 860.722 106.483 865.727 107.211C866.657 107.346 867.648 107.113 868.605 107.001C869.025 106.953 869.431 106.778 869.901 106.776C868.7 108.454 867.072 109.443 865.015 109.595C861.592 109.848 858.82 108.419 856.664 105.899C852.607 101.153 851.776 95.6781 853.412 89.7645C854.241 86.764 855.807 84.1425 857.837 81.7966C862.584 76.3102 868.567 73.3082 875.809 72.6317C882.005 72.0485 887.927 73.1347 893.697 75.2342C899.975 77.5204 905.567 81.0181 910.78 85.1485C911.53 85.7434 911.789 86.3951 911.625 87.2918C911.416 88.4377 911.251 89.5925 911.022 90.7355C910.931 91.1133 910.78 91.4738 910.572 91.8028C910.24 92.367 909.929 92.351 909.664 91.7736C909.529 91.4615 909.421 91.1381 909.343 90.807C908.304 86.6488 905.508 84.0375 901.765 82.2982C900.513 81.715 899.229 81.1566 897.87 80.8708L897.671 81.1624C897.987 81.489 898.309 81.8068 898.613 82.1422C899.781 83.4383 901.035 84.6747 902.09 86.0612C903.084 87.3661 903.808 88.8518 903.823 90.7268C902.929 90.4847 902.625 89.8432 902.298 89.3009C900.317 86.0204 897.553 83.5316 894.386 81.4627C890.405 78.8632 886.036 77.3877 881.287 76.9226C876.661 76.4706 872.144 76.8628 867.767 78.4024C864.09 79.6942 860.839 81.6844 858.276 84.6893C856.016 87.337 854.918 90.4498 854.48 93.8469C854.397 94.5029 854.358 95.159 854.283 95.9872C854.991 95.6548 854.947 95.0963 855.133 94.6925C855.905 93.0202 856.513 91.2546 857.437 89.6727C860.366 84.6645 864.904 81.9818 870.564 81.2163C876.893 80.3649 882.845 81.6698 888.407 84.7767C892.642 87.1387 895.655 90.5839 897.606 94.9972C898.724 97.5312 899.796 100.084 901.009 102.579C901.966 104.613 903.403 106.385 905.197 107.743C907.544 109.492 910.004 109.656 912.589 108.309C916.128 106.463 918.084 102.399 917.515 98.0765C917.124 95.0993 916.124 92.3262 914.703 89.6945C914.291 88.932 913.856 88.1811 913.56 87.2699C913.939 87.5236 914.351 87.7408 914.693 88.0368C917.635 90.5795 920.57 93.131 923.497 95.6912C932.359 103.395 941.634 110.554 951.914 116.288C960.372 121.006 969.288 124.583 978.925 126.143C988.835 127.746 998.593 127.079 1008.25 124.402C1013.8 122.864 1019.1 120.681 1024.41 118.49C1029.31 116.465 1034.28 114.616 1039.48 113.474C1043.54 112.58 1047.65 112.2 1051.79 112.713C1054.97 113.108 1057.92 114.206 1060.53 116.131C1060.88 116.39 1061.23 116.65 1061.59 116.895C1061.66 116.938 1061.77 116.914 1062.01 116.931C1061.86 116.591 1061.77 116.287 1061.6 116.034C1058.03 110.624 1053.11 107.287 1046.6 106.502C1041.89 105.936 1037.26 106.525 1032.79 108.033C1029.57 109.119 1026.44 110.461 1023.26 111.69C1022.83 111.856 1022.41 112.034 1021.86 111.993C1022.22 111.69 1022.57 111.378 1022.94 111.085C1030.67 104.933 1037.57 98.0152 1043.28 89.9132C1045.85 86.2683 1048.61 82.7341 1051.45 79.286C1054.11 76.0351 1057.31 73.28 1060.93 71.149C1069.41 66.1845 1080.02 67.6309 1086.76 74.7167C1089.11 77.1952 1090.43 80.1783 1090.94 83.5331C1091.2 85.2136 1091.21 86.9236 1090.97 88.6069C1090.25 93.5815 1086.08 98.3331 1081.22 99.5315C1079.53 99.95 1077.83 99.794 1076.19 99.205C1073.55 98.2529 1071.66 96.4348 1070.35 93.9854C1070.23 93.7506 1070.19 93.4736 1070.01 92.9006C1070.41 93.2272 1070.56 93.3205 1070.68 93.4517C1072.81 95.9916 1075.54 97.0121 1078.76 96.2686C1081.97 95.525 1084.13 93.3745 1085.2 90.2821C1086.45 86.659 1084.26 82.2719 1080.53 80.6929C1077.48 79.4026 1074.54 79.6825 1071.72 81.3665C1065.67 84.975 1063.98 92.768 1068.17 98.6115C1071.39 103.118 1075.92 105.054 1081.47 104.589C1088.96 103.968 1096.5 97.8301 1097.77 88.3838C1098.7 81.4817 1096.81 75.345 1092.21 70.159C1086.12 63.3196 1078.31 60.8192 1069.34 61.7289C1062.38 62.4288 1056.61 65.7559 1051.47 70.2683C1049.28 72.1827 1047.24 74.2516 1044.97 76.4006ZM945.855 101.386C945.796 101.487 945.738 101.589 945.681 101.691L941.921 99.2895L942.086 99.0344L945.855 101.386Z" fill="white"/>
</g>
</g>
<defs>
<filter id="filter0_d_529_150924" x="0" y="-1" width="1106" height="202" filterUnits="userSpaceOnUse" color-interpolation-filters="sRGB">
<feFlood flood-opacity="0" result="BackgroundImageFix"/>
<feColorMatrix in="SourceAlpha" type="matrix" values="0 0 0 0 0 0 0 0 0 0 0 0 0 0 0 0 0 0 127 0" result="hardAlpha"/>
<feOffset dy="6"/>
<feGaussianBlur stdDeviation="4"/>
<feComposite in2="hardAlpha" operator="out"/>
<feColorMatrix type="matrix" values="0 0 0 0 0 0 0 0 0 0 0 0 0 0 0 0 0 0 0.25 0"/>
<feBlend mode="normal" in2="BackgroundImageFix" result="effect1_dropShadow_529_150924"/>
<feBlend mode="normal" in="SourceGraphic" in2="effect1_dropShadow_529_150924" result="shape"/>
</filter>
<clipPath id="clip0_529_150924">
<rect width="251" height="66" fill="white" transform="translate(8 61)"/>
</clipPath>
<clipPath id="clip1_529_150924">
<rect width="251" height="66" fill="white" transform="matrix(-1 0 0 1 1098 61)"/>
</clipPath>
</defs>
</svg>
