<svg width="139" height="38" viewBox="0 0 139 38" fill="none" xmlns="http://www.w3.org/2000/svg">
<g clip-path="url(#clip0_361_91946)">
<path d="M109.345 9.31011C109.345 8.32837 109.349 7.44937 109.345 6.56957C109.339 5.50113 108.894 4.84931 107.929 4.47443C107.068 4.14049 106.371 4.39415 106.056 5.27716C105.854 5.8439 105.785 6.47083 105.735 7.0777C105.662 7.9278 105.695 8.78753 105.619 9.63763C105.494 11.04 105.03 12.3517 104.425 13.6136C102.512 17.6 99.8272 20.9988 96.5584 23.956C94.6579 25.6866 92.5556 27.1817 90.2971 28.4088C87.18 30.0946 83.8808 31.1686 80.3295 31.4921C76.482 31.8421 72.7557 31.277 69.0912 30.1821C64.7564 28.8864 60.7508 26.8652 56.8896 24.542C56.7597 24.4741 56.6577 24.3627 56.6014 24.2274C56.762 24.3076 56.9337 24.3735 57.0903 24.4634C61.1987 26.8154 65.5335 28.6288 70.2038 29.5005C76.6481 30.7046 82.8798 30.0279 88.7911 27.0682C91.6722 25.6233 94.1125 23.6341 95.7806 20.8583C98.8237 15.7946 98.9209 10.6113 95.9572 5.48668C94.546 3.03914 92.3288 1.50912 89.5481 0.911082C88.8899 0.7698 88.1658 0.835624 87.4891 0.927136C87.0877 0.98092 86.6928 1.23218 86.3492 1.4738C86.251 1.55157 86.1699 1.64872 86.111 1.75921C86.052 1.8697 86.0164 1.99115 86.0064 2.11599C86.0064 2.22998 86.354 2.413 86.5684 2.45474C87.2741 2.60469 87.9878 2.71457 88.706 2.78387C90.7033 2.94441 92.1482 3.96951 93.2576 5.57337C94.037 6.70202 94.4617 7.96473 94.6407 9.30128C95.2355 13.7019 93.8893 17.547 91.1576 20.941C89.3113 23.2432 86.814 24.6183 84.0662 25.5744C84.0502 25.58 84.0221 25.5535 83.949 25.5141L84.2749 25.0815C86.1076 22.6612 85.6805 19.7088 83.2258 17.8841C82.9683 17.6928 82.6949 17.5239 82.4086 17.3792C82.1477 17.2484 81.9928 17.3704 82.0032 17.6586C82.0104 17.8713 82.0506 18.0824 82.073 18.2951C82.2015 19.4992 82.2087 20.7033 81.8932 21.8818C81.3883 23.7666 80.2075 25.1425 78.5546 26.1194C76.958 27.0634 75.2096 27.5098 73.3609 27.6045C69.9092 27.7803 66.6886 26.8515 63.5379 25.5912C59.9713 24.1656 56.6255 22.3048 53.4354 20.1872C49.5341 17.608 45.7059 14.9124 41.8527 12.257C39.3643 10.5423 36.8926 8.80519 34.1794 7.44054C30.3865 5.53565 26.4049 4.25689 22.1688 3.9085C16.988 3.48144 12.0969 4.40539 7.69792 7.33939C5.80827 8.59969 4.18835 10.1401 2.89915 12.0161C0.832916 15.024 0.140961 18.3417 0.672363 21.9428C1.04323 24.4313 2.03221 26.6083 3.92426 28.3117C6.01137 30.1885 8.43964 31.0241 11.2436 30.5915C14.9298 30.0223 16.7568 26.8499 17.0394 24.1744C17.2569 22.1162 16.6548 20.3012 15.3087 18.7543C12.4011 15.4141 8.20845 17.4137 7.24356 20.4449C6.4007 23.0939 8.04631 25.873 10.7981 26.2735C11.3094 26.3482 11.8545 26.2198 12.3803 26.1579C12.6115 26.1315 12.8346 26.0351 13.0931 26.0343C12.4325 26.9583 11.5374 27.5025 10.4064 27.586C8.52473 27.7257 7.00034 26.939 5.81549 25.5511C3.58469 22.9382 3.12794 19.9239 4.02701 16.668C4.48296 15.016 5.3443 13.5726 6.4601 12.281C9.06979 9.26034 12.3594 7.60751 16.341 7.23504C19.7478 6.91394 23.0037 7.51198 26.1761 8.66792C29.6279 9.92661 32.7023 11.8524 35.5681 14.1265C35.9807 14.454 36.1228 14.8129 36.0329 15.3066C35.9181 15.9375 35.8274 16.5733 35.7014 17.2026C35.6515 17.4106 35.568 17.6091 35.4541 17.7902C35.2711 18.1009 35.1001 18.092 34.9548 17.7742C34.8803 17.6023 34.8212 17.4242 34.7782 17.2419C34.2067 14.9525 32.6694 13.5148 30.612 12.5572C29.9233 12.2361 29.2177 11.9286 28.4703 11.7713L28.3612 11.9318C28.5345 12.1117 28.7119 12.2867 28.8789 12.4713C29.5211 13.1849 30.2106 13.8656 30.7902 14.629C31.3369 15.3475 31.7351 16.1655 31.7431 17.1978C31.2518 17.0645 31.0848 16.7113 30.905 16.4127C29.8157 14.6066 28.2961 13.2363 26.555 12.0972C24.3659 10.6659 21.9641 9.85356 19.3528 9.59749C16.8098 9.34864 14.3261 9.56458 11.9195 10.4123C9.89821 11.1235 8.11052 12.2192 6.70172 13.8737C5.45909 15.3314 4.85542 17.0453 4.61461 18.9157C4.56885 19.2769 4.54718 19.6381 4.50624 20.0941C4.89557 19.911 4.87148 19.6036 4.97342 19.3812C5.39807 18.4605 5.73201 17.4884 6.24014 16.6174C7.85043 13.86 10.3453 12.383 13.4576 11.9615C16.9374 11.4928 20.2094 12.2112 23.2678 13.9218C25.5957 15.2223 27.2526 17.1191 28.325 19.549C28.9399 20.9442 29.5291 22.3498 30.1962 23.7232C30.7225 24.8432 31.5125 25.8188 32.4985 26.5665C33.7893 27.5298 35.1419 27.6197 36.5627 26.878C38.5085 25.8617 39.5842 23.6245 39.2711 21.2444C39.056 19.6052 38.5061 18.0784 37.7251 16.6295C37.4987 16.2096 37.2595 15.7962 37.0965 15.2945C37.3052 15.4342 37.5316 15.5538 37.7195 15.7168C39.3372 17.1167 40.9507 18.5215 42.56 19.9311C47.4326 24.1728 52.5315 28.1142 58.1836 31.2714C62.8339 33.869 67.7362 35.8381 73.0342 36.6971C78.4832 37.5801 83.8479 37.2124 89.1588 35.7386C92.2092 34.8917 95.1247 33.69 98.0419 32.4835C100.738 31.3685 103.468 30.3506 106.327 29.7221C108.563 29.23 110.822 29.0205 113.096 29.3031C114.845 29.5206 116.467 30.1251 117.899 31.1847C118.093 31.3276 118.287 31.4705 118.486 31.6053C118.522 31.6294 118.584 31.6157 118.712 31.6254C118.632 31.4383 118.583 31.2706 118.492 31.1317C116.525 28.1527 113.82 26.3153 110.243 25.8834C107.653 25.5719 105.106 25.8963 102.65 26.7263C100.88 27.3243 99.1561 28.0628 97.4117 28.7395C97.1709 28.8311 96.9405 28.929 96.6419 28.9065C96.8394 28.7395 97.0328 28.5678 97.2343 28.4064C101.482 25.0197 105.278 21.2107 108.416 16.7499C109.83 14.743 111.35 12.7972 112.911 10.8987C114.369 9.10887 116.133 7.59198 118.121 6.41866C122.785 3.68534 128.618 4.48165 132.321 8.38295C133.615 9.7476 134.338 11.39 134.621 13.2371C134.765 14.1623 134.77 15.1039 134.636 16.0306C134.244 18.7696 131.949 21.3857 129.277 22.0455C128.346 22.2759 127.412 22.19 126.513 21.8657C125.061 21.3415 124.018 20.3405 123.302 18.9919C123.234 18.8627 123.212 18.7102 123.114 18.3947C123.332 18.5745 123.418 18.6259 123.479 18.6981C124.655 20.0965 126.155 20.6584 127.923 20.249C129.691 19.8396 130.876 18.6556 131.464 16.953C132.15 14.9582 130.947 12.5427 128.895 11.6734C127.221 10.9629 125.604 11.1171 124.054 12.0442C120.726 14.031 119.799 18.3216 122.101 21.539C123.874 24.0203 126.361 25.0863 129.412 24.8302C133.531 24.4883 137.677 21.1087 138.375 15.9078C138.886 12.1076 137.85 8.72893 135.316 5.8736C131.97 2.10796 127.679 0.731269 122.742 1.23218C118.915 1.61749 115.746 3.44933 112.917 5.9338C111.717 6.9878 110.592 8.12688 109.345 9.31011ZM54.8522 23.0666C54.8201 23.122 54.788 23.1782 54.7567 23.2344L52.6897 21.9123L52.7804 21.7718L54.8522 23.0666Z" fill="#2B4A5C"/>
</g>
<defs>
<clipPath id="clip0_361_91946">
<rect width="138" height="36.3383" fill="white" transform="matrix(-1 0 0 1 138.502 0.830811)"/>
</clipPath>
</defs>
</svg>
